<?xml version="1.0" encoding="utf-8"?>
<!-- Generator: Adobe Illustrator 16.0.0, SVG Export Plug-In . SVG Version: 6.00 Build 0)  -->
<!DOCTYPE svg PUBLIC "-//W3C//DTD SVG 1.1//EN" "http://www.w3.org/Graphics/SVG/1.1/DTD/svg11.dtd">
<svg version="1.1" id="Layer_1" xmlns="http://www.w3.org/2000/svg" xmlns:xlink="http://www.w3.org/1999/xlink" x="0px" y="0px"
	 width="38px" height="38px" viewBox="0 0 38 38" enable-background="new 0 0 38 38" xml:space="preserve">
<g>
	<path fill="#FF681F" d="M22.49,22.602c0.24-0.505,0.413-1.046,0.509-1.615l5.089,0.001l0.057-1.484H23.09v-1.615h5.057v-4.742
		c0-2.214-0.787-4.245-2.098-5.828c-1.158-1.401-2.728-2.448-4.523-2.962C20.723,4.125,19.876,3.999,19,3.999
		c-5.05,0-9.147,4.095-9.147,9.146v4.744l5.094,0v1.614l-5.094-0.001v1.485h5.186c0.095,0.569,0.268,1.11,0.508,1.614H9.937
		c0.601,4.47,4.428,7.918,9.062,7.918c0.046,0,0.091-0.006,0.138-0.007l1.937,3.486l3.652-4.364c1.432-1.863,3.208-4.874,3.29-6.799
		l0.009-0.235L22.49,22.602z"/>
</g>
</svg>
