<svg xmlns="http://www.w3.org/2000/svg" x="0px" y="0px" width="38px" height="38px" viewBox="0 0 38 38" enable-background="new 0 0 38 38" xml:space="preserve">
<path fill="#000000" d="M33.837,14.797c-0.111-0.108-0.261-0.168-0.42-0.168c-0.16,0-0.311,0.061-0.424,0.17l-0.156,0.154
	c-3.587,3.494-15.425,15.018-17.129,16.617c-0.833,0.786-2.354,1.274-3.971,1.274c-0.134,0-0.267-0.003-0.4-0.01
	c-1.754-0.089-3.226-0.73-4.146-1.805c-1.52-1.767-3.546-5.243-0.036-8.672C10.833,18.777,23.38,6.647,24.265,5.891
	c0.321-0.275,1.173-0.74,2.333-0.74c1.078,0,2.123,0.401,3.106,1.191c2.384,1.923,1.813,4.714,1.192,5.451
	c-0.728,0.879-15.368,14.825-16.704,15.989c-0.315,0.271-0.725,0.415-1.182,0.415c-0.054,0-0.108-0.002-0.164-0.006
	c-0.551-0.043-1.06-0.295-1.394-0.692c-0.814-0.967-0.751-1.948,0.196-3c1.253-1.398,10.496-10.121,10.588-10.209
	c0.114-0.107,0.179-0.251,0.181-0.406c0.002-0.154-0.059-0.299-0.17-0.41c-0.113-0.112-0.265-0.174-0.428-0.174
	c-0.155,0-0.304,0.058-0.415,0.164c-0.96,0.905-9.412,8.89-10.655,10.277c-1.333,1.479-1.412,3.073-0.22,4.486
	c0.537,0.639,1.347,1.044,2.221,1.112c0.09,0.007,0.179,0.011,0.266,0.011c0.738,0,1.438-0.251,1.97-0.709
	c0.862-0.75,15.979-15.086,16.839-16.124c1.042-1.241,1.496-4.761-1.358-7.063C29.282,4.503,27.937,4,26.573,4
	c-1.399,0-2.519,0.53-3.099,1.026C22.538,5.827,9.446,18.49,6.31,21.546c-3.049,2.978-3.062,6.704-0.036,10.222
	c1.136,1.325,2.911,2.113,5.001,2.22C11.433,33.995,11.592,34,11.749,34c1.938,0,3.729-0.599,4.789-1.602
	c1.858-1.742,15.702-15.226,17.302-16.785c0.112-0.109,0.174-0.254,0.174-0.409C34.013,15.05,33.95,14.906,33.837,14.797z"/>
</svg>
