<svg xmlns="http://www.w3.org/2000/svg" x="0px" y="0px" width="38px" height="38px" viewBox="0 0 38 38" enable-background="new 0 0 38 38" xml:space="preserve">
<path fill="#afb6c4" d="M14.25,18.604c-1.091,0-1.979,0.886-1.979,1.979c0,1.092,0.888,1.979,1.979,1.979s1.979-0.888,1.979-1.979
	C16.229,19.49,15.341,18.604,14.25,18.604z M23.75,18.604c-1.091,0-1.979,0.886-1.979,1.979c0,1.092,0.888,1.979,1.979,1.979
	s1.979-0.888,1.979-1.979C25.729,19.49,24.841,18.604,23.75,18.604z M19,3.167C10.26,3.167,3.166,10.26,3.166,19
	c0,8.739,7.094,15.833,15.834,15.833S34.834,27.739,34.834,19C34.834,10.26,27.74,3.167,19,3.167z M19,31.667
	c-6.982,0-12.666-5.685-12.666-12.667c0-0.459,0.029-0.919,0.078-1.361c3.736-1.663,6.696-4.719,8.249-8.503
	c2.866,4.054,7.583,6.697,12.92,6.697c1.237,0,2.425-0.142,3.563-0.411c0.333,1.125,0.522,2.328,0.522,3.578
	C31.666,25.982,25.982,31.667,19,31.667z"/>
</svg>