<?xml version="1.0" encoding="utf-8"?>
<!-- Generator: Adobe Illustrator 16.0.0, SVG Export Plug-In . SVG Version: 6.00 Build 0)  -->
<!DOCTYPE svg PUBLIC "-//W3C//DTD SVG 1.1//EN" "http://www.w3.org/Graphics/SVG/1.1/DTD/svg11.dtd">
<svg version="1.1" id="Layer_1" xmlns="http://www.w3.org/2000/svg" xmlns:xlink="http://www.w3.org/1999/xlink" x="0px" y="0px"
	 width="38px" height="38px" viewBox="0 0 38 38" enable-background="new 0 0 38 38" xml:space="preserve">
<g>
	<path fill="#707070" d="M9.808,9.808c5.068-5.068,13.316-5.068,18.385,0s5.068,13.316,0,18.385s-13.316,5.068-18.385,0
		S4.739,14.876,9.808,9.808 M8.394,8.394c-5.858,5.857-5.858,15.355,0,21.213c5.857,5.858,15.355,5.858,21.213,0
		c5.858-5.857,5.858-15.355,0-21.213C23.749,2.535,14.251,2.535,8.394,8.394L8.394,8.394z"/>
</g>
<path fill="#707070" d="M25.363,12.637c0.391,0.391,0.391,1.022,0,1.414L14.05,25.364c-0.39,0.39-1.023,0.391-1.414,0l0,0
	c-0.39-0.391-0.39-1.024,0-1.414l11.313-11.313C24.34,12.245,24.973,12.246,25.363,12.637L25.363,12.637z"/>
<path fill="#707070" d="M25.363,25.364c-0.391,0.391-1.022,0.391-1.414,0L12.636,14.05c-0.39-0.39-0.392-1.022,0-1.414l0,0
	c0.391-0.391,1.024-0.39,1.414,0L25.363,23.95C25.755,24.341,25.754,24.974,25.363,25.364L25.363,25.364z"/>
</svg>
