<?xml version="1.0" encoding="utf-8"?>
<!-- Generator: Adobe Illustrator 16.0.0, SVG Export Plug-In . SVG Version: 6.00 Build 0)  -->
<!DOCTYPE svg PUBLIC "-//W3C//DTD SVG 1.1//EN" "http://www.w3.org/Graphics/SVG/1.1/DTD/svg11.dtd">
<svg version="1.1" id="Layer_1" xmlns="http://www.w3.org/2000/svg" xmlns:xlink="http://www.w3.org/1999/xlink" x="0px" y="0px"
	 width="38px" height="38px" viewBox="0 0 38 38" enable-background="new 0 0 38 38" xml:space="preserve">
<g>
	<g>
		<path fill="#E3E7F2" d="M7.313,4.854c-1.015,0-1.839,0.832-1.839,1.854l-0.014,24.87l4.206-5.061h21.02
			c1.021,0,1.854-0.832,1.854-1.854V6.707c-0.001-1.021-0.832-1.853-1.854-1.853H7.313z"/>
		<g>
			<path fill="#A4C2F7" d="M32.54,24.664l-3.421,1.71V8.417c0-0.071-0.069-0.142-0.143-0.142H5.604l0.854-3.421h21.663
				c2.905,0,4.417,1.51,4.419,4.417V24.664z"/>
		</g>
		<path fill="#428DFF" d="M29.832,4H8.169c-1.958,0-3.55,1.598-3.55,3.563L4.604,34l6.627-6.628h18.602
			c1.965,0,3.563-1.598,3.563-3.563V7.563C33.395,5.598,31.796,4,29.832,4z M31.685,23.81c0,1.021-0.831,1.853-1.853,1.853h-19.31
			l-4.205,4.205L6.329,7.563c0-1.022,0.825-1.854,1.84-1.854h21.663c1.021,0,1.852,0.831,1.853,1.853V23.81z"/>
	</g>
	<rect x="10.877" y="14.831" fill="#428DFF" width="16.247" height="1.711"/>
	<rect x="10.877" y="18.893" fill="#428DFF" width="10.831" height="1.711"/>
	<rect x="10.877" y="10.769" fill="#428DFF" width="16.247" height="1.711"/>
</g>
</svg>
