<?xml version="1.0" encoding="utf-8"?>
<!-- Generator: Adobe Illustrator 16.0.0, SVG Export Plug-In . SVG Version: 6.00 Build 0)  -->
<!DOCTYPE svg PUBLIC "-//W3C//DTD SVG 1.1//EN" "http://www.w3.org/Graphics/SVG/1.1/DTD/svg11.dtd">
<svg version="1.1" id="Layer_1" xmlns="http://www.w3.org/2000/svg" xmlns:xlink="http://www.w3.org/1999/xlink" x="0px" y="0px"
	 width="38px" height="38px" viewBox="0 0 38 38" enable-background="new 0 0 38 38" xml:space="preserve">
<g>
	<g>
		<g>
			<path d="M4.605,34L4.62,7.563C4.62,5.599,6.211,4,8.169,4h21.663c1.963,0,3.563,1.598,3.563,3.563v16.246
				c0,1.965-1.598,3.563-3.563,3.563H11.231L4.605,34z M8.169,5.711c-1.014,0-1.839,0.832-1.839,1.853L6.317,29.868l4.206-4.205
				h19.309c1.021,0,1.854-0.832,1.854-1.854V7.563c-0.002-1.021-0.832-1.852-1.854-1.852H8.169z"/>
		</g>
	</g>
	<rect x="10.877" y="14.832" width="16.246" height="1.71"/>
	<rect x="10.877" y="18.894" width="10.832" height="1.711"/>
	<rect x="10.877" y="10.77" width="16.246" height="1.71"/>
</g>
</svg>
