<?xml version="1.0" encoding="utf-8"?>
<!-- Generator: Adobe Illustrator 16.0.0, SVG Export Plug-In . SVG Version: 6.00 Build 0)  -->
<!DOCTYPE svg PUBLIC "-//W3C//DTD SVG 1.1//EN" "http://www.w3.org/Graphics/SVG/1.1/DTD/svg11.dtd">
<svg version="1.1" id="Layer_1" xmlns="http://www.w3.org/2000/svg" xmlns:xlink="http://www.w3.org/1999/xlink" x="0px" y="0px"
	 width="38px" height="38.012px" viewBox="0 0 38 38.012" enable-background="new 0 0 38 38.012" xml:space="preserve">
<g>
	<path opacity="0.15" fill="#5D5F60" d="M31.309,34H6.117c-0.466,0-0.629-0.279-0.678-0.397c-0.239-0.592,0.418-1.269,2.358-3.138
		c1.18-1.139,3.158-3.045,3.158-3.654v-4.583c0-0.265,0.216-0.479,0.48-0.479s0.479,0.214,0.479,0.479v4.583
		c0,0.946-1.368,2.334-3.454,4.348c-0.634,0.611-1.444,1.394-1.856,1.883h24.703c1.344,0,2.438-1.094,2.438-2.438V14.417
		c0-1.344-1.094-2.438-2.438-2.438h-9.869c-0.265,0-0.479-0.214-0.479-0.479c0-0.266,0.215-0.479,0.479-0.479h9.869
		c1.873,0,3.396,1.525,3.396,3.396v16.185C34.704,32.477,33.182,34,31.309,34z"/>
	<path fill="#5D5F60" d="M30.003,32.695H4.813c-0.465,0-0.628-0.277-0.678-0.396c-0.239-0.592,0.418-1.27,2.358-3.137
		c1.18-1.14,3.159-3.046,3.159-3.654v-4.583c0-0.266,0.215-0.479,0.479-0.479c0.264,0,0.479,0.215,0.479,0.479v4.583
		c0,0.946-1.367,2.333-3.453,4.346c-0.634,0.612-1.445,1.395-1.857,1.883h24.702c1.344,0,2.438-1.093,2.438-2.438V13.113
		c0-1.345-1.094-2.438-2.438-2.438h-9.868c-0.265,0-0.479-0.214-0.479-0.48c0-0.265,0.215-0.479,0.479-0.479h9.868
		c1.874,0,3.396,1.524,3.396,3.396v16.185C33.4,31.172,31.877,32.695,30.003,32.695z"/>
	<circle fill="#939393" cx="10.628" cy="14.103" r="0.78"/>
	<path fill="#939393" d="M10.608,12.483c-0.251,0-0.462-0.193-0.479-0.447c-0.068-1.012,0.267-1.433,0.656-1.918
		C10.886,9.987,11,9.846,11.122,9.675c0.186-0.261,0.39-0.642,0.322-0.972c-0.043-0.206-0.199-0.396-0.468-0.563
		C10.304,7.728,9.29,8.268,9.278,8.272c-0.232,0.13-0.523,0.045-0.651-0.188C8.499,7.851,8.584,7.562,8.815,7.433
		c0.062-0.033,1.511-0.82,2.665-0.107c0.504,0.309,0.808,0.709,0.905,1.185c0.11,0.535-0.052,1.114-0.479,1.717
		c-0.135,0.19-0.259,0.348-0.371,0.488c-0.356,0.448-0.491,0.615-0.448,1.254c0.019,0.266-0.183,0.493-0.447,0.512
		C10.63,12.483,10.619,12.483,10.608,12.483z"/>
	<path fill="#939393" d="M10.491,4c-3.974,0-7.195,3.221-7.195,7.193c0,3.976,3.222,7.196,7.195,7.196
		c3.973,0,7.195-3.222,7.195-7.196C17.687,7.221,14.465,4,10.491,4z M10.491,4.96c3.438,0,6.235,2.798,6.235,6.233
		c0,3.439-2.798,6.236-6.235,6.236c-3.439,0-6.235-2.798-6.235-6.236C4.256,7.756,7.052,4.96,10.491,4.96"/>
	<path fill="#5D5F60" d="M28.956,17.504H18.7c-0.265,0-0.48-0.216-0.48-0.48c0-0.264,0.216-0.479,0.48-0.479h10.256
		c0.265,0,0.479,0.214,0.479,0.479C29.436,17.289,29.221,17.504,28.956,17.504z"/>
	<path fill="#5D5F60" d="M28.956,22.457H13.902c-0.264,0-0.479-0.214-0.479-0.479s0.215-0.479,0.479-0.479h15.054
		c0.265,0,0.479,0.215,0.479,0.479C29.438,22.243,29.221,22.457,28.956,22.457z"/>
	<path fill="#5D5F60" d="M28.956,27.411l-15.054-0.002c-0.264,0-0.479-0.215-0.479-0.479c0-0.267,0.215-0.479,0.479-0.479
		l15.054,0.001c0.265,0,0.479,0.215,0.479,0.479S29.221,27.411,28.956,27.411z"/>
</g>
</svg>
