<?xml version="1.0" encoding="utf-8"?>
<!-- Generator: Adobe Illustrator 16.0.0, SVG Export Plug-In . SVG Version: 6.00 Build 0)  -->
<!DOCTYPE svg PUBLIC "-//W3C//DTD SVG 1.1//EN" "http://www.w3.org/Graphics/SVG/1.1/DTD/svg11.dtd">
<svg version="1.1" id="Layer_1" xmlns="http://www.w3.org/2000/svg" xmlns:xlink="http://www.w3.org/1999/xlink" x="0px" y="0px"
	 width="38px" height="38px" viewBox="0 0 38 38" enable-background="new 0 0 38 38" xml:space="preserve">
<g opacity="0.3">
	<g>
		<path fill="#5D5F60" d="M24.162,7.922h5.09v5.091c0,0.263,0.213,0.476,0.477,0.476c0.263,0,0.476-0.213,0.476-0.476V6.97h-6.042
			c-0.262,0-0.477,0.214-0.477,0.478C23.686,7.71,23.898,7.922,24.162,7.922z"/>
		<path fill="#5D5F60" d="M34.662,20.288L19.625,5.25L4.588,20.288c-0.186,0.187-0.186,0.487,0,0.673
			c0.187,0.188,0.487,0.188,0.674,0l2.924-2.924V34h8.54v-8.296h5.479V34h8.669V17.844l3.115,3.117
			c0.094,0.092,0.216,0.139,0.338,0.139c0.121,0,0.242-0.047,0.336-0.139C34.848,20.775,34.848,20.475,34.662,20.288z
			 M29.922,16.958v16.09h-6.768v-8.296h-7.381v8.296H9.137V17.085L19.625,6.596l10.307,10.309
			C29.93,16.922,29.922,16.938,29.922,16.958z"/>
	</g>
	<g>
		<path fill="#5D5F60" d="M19.691,14.568c1.05,0,1.904,0.854,1.904,1.903c0,1.049-0.854,1.903-1.904,1.903
			c-1.049,0-1.903-0.854-1.903-1.903C17.788,15.422,18.644,14.568,19.691,14.568 M19.691,13.617c-1.576,0-2.855,1.277-2.855,2.854
			c0,1.577,1.279,2.855,2.855,2.855s2.855-1.278,2.855-2.855C22.547,14.894,21.27,13.617,19.691,13.617L19.691,13.617z"/>
	</g>
</g>
<g>
	<g>
		<path fill="#5D5F60" d="M22.912,6.672h5.09v5.091c0,0.263,0.213,0.476,0.477,0.476c0.263,0,0.476-0.213,0.476-0.476V5.72h-6.042
			c-0.262,0-0.477,0.214-0.477,0.478C22.436,6.46,22.648,6.672,22.912,6.672z"/>
		<path fill="#5D5F60" d="M33.412,19.038L18.375,4L3.338,19.038c-0.186,0.186-0.186,0.487,0,0.673c0.187,0.188,0.487,0.188,0.674,0
			l2.924-2.924V32.75h8.54v-8.296h5.479v8.296h8.669V16.594l3.115,3.117c0.094,0.092,0.216,0.139,0.338,0.139
			c0.121,0,0.242-0.047,0.336-0.139C33.598,19.525,33.598,19.224,33.412,19.038z M28.672,15.708v16.09h-6.768v-8.296h-7.381v8.296
			H7.887V15.835L18.375,5.346l10.307,10.309C28.68,15.672,28.672,15.688,28.672,15.708z"/>
	</g>
	<g>
		<path fill="#5D5F60" d="M18.442,13.318c1.049,0,1.903,0.854,1.903,1.903c0,1.049-0.854,1.903-1.903,1.903
			c-1.05,0-1.904-0.854-1.904-1.903C16.538,14.172,17.394,13.318,18.442,13.318 M18.442,12.367c-1.577,0-2.856,1.277-2.856,2.854
			c0,1.577,1.279,2.855,2.856,2.855c1.575,0,2.854-1.278,2.854-2.855C21.297,13.644,20.02,12.367,18.442,12.367L18.442,12.367z"/>
	</g>
</g>
</svg>
