<?xml version="1.0" encoding="utf-8"?>
<!-- Generator: Adobe Illustrator 16.0.0, SVG Export Plug-In . SVG Version: 6.00 Build 0)  -->
<!DOCTYPE svg PUBLIC "-//W3C//DTD SVG 1.1//EN" "http://www.w3.org/Graphics/SVG/1.1/DTD/svg11.dtd">
<svg version="1.1" id="Layer_1" xmlns="http://www.w3.org/2000/svg" xmlns:xlink="http://www.w3.org/1999/xlink" x="0px" y="0px"
	 width="38px" height="38px" viewBox="0 0 38 38" enable-background="new 0 0 38 38" xml:space="preserve">
<path fill="#56A6FF" d="M16.969,11.841c0-0.941,0.763-1.705,1.703-1.705c0.943,0,1.705,0.764,1.705,1.705s-0.762,1.705-1.705,1.705
	C17.731,13.546,16.969,12.782,16.969,11.841z M16.287,27.183V26.5h1.363V16.273h-1.363v-0.682h4.09V26.5h1.363v0.683H16.287z
	 M5.984,19c0,7.185,5.845,13.029,13.029,13.029S32.043,26.185,32.043,19S26.198,5.971,19.014,5.971S5.984,11.815,5.984,19z
	 M8.407,29.606C5.573,26.773,4.014,23.007,4.014,19s1.56-7.773,4.394-10.606C11.24,5.56,15.007,4,19.014,4s7.773,1.56,10.606,4.394
	c2.834,2.833,4.394,6.6,4.394,10.606s-1.56,7.773-4.394,10.606C26.787,32.44,23.021,34,19.014,34S11.24,32.44,8.407,29.606z"/>
</svg>
