<?xml version="1.0" encoding="utf-8"?>
<!-- Generator: Adobe Illustrator 16.0.0, SVG Export Plug-In . SVG Version: 6.00 Build 0)  -->
<!DOCTYPE svg PUBLIC "-//W3C//DTD SVG 1.1//EN" "http://www.w3.org/Graphics/SVG/1.1/DTD/svg11.dtd">
<svg version="1.1" id="Capa_1" xmlns="http://www.w3.org/2000/svg" xmlns:xlink="http://www.w3.org/1999/xlink" x="0px" y="0px"
	 width="38px" height="38px" viewBox="278.64 401.945 38 38" enable-background="new 278.64 401.945 38 38" xml:space="preserve">
<g>
	<path d="M287.554,428.187c-1.427,0-2.587,1.16-2.587,2.586s1.16,2.586,2.587,2.586c1.426,0,2.586-1.16,2.586-2.586
		S288.98,428.187,287.554,428.187z M287.554,432.324c-0.856,0-1.552-0.696-1.552-1.552s0.695-1.552,1.552-1.552
		c0.855,0,1.551,0.696,1.551,1.552S288.409,432.324,287.554,432.324z"/>
	<path d="M311.865,424.048c0-1.29-0.712-1.894-1.404-2.189c0.543-0.474,0.887-1.172,0.887-1.948c0-1.426-1.16-2.586-2.586-2.586
		h-7.431l0.377-1.764c0.503-2.353,0.173-5.025,0.06-5.788c-0.268-1.807-1.865-3.827-3.603-3.827h-0.124
		c-0.826,0-2.211,0.47-2.211,3.62c0,4.15-1.035,6.049-1.904,6.911c-0.852,0.845-1.671,0.835-1.717,0.848h-0.517v-1.034h-8.276
		v19.655h8.276v-1.035h14.482c1.427,0,2.587-1.16,2.587-2.586c0-0.603-0.207-1.156-0.554-1.597c1.197-0.227,2.105-1.279,2.105-2.541
		c0-0.603-0.207-1.157-0.554-1.597C310.956,426.363,311.865,425.31,311.865,424.048z M284.45,434.91v-17.586h6.206v17.586H284.45z
		 M309.278,425.6h-1.552h-4.138c-0.285,0-0.518,0.231-0.518,0.518s0.232,0.518,0.518,0.518h4.138c0.855,0,1.552,0.696,1.552,1.552
		s-0.696,1.552-1.552,1.552h-1.034h-0.518h-3.62c-0.286,0-0.518,0.23-0.518,0.517s0.231,0.518,0.518,0.518h3.62
		c0.855,0,1.552,0.696,1.552,1.552s-0.696,1.552-1.552,1.552h-14.482v-15.518h0.501c0.05,0.01,1.252,0.025,2.422-1.109
		c1.492-1.446,2.249-4.031,2.249-7.684c0-0.966,0.153-2.586,1.177-2.586h0.124c1.153,0,2.383,1.619,2.579,2.943
		c0.107,0.721,0.419,3.238-0.048,5.421l-0.645,3.015h8.71c0.855,0,1.552,0.696,1.552,1.552s-0.696,1.552-1.552,1.552h-1.035h-0.517
		h-3.621c-0.285,0-0.518,0.231-0.518,0.518s0.232,0.517,0.518,0.517h3.621c0.456,0,1.461,0.021,1.993,0.101
		c1.351,0.2,1.627,0.725,1.627,1.451C310.829,424.904,310.133,425.6,309.278,425.6z"/>
</g>
</svg>
