<?xml version="1.0" encoding="utf-8"?>
<!-- Generator: Adobe Illustrator 16.0.0, SVG Export Plug-In . SVG Version: 6.00 Build 0)  -->
<!DOCTYPE svg PUBLIC "-//W3C//DTD SVG 1.1//EN" "http://www.w3.org/Graphics/SVG/1.1/DTD/svg11.dtd">
<svg version="1.1" id="Capa_1" xmlns="http://www.w3.org/2000/svg" xmlns:xlink="http://www.w3.org/1999/xlink" x="0px" y="0px"
	 width="38px" height="38px" viewBox="278.64 401.945 38 38" enable-background="new 278.64 401.945 38 38" xml:space="preserve">
<g>
	<rect x="283.931" y="416.807" fill="#7FACFA" width="7.241" height="18.621"/>
	<rect x="285.483" y="416.807" fill="#A4C2F7" width="4.138" height="18.621"/>
	<rect x="283.931" y="416.807" fill="#FFFFFF" width="1.552" height="18.621"/>
	<circle fill="#A4C2F7" cx="287.552" cy="430.772" r="2.069"/>
	<path fill="#E3E7F2" d="M286.514,428.775c-0.051,0.241-0.268,0.41-0.514,0.401v3.027c0.142,0.009,0.274,0.074,0.368,0.182
		c0.093,0.107,0.139,0.248,0.126,0.39c0.92-0.223,1.57-1.045,1.575-1.992C288.073,429.837,287.432,429.008,286.514,428.775
		L286.514,428.775z"/>
	<path fill="#A4C2F7" d="M310.827,419.91c0-0.548-0.218-1.075-0.606-1.463c-0.388-0.388-0.914-0.606-1.463-0.606h-8.07l0.512-2.389
		c0.327-1.852,0.346-3.746,0.054-5.604c-0.231-1.561-1.63-3.386-3.092-3.386h-0.124c-1.247,0-1.693,1.375-1.693,3.104
		c0,8.405-4.138,8.276-4.138,8.276h-1.035v16.552h15c1.143,0,2.069-0.927,2.069-2.069s-0.927-2.069-2.069-2.069h1.552
		c1.143,0,2.069-0.926,2.069-2.068s-0.927-2.069-2.069-2.069h1.552c1.143,0,2.069-0.926,2.069-2.068c0-1.29-0.835-1.781-2.069-1.964
		c-0.688-0.074-1.378-0.109-2.069-0.105h1.552C309.901,421.979,310.827,421.053,310.827,419.91z"/>
	<path fill="#E3E7F2" d="M309.276,419.91c0-0.548-0.218-1.075-0.606-1.463c-0.388-0.388-0.914-0.606-1.463-0.606h-8.07l0.512-2.389
		c0.327-1.852,0.346-3.746,0.054-5.604c-0.231-1.561-0.86-2.868-2.322-2.868h-0.124c-1.247,0-0.394,0.858-0.394,2.586
		c0,8.405-4.655,8.276-4.655,8.276h-1.035v16.552h13.448c1.143,0,2.069-0.927,2.069-2.069s-0.927-2.069-2.069-2.069h1.552
		c1.143,0,2.069-0.926,2.069-2.068s-0.927-2.069-2.069-2.069h1.552c1.143,0,2.069-0.926,2.069-2.068c0-1.29-0.835-1.781-2.069-1.964
		c-0.688-0.074-1.378-0.109-2.069-0.105h1.552C308.349,421.979,309.276,421.053,309.276,419.91z"/>
	<g>
		<path fill="#428DFF" d="M291.172,435.945h-7.241c-0.137,0-0.269-0.055-0.366-0.152c-0.097-0.097-0.151-0.229-0.151-0.365v-18.621
			c0-0.137,0.055-0.269,0.151-0.366c0.097-0.097,0.229-0.151,0.366-0.151h7.241c0.137,0,0.269,0.055,0.366,0.151
			c0.097,0.097,0.151,0.229,0.151,0.366v18.621c0,0.137-0.054,0.269-0.151,0.365C291.441,435.891,291.309,435.945,291.172,435.945z
			 M284.448,434.91h6.207v-17.586h-6.207V434.91z"/>
		<path fill="#428DFF" d="M287.552,433.358c-1.428,0-2.586-1.157-2.586-2.586s1.158-2.586,2.586-2.586s2.586,1.157,2.586,2.586
			C290.136,432.2,288.979,433.357,287.552,433.358L287.552,433.358z M287.552,429.221c-0.857,0-1.552,0.694-1.552,1.552
			c0,0.856,0.695,1.552,1.552,1.552s1.552-0.695,1.552-1.552C289.102,429.916,288.408,429.222,287.552,429.221L287.552,429.221z"/>
		<path fill="#428DFF" d="M307.724,422.496h-4.138c-0.286,0-0.518-0.231-0.518-0.517c0-0.286,0.231-0.518,0.518-0.518h4.138
			c0.285,0,0.518,0.231,0.518,0.518C308.241,422.265,308.009,422.496,307.724,422.496z"/>
		<path fill="#428DFF" d="M307.724,426.635h-4.138c-0.286,0-0.518-0.231-0.518-0.518s0.231-0.518,0.518-0.518h4.138
			c0.285,0,0.518,0.231,0.518,0.518S308.009,426.635,307.724,426.635z"/>
		<path fill="#428DFF" d="M306.69,430.772h-4.139c-0.285,0-0.517-0.231-0.517-0.518c0-0.285,0.231-0.517,0.517-0.517h4.139
			c0.285,0,0.517,0.231,0.517,0.517C307.206,430.541,306.975,430.772,306.69,430.772z"/>
		<path fill="#428DFF" d="M306.172,434.91h-15c-0.137,0-0.269-0.055-0.366-0.151s-0.151-0.229-0.151-0.365v-16.552
			c0-0.137,0.054-0.269,0.151-0.366s0.229-0.151,0.366-0.151h1.035c0.657-0.061,1.269-0.363,1.716-0.848
			c0.869-0.862,1.904-2.761,1.904-6.911c0-3.15,1.385-3.621,2.21-3.621h0.124c1.737,0,3.335,2.021,3.604,3.827
			c0.293,1.92,0.273,3.875-0.061,5.789l-0.377,1.764h7.431c1.078,0,2.044,0.668,2.422,1.678c0.379,1.01,0.091,2.148-0.723,2.856
			c0.897,0.344,1.466,1.231,1.404,2.189c-0.001,1.242-0.885,2.309-2.104,2.542c0.559,0.71,0.705,1.659,0.389,2.505
			c-0.317,0.846-1.053,1.465-1.94,1.633c0.612,0.778,0.726,1.838,0.293,2.728C308.066,434.346,307.162,434.911,306.172,434.91
			L306.172,434.91z M291.689,433.876h14.483c0.857,0,1.552-0.695,1.552-1.552c0-0.857-0.694-1.552-1.552-1.552
			c-0.286,0-0.518-0.231-0.518-0.518c0-0.285,0.231-0.517,0.518-0.517h1.552c0.856,0,1.552-0.695,1.552-1.552
			c0-0.857-0.695-1.552-1.552-1.552c-0.286,0-0.518-0.232-0.518-0.518c0-0.286,0.231-0.518,0.518-0.518h1.552
			c0.856-0.001,1.551-0.695,1.552-1.552c0-0.727-0.277-1.251-1.628-1.451c-0.662-0.071-1.327-0.104-1.993-0.101
			c-0.285,0-0.517-0.231-0.517-0.517c0-0.286,0.231-0.518,0.517-0.518h1.552c0.857,0,1.552-0.695,1.552-1.552
			s-0.694-1.552-1.552-1.552h-8.069c-0.156,0-0.305-0.071-0.402-0.192c-0.099-0.122-0.137-0.281-0.104-0.434l0.511-2.389
			c0.308-1.792,0.324-3.623,0.048-5.421c-0.196-1.325-1.426-2.944-2.58-2.944h-0.124c-1.023,0-1.176,1.621-1.176,2.586
			c0,3.652-0.757,6.237-2.25,7.684c-0.632,0.671-1.501,1.068-2.422,1.109l-0.501,0V433.876L291.689,433.876z"/>
	</g>
</g>
</svg>
