<?xml version="1.0" encoding="utf-8"?>
<!-- Generator: Adobe Illustrator 16.0.0, SVG Export Plug-In . SVG Version: 6.00 Build 0)  -->
<!DOCTYPE svg PUBLIC "-//W3C//DTD SVG 1.1//EN" "http://www.w3.org/Graphics/SVG/1.1/DTD/svg11.dtd">
<svg version="1.1" id="Layer_1" xmlns="http://www.w3.org/2000/svg" xmlns:xlink="http://www.w3.org/1999/xlink" x="0px" y="0px"
	 width="38px" height="38px" viewBox="0 0 38 38" enable-background="new 0 0 38 38" xml:space="preserve">
<g>
	<g>
		<path fill-rule="evenodd" clip-rule="evenodd" fill="#5D5F60" d="M13.763,13.981c0-1.589-0.013-3.172,0-4.761
			c0.013-2.327,1.375-4.244,3.489-4.939c3.184-1.053,6.498,0.969,6.858,4.194c0.146,1.315,0.05,2.644,0.062,3.965
			c0.017,2.111,0.012,4.226,0,6.344c-0.012,2.196-1.369,4.076-3.448,4.796c-3.354,1.166-6.91-1.214-6.954-4.672
			C13.745,17.266,13.763,15.623,13.763,13.981z"/>
	</g>
	<path fill="#5D5F60" d="M26.268,32.824h-6.707v-5.077c7.729-0.446,8.445-9.52,8.452-9.614c0.022-0.322-0.225-0.604-0.55-0.626
		l-0.052-0.002c-0.305,0-0.562,0.24-0.583,0.548c-0.024,0.349-0.685,8.539-7.86,8.539c-7.166,0-7.748-8.186-7.769-8.533
		c-0.019-0.31-0.28-0.553-0.626-0.553h-0.002c-0.326,0.02-0.576,0.299-0.557,0.622c0.005,0.094,0.629,9.173,8.359,9.619v5.077H11.66
		c-0.327,0-0.593,0.264-0.593,0.588S11.333,34,11.66,34h14.607c0.327,0,0.594-0.264,0.594-0.588S26.595,32.824,26.268,32.824z"/>
</g>
</svg>
