<?xml version="1.0" encoding="utf-8"?>
<!-- Generator: Adobe Illustrator 16.0.0, SVG Export Plug-In . SVG Version: 6.00 Build 0)  -->
<!DOCTYPE svg PUBLIC "-//W3C//DTD SVG 1.1//EN" "http://www.w3.org/Graphics/SVG/1.1/DTD/svg11.dtd">
<svg version="1.1" id="Layer_1" xmlns="http://www.w3.org/2000/svg" xmlns:xlink="http://www.w3.org/1999/xlink" x="0px" y="0px"
	 width="38px" height="38px" viewBox="0 0 38 38" enable-background="new 0 0 38 38" xml:space="preserve">
<g>
	<g opacity="0.15">
		<path fill="#2ADEF1" d="M31.968,5.305H12.16c-1.209,0-2.19,0.981-2.19,2.192v24.312c0,1.212,0.981,2.191,2.19,2.191h19.808
			c1.211,0,2.192-0.979,2.192-2.191V7.497C34.16,6.287,33.179,5.305,31.968,5.305z M31.968,6.262c0.681,0,1.234,0.555,1.234,1.234
			v24.313c0,0.68-0.554,1.233-1.234,1.233H12.16c-0.68,0-1.234-0.554-1.234-1.233V7.497c0-0.68,0.554-1.233,1.234-1.233h19.808"/>
	</g>
	<g>
		<path fill="#2ADEF1" d="M11.382,32.707c-2.379-0.001-3.133-0.598-3.67-2.904c-0.753-3.232-1.386-6.509-1.996-9.679
			c-0.553-2.865-1.123-5.83-1.783-8.748C3.73,10.476,3.86,9.66,4.301,9.077c0.284-0.376,0.838-0.834,1.871-0.889l0.051,0.956
			C5.688,9.171,5.298,9.343,5.064,9.653c-0.264,0.35-0.336,0.898-0.198,1.51c0.663,2.935,1.236,5.905,1.791,8.779
			c0.608,3.16,1.239,6.431,1.987,9.645c0.433,1.858,0.818,2.161,2.742,2.163L11.382,32.707z"/>
		<path fill="#2ADEF1" d="M8.587,31.352c-0.62-2.666-1.363-10.358-1.906-15.978c-0.236-2.433-0.438-4.533-0.579-5.699
			c-0.14-1.157,0.055-2.026,0.579-2.582c0.468-0.497,1.169-0.718,2.085-0.66L8.705,7.387C8.088,7.346,7.641,7.469,7.376,7.748
			c-0.32,0.341-0.43,0.95-0.326,1.812c0.143,1.177,0.348,3.283,0.583,5.721c0.542,5.593,1.281,13.248,1.885,15.854L8.587,31.352z"/>
		<g>
			<path fill="#373F54" d="M25.125,8.202h-8.731c-0.265,0-0.477-0.214-0.477-0.478c0-0.265,0.212-0.479,0.477-0.479h8.731
				c0.266,0,0.477,0.214,0.477,0.479C25.602,7.988,25.391,8.202,25.125,8.202z"/>
			<path fill="#373F54" d="M28.472,22.611H13.046c-0.265,0-0.478-0.214-0.478-0.479c0-0.264,0.212-0.477,0.478-0.477h15.426
				c0.265,0,0.479,0.213,0.479,0.477C28.951,22.397,28.736,22.611,28.472,22.611z"/>
			<path fill="#373F54" d="M28.472,27.399H13.046c-0.265,0-0.478-0.214-0.478-0.479c0-0.263,0.212-0.477,0.478-0.477h15.426
				c0.265,0,0.479,0.214,0.479,0.477C28.951,27.186,28.736,27.399,28.472,27.399z"/>
			<path fill="#373F54" d="M28.301,10.939H13.218c-0.597,0-1.079,0.482-1.079,1.078v4.685c0,0.595,0.482,1.08,1.079,1.08h15.083
				c0.597,0,1.08-0.485,1.08-1.08v-4.685C29.382,11.422,28.897,10.939,28.301,10.939z M28.301,11.896
				c0.069,0,0.125,0.056,0.125,0.122v4.685c0,0.069-0.056,0.124-0.125,0.124H13.218c-0.069,0-0.124-0.055-0.124-0.124v-4.685
				c0-0.066,0.055-0.122,0.124-0.122H28.301"/>
			<path fill="#373F54" d="M30.663,4H10.855c-1.209,0-2.19,0.981-2.19,2.192v24.312c0,1.212,0.981,2.191,2.19,2.191h19.808
				c1.211,0,2.192-0.979,2.192-2.191V6.192C32.855,4.982,31.874,4,30.663,4z M30.663,4.957c0.681,0,1.233,0.555,1.233,1.234v24.313
				c0,0.679-0.553,1.233-1.233,1.233H10.855c-0.68,0-1.234-0.555-1.234-1.233V6.192c0-0.68,0.555-1.234,1.234-1.234L30.663,4.957"/>
		</g>
	</g>
</g>
</svg>
