<svg xmlns="http://www.w3.org/2000/svg" x="0px" y="0px" width="38px" height="38px" viewBox="0 0 38 38" enable-background="new 0 0 38 38" xml:space="preserve">
<path fill="#ffffff" d="M30.557,7.063l-0.973,0.974L14.59,23.029l-6.246-6.247l-0.973-0.974c-0.139-0.139-0.277-0.207-0.486-0.207
	s-0.347,0.068-0.486,0.276l-3.192,3.123C3.067,19.141,3,19.35,3,19.486c0,0.207,0.07,0.348,0.208,0.486l0.972,0.971l9.996,9.996
	c0.139,0.14,0.277,0.207,0.486,0.207c0.208,0,0.348-0.067,0.486-0.275l18.672-18.674l0.974-0.973C34.932,11.085,35,10.947,35,10.74
	c0-0.209-0.068-0.348-0.276-0.486L31.6,7.13c-0.139-0.139-0.348-0.208-0.484-0.276C30.834,6.854,30.695,6.923,30.557,7.063z"/>
</svg>
