<?xml version="1.0" encoding="utf-8"?>
<!-- Generator: Adobe Illustrator 16.0.0, SVG Export Plug-In . SVG Version: 6.00 Build 0)  -->
<!DOCTYPE svg PUBLIC "-//W3C//DTD SVG 1.1//EN" "http://www.w3.org/Graphics/SVG/1.1/DTD/svg11.dtd">
<svg version="1.1" id="Layer_1" xmlns="http://www.w3.org/2000/svg" xmlns:xlink="http://www.w3.org/1999/xlink" x="0px" y="0px"
	 width="38px" height="38px" viewBox="0 0 38 38" enable-background="new 0 0 38 38" xml:space="preserve">
<g opacity="0.15">
	<path fill="#5D5F60" d="M8.763,11.398c-0.763,0-3.859,8.081-3.859,8.081S8,27.95,8.763,27.95l2.201-0.237l3.04,6.025h5.267
		l-3.394-6.58l1.782-0.166c0.764,0,1.384-0.619,1.384-1.385V13.734c0-0.763-0.62-1.383-1.384-1.383L8.763,11.398z M9.086,12.395
		l8.471,0.912l0.051,0.006h0.051c0.235,0,0.426,0.19,0.426,0.425v11.874c0,0.236-0.19,0.427-0.426,0.427h-0.045l-0.043,0.005
		l-1.782,0.165l-1.411,0.133l0.649,1.259l2.674,5.188h-3.109l-2.774-5.5l-0.299-0.592l-0.658,0.072l-1.762,0.188
		c-0.626-0.98-2.044-4.407-3.175-7.465C7.051,16.581,8.462,13.326,9.086,12.395"/>
	<path fill="#5D5F60" d="M34.4,19.652c0-1.494-0.926-2.747-2.201-3.174V6.318c0-0.562-0.455-1.015-1.014-1.015
		c-0.563,0-13.076,8.348-13.076,8.348v11.83c0,0,12.514,8.52,13.076,8.52c0.561,0,1.014-0.455,1.014-1.016v-10.16
		C33.475,22.398,34.4,21.146,34.4,19.652z M31.244,6.318v26.665c-1.443-0.785-7.92-5.115-12.177-8.01V14.162
		c4.265-2.841,10.748-7.088,12.177-7.847V6.318z M32.209,21.8v-4.297c0.732,0.385,1.236,1.205,1.236,2.149
		C33.445,20.595,32.941,21.413,32.209,21.8z"/>
</g>
<g>
	<path fill="#5D5F60" d="M7.459,10.094c-0.763,0-3.86,8.081-3.86,8.081s3.097,8.472,3.86,8.472L9.66,26.41l3.039,6.023h5.268
		l-3.394-6.58l1.782-0.166c0.765,0,1.384-0.619,1.384-1.383V12.43c0-0.763-0.62-1.383-1.384-1.383L7.459,10.094z M7.781,11.091
		l8.471,0.911l0.051,0.006h0.051c0.236,0,0.426,0.19,0.426,0.425v11.874c0,0.236-0.19,0.426-0.426,0.426H16.31l-0.043,0.006
		l-1.781,0.166l-1.412,0.132l0.65,1.259l2.674,5.188h-3.109l-2.774-5.5l-0.299-0.592l-0.658,0.071L7.796,25.65
		c-0.626-0.98-2.044-4.407-3.175-7.464C5.747,15.276,7.158,12.021,7.781,11.091"/>
	<path fill="#5D5F60" d="M33.098,18.349c0-1.495-0.928-2.747-2.201-3.174V5.015C30.896,4.452,30.439,4,29.881,4
		c-0.563,0-13.075,8.347-13.075,8.347v11.829c0,0,12.514,8.52,13.075,8.52s1.016-0.454,1.016-1.016V21.52
		C32.17,21.095,33.098,19.844,33.098,18.349z M29.939,5.015V31.68c-1.443-0.787-7.92-5.117-12.177-8.011V12.858
		c4.265-2.842,10.748-7.089,12.177-7.848V5.015z M30.904,20.496v-4.298c0.732,0.385,1.236,1.205,1.236,2.15
		C32.141,19.291,31.637,20.107,30.904,20.496z"/>
</g>
</svg>
