<?xml version="1.0" encoding="utf-8"?>
<!-- Generator: Adobe Illustrator 16.0.0, SVG Export Plug-In . SVG Version: 6.00 Build 0)  -->
<!DOCTYPE svg PUBLIC "-//W3C//DTD SVG 1.1//EN" "http://www.w3.org/Graphics/SVG/1.1/DTD/svg11.dtd">
<svg version="1.1" id="Layer_1" xmlns="http://www.w3.org/2000/svg" xmlns:xlink="http://www.w3.org/1999/xlink" x="0px" y="0px"
	 width="38px" height="38px" viewBox="0 0 38 38" enable-background="new 0 0 38 38" xml:space="preserve">
<g>
	<path opacity="0.15" fill="#F96311" enable-background="new    " d="M29.485,22.47h-2.282c-0.264,0-0.478-0.214-0.478-0.479
		c0-0.264,0.214-0.478,0.478-0.478h2.282c0.675,0,1.223-0.548,1.223-1.222V9.693c0-0.631,0.782-1.432,2.071-2.675
		c0.244-0.236,0.535-0.517,0.77-0.756H16.392c-0.675,0-1.222,0.549-1.222,1.222v7.229c0,0.264-0.214,0.478-0.478,0.478
		c-0.264,0-0.478-0.214-0.478-0.478V7.483c0-1.201,0.977-2.178,2.178-2.178h17.892c0.404,0,0.547,0.272,0.58,0.356
		c0.195,0.486-0.278,0.943-1.421,2.045c-0.603,0.578-1.719,1.658-1.78,2l0.001,10.584C31.663,21.493,30.687,22.47,29.485,22.47z"/>
	<path opacity="0.15" fill="#F96311" enable-background="new    " d="M5.756,33.044h17.157c0.675,0,1.223-0.548,1.223-1.224V19.012
		c0-0.673-0.548-1.22-1.223-1.22H9.819c-0.674,0-1.222,0.547-1.222,1.22v10.6c0,0.632-0.784,1.434-2.072,2.677
		C6.281,32.522,5.99,32.802,5.756,33.044z M22.913,34H5.021c-0.406,0-0.547-0.273-0.58-0.357c-0.196-0.486,0.276-0.943,1.42-2.044
		c0.602-0.58,1.72-1.657,1.781-2.001L7.641,19.013c0-1.2,0.977-2.178,2.178-2.178h13.094c1.201,0,2.178,0.978,2.178,2.178v12.809
		C25.091,33.021,24.114,34,22.913,34z"/>
	<g>
		<path fill="#373F54" d="M28.181,21.165h-2.282c-0.264,0-0.478-0.214-0.478-0.479c0-0.264,0.214-0.478,0.478-0.478h2.282
			c0.676,0,1.223-0.548,1.223-1.222V8.389c0-0.632,0.782-1.432,2.071-2.675c0.245-0.236,0.535-0.517,0.77-0.757H15.087
			c-0.674,0-1.222,0.549-1.222,1.222v7.229c0,0.264-0.214,0.478-0.478,0.478c-0.264,0-0.478-0.214-0.478-0.478V6.178
			C12.909,4.977,13.886,4,15.087,4h17.893c0.403,0,0.546,0.272,0.579,0.356c0.196,0.487-0.277,0.943-1.42,2.045
			c-0.603,0.578-1.72,1.658-1.781,2l0.002,10.584C30.359,20.188,29.382,21.165,28.181,21.165z"/>
		<circle fill="#373F54" cx="21.659" cy="12.582" r="0.874"/>
		<circle fill="#373F54" cx="18.517" cy="12.582" r="0.874"/>
		<circle fill="#373F54" cx="24.798" cy="12.582" r="0.875"/>
		<path fill="#373F54" d="M4.452,31.74h17.156c0.675,0,1.223-0.548,1.223-1.225V17.708c0-0.673-0.548-1.22-1.223-1.22H8.515
			c-0.674,0-1.222,0.547-1.222,1.22v10.6c0,0.632-0.784,1.433-2.072,2.676C4.976,31.218,4.685,31.498,4.452,31.74z M21.608,32.695
			H3.717c-0.406,0-0.547-0.272-0.58-0.356c-0.196-0.487,0.276-0.944,1.42-2.045c0.602-0.579,1.72-1.657,1.781-2.001L6.336,17.708
			c0-1.2,0.977-2.178,2.178-2.178h13.094c1.201,0,2.179,0.978,2.179,2.178v12.809C23.787,31.717,22.81,32.695,21.608,32.695z"/>
		<path fill="#F96311" d="M14.81,29.489c-0.678,0-1.366-0.134-2.03-0.409c-1.295-0.545-2.302-1.559-2.833-2.86
			c-0.532-1.301-0.526-2.731,0.02-4.026c0.837-1.996,2.788-3.258,4.939-3.226c0.264,0.004,0.474,0.222,0.47,0.486
			c-0.004,0.263-0.224,0.468-0.486,0.47c-1.766-0.046-3.356,1.005-4.042,2.638c-0.446,1.061-0.451,2.231-0.016,3.294
			c0.434,1.064,1.259,1.896,2.318,2.341c2.188,0.917,4.715-0.114,5.633-2.303c0.206-0.491,0.318-1.006,0.335-1.536
			c0.008-0.264,0.232-0.477,0.491-0.464c0.266,0.008,0.473,0.229,0.465,0.492c-0.021,0.646-0.156,1.278-0.409,1.877
			C18.822,28.278,16.865,29.489,14.81,29.489z"/>
		<path fill="#F96311" d="M16.807,20.34c-0.065,0-0.132-0.013-0.194-0.042c-0.245-0.109-0.501-0.196-0.761-0.259
			c-0.257-0.061-0.415-0.318-0.355-0.573c0.061-0.258,0.32-0.417,0.575-0.355c0.318,0.076,0.631,0.182,0.933,0.316
			c0.241,0.108,0.349,0.39,0.241,0.631C17.167,20.233,16.991,20.34,16.807,20.34z"/>
		<path fill="#F96311" d="M18.617,21.761c-0.141,0-0.284-0.065-0.377-0.186c-0.214-0.274-0.462-0.521-0.734-0.737
			c-0.208-0.163-0.245-0.462-0.082-0.671c0.163-0.209,0.464-0.246,0.672-0.083c0.335,0.263,0.636,0.567,0.898,0.9
			c0.163,0.209,0.126,0.511-0.082,0.673C18.824,21.726,18.72,21.761,18.617,21.761z"/>
		<path fill="#F96311" d="M19.502,23.599c-0.216,0-0.412-0.148-0.466-0.367c-0.061-0.26-0.147-0.518-0.256-0.762
			c-0.108-0.242,0-0.523,0.241-0.632c0.24-0.106,0.523,0,0.631,0.242c0.135,0.299,0.242,0.614,0.315,0.931
			c0.062,0.257-0.098,0.515-0.354,0.575C19.575,23.593,19.537,23.599,19.502,23.599z"/>
		<path fill="#F96311" d="M14.774,24.727c-0.265,0-0.479-0.214-0.479-0.479v-2.499c0-0.264,0.214-0.478,0.479-0.478
			c0.264,0,0.478,0.214,0.478,0.478v2.499C15.251,24.513,15.038,24.727,14.774,24.727z"/>
		<path fill="#F96311" d="M17.273,24.727h-2.499c-0.265,0-0.479-0.214-0.479-0.479s0.214-0.478,0.479-0.478h2.499
			c0.264,0,0.479,0.213,0.479,0.478S17.537,24.727,17.273,24.727z"/>
	</g>
</g>
</svg>
