<?xml version="1.0" encoding="utf-8"?>
<!-- Generator: Adobe Illustrator 16.0.0, SVG Export Plug-In . SVG Version: 6.00 Build 0)  -->
<!DOCTYPE svg PUBLIC "-//W3C//DTD SVG 1.1//EN" "http://www.w3.org/Graphics/SVG/1.1/DTD/svg11.dtd">
<svg version="1.1" id="Layer_1" xmlns="http://www.w3.org/2000/svg" xmlns:xlink="http://www.w3.org/1999/xlink" x="0px" y="0px"
	 width="38px" height="38px" viewBox="237 237 38 38" enable-background="new 237 237 38 38" xml:space="preserve">
<path fill="#428DFF" d="M270.738,249.726l-8.125-8.438c-0.266-0.276-0.672-0.362-1.025-0.22c-0.354,0.144-0.588,0.487-0.588,0.87
	v4.063h-0.313c-6.719,0-12.187,5.467-12.187,12.188v1.875c0,0.435,0.306,0.797,0.73,0.896c0.069,0.017,0.138,0.025,0.206,0.025
	c0.355,0,0.694-0.208,0.856-0.532c1.757-3.517,5.291-5.702,9.222-5.702h1.484v4.063c0,0.382,0.233,0.726,0.588,0.869
	c0.352,0.142,0.76,0.057,1.025-0.22l8.125-8.438C271.087,250.663,271.087,250.088,270.738,249.726z"/>
<path fill="#1F66CC" d="M267.249,271H244.75c-2.067,0-3.75-1.682-3.75-3.75v-17.499c0-2.068,1.683-3.75,3.75-3.75h3.75
	c0.691,0,1.25,0.56,1.25,1.25c0,0.69-0.559,1.25-1.25,1.25h-3.75c-0.69,0-1.25,0.562-1.25,1.25v17.499
	c0,0.689,0.56,1.251,1.25,1.251h22.499c0.69,0,1.25-0.562,1.25-1.251v-9.999c0-0.69,0.559-1.25,1.25-1.25s1.25,0.56,1.25,1.25v9.999
	C270.999,269.318,269.317,271,267.249,271z"/>
</svg>
