<?xml version="1.0" encoding="utf-8"?>
<!-- Generator: Adobe Illustrator 16.0.0, SVG Export Plug-In . SVG Version: 6.00 Build 0)  -->
<!DOCTYPE svg PUBLIC "-//W3C//DTD SVG 1.1//EN" "http://www.w3.org/Graphics/SVG/1.1/DTD/svg11.dtd">
<svg version="1.1" id="Layer_1" xmlns="http://www.w3.org/2000/svg" xmlns:xlink="http://www.w3.org/1999/xlink" x="0px" y="0px"
	 width="38px" height="38px" viewBox="237 237 38 38" enable-background="new 237 237 38 38" xml:space="preserve">
<g>
	<path d="M267.562,271h-23.124c-1.896,0-3.438-1.541-3.438-3.437v-18.125c0-1.896,1.541-3.437,3.438-3.437h4.375
		c0.518,0,0.938,0.42,0.938,0.938s-0.42,0.938-0.938,0.938h-4.375c-0.861,0-1.563,0.701-1.563,1.562v18.125
		c0,0.86,0.701,1.562,1.563,1.562h23.124c0.861,0,1.563-0.701,1.563-1.562v-10.625c0-0.518,0.42-0.938,0.938-0.938
		s0.938,0.42,0.938,0.938v10.625C270.999,269.459,269.458,271,267.562,271z"/>
	<path d="M249.436,260.984c-0.068,0-0.137-0.008-0.206-0.025c-0.424-0.099-0.73-0.461-0.73-0.896v-1.875
		c0-6.72,5.468-12.188,12.187-12.188h0.313v-4.063c0-0.382,0.233-0.726,0.588-0.87c0.354-0.143,0.76-0.057,1.025,0.22l8.125,8.438
		c0.35,0.363,0.35,0.938,0,1.3l-8.125,8.438c-0.266,0.276-0.674,0.361-1.025,0.22c-0.354-0.144-0.588-0.487-0.588-0.869v-4.063
		h-1.484c-3.932,0-7.466,2.185-9.223,5.702C250.13,260.776,249.791,260.984,249.436,260.984z M260.687,247.876
		c-5.249,0-9.596,3.943-10.233,9.024c2.272-2.535,5.531-4.025,9.061-4.025h2.422c0.518,0,0.938,0.42,0.938,0.938v2.675l5.887-6.113
		l-5.887-6.112v2.675c0,0.518-0.42,0.938-0.938,0.938H260.687z"/>
</g>
</svg>
