<?xml version="1.0" encoding="utf-8"?>
<!-- Generator: Adobe Illustrator 16.0.0, SVG Export Plug-In . SVG Version: 6.00 Build 0)  -->
<!DOCTYPE svg PUBLIC "-//W3C//DTD SVG 1.1//EN" "http://www.w3.org/Graphics/SVG/1.1/DTD/svg11.dtd">
<svg version="1.1" id="Layer_1" xmlns="http://www.w3.org/2000/svg" xmlns:xlink="http://www.w3.org/1999/xlink" x="0px" y="0px"
	 width="38px" height="38px" viewBox="0 0 38 38" enable-background="new 0 0 38 38" xml:space="preserve">
<g>
	<path fill="#231f20" d="M24.006,18.014l-4.248-4.295c-0.234-0.234-0.614-0.234-0.848,0c-0.234,0.233-0.234,0.613,0,0.847
		l3.228,3.276h-7.691c-0.331,0-0.599,0.268-0.599,0.599c0,0.332,0.268,0.599,0.599,0.599h7.692l-3.229,3.178
		c-0.234,0.234-0.234,0.613,0,0.847c0.117,0.117,0.27,0.175,0.424,0.175c0.152,0,0.307-0.059,0.424-0.175l4.156-4.106
		c0.021-0.021,0.029-0.046,0.046-0.069c0.015-0.011,0.032-0.016,0.046-0.028C24.238,18.627,24.238,18.248,24.006,18.014z"/>
	<path fill="#231f20" d="M16.035,9.714c-3.565,1.239-6.131,4.617-6.131,8.6c0,3.99,2.565,7.367,6.131,8.607v4.684
		c-1.576,0.365-5.771,1.33-5.771,1.191c0.186-0.161,0.42-0.347,0.617-0.503c1.104-0.879,2.476-1.982,2.344-3.324
		c-0.078-0.808-0.672-1.492-1.81-2.084L5.212,23.68V10.762l10.823-5.127V9.714z M16.635,4l-0.6,0.288L4.344,9.869
		c-0.204,0.102-0.33,0.306-0.33,0.527v13.649c0,0.228,0.126,0.431,0.323,0.532l6.526,3.372c0.509,0.264,1.127,0.678,1.169,1.133
		c0.071,0.701-1.114,1.647-1.899,2.27c-0.941,0.749-1.75,1.396-1.229,2.145C9.138,33.833,9.533,34,10.072,34
		c1.121,0,6.543-1.371,6.543-1.371h0.619v-6.606c-0.415-0.097-0.816-0.222-1.199-0.377c-2.889-1.186-4.933-4.019-4.933-7.332
		c0-3.305,2.044-6.144,4.933-7.324c0.383-0.162,0.784-0.287,1.199-0.384V4H16.635z"/>
	<path fill="#231f20" d="M32.814,26.765c-2.379,0.27-4.267,2.222-4.506,4.666H22.01v-4.504c3.571-1.233,6.148-4.618,6.148-8.613
		c0-3.989-2.577-7.372-6.148-8.612V5.198h6.281c0.053,1.593,0.82,3.007,1.971,3.923l1.732,0.892c0.264,0.078,0.539,0.138,0.82,0.167
		V26.765z M33.36,9.013c-2.14,0-3.878-1.796-3.878-4.019c0-0.335,0.048-0.659,0.127-0.97V4h-8.799v6.605
		c0.414,0.097,0.816,0.216,1.199,0.378c2.895,1.18,4.95,4.019,4.95,7.33c0,3.319-2.056,6.158-4.95,7.337
		c-0.383,0.156-0.785,0.282-1.199,0.377v6.601h8.738c-0.036-0.222-0.066-0.443-0.066-0.677c0-2.216,1.738-4.019,3.878-4.019
		c0.149,0,0.294,0.03,0.437,0.048c0.072-0.006,0.139-0.018,0.217-0.018V8.947C33.797,8.982,33.582,9.013,33.36,9.013z"/>
</g>
</svg>
