<?xml version="1.0" encoding="utf-8"?>
<!-- Generator: Adobe Illustrator 16.0.0, SVG Export Plug-In . SVG Version: 6.00 Build 0)  -->
<!DOCTYPE svg PUBLIC "-//W3C//DTD SVG 1.1//EN" "http://www.w3.org/Graphics/SVG/1.1/DTD/svg11.dtd">
<svg version="1.1" id="Layer_1" xmlns="http://www.w3.org/2000/svg" xmlns:xlink="http://www.w3.org/1999/xlink" x="0px" y="0px"
	 width="350px" height="230px" viewBox="0 0 350 230" enable-background="new 0 0 350 230" xml:space="preserve">
<path fill="#43455A" d="M85.862,72.599c44.957,0,81.396,30.113,81.396,67.263c0,26.738-18.883,49.834-46.234,60.676
	c0.82,4.102,6.117,17.021,14.267,25.875c0,0-28.44-9.172-41.602-20.965c-4.178,0.547-7.295,0.807-11.662,0.807
	c-44.953,0-77.562-29.248-77.562-66.393C4.466,102.711,40.908,72.599,85.862,72.599L85.862,72.599z M85.862,72.599"/>
<path opacity="0.2" d="M135.291,226.412c-8.15-8.854-13.447-21.775-14.267-25.875c27.351-10.842,46.234-33.938,46.234-60.676
	c0-37.15-36.439-67.263-81.396-67.263c0,0,35.304,1.401,56.521,24.331c21.216,22.926,23.372,46.801,10.122,70.249
	c-13.25,23.447-39.497,29.945-39.497,29.945S116.373,216.453,135.291,226.412L135.291,226.412z M135.291,226.412"/>
<path opacity="0.2" d="M96.438,139.066c0,6.418-5.202,11.615-11.616,11.615c-6.415,0-11.616-5.197-11.616-11.615
	c0-6.414,5.202-11.617,11.616-11.617C91.236,127.449,96.438,132.652,96.438,139.066L96.438,139.066z M96.438,139.066"/>
<path fill="#E2E5E7" d="M94.855,139.066c0,5.98-4.844,10.824-10.824,10.824c-5.979,0-10.825-4.844-10.825-10.824
	s4.846-10.826,10.825-10.826C90.011,128.24,94.855,133.086,94.855,139.066L94.855,139.066z M94.855,139.066"/>
<path opacity="0.2" d="M63.579,139.066c0,6.418-5.201,11.615-11.615,11.615c-6.417,0-11.617-5.197-11.617-11.615
	c0-6.414,5.199-11.617,11.617-11.617C58.378,127.449,63.579,132.652,63.579,139.066L63.579,139.066z M63.579,139.066"/>
<path fill="#E2E5E7" d="M61.998,139.066c0,5.98-4.848,10.824-10.825,10.824c-5.979,0-10.825-4.844-10.825-10.824
	s4.846-10.826,10.825-10.826C57.149,128.24,61.998,133.086,61.998,139.066L61.998,139.066z M61.998,139.066"/>
<path fill="#544D6E" d="M235.569,3.587c60.731,0,109.965,40.681,109.965,90.869c0,50.182-44.053,89.696-104.785,89.696
	c-5.898,0-10.109-0.35-15.754-1.09c-17.782,15.934-56.204,28.324-56.204,28.324c11.012-11.963,18.167-29.416,19.274-34.959
	c-36.951-14.646-62.461-45.848-62.461-81.971C125.604,44.269,174.834,3.587,235.569,3.587L235.569,3.587z M235.569,3.587"/>
<path opacity="0.2" d="M168.792,211.387c25.557-13.455,30.102-39.57,30.102-39.57s-35.458-8.779-53.357-40.453
	c-17.9-31.679-14.988-63.932,13.674-94.907c28.663-30.978,76.359-32.869,76.359-32.869c-60.735,0-109.965,40.681-109.965,90.869
	c0,36.124,25.51,67.325,62.461,81.971C186.958,181.967,179.804,199.424,168.792,211.387L168.792,211.387z M168.792,211.387"/>
<path opacity="0.2" d="M221.281,93.383c0-8.666,7.028-15.693,15.693-15.693c8.666,0,15.693,7.027,15.693,15.693
	c0,8.669-7.027,15.693-15.693,15.693C228.31,109.077,221.281,102.053,221.281,93.383L221.281,93.383z M221.281,93.383"/>
<path fill="#E2E5E7" d="M223.418,93.383c0-8.079,6.547-14.624,14.625-14.624c8.079,0,14.625,6.545,14.625,14.624
	s-6.546,14.625-14.625,14.625C229.965,108.008,223.418,101.462,223.418,93.383L223.418,93.383z M223.418,93.383"/>
<path opacity="0.2" d="M265.672,93.383c0-8.666,7.027-15.693,15.693-15.693c8.669,0,15.692,7.027,15.692,15.693
	c0,8.669-7.023,15.693-15.692,15.693C272.699,109.077,265.672,102.053,265.672,93.383L265.672,93.383z M265.672,93.383"/>
<path fill="#E2E5E7" d="M267.81,93.383c0-8.079,6.55-14.624,14.623-14.624c8.079,0,14.625,6.545,14.625,14.624
	s-6.546,14.625-14.625,14.625C274.359,108.008,267.81,101.462,267.81,93.383L267.81,93.383z M267.81,93.383"/>
<path opacity="0.2" d="M176.891,93.383c0-8.666,7.028-15.693,15.693-15.693c8.666,0,15.693,7.027,15.693,15.693
	c0,8.669-7.027,15.693-15.693,15.693C183.919,109.077,176.891,102.053,176.891,93.383L176.891,93.383z M176.891,93.383"/>
<path fill="#E2E5E7" d="M179.027,93.383c0-8.079,6.547-14.624,14.625-14.624c8.079,0,14.625,6.545,14.625,14.624
	s-6.546,14.625-14.625,14.625C185.574,108.008,179.027,101.462,179.027,93.383L179.027,93.383z M179.027,93.383"/>
</svg>
