<?xml version="1.0" encoding="utf-8"?>
<!-- Generator: Adobe Illustrator 16.0.0, SVG Export Plug-In . SVG Version: 6.00 Build 0)  -->
<!DOCTYPE svg PUBLIC "-//W3C//DTD SVG 1.1//EN" "http://www.w3.org/Graphics/SVG/1.1/DTD/svg11.dtd">
<svg version="1.1" id="Layer_1" xmlns="http://www.w3.org/2000/svg" xmlns:xlink="http://www.w3.org/1999/xlink" x="0px" y="0px"
	 width="265px" height="40px" viewBox="-112.5 0 265 40" enable-background="new -112.5 0 265 40" xml:space="preserve">
<g>
	<path fill="#F16B23" d="M-71.5,35c0,2.762-2.239,5-5,5h-30c-2.761,0-5-2.238-5-5V5c0-2.762,2.239-5,5-5h30c2.761,0,5,2.238,5,5V35z
		"/>
	<g>
		<g>
			<g>
				<path fill="#FFFFFF" d="M-81.958,8.067c-2.244-1.005-4.979-0.472-6.85,1.36c-1.417,1.388-2.811,2.799-4.214,4.199
					c-0.063,0.063-0.112,0.137-0.193,0.24c1.371-0.262,2.581-0.028,3.763,0.644l0,0c0.505,1.842,2.213,3.169,4.216,3.169
					c0.146,0,0.289-0.006,0.43-0.02c-0.957,0.959-1.916,1.916-2.875,2.873c-0.516,0.514-1.146,0.829-1.873,0.909
					c-0.86,0.095-1.61-0.136-2.259-0.737c-0.661-0.619-1.66-0.573-2.246,0.059c-0.606,0.651-0.583,1.604,0.092,2.234
					c0.346,0.324,0.731,0.631,1.142,0.866c2.326,1.339,5.31,0.889,7.348-1.113c1.668-1.635,3.327-3.28,4.972-4.941
					c0.361-0.362,0.687-0.776,0.959-1.212C-77.603,13.473-78.729,9.516-81.958,8.067z"/>
				<g>
					<path fill="none" d="M-99.044,24.095c-0.083,0.083-0.165,0.164-0.245,0.247c-0.808,0.809-1.244,1.762-1.007,2.911
						c0.317,1.539,1.908,2.422,3.424,1.871c0.196-0.071,0.388-0.171,0.575-0.276"/>
					<path fill="#FFFFFF" d="M-89.021,26.316c0.062-0.061,0.113-0.133,0.172-0.201c-1.365,0.288-2.621,0.083-3.831-0.604
						c-0.078,0.075-0.171,0.158-0.26,0.245c-0.188,0.188-0.375,0.379-0.564,0.569l1.635,2.83
						C-90.919,28.212-89.97,27.264-89.021,26.316z"/>
					<path fill="#FFFFFF" d="M-97.259,22.303l-1.639-2.832c-0.294,0.292-0.586,0.588-0.88,0.883l1.637,2.834
						C-97.847,22.892-97.553,22.596-97.259,22.303z"/>
					<path fill="#FFFFFF" d="M-95.301,28.096l1.627,2.816c0.151-0.122,0.297-0.253,0.439-0.394c0.154-0.151,0.307-0.306,0.46-0.461
						l-1.631-2.821C-94.7,27.529-94.998,27.818-95.301,28.096z"/>
				</g>
				<g>
					<path fill="#FFFFFF" d="M-88.09,17.052c-0.44-0.405-0.934-0.784-1.463-1.058c-2.315-1.189-5.166-0.651-7.168,1.322
						c-0.423,0.417-0.844,0.836-1.266,1.254l1.632,2.823c0.581-0.585,1.162-1.165,1.744-1.748c1.379-1.381,2.879-1.467,4.406-0.266
						c0.675,0.528,1.628,0.45,2.189-0.179C-87.456,18.568-87.456,17.636-88.09,17.052z"/>
					<path fill="#FFFFFF" d="M-96.298,28.848c-0.187,0.105-0.378,0.205-0.575,0.276c-1.516,0.551-3.107-0.332-3.424-1.871
						c-0.236-1.149,0.199-2.103,1.007-2.911c0.081-0.083,0.163-0.164,0.245-0.247l-1.637-2.831
						c-0.288,0.293-0.579,0.581-0.866,0.873c-0.444,0.455-0.847,0.979-1.16,1.534c-0.352,0.623-0.582,1.272-0.704,1.929
						c-0.001-0.003,0.014-0.058,0.012-0.063c0,0.013-0.016,0.077-0.016,0.088c-0.28,1.546,0.059,3.107,0.911,4.349l-0.048,0.129
						l-2.627,2.174l4.791-0.46c0.092,0.049,0.186,0.094,0.281,0.134c1.73,0.758,3.724,0.608,5.411-0.333L-96.298,28.848z"/>
				</g>
			</g>
			<path fill="#FFFFFF" d="M-106.353,8.38c0,0,9.678,0.195,10.374,9.335C-95.979,17.715-104.827,18.875-106.353,8.38z"/>
			<path fill="#FFFFFF" d="M-87.02,22.922c0,0,9.676,0.194,10.372,9.332C-76.647,32.254-85.496,33.416-87.02,22.922z"/>
		</g>
	</g>
	<g>
		<g>
			<path d="M-65.267,6.053c0-1.1,0.9-2,2-2h8.742c1.1,0,2.9,0.021,4,0.047c0,0,2.404,0.057,3.643,0.268
				c1.239,0.209,2.349,0.648,3.327,1.314c0.978,0.668,1.793,1.555,2.445,2.664s0.979,2.352,0.979,3.729
				c0,1.494-0.402,2.863-1.206,4.109c-0.805,1.248-1.896,2.182-3.272,2.805c1.942,0.566,3.436,1.529,4.479,2.893
				c1.044,1.363,1.565,2.965,1.565,4.805c0,1.451-0.336,2.861-1.011,4.23c-0.674,1.369-1.594,2.463-2.762,3.283
				c-1.167,0.818-2.604,1.322-4.315,1.51c-1.073,0.117-3.661,0.189-7.763,0.219h-8.85c-1.1,0-2-0.9-2-2V6.053z M-56.831,9.357
				c-1.1,0-2,0.9-2,2v3.371c0,1.1,0.9,2,2,2h0.218c1.1,0,2.9-0.008,4-0.018c0,0,2.066-0.019,2.675-0.091
				c1.102-0.131,1.969-0.512,2.599-1.141c0.631-0.631,0.946-1.461,0.946-2.49c0-0.986-0.271-1.787-0.815-2.402
				c-0.543-0.617-1.352-0.99-2.424-1.121c-0.639-0.072-2.472-0.107-5.501-0.107H-56.831z M-56.831,22.033c-1.1,0-2,0.9-2,2v4.523
				c0,1.1,0.9,2,2,2h1.958c1.1,0,2.9-0.016,4-0.034c0,0,1.792-0.03,2.415-0.161c0.957-0.174,1.735-0.598,2.337-1.273
				c0.602-0.672,0.902-1.576,0.902-2.707c0-0.955-0.231-1.768-0.695-2.434c-0.465-0.668-1.135-1.152-2.012-1.457
				s-2.78-0.457-5.707-0.457H-56.831z"/>
		</g>
		<g>
			<path d="M-31.692,35.928c-1.1,0-2-0.9-2-2V6.053c0-1.1,0.9-2,2-2h19.636c1.1,0,2,0.9,2,2v1.393c0,1.1-0.9,2-2,2h-13.2
				c-1.1,0-2,0.9-2,2v3.066c0,1.1,0.9,2,2,2h12.003c1.1,0,2,0.9,2,2v1.369c0,1.1-0.9,2-2,2h-12.003c-1.1,0-2,0.9-2,2v4.676
				c0,1.1,0.9,2,2,2h13.809c1.1,0,2,0.9,2,2v1.371c0,1.1-0.9,2-2,2H-31.692z"/>
		</g>
		<g>
			<path d="M-2.554,35.928c-1.1,0-2-0.9-2-2V6.053c0-1.1,0.9-2,2-2h19.636c1.1,0,2,0.9,2,2v1.393c0,1.1-0.9,2-2,2H3.883
				c-1.1,0-2,0.9-2,2v3.066c0,1.1,0.9,2,2,2h12.004c1.1,0,2,0.9,2,2v1.369c0,1.1-0.9,2-2,2H3.883c-1.1,0-2,0.9-2,2v4.676
				c0,1.1,0.9,2,2,2H17.69c1.1,0,2,0.9,2,2v1.371c0,1.1-0.9,2-2,2H-2.554z"/>
		</g>
		<g>
			<path d="M26.76,35.928c-1.1,0-2-0.9-2-2V6.313c0-1.1,0.9-2,2-2h2.437c1.1,0,2,0.9,2,2v22.244c0,1.1,0.9,2,2,2h12.003
				c1.1,0,2,0.9,2,2v1.371c0,1.1-0.9,2-2,2H26.76z"/>
		</g>
		<g>
			<path d="M53.029,35.928c-1.1,0-2-0.9-2-2V6.053c0-1.1,0.9-2,2-2h2.436c1.1,0,2,0.9,2,2v27.875c0,1.1-0.9,2-2,2H53.029z"/>
		</g>
		<g>
			<path d="M65.1,35.928c-1.1,0-2-0.9-2-2V6.053c0-1.1,0.9-2,2-2h2.261c1.1,0,2.471,0.768,3.045,1.705l10.957,17.875
				c0.574,0.938,1.045,0.805,1.045-0.295V6.053c0-1.1,0.9-2,2-2h1.979c1.1,0,2,0.9,2,2v27.875c0,1.1-0.9,2-2,2H83.93
				c-1.1,0-2.474-0.766-3.052-1.701L70.131,16.842c-0.578-0.936-1.052-0.801-1.052,0.299v16.787c0,1.1-0.9,2-2,2H65.1z"/>
		</g>
		<g>
			<path d="M96.718,35.928c-1.1,0-2-0.9-2-2V6.053c0-1.1,0.9-2,2-2h2.437c1.1,0,2,0.9,2,2v10.154c0,1.1,0.608,1.337,1.353,0.527
				l10.297-11.209c0.744-0.81,2.253-1.473,3.353-1.473h4.653c1.1,0,1.374,0.647,0.61,1.438l-9.222,9.538
				c-0.764,0.791-0.899,2.192-0.3,3.115l10.474,16.107c0.6,0.922,0.189,1.677-0.91,1.677h-4.327c-1.1,0-2.455-0.776-3.011-1.726
				l-6.741-11.51c-0.556-0.949-1.641-1.083-2.41-0.297l-2.419,2.471c-0.77,0.786-1.399,2.329-1.399,3.429v5.633c0,1.1-0.9,2-2,2
				H96.718z"/>
		</g>
		<g>
			<path d="M124.596,25.557l4.271-0.416c1.095-0.106,2.259,0.666,2.588,1.715c0,0,0.544,1.738,1.696,2.723
				c1.153,0.986,2.708,1.479,4.665,1.479c2.072,0,3.634-0.439,4.686-1.314c1.051-0.877,1.576-1.902,1.576-3.078
				c0-0.754-0.221-1.395-0.663-1.924s-1.215-0.99-2.315-1.381c-0.754-0.26-2.472-0.725-5.154-1.391
				c-3.449-0.855-5.87-1.906-7.262-3.154c-1.957-1.752-2.936-3.891-2.936-6.414c0-1.623,0.461-3.141,1.381-4.555
				s2.247-2.49,3.979-3.229s3.823-1.109,6.273-1.109c4,0,7.012,0.877,9.034,2.631c2.021,1.754,3.083,4.096,3.185,7.023l-4.438,0.195
				c-1.099,0.048-2.263-0.772-2.586-1.824c0,0-0.278-0.905-1.185-1.622c-0.906-0.719-2.265-1.076-4.077-1.076
				c-1.869,0-3.333,0.383-4.393,1.152c-0.681,0.492-1.021,1.152-1.021,1.979c0,0.754,0.318,1.398,0.957,1.934
				c0.811,0.682,2.782,1.393,5.913,2.133c3.132,0.738,5.447,1.502,6.947,2.293c1.501,0.789,2.675,1.869,3.522,3.24
				c0.848,1.369,1.271,3.063,1.271,5.076c0,1.826-0.507,3.537-1.521,5.131c-1.015,1.596-2.45,2.781-4.306,3.555
				c-1.854,0.777-4.167,1.164-6.936,1.164c-4.03,0-7.125-0.932-9.284-2.793C126.306,31.836,125.016,29.121,124.596,25.557z"/>
		</g>
	</g>
</g>
</svg>
