<?xml version="1.0" encoding="utf-8"?>
<!-- Generator: Adobe Illustrator 16.0.0, SVG Export Plug-In . SVG Version: 6.00 Build 0)  -->
<!DOCTYPE svg PUBLIC "-//W3C//DTD SVG 1.1//EN" "http://www.w3.org/Graphics/SVG/1.1/DTD/svg11.dtd">
<svg version="1.1" id="Layer_1" xmlns="http://www.w3.org/2000/svg" xmlns:xlink="http://www.w3.org/1999/xlink" x="0px" y="0px"
	 width="350px" height="250px" viewBox="0 0 350 250" enable-background="new 0 0 350 250" xml:space="preserve">
<g>
	<path opacity="0.2" fill="#D6DDE9" d="M265.297,127.718c-0.213-23.978-9.779-45.717-25.232-61.748
		c0.031-0.032,0.063-0.063,0.094-0.095l-1.162-1.138c-0.021,0.023-0.047,0.044-0.068,0.067
		c-16.141-16.154-38.383-26.207-62.973-26.425v-0.518h-1.627v0.518c-24.587,0.218-46.825,10.27-62.966,26.421
		c-0.034-0.034-0.07-0.066-0.104-0.102l-1.163,1.139c0.042,0.043,0.087,0.085,0.129,0.128
		c-15.454,16.032-25.022,37.772-25.235,61.752h-0.261v1.628h0.261c0.209,23.633,9.506,45.093,24.57,61.055
		c-0.004,0.004-0.006,0.006-0.01,0.01l0.164,0.156c16.43,17.324,39.666,28.129,65.428,28.129c49.526,0,89.718-39.926,90.155-89.35
		h0.01v-1.628H265.297z M263.66,127.718h-25.158c-0.119-18.879-4.311-36.369-11.391-50.779c4.154-2.906,8.098-6.179,11.785-9.806
		C254.689,83.515,263.455,104.929,263.66,127.718z M177.053,40.043c19.682,0.863,37.072,14.999,47.961,36.363
		c-14.393,9.729-31.297,15.009-49.059,15.166V40.017C176.322,40.02,176.688,40.036,177.053,40.043z M174.328,40.017v51.556
		c-17.765-0.157-34.665-5.438-49.055-15.168c10.888-21.363,28.277-35.498,47.956-36.361
		C173.597,40.036,173.961,40.02,174.328,40.017z M174.328,93.21v34.508h-60.916c0.117-18.514,4.216-35.688,11.127-49.842
		C139.155,87.71,156.306,93.053,174.328,93.21z M174.328,129.346v33.137c-18.253,0.158-35.577,5.617-50.294,15.664
		c-6.607-13.952-10.508-30.74-10.622-48.801H174.328z M174.328,164.109v52.939c-0.367-0.004-0.731-0.02-1.099-0.027
		c-19.996-0.877-37.629-15.453-48.479-37.395C139.242,169.676,156.325,164.268,174.328,164.109z M175.955,217.049v-52.93
		c17.99,0.16,35.08,5.558,49.578,15.51c-10.85,21.94-28.484,36.516-48.48,37.393C176.688,217.029,176.322,217.045,175.955,217.049z
		 M175.955,162.482v-33.137h60.918c-0.113,18.063-4.016,34.851-10.623,48.803C211.525,168.1,194.195,162.641,175.955,162.482z
		 M175.955,127.718V93.21c18.02-0.157,35.172-5.5,49.791-15.333c6.912,14.155,11.01,31.327,11.127,49.841H175.955z M237.76,65.939
		c-3.57,3.512-7.379,6.689-11.395,9.515c-8.326-16.243-20.375-28.372-34.363-33.852c17.225,3.303,33.072,11.649,45.746,24.324
		C237.752,65.931,237.756,65.935,237.76,65.939z M112.537,65.927c12.675-12.675,28.521-21.021,45.746-24.325
		c-13.987,5.48-26.035,17.609-34.362,33.852c-4.016-2.825-7.823-6.004-11.393-9.518C112.531,65.933,112.534,65.93,112.537,65.927z
		 M111.391,67.13c3.688,3.628,7.63,6.901,11.784,9.808c-7.08,14.41-11.272,31.901-11.391,50.78H86.626
		C86.831,104.927,95.598,83.514,111.391,67.13z M86.626,129.346h25.158c0.115,18.43,4.111,35.541,10.889,49.751
		c-4.223,2.999-8.223,6.38-11.956,10.13C95.349,172.936,86.827,151.809,86.626,129.346z M112.537,191.138
		c-0.239-0.239-0.462-0.491-0.698-0.733c3.612-3.63,7.478-6.91,11.557-9.824c8.342,16.762,20.605,29.287,34.888,34.883
		C141.058,212.16,125.213,203.813,112.537,191.138z M192,215.463c14.277-5.594,26.537-18.111,34.879-34.862
		c4.08,2.913,7.943,6.188,11.557,9.816c-0.232,0.237-0.451,0.485-0.688,0.721C225.072,203.813,209.227,212.16,192,215.463z
		 M239.568,189.227c-3.734-3.748-7.734-7.129-11.957-10.126c6.777-14.212,10.775-31.323,10.891-49.755h25.158
		C263.459,151.809,254.938,172.936,239.568,189.227z"/>
	<path opacity="0.2" fill="#D9DDE0" d="M74.027,44.452L48.056,66.401l16.476,19.495l25.972-21.949L74.027,44.452z M72.605,48.272
		L70.352,66.62l-18.313-0.967L72.605,48.272z M51.721,67.639l20.389,1.077l2.514-20.46l13.062,15.455L64.768,83.078L51.721,67.639z"
		/>
	<g>
		<rect x="284.152" y="128.087" fill="#FFFFFF" width="23.361" height="23.463"/>
	</g>
	<g opacity="0.25">
		<polygon fill="#D9DDE0" points="258.363,203.642 253.078,207.92 255.514,201.57 249.811,197.864 256.602,197.863 258.363,191.648 
			260.127,197.863 266.918,197.864 261.215,201.57 263.65,207.921 		"/>
	</g>
	<g opacity="0.75">
		<polygon fill="#D9DDE0" points="59.704,100.958 57.062,103.098 58.278,99.923 55.427,98.07 58.823,98.069 59.704,94.962 
			60.585,98.069 63.981,98.07 61.13,99.923 62.348,103.098 		"/>
	</g>
	<g>
		<g>
			<g>
				<path fill="#F1F1F2" d="M145.304,119.134c0,11.233,9.106,20.341,20.34,20.341h50.862l17.928,16.273l0.213-16.273
					c11.232,0,20.34-9.107,20.34-20.341v-9.01c0-11.233-9.107-20.341-20.34-20.341h-69.003c-11.233,0-20.34,9.107-20.34,20.341
					V119.134z"/>
			</g>
			<g>
				<rect x="203.939" y="104.982" fill="#D9DDE0" width="35.699" height="2"/>
			</g>
			<g>
				<rect x="208.008" y="113.995" fill="#D9DDE0" width="31.631" height="2"/>
			</g>
			<g>
				<rect x="208.008" y="123.362" fill="#D9DDE0" width="31.631" height="2"/>
			</g>
		</g>
		<g>
			<path fill="#D6DDE9" d="M107.923,156.115l-0.018-1.377l1-0.014l-0.164,0.987c-6.061-1.009-11.102-3.862-15.123-8.563
				c-4.068-4.752-6.103-10.253-6.103-16.502v-9.01c0-7.005,2.483-12.991,7.45-17.958s10.953-7.45,17.959-7.451h18.555
				c0.276,0,0.512,0.098,0.707,0.293s0.293,0.432,0.293,0.707c0,0.276-0.098,0.513-0.293,0.707
				c-0.195,0.195-0.431,0.293-0.707,0.293h-18.555c-6.454,0.001-11.969,2.289-16.545,6.865s-6.864,10.091-6.864,16.544v9.01
				c0,5.756,1.874,10.823,5.622,15.202c3.707,4.331,8.351,6.962,13.932,7.89l0.824,0.138l0.029,2.213
				c0.004,0.276-0.091,0.513-0.283,0.711c-0.193,0.198-0.428,0.299-0.703,0.302c-0.276,0.004-0.514-0.091-0.711-0.283
				C108.027,156.625,107.927,156.391,107.923,156.115z M108.054,166.114l-0.065-4.999c-0.003-0.277,0.091-0.514,0.284-0.711
				c0.192-0.198,0.427-0.299,0.703-0.303c0.275-0.004,0.513,0.091,0.711,0.283c0.197,0.193,0.299,0.428,0.302,0.704l0.065,4.999
				c0.004,0.276-0.092,0.514-0.283,0.711c-0.193,0.198-0.428,0.299-0.703,0.303c-0.277,0.003-0.514-0.092-0.711-0.284
				C108.158,166.625,108.058,166.391,108.054,166.114z M110.185,176.101c0,0.276-0.098,0.512-0.293,0.707s-0.432,0.293-0.707,0.293
				c-0.276,0-0.512-0.098-0.707-0.293s-0.293-0.431-0.293-0.707s0.098-0.513,0.293-0.707c0.195-0.195,0.431-0.293,0.707-0.293
				c0.275,0,0.512,0.098,0.707,0.293C110.087,175.588,110.185,175.824,110.185,176.101z M199.652,148.828
				c-4.969,4.818-10.877,7.228-17.727,7.228h-49.292v-1l0.673,0.74l-25.091,22.774l-0.031-2.457
				c-0.004-0.275,0.091-0.513,0.283-0.711c0.193-0.197,0.428-0.299,0.703-0.302c0.276-0.004,0.514,0.091,0.711,0.284
				c0.198,0.192,0.299,0.427,0.303,0.703l0.003,0.237l-1,0.013l-0.673-0.74l23.733-21.542h49.678c6.309,0,11.754-2.221,16.334-6.663
				c0.197-0.191,0.436-0.286,0.711-0.281c0.277,0.004,0.512,0.105,0.703,0.303c0.191,0.199,0.287,0.436,0.281,0.712
				C199.951,148.402,199.85,148.637,199.652,148.828z M206.779,144.543h-4.129v-1l0.848,0.53c-0.162,0.259-0.328,0.515-0.5,0.768
				c-0.154,0.229-0.367,0.369-0.639,0.421c-0.271,0.053-0.521,0.002-0.75-0.153s-0.369-0.368-0.422-0.64
				c-0.051-0.271,0-0.521,0.154-0.749c0.158-0.233,0.313-0.469,0.461-0.707l0.293-0.47h4.684c0.275,0,0.512,0.098,0.707,0.293
				s0.293,0.431,0.293,0.707c0,0.275-0.098,0.512-0.293,0.707S207.055,144.543,206.779,144.543z M217.301,144.781
				c0,0.276-0.098,0.512-0.293,0.707s-0.432,0.293-0.707,0.293s-0.512-0.098-0.707-0.293s-0.293-0.431-0.293-0.707
				s0.098-0.512,0.293-0.707s0.432-0.293,0.707-0.293s0.512,0.098,0.707,0.293S217.301,144.505,217.301,144.781z M259.438,104.54
				c0.412,1.831,0.617,3.692,0.617,5.584v9.01c0,6.249-2.033,11.75-6.102,16.502c-4.023,4.7-9.064,7.555-15.123,8.563l-0.164-0.986
				l1,0.013l-0.313,23.832l-23.725-21.536c-0.205-0.186-0.314-0.416-0.326-0.691c-0.014-0.276,0.072-0.517,0.258-0.721
				c0.186-0.205,0.416-0.313,0.691-0.327c0.275-0.013,0.516,0.073,0.721,0.259l22.082,20.044l-0.672,0.741l-1-0.014l0.293-22.449
				l0.826-0.137c5.578-0.93,10.223-3.56,13.932-7.891c3.748-4.379,5.621-9.445,5.621-15.202v-9.01c0-1.743-0.189-3.458-0.568-5.145
				c-0.061-0.27-0.018-0.521,0.129-0.754c0.148-0.233,0.357-0.381,0.627-0.441s0.52-0.017,0.754,0.131
				C259.229,104.063,259.377,104.271,259.438,104.54z M255.143,95.122c1.033,1.408,1.91,2.903,2.633,4.486
				c0.115,0.251,0.125,0.506,0.027,0.765c-0.096,0.259-0.27,0.446-0.521,0.561s-0.506,0.123-0.766,0.027
				c-0.258-0.097-0.445-0.271-0.559-0.522c-0.666-1.458-1.475-2.835-2.426-4.133c-0.164-0.223-0.225-0.471-0.184-0.743
				c0.043-0.273,0.174-0.491,0.396-0.654c0.223-0.164,0.471-0.225,0.744-0.183S254.979,94.899,255.143,95.122z M247.959,89.054
				c0,0.276-0.098,0.512-0.293,0.707s-0.432,0.293-0.707,0.293c-0.277,0-0.512-0.098-0.707-0.293s-0.293-0.431-0.293-0.707
				s0.098-0.512,0.293-0.707s0.43-0.293,0.707-0.293c0.275,0,0.512,0.098,0.707,0.293S247.959,88.777,247.959,89.054z M148.44,91.45
				c4.896-4.49,10.631-6.735,17.203-6.735h69.003c4.596,0,8.867,1.159,12.818,3.477c0.238,0.14,0.393,0.343,0.461,0.61
				c0.07,0.268,0.035,0.52-0.105,0.758c-0.139,0.238-0.342,0.393-0.609,0.462s-0.52,0.035-0.758-0.105
				c-3.639-2.134-7.574-3.201-11.807-3.201h-69.003c-6.053,0.001-11.338,2.07-15.852,6.209c-0.204,0.187-0.443,0.274-0.72,0.262
				c-0.276-0.012-0.507-0.119-0.694-0.322c-0.186-0.204-0.273-0.443-0.262-0.72C148.128,91.868,148.236,91.637,148.44,91.45z
				 M141.479,96.228h3.439v1l-0.848-0.529c0.289-0.464,0.594-0.917,0.914-1.361c0.161-0.224,0.378-0.358,0.65-0.402
				c0.273-0.045,0.521,0.014,0.745,0.175s0.358,0.379,0.403,0.651c0.044,0.272-0.015,0.521-0.176,0.745
				c-0.295,0.409-0.574,0.826-0.842,1.252l-0.293,0.47h-3.994c-0.275,0-0.512-0.098-0.707-0.293
				c-0.195-0.194-0.293-0.431-0.293-0.707c0-0.275,0.098-0.512,0.293-0.707S141.204,96.228,141.479,96.228z M132.479,97.228
				c0,0.276-0.098,0.513-0.293,0.707c-0.195,0.195-0.431,0.293-0.707,0.293c-0.275,0-0.512-0.098-0.707-0.293
				c-0.195-0.194-0.293-0.431-0.293-0.707c0-0.275,0.098-0.512,0.293-0.707s0.432-0.293,0.707-0.293
				c0.276,0,0.512,0.098,0.707,0.293S132.479,96.952,132.479,97.228z"/>
		</g>
		<g>
			<g>
				<path fill="#D6DDE9" d="M202.266,130.647c0,11.233-9.105,20.341-20.34,20.341h-50.861l-17.928,16.272l-0.212-16.272
					c-11.234,0-20.341-9.107-20.341-20.341v-9.01c0-11.234,9.106-20.341,20.341-20.341h69.001c11.234,0,20.34,9.106,20.34,20.341
					V130.647z"/>
			</g>
			<g>
				<path fill="#FFFFFF" d="M186.4,114.19l-23.202,11.353l11.223,2.483l3.394,10.573L186.4,114.19z M183.547,117.398l-5.662,16.097
					l-1.915-5.966l-0.286-0.891l-0.912-0.202l-6.679-1.478L183.547,117.398"/>
			</g>
			<g>
				<circle fill="#FFFFFF" cx="109.089" cy="124.804" r="5.486"/>
			</g>
			<g>
				<circle fill="#FFFFFF" cx="123.017" cy="124.804" r="5.486"/>
			</g>
			<g>
				<circle fill="#FFFFFF" cx="136.945" cy="124.804" r="5.486"/>
			</g>
		</g>
		<g>
			<g>
				<path fill="#02F491" d="M245.74,80.219c-4.959,0-8.98,4.021-8.98,8.981c0,4.961,4.021,8.983,8.98,8.983
					c4.963,0,8.984-4.021,8.984-8.983C254.725,84.24,250.703,80.219,245.74,80.219z"/>
			</g>
			<g>
				<circle fill-rule="evenodd" clip-rule="evenodd" fill="#FFFFFF" cx="245.912" cy="92.831" r="0.973"/>
			</g>
			<g>
				<path fill="#FFFFFF" d="M245.889,90.81c-0.314,0-0.576-0.243-0.598-0.561c-0.086-1.26,0.332-1.785,0.818-2.394
					c0.127-0.16,0.268-0.337,0.422-0.551c0.229-0.326,0.486-0.801,0.402-1.215c-0.055-0.256-0.25-0.492-0.586-0.698
					c-0.84-0.519-2.107,0.155-2.119,0.161c-0.293,0.161-0.656,0.057-0.814-0.233c-0.16-0.289-0.055-0.653,0.234-0.813
					c0.076-0.041,1.887-1.023,3.326-0.133c0.629,0.384,1.01,0.883,1.131,1.479c0.139,0.667-0.064,1.389-0.598,2.142
					c-0.166,0.238-0.322,0.434-0.461,0.61c-0.449,0.56-0.615,0.768-0.561,1.566c0.021,0.329-0.229,0.615-0.559,0.638
					C245.916,90.81,245.9,90.81,245.889,90.81z"/>
			</g>
		</g>
	</g>
	<g>
		<path fill="#FFFFFF" d="M213.846,219.609c0,1.967-1.594,3.561-3.559,3.561h-71.192c-1.966,0-3.56-1.594-3.56-3.561
			c0-1.965,1.594-3.559,3.56-3.559h71.192C212.252,216.051,213.846,217.645,213.846,219.609z"/>
	</g>
	<g>
		<path fill="#FFFFFF" d="M121.058,228.075c-4.666,0-8.463-3.797-8.463-8.465c0-4.667,3.797-8.464,8.465-8.464
			s8.465,3.797,8.465,8.464c0,4.668-3.797,8.465-8.465,8.465H121.058z"/>
	</g>
	<g>
		<g>
			<path fill="#D6DDE9" d="M171.556,215.051h38.731c1.258,0,2.334,0.445,3.223,1.335c0.891,0.891,1.336,1.966,1.336,3.224
				c0,1.26-0.445,2.334-1.336,3.225s-1.965,1.336-3.223,1.336h-71.192c-1.26,0-2.334-0.445-3.225-1.336
				c-0.89-0.891-1.335-1.965-1.335-3.225c0-1.258,0.445-2.333,1.335-3.224c0.891-0.89,1.965-1.335,3.225-1.335h12.461
				c0.277,0,0.513,0.098,0.707,0.293c0.195,0.195,0.293,0.431,0.293,0.707c0,0.275-0.098,0.512-0.293,0.707
				c-0.194,0.195-0.43,0.293-0.707,0.293h-12.461c-1.707,0-2.56,0.853-2.56,2.559c0,0.707,0.25,1.311,0.749,1.811
				c0.5,0.5,1.104,0.75,1.811,0.75h71.192c0.705,0,1.309-0.25,1.809-0.75s0.75-1.104,0.75-1.811c0-1.706-0.854-2.559-2.559-2.559
				h-38.731c-0.275,0-0.512-0.098-0.707-0.293s-0.293-0.432-0.293-0.707c0-0.276,0.098-0.512,0.293-0.707
				S171.28,215.051,171.556,215.051z M161.556,215.051h5c0.277,0,0.513,0.098,0.707,0.293c0.195,0.195,0.293,0.431,0.293,0.707
				c0,0.275-0.098,0.512-0.293,0.707c-0.194,0.195-0.43,0.293-0.707,0.293h-5c-0.275,0-0.512-0.098-0.707-0.293
				s-0.293-0.432-0.293-0.707c0-0.276,0.098-0.512,0.293-0.707S161.28,215.051,161.556,215.051z M152.556,216.051
				c0,0.275-0.098,0.512-0.293,0.707c-0.194,0.195-0.43,0.293-0.707,0.293c-0.275,0-0.512-0.098-0.707-0.293
				s-0.293-0.432-0.293-0.707c0-0.276,0.098-0.512,0.293-0.707s0.432-0.293,0.707-0.293c0.277,0,0.513,0.098,0.707,0.293
				C152.458,215.539,152.556,215.774,152.556,216.051z"/>
		</g>
		<g>
			<path fill="#56A6FF" d="M210.211,220.61h-71.722c-0.553,0-1-0.448-1-1s0.447-1,1-1h71.722c0.553,0,1,0.448,1,1
				S210.764,220.61,210.211,220.61z"/>
		</g>
		<g>
			<path fill="#D6DDE9" d="M121.06,210.333c-5.123,0-9.278,4.154-9.278,9.278c0,5.123,4.153,9.277,9.277,9.277h0.001
				c5.125,0,9.279-4.154,9.279-9.277C130.339,214.487,126.185,210.333,121.06,210.333z M121.06,211.96
				c4.22,0,7.652,3.432,7.652,7.651c0,4.219-3.433,7.65-7.653,7.65c-4.218,0-7.649-3.432-7.649-7.65
				C113.409,215.392,116.841,211.96,121.06,211.96"/>
		</g>
		<g>
			<path fill="#56A6FF" d="M118.249,215.241v8.747l6.951-4.443L118.249,215.241z M119.877,218.162l2.268,1.404l-2.268,1.45V218.162"
				/>
		</g>
		<g>
			<path fill="#D9DDE0" d="M228.623,211.013c-4.941,0-8.949,4.007-8.949,8.95c0,4.942,4.008,8.949,8.949,8.949
				c4.943,0,8.951-4.007,8.951-8.949C237.574,215.02,233.566,211.013,228.623,211.013z M228.623,212.641
				c4.039,0,7.324,3.284,7.324,7.322c0,4.037-3.285,7.322-7.324,7.322c-4.037,0-7.322-3.285-7.322-7.322
				C221.301,215.925,224.586,212.641,228.623,212.641"/>
		</g>
		<g>
			<rect x="225.152" y="215.954" fill="#D9DDE0" width="2.385" height="8.226"/>
		</g>
		<g>
			<rect x="229.508" y="215.954" fill="#D9DDE0" width="2.383" height="8.226"/>
		</g>
	</g>
	<g>
		<path fill="#FFFFFF" d="M174.983,166.926c0.735,0,1.47,0.036,2.2,0.108c0.732,0.071,1.459,0.18,2.182,0.323
			c0.721,0.144,1.434,0.322,2.139,0.535c0.703,0.214,1.395,0.461,2.074,0.743c0.68,0.281,1.344,0.596,1.994,0.942
			c0.648,0.347,1.279,0.725,1.891,1.133c0.611,0.409,1.201,0.847,1.77,1.313s1.113,0.96,1.635,1.48
			c0.52,0.521,1.012,1.064,1.479,1.634c0.467,0.568,0.906,1.158,1.314,1.77c0.408,0.612,0.785,1.242,1.133,1.892
			c0.348,0.648,0.66,1.313,0.943,1.993c0.281,0.68,0.527,1.371,0.742,2.074c0.213,0.705,0.393,1.418,0.535,2.139
			c0.145,0.722,0.252,1.449,0.324,2.181c0.072,0.732,0.107,1.466,0.107,2.202c0,0.735-0.035,1.469-0.107,2.201
			s-0.18,1.459-0.324,2.181c-0.143,0.722-0.322,1.435-0.535,2.139c-0.215,0.704-0.461,1.396-0.742,2.075
			c-0.283,0.68-0.596,1.344-0.943,1.993c-0.348,0.648-0.725,1.278-1.133,1.891c-0.408,0.611-0.848,1.202-1.314,1.771
			s-0.959,1.113-1.479,1.633c-0.521,0.521-1.066,1.014-1.635,1.48s-1.158,0.904-1.77,1.313s-1.242,0.786-1.891,1.134
			c-0.65,0.346-1.314,0.66-1.994,0.941c-0.68,0.282-1.371,0.529-2.074,0.743c-0.705,0.214-1.418,0.392-2.139,0.536
			c-0.723,0.143-1.449,0.251-2.182,0.323c-0.73,0.071-1.465,0.108-2.2,0.108c-0.736,0-1.47-0.037-2.202-0.108
			c-0.731-0.072-1.459-0.181-2.181-0.323c-0.721-0.145-1.434-0.322-2.139-0.536c-0.703-0.214-1.395-0.461-2.074-0.743
			c-0.68-0.281-1.345-0.596-1.993-0.941c-0.649-0.348-1.279-0.725-1.892-1.134c-0.611-0.409-1.201-0.847-1.77-1.313
			s-1.113-0.96-1.634-1.48c-0.521-0.52-1.014-1.064-1.48-1.633s-0.904-1.159-1.313-1.771c-0.408-0.612-0.786-1.242-1.133-1.891
			c-0.347-0.649-0.661-1.313-0.942-1.993c-0.282-0.68-0.529-1.371-0.743-2.075c-0.213-0.704-0.392-1.417-0.535-2.139
			s-0.252-1.448-0.323-2.181c-0.072-0.732-0.108-1.466-0.108-2.201c0-0.736,0.036-1.47,0.108-2.202
			c0.071-0.731,0.18-1.459,0.323-2.181c0.144-0.721,0.322-1.434,0.535-2.139c0.214-0.703,0.461-1.395,0.743-2.074
			c0.281-0.68,0.596-1.345,0.942-1.993c0.347-0.649,0.725-1.279,1.133-1.892c0.409-0.611,0.847-1.201,1.313-1.77
			c0.467-0.569,0.96-1.113,1.48-1.634s1.065-1.014,1.634-1.48s1.158-0.904,1.77-1.313c0.612-0.408,1.242-0.786,1.892-1.133
			c0.648-0.347,1.313-0.661,1.993-0.942c0.68-0.282,1.371-0.529,2.074-0.743c0.705-0.213,1.418-0.392,2.139-0.535
			c0.722-0.144,1.449-0.252,2.181-0.323C173.514,166.962,174.247,166.926,174.983,166.926z"/>
	</g>
	<g opacity="0.251">
		<path fill="#D6DDE9" d="M174.983,211.852c-0.735,0-1.477-0.037-2.203-0.109c-0.728-0.071-1.461-0.18-2.18-0.322
			c-0.713-0.143-1.434-0.322-2.138-0.536c-0.702-0.214-1.401-0.463-2.076-0.743c-0.678-0.28-1.349-0.598-1.993-0.941
			c-0.646-0.346-1.281-0.728-1.891-1.134c-0.609-0.407-1.205-0.849-1.77-1.313c-0.57-0.468-1.119-0.966-1.634-1.48
			c-0.517-0.516-1.015-1.065-1.48-1.633c-0.464-0.564-0.905-1.16-1.313-1.771c-0.406-0.608-0.787-1.245-1.133-1.891
			c-0.346-0.649-0.664-1.319-0.942-1.993c-0.28-0.675-0.529-1.373-0.743-2.076c-0.213-0.703-0.393-1.422-0.535-2.139
			s-0.252-1.451-0.323-2.18c-0.071-0.73-0.108-1.471-0.108-2.201s0.037-1.471,0.108-2.202c0.071-0.729,0.181-1.462,0.323-2.181
			c0.142-0.714,0.322-1.434,0.535-2.139c0.214-0.701,0.463-1.4,0.743-2.075c0.278-0.673,0.597-1.344,0.942-1.992
			c0.346-0.646,0.727-1.282,1.133-1.892c0.408-0.609,0.85-1.205,1.313-1.77c0.468-0.57,0.966-1.119,1.48-1.634
			s1.063-1.013,1.633-1.479c0.565-0.465,1.161-0.906,1.771-1.314c0.609-0.406,1.245-0.787,1.891-1.133
			c0.649-0.346,1.32-0.664,1.993-0.942c0.675-0.28,1.374-0.529,2.076-0.743c0.704-0.213,1.424-0.394,2.139-0.535
			c0.718-0.143,1.451-0.252,2.18-0.323c1.452-0.144,2.954-0.144,4.404,0c0.727,0.071,1.461,0.181,2.18,0.323
			c0.715,0.143,1.436,0.322,2.139,0.535c0.703,0.214,1.4,0.464,2.074,0.743c0.676,0.28,1.346,0.597,1.992,0.942
			c0.645,0.344,1.281,0.726,1.893,1.133c0.613,0.41,1.209,0.853,1.77,1.313c0.564,0.464,1.115,0.962,1.633,1.48
			c0.518,0.517,1.016,1.065,1.48,1.633c0.469,0.571,0.91,1.167,1.314,1.771c0.406,0.607,0.787,1.244,1.133,1.892
			c0.344,0.641,0.66,1.312,0.943,1.991c0.279,0.678,0.529,1.376,0.742,2.076c0.213,0.705,0.393,1.426,0.535,2.14
			c0.143,0.71,0.25,1.444,0.324,2.179c0.072,0.737,0.107,1.479,0.107,2.203s-0.035,1.465-0.107,2.201
			c-0.074,0.736-0.182,1.47-0.324,2.182c-0.143,0.715-0.322,1.434-0.535,2.138c-0.213,0.7-0.463,1.399-0.742,2.075
			c-0.283,0.682-0.6,1.352-0.943,1.994c-0.346,0.646-0.727,1.282-1.133,1.89c-0.404,0.604-0.846,1.2-1.313,1.771
			c-0.465,0.565-0.963,1.115-1.482,1.633c-0.518,0.52-1.068,1.018-1.633,1.48c-0.561,0.461-1.156,0.903-1.77,1.313
			c-0.611,0.408-1.248,0.79-1.891,1.135c-0.645,0.344-1.314,0.66-1.994,0.941c-0.674,0.279-1.371,0.529-2.074,0.743
			s-1.424,0.394-2.141,0.536s-1.451,0.251-2.18,0.322C176.459,211.814,175.72,211.852,174.983,211.852z M174.983,168.926
			c-0.67,0-1.345,0.033-2.006,0.099c-0.664,0.065-1.332,0.165-1.986,0.295c-0.65,0.129-1.307,0.293-1.947,0.487
			s-1.277,0.422-1.892,0.677s-1.225,0.543-1.815,0.858c-0.588,0.314-1.168,0.662-1.723,1.033s-1.098,0.773-1.613,1.195
			c-0.518,0.426-1.019,0.881-1.487,1.349c-0.468,0.469-0.923,0.97-1.349,1.488c-0.422,0.515-0.824,1.058-1.195,1.612
			s-0.719,1.135-1.033,1.723c-0.315,0.591-0.604,1.201-0.858,1.815s-0.482,1.251-0.677,1.891c-0.194,0.642-0.358,1.298-0.487,1.947
			c-0.13,0.655-0.229,1.323-0.295,1.987c-0.065,0.666-0.099,1.34-0.099,2.006c0,0.665,0.033,1.34,0.099,2.006
			c0.065,0.664,0.165,1.332,0.295,1.986c0.129,0.652,0.294,1.307,0.487,1.947c0.194,0.641,0.422,1.276,0.677,1.891
			s0.543,1.225,0.858,1.816c0.314,0.588,0.662,1.168,1.033,1.722c0.371,0.556,0.773,1.099,1.195,1.613
			c0.424,0.517,0.878,1.017,1.349,1.487c0.469,0.469,0.97,0.923,1.488,1.35c0.515,0.422,1.058,0.824,1.612,1.195
			s1.135,0.718,1.723,1.033c0.587,0.313,1.197,0.602,1.815,0.857c0.614,0.255,1.251,0.482,1.892,0.677s1.297,0.358,1.946,0.487
			c0.655,0.131,1.323,0.23,1.987,0.295c1.322,0.131,2.69,0.131,4.011,0c0.664-0.064,1.332-0.164,1.986-0.295
			c0.652-0.129,1.309-0.293,1.949-0.487c0.639-0.194,1.275-0.422,1.889-0.677c0.619-0.256,1.23-0.545,1.816-0.857
			c0.586-0.314,1.166-0.662,1.723-1.033c0.559-0.373,1.102-0.775,1.611-1.195c0.516-0.423,1.016-0.877,1.488-1.35
			s0.928-0.973,1.35-1.488c0.426-0.519,0.828-1.062,1.197-1.612c0.369-0.553,0.715-1.132,1.031-1.722
			c0.313-0.586,0.602-1.196,0.859-1.816c0.254-0.615,0.482-1.252,0.676-1.891c0.193-0.641,0.357-1.295,0.488-1.947
			c0.129-0.648,0.229-1.317,0.295-1.987c0.064-0.669,0.098-1.345,0.098-2.005s-0.033-1.336-0.098-2.007
			c-0.066-0.669-0.166-1.337-0.295-1.985c-0.129-0.65-0.293-1.307-0.488-1.948c-0.193-0.639-0.422-1.274-0.676-1.892
			c-0.258-0.619-0.547-1.229-0.859-1.813c-0.316-0.591-0.662-1.171-1.031-1.724c-0.369-0.551-0.771-1.093-1.197-1.613
			c-0.424-0.516-0.879-1.018-1.35-1.487c-0.473-0.473-0.973-0.927-1.488-1.349c-0.51-0.42-1.053-0.822-1.611-1.196
			c-0.557-0.371-1.137-0.719-1.723-1.032c-0.59-0.314-1.201-0.604-1.816-0.858c-0.613-0.255-1.25-0.481-1.891-0.677
			c-0.639-0.193-1.295-0.357-1.947-0.487c-0.654-0.13-1.322-0.229-1.986-0.295C176.328,168.959,175.653,168.926,174.983,168.926z"/>
	</g>
	<g opacity="0.5">
		<path fill="#D6DDE9" d="M174.979,193.571c3.55,0,6.438-2.889,6.438-6.438v-9.09c0-3.551-2.889-6.439-6.438-6.439
			c-3.551,0.001-6.439,2.891-6.439,6.439v9.09C168.54,190.683,171.429,193.571,174.979,193.571z M170.54,178.043
			c0-2.447,1.992-4.438,4.439-4.439c2.446,0,4.438,1.992,4.438,4.439v9.09c0,2.447-1.992,4.438-4.438,4.438
			c-2.447,0-4.439-1.991-4.439-4.438V178.043z"/>
		<path fill="#D6DDE9" d="M185.701,187.011h-2c0,4.728-3.846,8.574-8.572,8.574s-8.571-3.846-8.571-8.573h-2
			c0,5.445,4.137,9.939,9.432,10.51l-0.021,6.958h-5.25v2h12.956v-2h-5.707l0.023-6.938
			C181.418,197.101,185.701,192.551,185.701,187.011z"/>
	</g>
	<g opacity="0.251">
		<path fill="#D9DDE0" d="M172.613,31.534c0.739-0.018,1.479-0.025,2.219-0.025c1.646,0,3.291,0.042,4.936,0.125
			c0.275,0.015,0.506,0.124,0.691,0.329s0.271,0.445,0.256,0.721c-0.014,0.276-0.123,0.507-0.328,0.691
			c-0.205,0.186-0.445,0.271-0.721,0.257c-1.609-0.082-3.221-0.123-4.834-0.123c-0.724,0-1.448,0.008-2.173,0.024
			c-0.276,0.007-0.514-0.086-0.714-0.276s-0.303-0.424-0.31-0.7c-0.006-0.276,0.086-0.514,0.277-0.714
			C172.104,31.644,172.337,31.54,172.613,31.534z M173.636,32.534c0,0.275-0.098,0.512-0.293,0.707s-0.431,0.293-0.707,0.293
			c-0.275,0-0.512-0.098-0.707-0.293s-0.293-0.432-0.293-0.707c0-0.276,0.098-0.513,0.293-0.708s0.432-0.292,0.707-0.292
			c0.276,0,0.512,0.097,0.707,0.292S173.636,32.258,173.636,32.534z M173.636,32.534c0,0.275-0.098,0.512-0.293,0.707
			s-0.431,0.293-0.707,0.293c-0.275,0-0.512-0.098-0.707-0.293s-0.293-0.432-0.293-0.707c0-0.276,0.098-0.513,0.293-0.708
			s0.432-0.292,0.707-0.292c0.276,0,0.512,0.097,0.707,0.292S173.636,32.258,173.636,32.534z M157.472,33.074
			c1.697-0.309,3.4-0.571,5.111-0.789c0.273-0.035,0.52,0.032,0.738,0.201s0.345,0.391,0.38,0.664
			c0.034,0.274-0.032,0.521-0.201,0.739c-0.169,0.218-0.391,0.345-0.665,0.38c-1.675,0.213-3.344,0.471-5.006,0.772
			c-0.271,0.05-0.521-0.004-0.748-0.161c-0.227-0.157-0.365-0.372-0.414-0.644c-0.05-0.271,0.004-0.521,0.161-0.748
			C156.985,33.263,157.2,33.124,157.472,33.074z M158.65,34.059c0,0.276-0.098,0.512-0.293,0.707
			c-0.194,0.195-0.431,0.293-0.707,0.293s-0.512-0.098-0.707-0.293s-0.293-0.431-0.293-0.707s0.098-0.512,0.293-0.707
			s0.431-0.293,0.707-0.293s0.513,0.098,0.707,0.293C158.553,33.547,158.65,33.782,158.65,34.059z M158.65,34.059
			c0,0.276-0.098,0.512-0.293,0.707c-0.194,0.195-0.431,0.293-0.707,0.293s-0.512-0.098-0.707-0.293s-0.293-0.431-0.293-0.707
			s0.098-0.512,0.293-0.707s0.431-0.293,0.707-0.293s0.513,0.098,0.707,0.293C158.553,33.547,158.65,33.782,158.65,34.059z
			 M142.872,36.925c1.606-0.561,3.227-1.078,4.859-1.554c0.266-0.077,0.519-0.049,0.761,0.084s0.401,0.332,0.479,0.597
			c0.076,0.266,0.049,0.519-0.084,0.761s-0.332,0.401-0.598,0.479c-1.6,0.466-3.186,0.973-4.759,1.521
			c-0.261,0.092-0.515,0.077-0.765-0.043c-0.248-0.12-0.418-0.311-0.509-0.571s-0.077-0.516,0.044-0.765
			C142.421,37.186,142.612,37.016,142.872,36.925z M144.202,37.869c0,0.275-0.098,0.512-0.293,0.707s-0.432,0.293-0.707,0.293
			c-0.276,0-0.512-0.098-0.707-0.293s-0.293-0.432-0.293-0.707c0-0.276,0.098-0.513,0.293-0.708s0.431-0.292,0.707-0.292
			c0.275,0,0.512,0.097,0.707,0.292S144.202,37.593,144.202,37.869z M144.202,37.869c0,0.275-0.098,0.512-0.293,0.707
			s-0.432,0.293-0.707,0.293c-0.276,0-0.512-0.098-0.707-0.293s-0.293-0.432-0.293-0.707c0-0.276,0.098-0.513,0.293-0.708
			s0.431-0.292,0.707-0.292c0.275,0,0.512,0.097,0.707,0.292S144.202,37.593,144.202,37.869z M128.986,43.025
			c1.485-0.796,2.99-1.554,4.515-2.271c0.25-0.118,0.506-0.13,0.766-0.036c0.26,0.093,0.448,0.265,0.566,0.515
			c0.117,0.25,0.129,0.505,0.035,0.765c-0.093,0.26-0.265,0.448-0.514,0.566c-1.494,0.703-2.969,1.444-4.424,2.225
			c-0.242,0.131-0.496,0.156-0.761,0.076c-0.265-0.079-0.462-0.241-0.593-0.484s-0.156-0.497-0.076-0.762
			S128.743,43.156,128.986,43.025z M130.458,43.907c0,0.276-0.097,0.512-0.292,0.707s-0.431,0.293-0.708,0.293
			c-0.275,0-0.512-0.098-0.707-0.293s-0.293-0.431-0.293-0.707s0.098-0.512,0.293-0.707s0.432-0.293,0.707-0.293
			c0.277,0,0.513,0.098,0.708,0.293S130.458,43.631,130.458,43.907z M130.458,43.907c0,0.276-0.097,0.512-0.292,0.707
			s-0.431,0.293-0.708,0.293c-0.275,0-0.512-0.098-0.707-0.293s-0.293-0.431-0.293-0.707s0.098-0.512,0.293-0.707
			s0.432-0.293,0.707-0.293c0.277,0,0.513,0.098,0.708,0.293S130.458,43.631,130.458,43.907z M116.183,51.245
			c1.34-1.017,2.706-1.998,4.098-2.944c0.228-0.155,0.478-0.207,0.748-0.155c0.271,0.052,0.485,0.191,0.641,0.42
			s0.207,0.479,0.155,0.75c-0.052,0.271-0.191,0.484-0.42,0.64c-1.362,0.927-2.7,1.888-4.012,2.884
			c-0.22,0.167-0.467,0.231-0.741,0.194c-0.273-0.038-0.493-0.167-0.66-0.387s-0.231-0.467-0.194-0.74
			C115.835,51.633,115.964,51.412,116.183,51.245z M117.788,52.042c0,0.276-0.098,0.512-0.293,0.707s-0.432,0.293-0.707,0.293
			c-0.276,0-0.512-0.098-0.707-0.293s-0.293-0.431-0.293-0.707s0.098-0.512,0.293-0.707s0.431-0.293,0.707-0.293
			c0.275,0,0.512,0.098,0.707,0.293S117.788,51.766,117.788,52.042z M117.788,52.042c0,0.276-0.098,0.512-0.293,0.707
			s-0.432,0.293-0.707,0.293c-0.276,0-0.512-0.098-0.707-0.293s-0.293-0.431-0.293-0.707s0.098-0.512,0.293-0.707
			s0.431-0.293,0.707-0.293c0.275,0,0.512,0.098,0.707,0.293S117.788,51.766,117.788,52.042z M104.832,61.356
			c1.173-1.222,2.376-2.412,3.61-3.571c0.201-0.188,0.439-0.279,0.717-0.271c0.275,0.009,0.508,0.114,0.697,0.315
			c0.188,0.201,0.279,0.44,0.27,0.716c-0.008,0.276-0.113,0.509-0.314,0.697c-1.209,1.136-2.389,2.301-3.536,3.498
			c-0.191,0.199-0.425,0.302-0.701,0.308s-0.514-0.087-0.713-0.278s-0.302-0.425-0.308-0.701S104.642,61.556,104.832,61.356z
			 M106.554,62.049c0,0.276-0.098,0.512-0.293,0.707s-0.431,0.293-0.707,0.293s-0.512-0.098-0.707-0.293s-0.293-0.431-0.293-0.707
			s0.098-0.512,0.293-0.707s0.431-0.293,0.707-0.293s0.512,0.098,0.707,0.293S106.554,61.772,106.554,62.049z M106.554,62.049
			c0,0.276-0.098,0.512-0.293,0.707s-0.431,0.293-0.707,0.293s-0.512-0.098-0.707-0.293s-0.293-0.431-0.293-0.707
			s0.098-0.512,0.293-0.707s0.431-0.293,0.707-0.293s0.512,0.098,0.707,0.293S106.554,61.772,106.554,62.049z M95.214,73.096
			c0.962-1.382,1.959-2.737,2.992-4.067c0.169-0.218,0.391-0.345,0.664-0.379c0.274-0.034,0.521,0.033,0.738,0.202
			c0.219,0.17,0.345,0.392,0.379,0.665c0.035,0.274-0.033,0.521-0.202,0.738c-1.011,1.303-1.987,2.631-2.93,3.983
			c-0.157,0.228-0.372,0.365-0.645,0.413c-0.271,0.049-0.521-0.006-0.747-0.163c-0.227-0.158-0.365-0.373-0.414-0.645
			S95.056,73.323,95.214,73.096z M97.034,73.667c0,0.276-0.098,0.513-0.293,0.708c-0.195,0.194-0.43,0.292-0.707,0.292
			c-0.275,0-0.512-0.098-0.707-0.292c-0.195-0.195-0.293-0.432-0.293-0.708c0-0.275,0.098-0.512,0.293-0.707
			s0.432-0.293,0.707-0.293c0.277,0,0.512,0.098,0.707,0.293S97.034,73.392,97.034,73.667z M97.034,73.667
			c0,0.276-0.098,0.513-0.293,0.708c-0.195,0.194-0.43,0.292-0.707,0.292c-0.275,0-0.512-0.098-0.707-0.292
			c-0.195-0.195-0.293-0.432-0.293-0.708c0-0.275,0.098-0.512,0.293-0.707s0.432-0.293,0.707-0.293c0.277,0,0.512,0.098,0.707,0.293
			S97.034,73.392,97.034,73.667z M87.524,86.235c0.735-1.52,1.51-3.02,2.324-4.498c0.133-0.242,0.332-0.401,0.598-0.479
			s0.52-0.049,0.761,0.084c0.242,0.134,0.401,0.333,0.479,0.598c0.077,0.266,0.049,0.519-0.085,0.761
			c-0.797,1.449-1.557,2.917-2.277,4.405c-0.119,0.249-0.311,0.419-0.571,0.509c-0.261,0.091-0.516,0.076-0.765-0.044
			c-0.248-0.121-0.418-0.312-0.508-0.572C87.389,86.738,87.403,86.483,87.524,86.235z M89.424,86.671
			c0,0.276-0.098,0.512-0.293,0.707s-0.431,0.293-0.707,0.293s-0.512-0.098-0.707-0.293s-0.293-0.431-0.293-0.707
			s0.098-0.512,0.293-0.707s0.431-0.293,0.707-0.293s0.512,0.098,0.707,0.293S89.424,86.395,89.424,86.671z M89.424,86.671
			c0,0.276-0.098,0.512-0.293,0.707s-0.431,0.293-0.707,0.293s-0.512-0.098-0.707-0.293s-0.293-0.431-0.293-0.707
			s0.098-0.512,0.293-0.707s0.431-0.293,0.707-0.293s0.512,0.098,0.707,0.293S89.424,86.395,89.424,86.671z M81.989,100.398
			c0.494-1.633,1.031-3.251,1.611-4.854c0.094-0.26,0.266-0.448,0.516-0.565s0.505-0.129,0.765-0.035
			c0.259,0.094,0.448,0.266,0.565,0.516s0.129,0.505,0.035,0.765c-0.568,1.57-1.094,3.155-1.578,4.754
			c-0.08,0.265-0.242,0.462-0.485,0.592c-0.243,0.131-0.497,0.156-0.762,0.076s-0.462-0.242-0.592-0.485
			C81.935,100.916,81.909,100.662,81.989,100.398z M83.946,100.688c0,0.275-0.098,0.512-0.293,0.707s-0.432,0.293-0.707,0.293
			c-0.276,0-0.512-0.098-0.707-0.293s-0.293-0.432-0.293-0.707c0-0.276,0.098-0.513,0.293-0.708
			c0.195-0.194,0.431-0.292,0.707-0.292c0.275,0,0.512,0.098,0.707,0.292C83.849,100.176,83.946,100.412,83.946,100.688z
			 M83.946,100.688c0,0.275-0.098,0.512-0.293,0.707s-0.432,0.293-0.707,0.293c-0.276,0-0.512-0.098-0.707-0.293
			s-0.293-0.432-0.293-0.707c0-0.276,0.098-0.513,0.293-0.708c0.195-0.194,0.431-0.292,0.707-0.292c0.275,0,0.512,0.098,0.707,0.292
			C83.849,100.176,83.946,100.412,83.946,100.688z M78.743,115.202c0.234-1.699,0.516-3.392,0.841-5.076
			c0.052-0.271,0.192-0.484,0.421-0.639c0.229-0.155,0.479-0.206,0.75-0.153c0.271,0.052,0.484,0.192,0.639,0.421
			c0.155,0.229,0.207,0.479,0.154,0.75c-0.318,1.65-0.594,3.308-0.824,4.972c-0.037,0.273-0.167,0.494-0.387,0.66
			c-0.221,0.167-0.467,0.231-0.74,0.193c-0.274-0.038-0.494-0.167-0.661-0.387C78.769,115.723,78.704,115.476,78.743,115.202z
			 M80.733,115.34c0,0.275-0.098,0.512-0.293,0.707s-0.432,0.293-0.707,0.293c-0.276,0-0.512-0.098-0.707-0.293
			s-0.293-0.432-0.293-0.707c0-0.276,0.098-0.512,0.293-0.707s0.431-0.293,0.707-0.293c0.275,0,0.512,0.098,0.707,0.293
			S80.733,115.063,80.733,115.34z M80.733,115.34c0,0.275-0.098,0.512-0.293,0.707s-0.432,0.293-0.707,0.293
			c-0.276,0-0.512-0.098-0.707-0.293s-0.293-0.432-0.293-0.707c0-0.276,0.098-0.512,0.293-0.707s0.431-0.293,0.707-0.293
			c0.275,0,0.512,0.098,0.707,0.293S80.733,115.063,80.733,115.34z M77.839,130.18c-0.01-0.555-0.014-1.109-0.014-1.663
			c0-1.085,0.018-2.169,0.055-3.253c0.009-0.275,0.114-0.508,0.316-0.696c0.201-0.188,0.439-0.278,0.716-0.27
			c0.276,0.01,0.509,0.115,0.696,0.316c0.189,0.202,0.279,0.44,0.27,0.717c-0.035,1.062-0.053,2.124-0.053,3.186
			c0,0.543,0.004,1.085,0.014,1.628c0.004,0.276-0.089,0.514-0.281,0.713c-0.191,0.198-0.426,0.3-0.701,0.305
			c-0.276,0.004-0.514-0.09-0.713-0.281C77.945,130.689,77.844,130.455,77.839,130.18z M79.839,130.162
			c0,0.275-0.098,0.512-0.293,0.707s-0.432,0.293-0.707,0.293c-0.276,0-0.512-0.098-0.707-0.293s-0.293-0.432-0.293-0.707
			c0-0.276,0.098-0.512,0.293-0.707s0.431-0.293,0.707-0.293c0.275,0,0.512,0.098,0.707,0.293S79.839,129.886,79.839,130.162z
			 M79.839,130.162c0,0.275-0.098,0.512-0.293,0.707s-0.432,0.293-0.707,0.293c-0.276,0-0.512-0.098-0.707-0.293
			s-0.293-0.432-0.293-0.707c0-0.276,0.098-0.512,0.293-0.707s0.431-0.293,0.707-0.293c0.275,0,0.512,0.098,0.707,0.293
			S79.839,129.886,79.839,130.162z M79.287,145.298c-0.298-1.695-0.55-3.397-0.757-5.106c-0.033-0.273,0.035-0.52,0.205-0.736
			c0.17-0.218,0.393-0.344,0.667-0.377s0.52,0.036,0.737,0.206c0.217,0.171,0.342,0.394,0.375,0.667c0.203,1.674,0.451,3.34,0.742,5
			c0.048,0.272-0.008,0.521-0.166,0.748c-0.158,0.226-0.373,0.363-0.646,0.41c-0.272,0.048-0.521-0.008-0.747-0.166
			S79.335,145.57,79.287,145.298z M81.272,145.125c0,0.275-0.098,0.512-0.293,0.707s-0.432,0.293-0.707,0.293
			c-0.276,0-0.512-0.098-0.707-0.293s-0.293-0.432-0.293-0.707c0-0.276,0.098-0.512,0.293-0.707s0.431-0.293,0.707-0.293
			c0.275,0,0.512,0.098,0.707,0.293S81.272,144.849,81.272,145.125z M81.272,145.125c0,0.275-0.098,0.512-0.293,0.707
			s-0.432,0.293-0.707,0.293c-0.276,0-0.512-0.098-0.707-0.293s-0.293-0.432-0.293-0.707c0-0.276,0.098-0.512,0.293-0.707
			s0.431-0.293,0.707-0.293c0.275,0,0.512,0.098,0.707,0.293S81.272,144.849,81.272,145.125z M83.052,159.929
			c-0.551-1.606-1.059-3.228-1.523-4.861c-0.075-0.266-0.045-0.519,0.089-0.761c0.134-0.24,0.335-0.398,0.6-0.475
			c0.266-0.076,0.519-0.047,0.761,0.088c0.241,0.135,0.399,0.334,0.475,0.6c0.455,1.601,0.953,3.188,1.491,4.762
			c0.09,0.262,0.073,0.516-0.048,0.764s-0.313,0.416-0.574,0.506s-0.516,0.074-0.764-0.048S83.141,160.189,83.052,159.929z
			 M84.997,159.605c0,0.275-0.098,0.512-0.293,0.707s-0.431,0.293-0.707,0.293c-0.275,0-0.512-0.098-0.707-0.293
			s-0.293-0.432-0.293-0.707c0-0.277,0.098-0.513,0.293-0.707c0.195-0.195,0.432-0.293,0.707-0.293c0.276,0,0.512,0.098,0.707,0.293
			C84.899,159.093,84.997,159.328,84.997,159.605z M84.997,159.605c0,0.275-0.098,0.512-0.293,0.707s-0.431,0.293-0.707,0.293
			c-0.275,0-0.512-0.098-0.707-0.293s-0.293-0.432-0.293-0.707c0-0.277,0.098-0.513,0.293-0.707
			c0.195-0.195,0.432-0.293,0.707-0.293c0.276,0,0.512,0.098,0.707,0.293C84.899,159.093,84.997,159.328,84.997,159.605z
			 M89.073,173.857c-0.787-1.489-1.535-2.998-2.244-4.525c-0.116-0.25-0.127-0.506-0.031-0.765c0.095-0.259,0.268-0.446,0.518-0.563
			c0.25-0.115,0.506-0.127,0.766-0.031c0.259,0.095,0.446,0.268,0.563,0.518c0.693,1.496,1.426,2.974,2.197,4.432
			c0.129,0.244,0.152,0.498,0.071,0.762s-0.244,0.461-0.488,0.59s-0.498,0.152-0.762,0.072
			C89.397,174.264,89.202,174.102,89.073,173.857z M90.956,173.39c0,0.276-0.098,0.512-0.293,0.707s-0.43,0.293-0.707,0.293
			c-0.275,0-0.512-0.098-0.707-0.293s-0.293-0.431-0.293-0.707s0.098-0.513,0.293-0.708c0.195-0.194,0.432-0.292,0.707-0.292
			c0.277,0,0.512,0.098,0.707,0.292C90.858,172.877,90.956,173.113,90.956,173.39z M90.956,173.39c0,0.276-0.098,0.512-0.293,0.707
			s-0.43,0.293-0.707,0.293c-0.275,0-0.512-0.098-0.707-0.293s-0.293-0.431-0.293-0.707s0.098-0.513,0.293-0.708
			c0.195-0.194,0.432-0.292,0.707-0.292c0.277,0,0.512,0.098,0.707,0.292C90.858,172.877,90.956,173.113,90.956,173.39z
			 M97.218,186.71c-1.009-1.345-1.981-2.716-2.919-4.112c-0.153-0.229-0.204-0.479-0.151-0.75c0.054-0.271,0.195-0.483,0.424-0.637
			c0.229-0.154,0.479-0.205,0.75-0.151c0.271,0.054,0.484,0.194,0.638,0.424c0.918,1.366,1.871,2.709,2.858,4.026
			c0.166,0.221,0.229,0.469,0.19,0.742s-0.169,0.492-0.39,0.658s-0.469,0.229-0.742,0.189S97.384,186.931,97.218,186.71z
			 M99.019,186.109c0,0.277-0.098,0.512-0.293,0.707s-0.432,0.293-0.707,0.293c-0.277,0-0.513-0.098-0.708-0.293
			s-0.292-0.43-0.292-0.707c0-0.275,0.097-0.512,0.292-0.707s0.431-0.293,0.708-0.293c0.275,0,0.512,0.098,0.707,0.293
			S99.019,185.834,99.019,186.109z M99.019,186.109c0,0.277-0.098,0.512-0.293,0.707s-0.432,0.293-0.707,0.293
			c-0.277,0-0.513-0.098-0.708-0.293s-0.292-0.43-0.292-0.707c0-0.275,0.097-0.512,0.292-0.707s0.431-0.293,0.708-0.293
			c0.275,0,0.512,0.098,0.707,0.293S99.019,185.834,99.019,186.109z M107.26,198.118c-1.215-1.179-2.397-2.39-3.55-3.632
			c-0.188-0.201-0.276-0.441-0.266-0.717c0.01-0.276,0.116-0.508,0.318-0.695c0.203-0.188,0.441-0.277,0.719-0.267
			c0.275,0.011,0.508,0.116,0.695,0.319c1.127,1.216,2.287,2.401,3.477,3.557c0.197,0.191,0.299,0.426,0.303,0.703
			c0.004,0.275-0.09,0.513-0.282,0.711c-0.192,0.197-0.427,0.299-0.702,0.303C107.694,198.404,107.458,198.311,107.26,198.118z
			 M108.956,197.4c0,0.276-0.098,0.512-0.293,0.707s-0.431,0.293-0.707,0.293c-0.275,0-0.512-0.098-0.707-0.293
			s-0.293-0.431-0.293-0.707c0-0.275,0.098-0.512,0.293-0.707s0.432-0.293,0.707-0.293c0.276,0,0.512,0.098,0.707,0.293
			S108.956,197.125,108.956,197.4z M108.956,197.4c0,0.276-0.098,0.512-0.293,0.707s-0.431,0.293-0.707,0.293
			c-0.275,0-0.512-0.098-0.707-0.293s-0.293-0.431-0.293-0.707c0-0.275,0.098-0.512,0.293-0.707s0.432-0.293,0.707-0.293
			c0.276,0,0.512,0.098,0.707,0.293S108.956,197.125,108.956,197.4z M118.946,207.809c-1.377-0.971-2.728-1.977-4.053-3.018
			c-0.217-0.17-0.342-0.393-0.375-0.666c-0.032-0.275,0.037-0.521,0.207-0.738c0.171-0.217,0.393-0.342,0.667-0.375
			c0.274-0.032,0.521,0.037,0.737,0.207c1.297,1.02,2.62,2.004,3.969,2.955c0.225,0.158,0.361,0.375,0.408,0.646
			s-0.008,0.521-0.168,0.746c-0.158,0.227-0.375,0.363-0.646,0.41S119.171,207.967,118.946,207.809z M120.522,206.99
			c0,0.277-0.098,0.513-0.293,0.707c-0.195,0.195-0.432,0.293-0.707,0.293c-0.277,0-0.512-0.098-0.707-0.293
			c-0.195-0.194-0.293-0.43-0.293-0.707c0-0.275,0.098-0.512,0.293-0.707s0.43-0.293,0.707-0.293c0.275,0,0.512,0.098,0.707,0.293
			S120.522,206.715,120.522,206.99z M120.522,206.99c0,0.277-0.098,0.513-0.293,0.707c-0.195,0.195-0.432,0.293-0.707,0.293
			c-0.277,0-0.512-0.098-0.707-0.293c-0.195-0.194-0.293-0.43-0.293-0.707c0-0.275,0.098-0.512,0.293-0.707s0.43-0.293,0.707-0.293
			c0.275,0,0.512,0.098,0.707,0.293S120.522,206.715,120.522,206.99z M132.039,215.575c-1.517-0.745-3.013-1.53-4.489-2.354
			c-0.24-0.134-0.398-0.334-0.475-0.6c-0.074-0.266-0.045-0.52,0.09-0.76c0.135-0.242,0.334-0.4,0.6-0.475
			c0.266-0.076,0.52-0.047,0.76,0.088c1.445,0.807,2.911,1.576,4.396,2.306c0.248,0.122,0.416,0.313,0.506,0.575
			c0.089,0.261,0.072,0.516-0.049,0.764c-0.122,0.248-0.314,0.416-0.575,0.505S132.286,215.697,132.039,215.575z M133.479,214.678
			c0,0.276-0.098,0.512-0.293,0.707s-0.43,0.293-0.707,0.293c-0.275,0-0.512-0.098-0.707-0.293s-0.293-0.431-0.293-0.707
			s0.098-0.512,0.293-0.707s0.432-0.293,0.707-0.293c0.277,0,0.512,0.098,0.707,0.293S133.479,214.401,133.479,214.678z
			 M133.479,214.678c0,0.276-0.098,0.512-0.293,0.707s-0.43,0.293-0.707,0.293c-0.275,0-0.512-0.098-0.707-0.293
			s-0.293-0.431-0.293-0.707s0.098-0.512,0.293-0.707s0.432-0.293,0.707-0.293c0.277,0,0.512,0.098,0.707,0.293
			S133.479,214.401,133.479,214.678z M146.165,221.191c-1.633-0.505-3.25-1.053-4.852-1.643c-0.26-0.096-0.447-0.268-0.563-0.519
			s-0.126-0.506-0.031-0.765c0.096-0.26,0.27-0.447,0.52-0.563c0.251-0.115,0.506-0.126,0.766-0.031
			c1.568,0.578,3.152,1.115,4.751,1.609c0.264,0.081,0.46,0.244,0.589,0.488s0.152,0.498,0.07,0.762
			c-0.081,0.264-0.244,0.461-0.488,0.59S146.429,221.273,146.165,221.191z M147.46,220.236c0,0.275-0.098,0.512-0.293,0.707
			s-0.431,0.293-0.707,0.293c-0.275,0-0.512-0.098-0.707-0.293s-0.293-0.432-0.293-0.707c0-0.276,0.098-0.512,0.293-0.707
			s0.432-0.293,0.707-0.293c0.276,0,0.512,0.098,0.707,0.293S147.46,219.96,147.46,220.236z M147.46,220.236
			c0,0.275-0.098,0.512-0.293,0.707s-0.431,0.293-0.707,0.293c-0.275,0-0.512-0.098-0.707-0.293s-0.293-0.432-0.293-0.707
			c0-0.276,0.098-0.512,0.293-0.707s0.432-0.293,0.707-0.293c0.276,0,0.512,0.098,0.707,0.293S147.46,219.96,147.46,220.236z
			 M160.942,224.524c-1.691-0.244-3.373-0.533-5.049-0.866c-0.271-0.055-0.482-0.196-0.636-0.426s-0.203-0.48-0.149-0.751
			c0.055-0.271,0.195-0.483,0.426-0.636c0.229-0.154,0.479-0.203,0.75-0.149c1.641,0.326,3.289,0.609,4.944,0.849
			c0.273,0.04,0.493,0.17,0.657,0.392c0.166,0.222,0.229,0.468,0.189,0.741s-0.17,0.493-0.391,0.658
			C161.463,224.502,161.216,224.564,160.942,224.524z M162.085,223.535c0,0.275-0.098,0.512-0.293,0.707s-0.431,0.293-0.707,0.293
			c-0.275,0-0.512-0.098-0.707-0.293s-0.293-0.432-0.293-0.707c0-0.276,0.098-0.512,0.293-0.707s0.432-0.293,0.707-0.293
			c0.276,0,0.512,0.098,0.707,0.293S162.085,223.259,162.085,223.535z M162.085,223.535c0,0.275-0.098,0.512-0.293,0.707
			s-0.431,0.293-0.707,0.293c-0.275,0-0.512-0.098-0.707-0.293s-0.293-0.432-0.293-0.707c0-0.276,0.098-0.512,0.293-0.707
			s0.432-0.293,0.707-0.293c0.276,0,0.512,0.098,0.707,0.293S162.085,223.259,162.085,223.535z M175.939,225.518
			c-0.369,0.004-0.738,0.007-1.107,0.007c-1.271,0-2.542-0.025-3.812-0.075c-0.276-0.011-0.508-0.117-0.695-0.32
			s-0.275-0.442-0.266-0.719c0.012-0.275,0.118-0.507,0.321-0.694c0.202-0.188,0.442-0.276,0.718-0.265
			c1.244,0.049,2.488,0.073,3.733,0.073c0.361,0,0.723-0.003,1.085-0.007c0.274-0.003,0.513,0.092,0.71,0.285
			s0.297,0.428,0.301,0.704s-0.092,0.513-0.285,0.71S176.215,225.515,175.939,225.518z M176.928,224.518
			c0,0.276-0.098,0.512-0.293,0.707s-0.432,0.293-0.707,0.293s-0.512-0.098-0.707-0.293s-0.293-0.431-0.293-0.707
			c0-0.275,0.098-0.512,0.293-0.707s0.432-0.293,0.707-0.293s0.512,0.098,0.707,0.293S176.928,224.242,176.928,224.518z
			 M176.928,224.518c0,0.276-0.098,0.512-0.293,0.707s-0.432,0.293-0.707,0.293s-0.512-0.098-0.707-0.293s-0.293-0.431-0.293-0.707
			c0-0.275,0.098-0.512,0.293-0.707s0.432-0.293,0.707-0.293s0.512,0.098,0.707,0.293S176.928,224.242,176.928,224.518z
			 M191.033,224.162c-1.693,0.287-3.393,0.528-5.1,0.725c-0.273,0.031-0.52-0.038-0.736-0.21c-0.215-0.171-0.34-0.395-0.371-0.669
			s0.039-0.52,0.209-0.736c0.172-0.216,0.395-0.34,0.67-0.371c1.67-0.193,3.336-0.43,4.994-0.711
			c0.273-0.046,0.521,0.012,0.746,0.171c0.227,0.16,0.361,0.376,0.408,0.648c0.045,0.272-0.012,0.521-0.172,0.746
			S191.307,224.115,191.033,224.162z M191.867,223.176c0,0.275-0.098,0.512-0.293,0.707s-0.432,0.293-0.707,0.293
			c-0.277,0-0.512-0.098-0.707-0.293s-0.293-0.432-0.293-0.707c0-0.276,0.098-0.512,0.293-0.707s0.43-0.293,0.707-0.293
			c0.275,0,0.512,0.098,0.707,0.293S191.867,222.899,191.867,223.176z M191.867,223.176c0,0.275-0.098,0.512-0.293,0.707
			s-0.432,0.293-0.707,0.293c-0.277,0-0.512-0.098-0.707-0.293s-0.293-0.432-0.293-0.707c0-0.276,0.098-0.512,0.293-0.707
			s0.43-0.293,0.707-0.293c0.275,0,0.512,0.098,0.707,0.293S191.867,222.899,191.867,223.176z M205.695,220.483
			c-1.607,0.54-3.229,1.036-4.863,1.491c-0.266,0.074-0.518,0.043-0.76-0.092c-0.24-0.137-0.396-0.338-0.471-0.604
			s-0.043-0.52,0.092-0.76c0.137-0.24,0.338-0.397,0.604-0.472c1.6-0.445,3.188-0.933,4.762-1.46
			c0.264-0.088,0.518-0.07,0.764,0.053c0.248,0.123,0.416,0.314,0.504,0.576s0.07,0.517-0.053,0.764
			C206.15,220.229,205.957,220.396,205.695,220.483z M206.377,219.535c0,0.276-0.098,0.512-0.293,0.707s-0.43,0.293-0.707,0.293
			c-0.275,0-0.512-0.098-0.707-0.293s-0.293-0.431-0.293-0.707c0-0.275,0.098-0.512,0.293-0.707s0.432-0.293,0.707-0.293
			c0.277,0,0.512,0.098,0.707,0.293S206.377,219.26,206.377,219.535z M206.377,219.535c0,0.276-0.098,0.512-0.293,0.707
			s-0.43,0.293-0.707,0.293c-0.275,0-0.512-0.098-0.707-0.293s-0.293-0.431-0.293-0.707c0-0.275,0.098-0.512,0.293-0.707
			s0.432-0.293,0.707-0.293c0.277,0,0.512,0.098,0.707,0.293S206.377,219.26,206.377,219.535z M219.666,214.543
			c-1.492,0.777-3.004,1.516-4.533,2.215c-0.252,0.114-0.508,0.123-0.766,0.027c-0.26-0.098-0.445-0.271-0.561-0.521
			c-0.115-0.252-0.123-0.507-0.027-0.766s0.27-0.445,0.521-0.561c1.5-0.684,2.979-1.407,4.439-2.168
			c0.246-0.128,0.5-0.15,0.764-0.067c0.262,0.083,0.459,0.247,0.586,0.491c0.127,0.245,0.15,0.5,0.066,0.763
			C220.074,214.22,219.91,214.415,219.666,214.543z M220.203,213.656c0,0.275-0.098,0.512-0.293,0.707s-0.432,0.293-0.707,0.293
			s-0.512-0.098-0.707-0.293s-0.293-0.432-0.293-0.707c0-0.276,0.098-0.512,0.293-0.707s0.432-0.293,0.707-0.293
			s0.512,0.098,0.707,0.293S220.203,213.38,220.203,213.656z M220.203,213.656c0,0.275-0.098,0.512-0.293,0.707
			s-0.432,0.293-0.707,0.293s-0.512-0.098-0.707-0.293s-0.293-0.432-0.293-0.707c0-0.276,0.098-0.512,0.293-0.707
			s0.432-0.293,0.707-0.293s0.512,0.098,0.707,0.293S220.203,213.38,220.203,213.656z M232.568,206.473
			c-1.352,1-2.727,1.965-4.127,2.893c-0.23,0.152-0.48,0.202-0.752,0.146c-0.27-0.055-0.482-0.197-0.635-0.427
			c-0.152-0.23-0.201-0.48-0.146-0.751c0.055-0.271,0.197-0.482,0.428-0.635c1.371-0.91,2.719-1.854,4.041-2.834
			c0.223-0.164,0.469-0.227,0.742-0.186s0.492,0.172,0.656,0.395c0.164,0.221,0.227,0.469,0.186,0.742
			S232.789,206.309,232.568,206.473z M232.973,205.669c0,0.276-0.098,0.512-0.293,0.707s-0.432,0.293-0.707,0.293
			c-0.277,0-0.512-0.098-0.707-0.293s-0.293-0.431-0.293-0.707s0.098-0.513,0.293-0.708s0.43-0.292,0.707-0.292
			c0.275,0,0.512,0.097,0.707,0.292S232.973,205.393,232.973,205.669z M232.973,205.669c0,0.276-0.098,0.512-0.293,0.707
			s-0.432,0.293-0.707,0.293c-0.277,0-0.512-0.098-0.707-0.293s-0.293-0.431-0.293-0.707s0.098-0.513,0.293-0.708
			s0.43-0.292,0.707-0.292c0.275,0,0.512,0.097,0.707,0.292S232.973,205.393,232.973,205.669z M244.033,196.5
			c-1.188,1.207-2.404,2.384-3.652,3.527c-0.203,0.188-0.443,0.274-0.719,0.262c-0.277-0.012-0.508-0.119-0.693-0.322
			c-0.188-0.204-0.275-0.443-0.264-0.72c0.014-0.276,0.121-0.507,0.324-0.693c1.223-1.12,2.414-2.272,3.576-3.456
			c0.193-0.196,0.43-0.296,0.705-0.299c0.275-0.002,0.514,0.094,0.709,0.287c0.197,0.193,0.297,0.428,0.301,0.704
			C244.322,196.066,244.227,196.303,244.033,196.5z M244.32,195.799c0,0.276-0.098,0.512-0.293,0.707s-0.432,0.293-0.707,0.293
			c-0.277,0-0.514-0.098-0.707-0.293c-0.195-0.195-0.293-0.431-0.293-0.707c0-0.275,0.098-0.512,0.293-0.707
			c0.193-0.195,0.43-0.293,0.707-0.293c0.275,0,0.512,0.098,0.707,0.293S244.32,195.523,244.32,195.799z M244.32,195.799
			c0,0.276-0.098,0.512-0.293,0.707s-0.432,0.293-0.707,0.293c-0.277,0-0.514-0.098-0.707-0.293
			c-0.195-0.195-0.293-0.431-0.293-0.707c0-0.275,0.098-0.512,0.293-0.707c0.193-0.195,0.43-0.293,0.707-0.293
			c0.275,0,0.512,0.098,0.707,0.293S244.32,195.523,244.32,195.799z M253.795,184.868c-0.98,1.372-1.994,2.718-3.043,4.036
			c-0.172,0.215-0.395,0.34-0.67,0.371c-0.273,0.031-0.52-0.039-0.734-0.211c-0.217-0.173-0.34-0.396-0.371-0.67
			s0.039-0.52,0.211-0.736c1.027-1.291,2.02-2.608,2.979-3.952c0.16-0.225,0.377-0.36,0.648-0.405
			c0.273-0.045,0.521,0.012,0.746,0.172c0.225,0.161,0.359,0.377,0.406,0.649C254.012,184.395,253.955,184.643,253.795,184.868z
			 M253.98,184.287c0,0.276-0.098,0.512-0.293,0.707s-0.432,0.293-0.707,0.293c-0.277,0-0.512-0.098-0.707-0.293
			s-0.293-0.431-0.293-0.707s0.098-0.512,0.293-0.707s0.43-0.293,0.707-0.293c0.275,0,0.512,0.098,0.707,0.293
			S253.98,184.011,253.98,184.287z M253.98,184.287c0,0.276-0.098,0.512-0.293,0.707s-0.432,0.293-0.707,0.293
			c-0.277,0-0.512-0.098-0.707-0.293s-0.293-0.431-0.293-0.707s0.098-0.512,0.293-0.707s0.43-0.293,0.707-0.293
			c0.275,0,0.512,0.098,0.707,0.293S253.98,184.011,253.98,184.287z M261.637,171.821c-0.754,1.515-1.549,3.007-2.381,4.479
			c-0.137,0.24-0.338,0.396-0.604,0.471c-0.268,0.073-0.52,0.043-0.76-0.094c-0.24-0.136-0.398-0.337-0.471-0.604
			c-0.074-0.266-0.043-0.52,0.092-0.76c0.816-1.441,1.594-2.903,2.334-4.386c0.123-0.247,0.316-0.415,0.578-0.502
			s0.516-0.069,0.764,0.054c0.246,0.123,0.414,0.315,0.502,0.578C261.779,171.32,261.76,171.574,261.637,171.821z M261.742,171.375
			c0,0.276-0.098,0.512-0.293,0.707s-0.43,0.293-0.707,0.293c-0.275,0-0.512-0.098-0.707-0.293s-0.293-0.431-0.293-0.707
			c0-0.275,0.098-0.512,0.293-0.707s0.432-0.293,0.707-0.293c0.277,0,0.512,0.098,0.707,0.293S261.742,171.1,261.742,171.375z
			 M261.742,171.375c0,0.276-0.098,0.512-0.293,0.707s-0.43,0.293-0.707,0.293c-0.275,0-0.512-0.098-0.707-0.293
			s-0.293-0.431-0.293-0.707c0-0.275,0.098-0.512,0.293-0.707s0.432-0.293,0.707-0.293c0.277,0,0.512,0.098,0.707,0.293
			S261.742,171.1,261.742,171.375z M267.336,157.733c-0.516,1.632-1.074,3.247-1.674,4.849c-0.098,0.259-0.271,0.445-0.523,0.559
			c-0.25,0.115-0.506,0.123-0.764,0.026c-0.26-0.097-0.445-0.271-0.561-0.522c-0.113-0.252-0.123-0.506-0.025-0.765
			c0.588-1.568,1.135-3.151,1.639-4.749c0.084-0.263,0.248-0.458,0.492-0.586c0.246-0.127,0.5-0.149,0.764-0.066
			c0.262,0.084,0.457,0.248,0.586,0.492C267.396,157.217,267.418,157.471,267.336,157.733z M267.381,157.433
			c0,0.276-0.098,0.512-0.293,0.707s-0.43,0.293-0.707,0.293c-0.275,0-0.512-0.098-0.707-0.293s-0.293-0.431-0.293-0.707
			s0.098-0.513,0.293-0.707c0.195-0.195,0.432-0.293,0.707-0.293c0.277,0,0.512,0.098,0.707,0.293
			C267.283,156.92,267.381,157.156,267.381,157.433z M267.381,157.433c0,0.276-0.098,0.512-0.293,0.707s-0.43,0.293-0.707,0.293
			c-0.275,0-0.512-0.098-0.707-0.293s-0.293-0.431-0.293-0.707s0.098-0.513,0.293-0.707c0.195-0.195,0.432-0.293,0.707-0.293
			c0.277,0,0.512,0.098,0.707,0.293C267.283,156.92,267.381,157.156,267.381,157.433z M270.754,142.984
			c-0.252,1.681-0.551,3.354-0.893,5.02c-0.055,0.27-0.197,0.481-0.428,0.633c-0.23,0.152-0.48,0.201-0.752,0.146
			c-0.27-0.056-0.482-0.198-0.633-0.429c-0.152-0.23-0.201-0.481-0.146-0.752c0.336-1.631,0.627-3.27,0.875-4.916
			c0.041-0.273,0.172-0.492,0.395-0.655c0.223-0.164,0.471-0.226,0.744-0.185c0.271,0.041,0.49,0.173,0.654,0.396
			C270.734,142.463,270.797,142.711,270.754,142.984z M270.766,142.835c0,0.276-0.098,0.512-0.293,0.707s-0.43,0.293-0.707,0.293
			c-0.275,0-0.512-0.098-0.707-0.293s-0.293-0.431-0.293-0.707s0.098-0.513,0.293-0.708s0.432-0.292,0.707-0.292
			c0.277,0,0.512,0.097,0.707,0.292S270.766,142.559,270.766,142.835z M270.766,142.835c0,0.276-0.098,0.512-0.293,0.707
			s-0.43,0.293-0.707,0.293c-0.275,0-0.512-0.098-0.707-0.293s-0.293-0.431-0.293-0.707s0.098-0.513,0.293-0.708
			s0.432-0.292,0.707-0.292c0.277,0,0.512,0.097,0.707,0.292S270.766,142.559,270.766,142.835z M271.838,127.964v0.097l0.002,0.453
			c0,1.461-0.033,2.919-0.1,4.377c-0.012,0.275-0.119,0.506-0.324,0.692c-0.203,0.187-0.443,0.273-0.719,0.261
			c-0.275-0.012-0.508-0.12-0.693-0.324s-0.273-0.443-0.262-0.72c0.064-1.427,0.098-2.854,0.098-4.28l-0.002-0.447v-0.098
			c-0.002-0.275,0.096-0.512,0.289-0.709c0.195-0.195,0.43-0.295,0.705-0.297c0.277-0.001,0.514,0.096,0.709,0.289
			C271.738,127.453,271.836,127.688,271.838,127.964z M271.838,127.969c0,0.277-0.098,0.512-0.293,0.707s-0.43,0.293-0.707,0.293
			c-0.275,0-0.512-0.098-0.707-0.293s-0.293-0.43-0.293-0.707c0-0.275,0.098-0.512,0.293-0.707s0.432-0.293,0.707-0.293
			c0.277,0,0.512,0.098,0.707,0.293S271.838,127.693,271.838,127.969z M271.838,127.969c0,0.277-0.098,0.512-0.293,0.707
			s-0.43,0.293-0.707,0.293c-0.275,0-0.512-0.098-0.707-0.293s-0.293-0.43-0.293-0.707c0-0.275,0.098-0.512,0.293-0.707
			s0.432-0.293,0.707-0.293c0.277,0,0.512,0.098,0.707,0.293S271.838,127.693,271.838,127.969z M270.574,112.894
			c0.275,1.691,0.506,3.39,0.693,5.094c0.029,0.274-0.043,0.52-0.215,0.734c-0.174,0.216-0.396,0.338-0.672,0.368
			c-0.273,0.03-0.52-0.041-0.734-0.215c-0.215-0.173-0.338-0.396-0.367-0.671c-0.184-1.669-0.41-3.332-0.68-4.989
			c-0.045-0.272,0.014-0.521,0.176-0.744c0.16-0.225,0.377-0.359,0.65-0.403c0.271-0.045,0.52,0.014,0.744,0.175
			S270.529,112.621,270.574,112.894z M270.586,113.055c0,0.275-0.098,0.512-0.293,0.707s-0.43,0.293-0.707,0.293
			c-0.275,0-0.512-0.098-0.707-0.293s-0.293-0.432-0.293-0.707c0-0.276,0.098-0.513,0.293-0.708
			c0.195-0.194,0.432-0.292,0.707-0.292c0.277,0,0.512,0.098,0.707,0.292C270.488,112.542,270.586,112.778,270.586,113.055z
			 M270.586,113.055c0,0.275-0.098,0.512-0.293,0.707s-0.43,0.293-0.707,0.293c-0.275,0-0.512-0.098-0.707-0.293
			s-0.293-0.432-0.293-0.707c0-0.276,0.098-0.513,0.293-0.708c0.195-0.194,0.432-0.292,0.707-0.292c0.277,0,0.512,0.098,0.707,0.292
			C270.488,112.542,270.586,112.778,270.586,113.055z M266.98,98.201c0.529,1.609,1.018,3.23,1.461,4.864
			c0.072,0.267,0.041,0.52-0.098,0.759c-0.137,0.24-0.338,0.396-0.605,0.469c-0.266,0.072-0.52,0.04-0.758-0.098
			c-0.24-0.137-0.396-0.339-0.469-0.605c-0.436-1.6-0.912-3.188-1.43-4.764c-0.088-0.263-0.068-0.517,0.057-0.764
			c0.125-0.246,0.318-0.412,0.58-0.499c0.262-0.086,0.518-0.067,0.764,0.058C266.729,97.745,266.895,97.938,266.98,98.201z
			 M267.031,98.514c0,0.276-0.098,0.512-0.293,0.707s-0.432,0.293-0.707,0.293s-0.512-0.098-0.707-0.293s-0.293-0.431-0.293-0.707
			s0.098-0.512,0.293-0.707s0.432-0.293,0.707-0.293s0.512,0.098,0.707,0.293S267.031,98.237,267.031,98.514z M267.031,98.514
			c0,0.276-0.098,0.512-0.293,0.707s-0.432,0.293-0.707,0.293s-0.512-0.098-0.707-0.293s-0.293-0.431-0.293-0.707
			s0.098-0.512,0.293-0.707s0.432-0.293,0.707-0.293s0.512,0.098,0.707,0.293S267.031,98.237,267.031,98.514z M261.121,84.191
			c0.768,1.495,1.496,3.009,2.186,4.542c0.113,0.252,0.121,0.507,0.023,0.765s-0.273,0.444-0.525,0.558s-0.506,0.12-0.766,0.022
			c-0.258-0.098-0.443-0.272-0.557-0.524c-0.674-1.501-1.389-2.984-2.141-4.448c-0.125-0.246-0.146-0.5-0.063-0.763
			s0.25-0.458,0.496-0.584c0.244-0.126,0.5-0.146,0.762-0.063C260.801,83.781,260.994,83.946,261.121,84.191z M261.232,84.648
			c0,0.276-0.098,0.512-0.293,0.707s-0.432,0.293-0.707,0.293c-0.277,0-0.514-0.098-0.707-0.293
			c-0.195-0.195-0.293-0.431-0.293-0.707s0.098-0.512,0.293-0.707c0.193-0.195,0.43-0.293,0.707-0.293
			c0.275,0,0.512,0.098,0.707,0.293S261.232,84.372,261.232,84.648z M261.232,84.648c0,0.276-0.098,0.512-0.293,0.707
			s-0.432,0.293-0.707,0.293c-0.277,0-0.514-0.098-0.707-0.293c-0.195-0.195-0.293-0.431-0.293-0.707s0.098-0.512,0.293-0.707
			c0.193-0.195,0.43-0.293,0.707-0.293c0.275,0,0.512,0.098,0.707,0.293S261.232,84.372,261.232,84.648z M253.127,71.24
			c0.99,1.355,1.947,2.736,2.867,4.142c0.15,0.231,0.197,0.481,0.143,0.752c-0.057,0.271-0.201,0.481-0.432,0.633
			c-0.23,0.15-0.482,0.198-0.752,0.142c-0.271-0.057-0.482-0.2-0.633-0.431c-0.9-1.377-1.838-2.729-2.809-4.057
			c-0.162-0.223-0.223-0.471-0.182-0.743c0.043-0.273,0.176-0.491,0.398-0.654s0.471-0.224,0.744-0.181
			C252.744,70.885,252.963,71.018,253.127,71.24z M253.318,71.831c0,0.275-0.098,0.512-0.293,0.707s-0.43,0.293-0.707,0.293
			c-0.275,0-0.512-0.098-0.707-0.293s-0.293-0.432-0.293-0.707c0-0.276,0.098-0.512,0.293-0.707s0.432-0.293,0.707-0.293
			c0.277,0,0.512,0.098,0.707,0.293S253.318,71.555,253.318,71.831z M253.318,71.831c0,0.275-0.098,0.512-0.293,0.707
			s-0.43,0.293-0.707,0.293c-0.275,0-0.512-0.098-0.707-0.293s-0.293-0.432-0.293-0.707c0-0.276,0.098-0.512,0.293-0.707
			s0.432-0.293,0.707-0.293c0.277,0,0.512,0.098,0.707,0.293S253.318,71.555,253.318,71.831z M243.223,59.719
			c1.201,1.193,2.371,2.418,3.508,3.673c0.184,0.205,0.27,0.445,0.256,0.721s-0.121,0.507-0.326,0.691
			c-0.205,0.186-0.445,0.271-0.721,0.258s-0.506-0.123-0.691-0.327c-1.113-1.229-2.258-2.428-3.434-3.597
			c-0.197-0.195-0.295-0.431-0.297-0.707c0-0.275,0.098-0.512,0.291-0.708c0.195-0.195,0.432-0.294,0.707-0.295
			C242.791,59.428,243.027,59.524,243.223,59.719z M243.52,60.428c-0.002,0.276-0.098,0.512-0.293,0.707s-0.432,0.293-0.707,0.293
			c-0.277,0-0.514-0.098-0.709-0.293s-0.293-0.431-0.291-0.707c-0.002-0.275,0.096-0.512,0.291-0.707s0.432-0.293,0.709-0.293
			c0.275,0,0.512,0.098,0.707,0.293S243.518,60.152,243.52,60.428z M243.52,60.428c-0.002,0.276-0.098,0.512-0.293,0.707
			s-0.432,0.293-0.707,0.293c-0.277,0-0.514-0.098-0.709-0.293s-0.293-0.431-0.291-0.707c-0.002-0.275,0.096-0.512,0.291-0.707
			s0.432-0.293,0.709-0.293c0.275,0,0.512,0.098,0.707,0.293S243.518,60.152,243.52,60.428z M231.646,49.887
			c1.367,0.987,2.707,2.01,4.02,3.066c0.215,0.174,0.338,0.397,0.367,0.672s-0.043,0.52-0.215,0.734
			c-0.174,0.215-0.398,0.338-0.672,0.367c-0.275,0.029-0.52-0.042-0.734-0.215c-1.287-1.036-2.6-2.037-3.938-3.004
			c-0.223-0.162-0.357-0.379-0.4-0.651c-0.045-0.272,0.014-0.521,0.176-0.745c0.162-0.224,0.379-0.357,0.652-0.401
			C231.174,49.666,231.422,49.725,231.646,49.887z M232.061,50.697c0,0.276-0.098,0.512-0.293,0.707s-0.43,0.293-0.707,0.293
			c-0.275,0-0.512-0.098-0.707-0.293s-0.293-0.431-0.293-0.707s0.098-0.512,0.293-0.707s0.432-0.293,0.707-0.293
			c0.277,0,0.512,0.098,0.707,0.293S232.061,50.421,232.061,50.697z M232.061,50.697c0,0.276-0.098,0.512-0.293,0.707
			s-0.43,0.293-0.707,0.293c-0.275,0-0.512-0.098-0.707-0.293s-0.293-0.431-0.293-0.707s0.098-0.512,0.293-0.707
			s0.432-0.293,0.707-0.293c0.277,0,0.512,0.098,0.707,0.293S232.061,50.421,232.061,50.697z M218.646,41.968
			c1.512,0.765,3,1.568,4.469,2.411c0.24,0.137,0.396,0.339,0.469,0.605s0.039,0.52-0.1,0.759c-0.137,0.24-0.338,0.396-0.605,0.468
			c-0.266,0.072-0.52,0.04-0.758-0.098c-1.439-0.825-2.898-1.612-4.377-2.361c-0.246-0.125-0.412-0.318-0.498-0.581
			c-0.086-0.262-0.066-0.517,0.057-0.763c0.125-0.247,0.318-0.413,0.582-0.499C218.146,41.823,218.4,41.843,218.646,41.968z
			 M219.195,42.859c0,0.276-0.098,0.512-0.293,0.707s-0.43,0.293-0.707,0.293c-0.275,0-0.512-0.098-0.707-0.293
			s-0.293-0.431-0.293-0.707s0.098-0.512,0.293-0.707s0.432-0.293,0.707-0.293c0.277,0,0.512,0.098,0.707,0.293
			S219.195,42.583,219.195,42.859z M219.195,42.859c0,0.276-0.098,0.512-0.293,0.707s-0.43,0.293-0.707,0.293
			c-0.275,0-0.512-0.098-0.707-0.293s-0.293-0.431-0.293-0.707s0.098-0.512,0.293-0.707s0.432-0.293,0.707-0.293
			c0.277,0,0.512,0.098,0.707,0.293S219.195,42.583,219.195,42.859z M204.598,36.188c1.631,0.525,3.246,1.094,4.846,1.705
			c0.258,0.098,0.443,0.273,0.557,0.525c0.111,0.252,0.119,0.507,0.021,0.766c-0.1,0.258-0.275,0.442-0.527,0.556
			c-0.252,0.112-0.506,0.12-0.764,0.021c-1.568-0.599-3.15-1.155-4.746-1.67c-0.262-0.085-0.457-0.25-0.582-0.496
			c-0.127-0.245-0.146-0.5-0.063-0.763s0.25-0.457,0.496-0.583S204.336,36.104,204.598,36.188z M205.291,37.14
			c0,0.276-0.098,0.513-0.293,0.707c-0.195,0.195-0.43,0.293-0.707,0.293c-0.275,0-0.512-0.098-0.707-0.293
			c-0.195-0.194-0.293-0.431-0.293-0.707c0-0.275,0.098-0.512,0.293-0.707s0.432-0.293,0.707-0.293c0.277,0,0.512,0.098,0.707,0.293
			S205.291,36.864,205.291,37.14z M205.291,37.14c0,0.276-0.098,0.513-0.293,0.707c-0.195,0.195-0.43,0.293-0.707,0.293
			c-0.275,0-0.512-0.098-0.707-0.293c-0.195-0.194-0.293-0.431-0.293-0.707c0-0.275,0.098-0.512,0.293-0.707
			s0.432-0.293,0.707-0.293c0.277,0,0.512,0.098,0.707,0.293S205.291,36.864,205.291,37.14z M189.877,32.683
			c1.672,0.262,3.336,0.568,4.99,0.918c0.271,0.057,0.48,0.201,0.631,0.433c0.152,0.231,0.199,0.481,0.141,0.752
			c-0.057,0.271-0.201,0.48-0.432,0.632c-0.232,0.15-0.482,0.197-0.752,0.14c-1.621-0.342-3.252-0.642-4.889-0.898
			c-0.273-0.043-0.49-0.176-0.652-0.399c-0.164-0.223-0.223-0.471-0.18-0.743c0.043-0.273,0.176-0.491,0.398-0.653
			C189.355,32.699,189.604,32.64,189.877,32.683z M190.723,33.67c0,0.276-0.098,0.512-0.293,0.707s-0.432,0.293-0.707,0.293
			c-0.277,0-0.514-0.098-0.707-0.293c-0.195-0.195-0.293-0.431-0.293-0.707c0-0.275,0.098-0.512,0.293-0.707
			c0.193-0.195,0.43-0.293,0.707-0.293c0.275,0,0.512,0.098,0.707,0.293S190.723,33.395,190.723,33.67z M190.723,33.67
			c0,0.276-0.098,0.512-0.293,0.707s-0.432,0.293-0.707,0.293c-0.277,0-0.514-0.098-0.707-0.293
			c-0.195-0.195-0.293-0.431-0.293-0.707c0-0.275,0.098-0.512,0.293-0.707c0.193-0.195,0.43-0.293,0.707-0.293
			c0.275,0,0.512,0.098,0.707,0.293S190.723,33.395,190.723,33.67z"/>
	</g>
	<g>
		<path fill="#FFFFFF" d="M178.184,39.697h8.939c3.518,0,2.705-3.496,2.705-7.014c0-3.52-2.852-6.371-6.369-6.371
			c-1.086,0-2.107,0.272-3.004,0.752c-0.859-2.878-3.525-4.977-6.683-4.977c-3.718,0-6.748,2.911-6.959,6.576
			c-0.474-0.129-0.971-0.205-1.486-0.205c-3.104,0-5.619,2.516-5.619,5.62c0,3.103-0.419,5.618,2.684,5.618h9.249"/>
	</g>
	<g>
		<g>
			<path fill="#D6DDE9" d="M172.589,39.697c0,0.276-0.098,0.512-0.293,0.707s-0.432,0.293-0.707,0.293
				c-0.276,0-0.512-0.098-0.707-0.293s-0.293-0.431-0.293-0.707c0-0.275,0.098-0.512,0.293-0.707s0.431-0.293,0.707-0.293
				c0.275,0,0.512,0.098,0.707,0.293S172.589,39.422,172.589,39.697z M178.184,38.697h8.939c0.842,0,1.365-0.303,1.572-0.908
				c0.182-0.531,0.24-1.655,0.176-3.373c-0.027-0.763-0.043-1.34-0.043-1.732c0-1.483-0.523-2.749-1.572-3.798
				s-2.314-1.573-3.797-1.573c-0.898,0-1.742,0.211-2.531,0.634l-1.08,0.577l-0.35-1.173c-0.85-2.842-2.758-4.263-5.726-4.263
				c-1.586,0-2.955,0.547-4.105,1.639c-1.146,1.089-1.764,2.42-1.854,3.995l-0.071,1.232l-1.19-0.325
				c-0.415-0.113-0.823-0.17-1.224-0.17c-1.275,0-2.364,0.451-3.266,1.353c-0.902,0.902-1.354,1.991-1.354,3.268
				c0,0.231-0.004,0.568-0.01,1.009c-0.023,1.514,0.051,2.483,0.223,2.91c0.188,0.467,0.679,0.699,1.471,0.699h9.197
				c0.275,0,0.512,0.098,0.707,0.293s0.293,0.432,0.293,0.707c0,0.276-0.098,0.512-0.293,0.707s-0.432,0.293-0.707,0.293h-9.197
				c-1.693,0-2.801-0.65-3.326-1.953c-0.271-0.676-0.395-1.904-0.367-3.686c0.006-0.433,0.01-0.759,0.01-0.979
				c0-1.828,0.646-3.389,1.938-4.682c1.292-1.292,2.853-1.938,4.681-1.938c0.579,0,1.162,0.08,1.75,0.24l-0.264,0.965l-0.998-0.058
				c0.121-2.102,0.945-3.878,2.475-5.33c1.535-1.458,3.363-2.188,5.482-2.188c3.96,0,6.507,1.896,7.642,5.689l-0.959,0.287
				l-0.471-0.882c1.082-0.58,2.24-0.87,3.475-0.87c2.035,0,3.771,0.72,5.211,2.159c1.439,1.438,2.158,3.176,2.158,5.212
				c0,0.368,0.014,0.92,0.043,1.657c0.072,1.965-0.021,3.33-0.283,4.095c-0.514,1.508-1.67,2.262-3.465,2.262h-8.939
				c-0.277,0-0.512-0.098-0.707-0.293s-0.293-0.431-0.293-0.707c0-0.275,0.098-0.512,0.293-0.707S177.906,38.697,178.184,38.697z"/>
		</g>
		<g>
			<path fill="#56A6FF" d="M174.99,47.497c-0.553,0-1-0.447-1-1V32.325c0-0.553,0.447-1,1-1s1,0.447,1,1v14.172
				C175.99,47.05,175.543,47.497,174.99,47.497z"/>
		</g>
		<g>
			<path fill="#56A6FF" d="M178.699,37.258c-0.275,0-0.547-0.112-0.746-0.333l-2.963-3.309l-2.964,3.309
				c-0.369,0.411-1.002,0.446-1.412,0.077c-0.412-0.368-0.446-1-0.078-1.412l4.454-4.971l4.453,4.971
				c0.369,0.412,0.334,1.044-0.078,1.412C179.176,37.174,178.938,37.258,178.699,37.258z"/>
		</g>
	</g>
	<g opacity="0.251">
		<path fill="#D9DDE0" d="M81.987,46.403c-0.262,0-0.521-0.102-0.719-0.304c-0.384-0.396-0.375-1.029,0.021-1.414
			c0.105-0.102,10.672-10.266,27.977-19.07c0.496-0.251,1.096-0.053,1.346,0.438c0.25,0.492,0.055,1.095-0.438,1.345
			c-17.041,8.67-27.389,18.624-27.492,18.724C82.489,46.31,82.237,46.403,81.987,46.403z"/>
	</g>
	<g opacity="0.251">
		<path fill="#D9DDE0" d="M87.472,51.888c-0.27,0-0.537-0.108-0.734-0.322c-0.375-0.405-0.35-1.038,0.057-1.413
			c0.08-0.073,8.123-7.456,17.865-12.937c0.481-0.271,1.092-0.1,1.361,0.382c0.271,0.481,0.101,1.091-0.381,1.361
			c-9.541,5.366-17.411,12.591-17.49,12.663C87.958,51.8,87.714,51.888,87.472,51.888z"/>
	</g>
	<g opacity="0.251">
		<path fill="#D9DDE0" d="M92.942,57.528c-0.245,0-0.49-0.09-0.684-0.27c-0.402-0.377-0.425-1.01-0.048-1.413
			c0.177-0.19,4.402-4.692,9.614-8.27c0.455-0.314,1.078-0.197,1.39,0.258c0.313,0.455,0.197,1.078-0.259,1.391
			c-5.025,3.45-9.241,7.941-9.283,7.986C93.476,57.422,93.209,57.528,92.942,57.528z"/>
	</g>
	<g opacity="0.5">
		<path fill="#D9DDE0" d="M283.152,127.087v25.463h25.361v-25.463H283.152z M306.514,129.087v4.078l-8.109,8.433l-5.887-4.988
			l-7.365,5.548v-13.07H306.514z M285.152,150.55v-5.889l7.291-5.493l6.102,5.17l7.969-8.287v14.499H285.152z"/>
		<path fill="#D9DDE0" d="M289.281,137.06c1.727,0,3.133-1.405,3.133-3.134c0-1.727-1.406-3.132-3.133-3.132
			c-1.729,0-3.133,1.405-3.133,3.132C286.148,135.654,287.553,137.06,289.281,137.06z M289.281,132.794
			c0.625,0,1.133,0.508,1.133,1.132c0,0.625-0.508,1.134-1.133,1.134s-1.133-0.509-1.133-1.134
			C288.148,133.302,288.656,132.794,289.281,132.794z"/>
		<path fill="#D9DDE0" d="M307.492,154.056h-23.559c-0.553,0-1,0.448-1,1s0.447,1,1,1h23.559c0.553,0,1-0.448,1-1
			S308.045,154.056,307.492,154.056z"/>
		<path fill="#D9DDE0" d="M298.504,157.62h-14.416c-0.553,0-1,0.448-1,1s0.447,1,1,1h14.416c0.553,0,1-0.448,1-1
			S299.057,157.62,298.504,157.62z"/>
	</g>
	<g opacity="0.251">
		<path fill="#D9DDE0" d="M259.395,186.665h-3.307c-0.277,0-0.514-0.098-0.709-0.293s-0.291-0.431-0.291-0.707
			s0.096-0.512,0.291-0.707s0.432-0.293,0.709-0.293h3.307c0.275,0,0.512,0.098,0.707,0.293s0.293,0.431,0.293,0.707
			s-0.098,0.512-0.293,0.707S259.67,186.665,259.395,186.665z M260.395,185.665c0,0.276-0.098,0.512-0.293,0.707
			s-0.432,0.293-0.707,0.293s-0.512-0.098-0.707-0.293s-0.293-0.431-0.293-0.707s0.098-0.512,0.293-0.707s0.432-0.293,0.707-0.293
			s0.512,0.098,0.707,0.293S260.395,185.389,260.395,185.665z M260.395,185.665c0,0.276-0.098,0.512-0.293,0.707
			s-0.432,0.293-0.707,0.293s-0.512-0.098-0.707-0.293s-0.293-0.431-0.293-0.707s0.098-0.512,0.293-0.707s0.432-0.293,0.707-0.293
			s0.512,0.098,0.707,0.293S260.395,185.389,260.395,185.665z M274.395,186.665h-5c-0.275,0-0.512-0.098-0.707-0.293
			s-0.293-0.431-0.293-0.707s0.098-0.512,0.293-0.707s0.432-0.293,0.707-0.293h5c0.275,0,0.512,0.098,0.707,0.293
			s0.293,0.431,0.293,0.707s-0.098,0.512-0.293,0.707S274.67,186.665,274.395,186.665z M275.395,185.665
			c0,0.276-0.098,0.512-0.293,0.707s-0.432,0.293-0.707,0.293s-0.512-0.098-0.707-0.293s-0.293-0.431-0.293-0.707
			s0.098-0.512,0.293-0.707s0.432-0.293,0.707-0.293s0.512,0.098,0.707,0.293S275.395,185.389,275.395,185.665z M275.395,185.665
			c0,0.276-0.098,0.512-0.293,0.707s-0.432,0.293-0.707,0.293s-0.512-0.098-0.707-0.293s-0.293-0.431-0.293-0.707
			s0.098-0.512,0.293-0.707s0.432-0.293,0.707-0.293s0.512,0.098,0.707,0.293S275.395,185.389,275.395,185.665z M289.395,186.665h-5
			c-0.275,0-0.512-0.098-0.707-0.293s-0.293-0.431-0.293-0.707s0.098-0.512,0.293-0.707s0.432-0.293,0.707-0.293h5
			c0.275,0,0.512,0.098,0.707,0.293s0.293,0.431,0.293,0.707s-0.098,0.512-0.293,0.707S289.67,186.665,289.395,186.665z
			 M290.395,185.665c0,0.276-0.098,0.512-0.293,0.707s-0.432,0.293-0.707,0.293s-0.512-0.098-0.707-0.293s-0.293-0.431-0.293-0.707
			s0.098-0.512,0.293-0.707s0.432-0.293,0.707-0.293s0.512,0.098,0.707,0.293S290.395,185.389,290.395,185.665z M290.395,185.665
			c0,0.276-0.098,0.512-0.293,0.707s-0.432,0.293-0.707,0.293s-0.512-0.098-0.707-0.293s-0.293-0.431-0.293-0.707
			s0.098-0.512,0.293-0.707s0.432-0.293,0.707-0.293s0.512,0.098,0.707,0.293S290.395,185.389,290.395,185.665z M299.309,179.58v5
			c0,0.276-0.096,0.512-0.291,0.707s-0.432,0.293-0.709,0.293c-0.275,0-0.512-0.098-0.707-0.293s-0.293-0.431-0.293-0.707v-5
			c0-0.276,0.098-0.512,0.293-0.707s0.432-0.293,0.707-0.293c0.277,0,0.514,0.098,0.709,0.293S299.309,179.304,299.309,179.58z
			 M299.309,179.58c0,0.275-0.096,0.512-0.291,0.707s-0.432,0.293-0.709,0.293c-0.275,0-0.512-0.098-0.707-0.293
			s-0.293-0.432-0.293-0.707c0-0.276,0.098-0.512,0.293-0.707s0.432-0.293,0.707-0.293c0.277,0,0.514,0.098,0.709,0.293
			S299.309,179.304,299.309,179.58z M299.309,179.58c0,0.275-0.096,0.512-0.291,0.707s-0.432,0.293-0.709,0.293
			c-0.275,0-0.512-0.098-0.707-0.293s-0.293-0.432-0.293-0.707c0-0.276,0.098-0.512,0.293-0.707s0.432-0.293,0.707-0.293
			c0.277,0,0.514,0.098,0.709,0.293S299.309,179.304,299.309,179.58z M299.309,164.58v5c0,0.275-0.096,0.512-0.291,0.707
			s-0.432,0.293-0.709,0.293c-0.275,0-0.512-0.098-0.707-0.293s-0.293-0.432-0.293-0.707v-5c0-0.276,0.098-0.512,0.293-0.707
			s0.432-0.293,0.707-0.293c0.277,0,0.514,0.098,0.709,0.293S299.309,164.304,299.309,164.58z"/>
	</g>
	<g>
		<path fill="#D9DDE0" d="M246.668,78.268l-3.475-9.819H231.34V37.057h34.459v31.392h-15.807L246.668,78.268z M233.34,66.448h11.268
			l2.02,5.705l1.932-5.705h15.24V39.057H233.34V66.448z"/>
	</g>
	<g>
		<path fill="#D9DDE0" d="M254.266,42.252l0.654-0.158c0.537-0.13,0.867-0.67,0.738-1.207c-0.131-0.537-0.678-0.864-1.207-0.737
			l-5.047,1.22l2.332,4.856c0.172,0.357,0.529,0.566,0.902,0.566c0.145,0,0.293-0.031,0.432-0.099
			c0.498-0.239,0.709-0.836,0.469-1.334l-0.777-1.618c3.391,1.52,5.695,4.932,5.695,8.77c0,4.761-3.549,8.852-8.256,9.517
			c-0.547,0.077-0.928,0.583-0.85,1.13c0.07,0.499,0.498,0.86,0.988,0.86c0.047,0,0.094-0.003,0.141-0.01
			c5.688-0.804,9.977-5.746,9.977-11.497C260.457,48.14,257.982,44.226,254.266,42.252z"/>
		<path fill="#D9DDE0" d="M247.373,62.298l-1.68-3.498c-0.238-0.498-0.834-0.71-1.334-0.469c-0.498,0.238-0.707,0.836-0.469,1.334
			l0.701,1.457c-3.203-1.594-5.357-4.919-5.357-8.61c0-4.651,3.314-8.629,7.883-9.457c0.543-0.099,0.902-0.618,0.805-1.162
			c-0.098-0.543-0.613-0.908-1.162-0.806c-5.52,1.001-9.525,5.806-9.525,11.425c0,4.321,2.445,8.225,6.117,10.216l-0.842,0.203
			c-0.537,0.13-0.867,0.67-0.738,1.207c0.111,0.458,0.52,0.765,0.971,0.765c0.078,0,0.158-0.009,0.236-0.027l5.047-1.219
			l-0.527-1.098C247.467,62.466,247.43,62.377,247.373,62.298z"/>
	</g>
	<g opacity="0.25">
		<path fill="#D6DDE9" d="M319.047,100.853h-37.629h-0.02c-4.822-0.011-8.729-3.921-8.729-8.746c0-4.83,3.916-8.746,8.748-8.746
			h10.779c4.83,0,8.746-3.915,8.746-8.747c0-4.83-3.916-8.746-8.746-8.746h-40.549c4.611,5.349,8.639,11.213,11.992,17.493
			c2.953,5.529,5.379,11.383,7.215,17.492l0,0c1.691,5.631,2.883,11.478,3.516,17.493h44.676c4.83,0,8.746-3.916,8.746-8.747
			C327.793,104.769,323.877,100.853,319.047,100.853z"/>
	</g>
	<g opacity="0.5">
		<path fill="#D6DDE9" d="M86.36,174.08c-2.953-5.53-5.38-11.384-7.215-17.493l0,0c-1.691-5.632-2.884-11.478-3.517-17.493H30.953
			c-4.83,0-8.746,3.916-8.746,8.746c0,4.832,3.916,8.747,8.746,8.747h37.63c4.831,0,8.747,3.916,8.747,8.747
			c0,4.83-3.916,8.746-8.747,8.746h-5.898c-4.83,0-8.746,3.916-8.746,8.746c0,4.832,3.916,8.747,8.746,8.747h35.668
			C93.741,186.225,89.714,180.359,86.36,174.08z"/>
	</g>
	<g opacity="0.5">
		<polygon fill="#D9DDE0" points="284.063,93.752 281.42,95.892 282.637,92.717 279.785,90.864 283.182,90.863 284.063,87.756 
			284.943,90.863 288.34,90.864 285.488,92.717 286.707,95.892 		"/>
	</g>
	<g opacity="0.75">
		<g opacity="0.2">
			<rect x="39.616" y="161.412" fill="#D6DDE9" width="31.593" height="8.512"/>
		</g>
		<g>
			<rect x="42.885" y="164.668" fill="#D6DDE9" width="19.663" height="2"/>
		</g>
	</g>
</g>
</svg>
