<svg xmlns="http://www.w3.org/2000/svg" x="0px" y="0px" width="100px" height="100px" viewBox="0 0 100 100" enable-background="new 0 0 100 100" xml:space="preserve">
<g>
	<path fill="#E4E7E7" d="M7.125,1h85.75C96.256,1,99,3.741,99,7.125v85.75C99,96.256,96.256,99,92.875,99H7.125
		C3.744,99,1,96.256,1,92.875V7.125C1,3.741,3.744,1,7.125,1z"/>
	<path fill="#E2574C" d="M92.875,1H7.125C3.744,1,1,3.741,1,7.125v15.313h98V7.125C99,3.741,96.256,1,92.875,1z"/>
	<path fill="#BF392C" d="M1,19.375h98V25.5H1V19.375z"/>
	<path fill="#BF392C" d="M50,7.125c1.693,0,3.063,1.372,3.063,3.063c0,1.691-1.369,3.063-3.063,3.063s-3.063-1.372-3.063-3.063
		C46.938,8.497,48.307,7.125,50,7.125z"/>
	<path fill="#C2C5C5" d="M92.875,92.875H7.125C3.744,92.875,1,90.131,1,86.75v6.125C1,96.256,3.744,99,7.125,99h85.75
		C96.256,99,99,96.256,99,92.875V86.75C99,90.131,96.256,92.875,92.875,92.875z"/>
</g>
</svg>
