<?xml version="1.0" encoding="utf-8"?>
<!-- Generator: Adobe Illustrator 16.0.0, SVG Export Plug-In . SVG Version: 6.00 Build 0)  -->
<!DOCTYPE svg PUBLIC "-//W3C//DTD SVG 1.1//EN" "http://www.w3.org/Graphics/SVG/1.1/DTD/svg11.dtd">
<svg version="1.1" id="Layer_1" xmlns="http://www.w3.org/2000/svg" xmlns:xlink="http://www.w3.org/1999/xlink" x="0px" y="0px"
	 width="38px" height="38px" viewBox="0 0 38 38" enable-background="new 0 0 38 38" xml:space="preserve">
<g>
	<path fill="#5D5F60" d="M18.965,24.011c0.606,0,1.209-0.103,1.792-0.304c2.123-0.733,3.502-2.646,3.516-4.874
		c0.01-1.729,0.018-4.012,0-6.324c-0.005-0.408,0.002-0.816,0.008-1.227c0.015-0.896,0.029-1.824-0.072-2.734
		C23.919,5.955,21.671,4,18.978,4c-0.592,0-1.184,0.096-1.756,0.285c-2.146,0.704-3.543,2.673-3.558,5.015
		c-0.008,1.057-0.005,2.109-0.003,3.164l0.003,1.582l-0.003,1.423c-0.004,1.164-0.007,2.327,0.01,3.489
		C13.706,21.744,16.081,24.011,18.965,24.011z M14.849,12.46c-0.003-1.032-0.006-2.101,0.002-3.151
		c0.006-0.918,0.27-1.77,0.761-2.463c0.483-0.68,1.169-1.181,1.984-1.448c0.452-0.148,0.918-0.225,1.382-0.225
		c1,0,1.961,0.35,2.708,0.983c0.757,0.643,1.233,1.537,1.343,2.521c0.094,0.836,0.08,1.686,0.066,2.588
		c-0.008,0.41-0.014,0.833-0.01,1.256c0.019,2.307,0.01,4.582,0,6.307c-0.01,1.724-1.078,3.205-2.719,3.772
		c-0.457,0.158-0.929,0.238-1.401,0.238c-1.052,0-2.096-0.408-2.863-1.121c-0.788-0.73-1.229-1.716-1.243-2.776
		c-0.018-1.145-0.014-2.313-0.01-3.465l0.002-1.43L14.849,12.46z"/>
	<path fill="#5D5F60" d="M26.269,32.827h-6.707v-5.062c7.723-0.446,8.445-9.489,8.451-9.581c0.012-0.156-0.041-0.308-0.145-0.425
		c-0.104-0.119-0.249-0.189-0.445-0.201c-0.313,0-0.572,0.24-0.594,0.546c-0.023,0.348-0.668,8.511-7.861,8.511
		c-7.165,0-7.746-8.158-7.768-8.506c-0.02-0.308-0.279-0.55-0.626-0.55c-0.001,0-0.001,0-0.001,0
		c-0.328,0.019-0.577,0.297-0.559,0.619c0.006,0.092,0.611,9.139,8.359,9.587v5.062h-6.713c-0.326,0-0.594,0.263-0.594,0.587
		c0,0.323,0.268,0.586,0.594,0.586h14.607c0.326,0,0.592-0.263,0.592-0.586C26.86,33.09,26.595,32.827,26.269,32.827z"/>
</g>
</svg>
