<?xml version="1.0" encoding="utf-8"?>
<!-- Generator: Adobe Illustrator 16.0.0, SVG Export Plug-In . SVG Version: 6.00 Build 0)  -->
<!DOCTYPE svg PUBLIC "-//W3C//DTD SVG 1.1//EN" "http://www.w3.org/Graphics/SVG/1.1/DTD/svg11.dtd">
<svg version="1.1" id="Layer_1" xmlns="http://www.w3.org/2000/svg" xmlns:xlink="http://www.w3.org/1999/xlink" x="0px" y="0px"
	 width="38px" height="38px" viewBox="0 0 38 38" enable-background="new 0 0 38 38" xml:space="preserve">
<g>
	<path fill="#5D5F60" d="M26.848,22.961c-0.091,0.189-2.284,4.64-7.824,4.64c-5.536,0-7.88-4.7-7.977-4.9
		c-0.15-0.311-0.021-0.685,0.289-0.835c0.312-0.15,0.686-0.021,0.836,0.29c0.083,0.17,2.112,4.196,6.852,4.196
		c4.762,0,6.678-3.89,6.696-3.929c0.149-0.312,0.524-0.442,0.834-0.294C26.865,22.277,26.996,22.65,26.848,22.961z M14.291,13.996
		c0.887,0,1.614,0.72,1.614,1.609s-0.728,1.608-1.614,1.608c-0.888,0-1.607-0.72-1.607-1.608S13.403,13.996,14.291,13.996z
		 M23.762,13.797c0.999,0,1.802,0.811,1.802,1.807c0,0.991-0.803,1.802-1.802,1.802c-0.996,0-1.8-0.811-1.8-1.802
		C21.962,14.608,22.766,13.797,23.762,13.797z M19.01,4C10.729,4,4.014,10.716,4.014,19c0,8.286,6.715,15,14.996,15
		c8.284,0,15.004-6.714,15.004-15C34.014,10.716,27.294,4,19.01,4z"/>
</g>
</svg>
