<svg xmlns="http://www.w3.org/2000/svg" x="0px" y="0px" width="38px" height="38px" viewBox="0 0 38 38" fill="#a1a1a2">
	<path d="M8.32,5.985h21.387c1.969,0,3.564,1.7,3.564,3.798v20.918c0,2.098-1.596,3.799-3.564,3.799H8.32
		c-1.969,0-3.564-1.701-3.564-3.799V9.783C4.756,7.686,6.352,5.985,8.32,5.985z M8.32,7.985c-0.863,0-1.564,0.807-1.564,1.798
		v20.918c0,0.992,0.701,1.799,1.564,1.799h21.387c0.861,0,1.564-0.807,1.564-1.799V9.783c0-0.991-0.703-1.798-1.564-1.798H8.32"/>
	<rect x="4.902" y="14.974" width="28.166" height="2"/>
	<path d="M26.143,11.44c-0.553,0-1-0.448-1-1V4.5c0-0.552,0.447-1,1-1c0.551,0,1,0.448,1,1v5.94
		C27.143,10.993,26.693,11.44,26.143,11.44z"/>
	<path d="M11.885,11.44c-0.553,0-1-0.448-1-1V4.5c0-0.552,0.447-1,1-1s1,0.448,1,1v5.94
		C12.885,10.993,12.438,11.44,11.885,11.44z"/>
	<rect x="9.508" y="19.055" width="4.754" height="4.752"/>
	<rect x="9.508" y="24.995" width="4.754" height="4.752"/>
	<rect x="23.766" y="19.055" width="4.752" height="4.752"/>
	<rect x="23.766" y="24.995" width="4.752" height="4.752"/>
	<rect x="16.637" y="19.055" width="4.754" height="4.752"/>
	<rect x="16.637" y="24.995" width="4.754" height="4.752"/>
</svg>