<svg xmlns="http://www.w3.org/2000/svg" x="0px" y="0px" width="38px" height="38px" viewBox="0 0 38 38">
  <circle fill="#E55353" cx="19" cy="19" r="15"/>
  <path fill="#FFFFFF" d="M25.363,12.636c0.391,0.391,0.391,1.023,0,1.414L14.05,25.364c-0.39,0.39-1.023,0.391-1.415,0l0,0
    c-0.39-0.391-0.39-1.024,0-1.414l11.313-11.314C24.34,12.245,24.973,12.246,25.363,12.636L25.363,12.636z"/>
  <path fill="#FFFFFF" d="M25.364,25.364c-0.392,0.392-1.023,0.391-1.415,0L12.636,14.05c-0.39-0.39-0.391-1.023,0-1.414l0,0
    c0.391-0.391,1.024-0.39,1.414,0L25.364,23.95C25.755,24.341,25.754,24.974,25.364,25.364L25.364,25.364z"/>
</svg>
