<?xml version="1.0" encoding="utf-8"?>
<!-- Generator: Adobe Illustrator 16.0.0, SVG Export Plug-In . SVG Version: 6.00 Build 0)  -->
<!DOCTYPE svg PUBLIC "-//W3C//DTD SVG 1.1//EN" "http://www.w3.org/Graphics/SVG/1.1/DTD/svg11.dtd">
<svg version="1.1" id="Layer_1" xmlns="http://www.w3.org/2000/svg" xmlns:xlink="http://www.w3.org/1999/xlink" x="0px" y="0px"
	 width="612px" height="792px" viewBox="0 0 612 792" enable-background="new 0 0 612 792" xml:space="preserve">
<g>
	<g>
		<g>
			<path fill="#231F20" d="M435.471,231.089c-30.44-13.635-67.554-6.4-92.944,18.471c-19.228,18.816-38.147,37.978-57.178,56.977
				c-0.856,0.848-1.519,1.855-2.621,3.246c18.594-3.549,35.008-0.382,51.049,8.732l0,0c6.863,24.992,30.036,43.014,57.214,43.014
				c1.972,0,3.923-0.094,5.835-0.28c-12.978,13.026-25.995,26.011-39,38.998c-6.996,6.967-15.545,11.237-25.41,12.322
				c-11.669,1.298-21.854-1.827-30.652-10.002c-8.96-8.4-22.524-7.781-30.473,0.793c-8.234,8.836-7.917,21.77,1.242,30.33
				c4.698,4.397,9.92,8.557,15.492,11.741c31.556,18.179,72.044,12.056,99.701-15.107c22.639-22.182,45.142-44.507,67.465-67.048
				c4.897-4.915,9.32-10.521,13.022-16.444C494.57,304.443,479.292,250.74,435.471,231.089z"/>
			<g>
				<path fill="#231F20" d="M339.63,478.717c0.836-0.822,1.54-1.802,2.333-2.73c-18.52,3.893-35.562,1.111-51.976-8.188
					c-1.064,1.005-2.328,2.146-3.536,3.312c-2.553,2.569-5.093,5.139-7.651,7.738l22.191,38.4
					C313.873,504.422,326.763,491.569,339.63,478.717z"/>
				<path fill="#231F20" d="M227.856,424.255l-22.242-38.438c-3.994,3.961-7.955,7.989-11.94,11.992l22.215,38.45
					C219.879,432.231,223.869,428.232,227.856,424.255z"/>
				<path fill="#231F20" d="M254.422,502.857l22.071,38.213c2.048-1.666,4.038-3.443,5.959-5.352
					c2.091-2.039,4.164-4.134,6.246-6.254l-22.137-38.269C262.572,495.174,258.539,499.096,254.422,502.857z"/>
			</g>
			<g>
				<path fill="#231F20" d="M352.271,352.992c-5.979-5.499-12.666-10.626-19.855-14.336c-31.416-16.139-70.094-8.852-97.265,17.928
					c-5.746,5.661-11.455,11.355-17.18,17.029l22.153,38.29c7.883-7.921,15.766-15.808,23.665-23.717
					c18.71-18.737,39.063-19.903,59.785-3.604c9.155,7.183,22.09,6.105,29.71-2.426C360.878,373.57,360.878,360.918,352.271,352.992
					z"/>
				<path fill="#231F20" d="M240.896,513.06c-2.54,1.433-5.135,2.785-7.798,3.735c-20.571,7.476-42.159-4.503-46.463-25.387
					c-3.21-15.583,2.701-28.516,13.666-39.485c1.095-1.141,2.205-2.227,3.325-3.367l-22.207-38.399
					c-3.909,3.965-7.853,7.874-11.747,11.848c-6.032,6.174-11.496,13.275-15.743,20.803c-4.771,8.455-7.892,17.278-9.554,26.184
					c-0.019-0.051,0.193-0.798,0.165-0.849c0,0.157-0.218,1.035-0.218,1.191c-3.804,20.964,0.802,42.166,12.362,58.991l-0.648,1.751
					l-35.646,29.496l65.006-6.229c1.242,0.661,2.515,1.272,3.813,1.802c23.482,10.283,50.529,8.269,73.418-4.503L240.896,513.06z"/>
			</g>
		</g>
		<path fill="#231F20" d="M104.465,235.329c0,0,131.317,2.65,140.756,126.661C245.221,361.99,125.168,377.743,104.465,235.329z"/>
		<path fill="#231F20" d="M366.793,432.655c0,0,131.29,2.624,140.742,126.623C507.535,559.278,387.471,575.048,366.793,432.655z"/>
	</g>
</g>
</svg>
