<?xml version="1.0" encoding="utf-8"?>
<!-- Generator: Adobe Illustrator 16.0.0, SVG Export Plug-In . SVG Version: 6.00 Build 0)  -->
<!DOCTYPE svg PUBLIC "-//W3C//DTD SVG 1.1//EN" "http://www.w3.org/Graphics/SVG/1.1/DTD/svg11.dtd">
<svg version="1.1" id="Layer_1" xmlns="http://www.w3.org/2000/svg" xmlns:xlink="http://www.w3.org/1999/xlink" x="0px" y="0px"
	 width="38px" height="38px" viewBox="0 0 38 38" enable-background="new 0 0 38 38" xml:space="preserve">
<g>
	<g>
		<path fill="#56A6FF" d="M34,18.997C34,27.284,27.286,34,19,34S4,27.284,4,18.997C4,10.716,10.714,4,19,4S34,10.716,34,18.997z"/>
	</g>
	<path fill="#FFFFFF" d="M24.862,17H21v-3.249c0-1.036-0.964-1.875-2-1.875s-2,0.839-2,1.875V17h-2.745
		c-1.037,0-1.875,0.964-1.875,2s0.838,2,1.875,2H17v3.358c0,1.036,0.964,1.875,2,1.875s2-0.839,2-1.875V21h3.862
		c1.036,0,1.875-0.964,1.875-2S25.898,17,24.862,17z"/>
</g>
</svg>
