<?xml version="1.0" encoding="utf-8"?>
<!-- Generator: Adobe Illustrator 16.0.0, SVG Export Plug-In . SVG Version: 6.00 Build 0)  -->
<!DOCTYPE svg PUBLIC "-//W3C//DTD SVG 1.1//EN" "http://www.w3.org/Graphics/SVG/1.1/DTD/svg11.dtd">
<svg version="1.1" id="Layer_1" xmlns="http://www.w3.org/2000/svg" xmlns:xlink="http://www.w3.org/1999/xlink" x="0px" y="0px"
	 width="38px" height="38px" viewBox="0 0 38 38" enable-background="new 0 0 38 38" xml:space="preserve">
<g>
	<path fill="#FFFFFF" d="M27.61,4l-0.518,2.258L3.934,7.222l1.425,13.796l18.717,1.403L23.745,24H6v4h20.836l3.866-20H34V4H27.61z
		 M18.91,9.758l-1.483,8.483L15,18.025v-8.05L18.91,9.758z M8.298,10.367L12,10.178v7.516l-2.83-0.24L8.298,10.367z M21.18,18.573
		l1.555-9.023l3.693-0.205l-1.702,9.547L21.18,18.573z"/>
	<path fill="#FFFFFF" d="M10.218,29.246c-0.652,0-1.239,0.243-1.708,0.71c-0.459,0.463-0.702,1.052-0.702,1.7
		c0,0.65,0.243,1.24,0.708,1.708c0.461,0.459,1.05,0.703,1.703,0.703c0.656,0,1.245-0.243,1.704-0.705
		c0.461-0.463,0.706-1.052,0.706-1.706c0-0.652-0.245-1.241-0.704-1.702C11.462,29.491,10.874,29.246,10.218,29.246z"/>
	<path fill="#FFFFFF" d="M22.977,29.952c-0.461,0.463-0.706,1.052-0.706,1.704c0,0.654,0.245,1.243,0.705,1.705
		c0.461,0.463,1.05,0.706,1.706,0.706c0.652,0,1.241-0.243,1.704-0.705c0.461-0.463,0.707-1.052,0.707-1.706
		c0-0.652-0.245-1.241-0.708-1.706C25.454,29.026,23.892,29.032,22.977,29.952z"/>
</g>
</svg>
