<?xml version="1.0" encoding="utf-8"?>
<!-- Generator: Adobe Illustrator 16.0.0, SVG Export Plug-In . SVG Version: 6.00 Build 0)  -->
<!DOCTYPE svg PUBLIC "-//W3C//DTD SVG 1.1//EN" "http://www.w3.org/Graphics/SVG/1.1/DTD/svg11.dtd">
<svg version="1.1" id="Layer_1" xmlns="http://www.w3.org/2000/svg" xmlns:xlink="http://www.w3.org/1999/xlink" x="0px" y="0px"
	 width="250px" height="173px" viewBox="0 0 250 173" enable-background="new 0 0 250 173" xml:space="preserve">
<g>
	<g>
		<path fill="#CBD4E2" d="M236.109,89.902l-56.451-32.689c-3.066-1.777-8.427-1.563-11.975,0.48L49.209,125.875
			c-3.548,2.041-3.937,5.135-0.87,6.912l56.452,32.689c3.066,1.775,8.428,1.561,11.974-0.48l118.477-68.182
			C238.787,94.773,239.177,91.68,236.109,89.902z"/>
	</g>
	<g>
		<path fill="#D4ECFF" d="M240.635,64.385l-58.75-34.022c-4.125-2.39-11.337-2.101-16.108,0.646L45.594,100.174
			c-4.772,2.746-5.296,6.908-1.17,9.299l58.749,34.02c4.126,2.391,11.338,2.102,16.11-0.645l120.183-69.166
			C244.237,70.938,244.761,66.773,240.635,64.385z"/>
	</g>
	<g>
		<path fill="#D4ECFF" d="M174.866,29.069c-3.101,0-6.372,0.753-8.927,2.224L45.757,100.459c-2.403,1.383-3.784,3.195-3.786,4.971
			c-0.002,1.445,0.927,2.779,2.617,3.76l58.75,34.02c4.026,2.332,11.106,2.043,15.78-0.646l120.183-69.164
			c2.404-1.383,3.785-3.195,3.787-4.971c0.002-1.445-0.928-2.781-2.617-3.76L181.72,30.646
			C179.894,29.589,177.439,29.069,174.866,29.069z M110.191,145.432c-2.693,0-5.266-0.543-7.184-1.654l-58.749-34.02
			c-1.901-1.104-2.948-2.639-2.945-4.328c0.003-2.018,1.503-4.037,4.116-5.541l120.183-69.165
			c4.854-2.793,12.227-3.084,16.438-0.645L240.799,64.1c1.902,1.102,2.948,2.639,2.946,4.328c-0.003,2.016-1.503,4.037-4.116,5.539
			l-120.184,69.166C116.803,144.654,113.412,145.432,110.191,145.432z"/>
	</g>
	<g>
		<path fill="#DCE4ED" d="M243.403,68.496c-0.034,1.807-1.36,3.703-3.938,5.188l-120.183,69.164
			c-4.772,2.746-11.983,3.035-16.109,0.645l-58.75-34.02c-1.903-1.104-2.805-2.584-2.768-4.129l-0.012-0.014l-0.023,8.525
			l0.013-0.006c-0.063,1.568,0.836,3.076,2.766,4.193l58.75,34.021c4.125,2.389,11.338,2.1,16.109-0.645L239.44,82.254
			c2.694-1.551,4.032-3.553,3.946-5.434l0.001,0.002l0.027-8.34L243.403,68.496z"/>
	</g>
	<g>
		<path fill="#DCE4ED" d="M41.948,113.768c0.01,0.031,0.015,0.064,0.013,0.098c-0.061,1.504,0.863,2.887,2.603,3.895l58.75,34.02
			c4.027,2.336,11.106,2.047,15.78-0.645l120.184-69.166c2.486-1.43,3.865-3.303,3.78-5.133c-0.001-0.018,0-0.035,0.002-0.051
			l0.02-6.041c-0.675,1.191-1.856,2.307-3.451,3.223l-120.183,69.166c-4.854,2.791-12.227,3.084-16.438,0.645l-58.749-34.02
			c-1.024-0.594-1.798-1.314-2.293-2.119L41.948,113.768z M110.167,154.004c-2.692,0-5.266-0.545-7.184-1.656l-58.75-34.02
			c-1.925-1.115-2.962-2.674-2.931-4.396c-0.008-0.025-0.011-0.051-0.011-0.078l0.023-8.523c0.001-0.135,0.085-0.258,0.211-0.307
			c0.128-0.049,0.271-0.014,0.361,0.088c0.056,0.063,0.099,0.156,0.097,0.24c-0.037,1.48,0.889,2.844,2.604,3.838l58.75,34.02
			c4.026,2.332,11.106,2.043,15.78-0.646l120.183-69.164c2.365-1.361,3.741-3.15,3.774-4.908c0.001-0.074,0.028-0.146,0.077-0.205
			l0.022-0.025c0.092-0.1,0.235-0.131,0.361-0.082s0.208,0.172,0.208,0.307l-0.028,8.338c0,0.008,0,0.016,0,0.021
			c0.076,2.072-1.42,4.146-4.112,5.695l-120.183,69.164C116.777,153.225,113.387,154.004,110.167,154.004z"/>
	</g>
	<g>
		<path fill="#ABD6F4" d="M222.914,72.363l-64.396-37.179l-55.122,32.097l-3.086,1.77l64.172,37.049
			c2.456,1.418,6.744,1.24,9.579-0.396l48.165-27.809C225.062,76.258,225.369,73.783,222.914,72.363z"/>
	</g>
	<g>
		<path fill="#FFFFFF" d="M236.109,65.725l-56.451-32.69c-3.066-1.777-8.427-1.562-11.975,0.479L49.209,101.697
			c-3.548,2.041-3.937,5.135-0.87,6.912l56.452,32.689c3.066,1.775,8.428,1.561,11.974-0.48l118.477-68.184
			C238.787,70.596,239.177,67.5,236.109,65.725z"/>
	</g>
	<g>
		<polygon fill="#ABD6F4" points="99.346,140.904 154.525,109.047 106.163,81.125 50.733,113.127 95.707,138.787 		"/>
	</g>
	<g>
		<path fill="#FFFFFF" d="M236.109,65.725l-56.451-32.69c-3.066-1.777-8.427-1.562-11.975,0.479L49.209,101.697
			c-3.548,2.041-3.937,5.135-0.87,6.912l56.452,32.689c3.066,1.775,8.428,1.561,11.974-0.48l118.477-68.184
			C238.787,70.596,239.177,67.5,236.109,65.725z"/>
	</g>
	<g>
		<path fill="#CBD4E2" d="M222.914,72.363l-61.27-35.374l-58.526,33.683l61.363,35.428c2.456,1.418,6.744,1.24,9.579-0.396
			l48.165-27.809C225.062,76.258,225.369,73.783,222.914,72.363z"/>
	</g>
	<g>
		<path fill="#D4ECFF" d="M227.248,66.426l-2.25-0.357l-96.873-55.93c-2.585-1.492-7.1-1.305-10.085,0.418L67.331,39.836
			c-0.559,0.32-1.023,0.676-1.395,1.047l-1.073-0.17l-0.001,2.412l0.006,0.002c-0.001,0.947,0.567,1.854,1.739,2.529l97.378,56.223
			c2.585,1.49,7.1,1.305,10.085-0.418l50.709-29.277c1.646-0.951,2.479-2.17,2.464-3.324l0.005,0.002V66.426z"/>
	</g>
	<g>
		<path fill="#D4ECFF" d="M65.19,43.064c0.004,0.02,0.006,0.041,0.006,0.063c0,0.861,0.56,1.66,1.575,2.246l97.378,56.221
			c2.49,1.438,6.866,1.25,9.756-0.416L224.614,71.9c1.476-0.854,2.314-1.959,2.301-3.035c0-0.02,0.001-0.041,0.004-0.059v-2.1
			l-1.974-0.313c-0.04-0.008-0.078-0.021-0.112-0.041l-96.872-55.93c-2.489-1.437-6.866-1.25-9.757,0.418L67.495,40.119
			c-0.521,0.301-0.968,0.637-1.325,0.996c-0.075,0.074-0.182,0.107-0.285,0.092l-0.692-0.109L65.19,43.064z M168.363,103.207
			c-1.701,0-3.328-0.344-4.542-1.045L66.443,45.941c-1.203-0.695-1.877-1.67-1.902-2.75c-0.004-0.021-0.007-0.043-0.007-0.066
			l0.001-2.412c0-0.096,0.042-0.188,0.115-0.25s0.169-0.09,0.265-0.074l0.91,0.145c0.376-0.355,0.826-0.686,1.342-0.982
			l50.709-29.277c3.071-1.773,7.742-1.961,10.413-0.418l96.819,55.898l2.19,0.348c0.16,0.025,0.277,0.162,0.277,0.324v2.436
			c0,0.018-0.001,0.035-0.005,0.053c-0.012,1.303-0.966,2.594-2.628,3.555l-50.709,29.277
			C172.559,102.713,170.407,103.207,168.363,103.207z"/>
	</g>
	<g>
		<path fill="#ECF0F5" d="M163.985,99.389L66.607,43.166c-2.585-1.492-2.261-4.099,0.724-5.822L118.04,8.066
			c2.985-1.723,7.5-1.909,10.086-0.417l97.378,56.222c2.584,1.492,2.26,4.1-0.725,5.822L174.07,98.971
			C171.085,100.693,166.57,100.881,163.985,99.389z"/>
	</g>
	<g>
		<path fill="#D4ECFF" d="M123.746,6.967c-1.924,0-3.957,0.47-5.542,1.385L67.495,37.628c-1.464,0.846-2.305,1.944-2.305,3.011
			c0,0.859,0.562,1.656,1.581,2.244l97.378,56.221c2.49,1.438,6.866,1.252,9.756-0.418l50.709-29.275
			c1.465-0.846,2.305-1.943,2.305-3.01c0-0.859-0.562-1.656-1.58-2.246L127.961,7.934C126.837,7.285,125.328,6.967,123.746,6.967z
			 M168.363,100.717c-1.701,0-3.328-0.344-4.542-1.045L66.443,43.451c-1.231-0.711-1.909-1.709-1.909-2.813
			c0-1.309,0.96-2.612,2.633-3.579l50.709-29.276c3.071-1.773,7.741-1.961,10.413-0.418l97.379,56.223
			c1.23,0.709,1.908,1.709,1.908,2.813c0,1.307-0.96,2.611-2.633,3.578l-50.709,29.275
			C172.559,100.221,170.407,100.717,168.363,100.717z"/>
	</g>
	<g>
		<polygon fill="#D4ECFF" points="73.94,33.528 180.68,95.154 189.915,89.822 83.176,28.196 		"/>
	</g>
	<g>
		<path fill="#D4ECFF" d="M74.598,33.528l106.081,61.247l8.579-4.953L83.176,28.575L74.598,33.528z M180.679,95.482
			c-0.057,0-0.113-0.014-0.165-0.043L73.776,33.813c-0.102-0.059-0.164-0.168-0.164-0.285s0.063-0.226,0.164-0.284l9.235-5.333
			c0.102-0.059,0.227-0.059,0.328,0l106.739,61.628c0.101,0.059,0.164,0.166,0.164,0.283s-0.063,0.227-0.164,0.283l-9.236,5.334
			C180.792,95.469,180.734,95.482,180.679,95.482z"/>
	</g>
	<g>
		<polygon fill="#FFFFFF" points="142.538,48.422 112.785,31.243 122.631,25.559 152.384,42.736 		"/>
	</g>
	<g>
		<polygon fill="#D6DDE9" points="101.731,139.527 154.525,109.047 106.163,81.125 53.441,111.563 		"/>
	</g>
	<g>
		<path fill="#FFFFFF" d="M14.917,116.373l0.012,0.002c-5.12-2.844-8.316-9.074-8.345-17.99
			C6.528,80.73,18.898,59.148,34.159,50.275l11.012-6.404l0.001-0.002v0.002l0.531,0.297l50.514,28.408L83.42,80.895l-4.807,3.514
			L72,91.318l-1.063,0.971l-7.04,10.664l-2.581,6.678l-1.915,5.309l-1.572,11.137l-0.108,0.963l0.567,4.693l1.625,5.816l2.29,3.938
			l3.334,3.957L14.917,116.373z"/>
	</g>
	<g>
		<path fill="#D4ECFF" d="M16.272,116.775l47.813,27.455l-2.136-2.533l-2.355-4.061l-1.624-5.814l-0.582-4.783l0.112-0.998
			l1.59-11.213l1.916-5.309l2.616-6.748l7.093-10.725l1.063-0.971l6.599-6.895l4.848-3.553l12.357-8.031l-50.408-28.35l-10.85,6.311
			c-15.17,8.82-27.467,30.275-27.411,47.824c0.026,8.504,2.931,14.791,8.176,17.705l1.242,0.689L16.272,116.775z M66.985,146.654
			l-53.425-30.68l0.105,0.006c-4.766-3.266-7.385-9.451-7.41-17.594C6.2,80.627,18.644,58.918,33.993,49.99l11.175-6.498
			l0.695,0.391L96.85,72.555L83.598,81.17l-4.79,3.504l-6.57,6.873l-1.05,0.957l-6.997,10.6l-2.568,6.645l-1.901,5.271
			l-1.671,12.018l0.563,4.656l1.603,5.725l2.271,3.904L66.985,146.654z"/>
	</g>
	<g>
		<path fill="#D4ECFF" d="M103.313,72.361l0.007,1.869L69.8,93.695c0.566-1.303,1.641-2.383,2.737-3.465L103.313,72.361z"/>
	</g>
	<g>
		<polygon fill="#ECF0F5" points="153.83,101.377 103.313,72.361 72.73,90.719 68.903,95.176 63.153,105.277 59.541,115.375 
			58.365,123.268 58.218,131.15 63.15,142.422 69.566,146.17 76.163,146.512 84.076,143.229 146.619,106.436 		"/>
	</g>
	<g>
		<path fill="#D4ECFF" d="M69.664,145.846l6.441,0.336l7.845-3.256l62.502-36.771l6.766-4.752l-49.9-28.658L72.945,90.973
			l-3.793,4.418l-5.714,10.049l-3.588,10.047l-1.161,7.83l-0.143,7.768l4.862,11.107L69.664,145.846z M76.164,146.84h-0.019
			l-6.597-0.342c-0.052-0.002-0.104-0.018-0.148-0.045l-6.414-3.748c-0.061-0.035-0.108-0.088-0.136-0.152l-4.935-11.271
			c-0.02-0.043-0.028-0.09-0.027-0.137l0.147-7.883l1.181-7.936l3.627-10.158l5.773-10.154l3.864-4.508
			c0.023-0.027,0.05-0.051,0.08-0.068l30.585-18.357c0.102-0.063,0.229-0.063,0.331-0.002l50.516,29.014
			c0.097,0.055,0.16,0.158,0.164,0.27c0.005,0.113-0.048,0.219-0.139,0.283l-7.211,5.061l-62.565,36.807l-7.953,3.305
			C76.249,146.832,76.206,146.84,76.164,146.84z"/>
	</g>
	<g>
		<path fill="#D4ECFF" d="M7.05,103.814c-0.294-1.68-0.46-3.486-0.466-5.43c-0.004-1.301,0.067-2.623,0.195-3.959l51.361,29.439
			l-0.313,2.211l-0.108,0.963l0.567,4.695l0.481,1.725L7.05,103.814z"/>
	</g>
	<path fill="#D4ECFF" d="M154.158,101.375c-0.001-0.117-0.064-0.225-0.165-0.283c-0.102-0.059-0.228-0.059-0.328,0l-68.96,40.074
		c-6.846,3.98-13.278,4.645-18.117,1.869c-4.841-2.773-7.519-8.66-7.543-16.578c-0.053-16.518,11.521-36.711,25.799-45.014
		l11.543-6.713c0.102-0.059,0.164-0.168,0.163-0.285l-0.005-1.869c-0.002-0.117-0.064-0.225-0.166-0.285
		c-0.101-0.057-0.227-0.057-0.328,0.002L84.51,79.004c-15.352,8.928-27.795,30.637-27.738,48.396
		c0.027,8.66,2.994,15.119,8.352,18.191c2.193,1.256,4.674,1.881,7.354,1.881c3.865,0,8.143-1.299,12.563-3.871l68.96-40.07
		c0.103-0.061,0.164-0.17,0.163-0.287L154.158,101.375z"/>
	<g>
		<path fill="#CBD4E2" d="M126.389,107.74L99.4,92.504c-1.077-0.605-2.946-0.508-4.176,0.217l-15.421,9.121
			c-1.229,0.727-1.352,1.809-0.274,2.414l26.988,15.236c1.077,0.607,2.947,0.51,4.176-0.217l15.421-9.119
			C127.344,109.43,127.467,108.348,126.389,107.74z"/>
	</g>
	<g>
		<path fill="#F96311" d="M105.849,113.811L78.104,98.176c-0.549-0.309-0.811-0.729-0.824-1.168l-0.014,0.01l-0.031-3.09
			c0,0,0.975,0.801,1.548,1.27L96.07,84.973c1.406-0.832,3.546-0.943,4.779-0.248l26.519,14.943l2.027-1.199l0.037,3.119
			l-0.012-0.012c-0.007,0.535-0.385,1.1-1.142,1.547l-17.652,10.439C109.222,114.395,107.082,114.506,105.849,113.811z"/>
	</g>
	<g>
		<path fill="#F96311" d="M106.01,113.523c1.139,0.641,3.135,0.533,4.45-0.244l17.651-10.439c0.617-0.363,0.975-0.826,0.98-1.268
			c0-0.025,0.004-0.051,0.01-0.078l-0.027-2.455l-1.54,0.91c-0.103,0.061-0.227,0.061-0.328,0.006l-26.519-14.943
			c-1.14-0.643-3.137-0.533-4.45,0.244L78.949,95.48c-0.119,0.068-0.268,0.059-0.375-0.029l-1.005-0.822l0.022,2.283
			c0.01,0.025,0.015,0.055,0.017,0.086c0.013,0.438,0.364,0.727,0.656,0.893L106.01,113.523z M107.876,114.598
			c-0.813,0-1.59-0.164-2.188-0.502L77.943,98.463c-0.581-0.328-0.927-0.797-0.983-1.33c-0.016-0.035-0.023-0.072-0.023-0.113
			l-0.03-3.088c-0.002-0.129,0.07-0.246,0.187-0.301c0.113-0.053,0.251-0.037,0.35,0.043l1.37,1.123l17.09-10.107
			c1.521-0.898,3.766-1.008,5.107-0.25l26.354,14.85l1.865-1.104c0.103-0.059,0.227-0.061,0.329-0.002
			c0.102,0.055,0.165,0.164,0.167,0.281l0.035,3.119c0.001,0.037-0.006,0.072-0.017,0.107c-0.055,0.645-0.511,1.25-1.297,1.715
			l-17.651,10.438C109.952,114.344,108.887,114.598,107.876,114.598z"/>
	</g>
	<g>
		<path fill="#ECF0F5" d="M128.559,97.215l-27.745-15.633c-1.232-0.697-3.372-0.584-4.778,0.246L78.383,92.268
			c-1.406,0.832-1.547,2.07-0.314,2.764l27.745,15.635c1.233,0.695,3.373,0.584,4.779-0.248l17.651-10.439
			C129.65,99.146,129.792,97.91,128.559,97.215z"/>
	</g>
	<g>
		<path fill="#F96311" d="M98.792,81.449c-0.897,0-1.852,0.225-2.59,0.662L78.55,92.551c-0.635,0.375-0.997,0.844-0.993,1.287
			c0.006,0.439,0.369,0.736,0.673,0.908l27.745,15.633c1.14,0.643,3.136,0.535,4.45-0.244l17.652-10.439
			c0.635-0.375,0.997-0.844,0.993-1.287c-0.005-0.439-0.369-0.736-0.673-0.908l-27.745-15.633
			C100.153,81.586,99.49,81.449,98.792,81.449z M107.841,111.455c-0.813,0-1.59-0.166-2.188-0.504L77.908,95.318
			c-0.645-0.363-1.002-0.887-1.008-1.475c-0.007-0.682,0.472-1.361,1.316-1.859l17.65-10.438c1.521-0.9,3.765-1.008,5.107-0.252
			l27.745,15.633c0.644,0.363,1.001,0.887,1.007,1.475c0.007,0.682-0.472,1.361-1.316,1.859l-17.65,10.439
			C109.917,111.199,108.852,111.455,107.841,111.455z"/>
	</g>
	<g>
		<path fill="#F96311" d="M99.452,93.16c1.021-0.604,1.012-1.564-0.022-2.148c-1.034-0.582-2.7-0.564-3.722,0.041
			c-1.021,0.604-1.012,1.564,0.022,2.148C96.765,93.783,98.431,93.764,99.452,93.16z"/>
	</g>
	<g>
		<path fill="#F96311" d="M105.123,96.357c1.021-0.604,1.011-1.566-0.022-2.15c-1.034-0.582-2.7-0.564-3.722,0.041
			c-1.021,0.604-1.012,1.566,0.022,2.148S104.102,96.961,105.123,96.357z"/>
	</g>
	<g>
		<path fill="#F96311" d="M110.794,99.553c1.022-0.604,1.012-1.566-0.022-2.148c-1.033-0.584-2.699-0.566-3.721,0.039
			c-1.022,0.604-1.012,1.566,0.021,2.148C108.106,100.174,109.773,100.156,110.794,99.553z"/>
	</g>
	<g>
		<path fill="#CBD4E2" d="M181.442,68.861c-6.379,3.682-16.721,3.682-23.101,0c-6.378-3.684-6.378-9.654,0-13.338
			c6.379-3.682,16.721-3.682,23.1,0C187.82,59.207,187.82,65.178,181.442,68.861z"/>
	</g>
	<g>
		<path fill="#37B34A" d="M188.07,53.807v-3.34h-0.963c-0.867-1.49-2.307-2.895-4.362-4.08c-7.099-4.098-18.609-4.098-25.708,0
			c-2.056,1.186-3.496,2.59-4.361,4.08h-0.963v3.313h0.002c-0.013,2.695,1.761,5.395,5.322,7.449c7.1,4.1,18.609,4.1,25.709,0
			C186.296,59.18,188.07,56.494,188.07,53.807z"/>
	</g>
	<g>
		<path fill="#37B34A" d="M152.042,50.795v2.984c-0.011,2.695,1.821,5.238,5.159,7.166c6.998,4.039,18.383,4.039,25.381,0
			c3.327-1.922,5.159-4.457,5.159-7.139v-3.012h-0.635c-0.117,0-0.226-0.063-0.284-0.164c-0.876-1.51-2.303-2.84-4.241-3.959
			c-6.997-4.041-18.382-4.041-25.38,0c-1.939,1.119-3.366,2.451-4.242,3.959c-0.059,0.102-0.166,0.164-0.283,0.164H152.042z
			 M169.893,64.623c-4.716,0-9.43-1.037-13.02-3.109c-3.552-2.051-5.5-4.797-5.486-7.734l-0.002-3.313
			c0-0.088,0.035-0.172,0.096-0.232c0.063-0.063,0.146-0.098,0.232-0.098h0.776c0.939-1.541,2.413-2.896,4.384-4.033
			c7.178-4.145,18.857-4.146,26.036,0c1.97,1.137,3.443,2.492,4.384,4.033h0.777c0.182,0,0.328,0.148,0.328,0.33v3.34
			c0,2.928-1.949,5.664-5.488,7.707C179.32,63.586,174.605,64.623,169.893,64.623z"/>
	</g>
	<g>
		<path fill="#ECF0F5" d="M182.746,57.887c-7.1,4.1-18.609,4.1-25.709,0s-7.1-10.744,0-14.842c7.099-4.101,18.609-4.101,25.708,0
			C189.845,47.143,189.845,53.789,182.746,57.887z"/>
	</g>
	<g>
		<path fill="#37B34A" d="M169.891,40.299c-4.596,0-9.19,1.01-12.689,3.029c-3.328,1.922-5.16,4.457-5.16,7.139
			c0,2.68,1.833,5.215,5.16,7.135c6.998,4.041,18.383,4.041,25.381,0c3.327-1.92,5.159-4.455,5.159-7.135
			c0-2.682-1.833-5.217-5.16-7.139C179.082,41.309,174.486,40.299,169.891,40.299z M169.892,61.279c-4.715,0-9.43-1.035-13.02-3.107
			c-3.538-2.043-5.488-4.781-5.488-7.705c0-2.928,1.949-5.664,5.488-7.707c7.179-4.146,18.858-4.146,26.037,0
			c3.54,2.043,5.489,4.779,5.489,7.707c0,2.924-1.949,5.662-5.488,7.705C179.32,60.244,174.605,61.279,169.892,61.279z"/>
	</g>
	<g>
		<path fill="#37B34A" d="M161.129,53.939c-0.306-0.176-0.48-0.416-0.479-0.668l0.019-6.84c0.001-0.521,0.734-0.943,1.639-0.941
			c0.903,0,1.633,0.422,1.633,0.945l-0.016,5.672l16.457-2.018c0.884-0.107,1.753,0.219,1.939,0.729
			c0.188,0.512-0.377,1.012-1.261,1.121l-18.435,2.258c-0.483,0.059-0.987-0.012-1.371-0.191
			C161.211,53.984,161.169,53.963,161.129,53.939z"/>
	</g>
</g>
</svg>
