<svg xmlns="http://www.w3.org/2000/svg" xmlns:xlink="http://www.w3.org/1999/xlink" width="276.996" height="256.41" viewBox="0 0 276.996 256.41">
  <defs>
    <linearGradient id="linear-gradient" x1="0.5" y1="0.988" x2="0.5" y2="-0.012" gradientUnits="objectBoundingBox">
      <stop offset="0" stop-color="#fff" stop-opacity="0"/>
      <stop offset="1" stop-color="#39b24a"/>
    </linearGradient>
    <linearGradient id="linear-gradient-2" x1="0.91" y1="-1.081" x2="0.405" y2="0.867" gradientUnits="objectBoundingBox">
      <stop offset="0" stop-color="#fdc740"/>
      <stop offset="1" stop-color="#af2a25"/>
    </linearGradient>
    <linearGradient id="linear-gradient-3" x1="0.651" y1="0.81" x2="1.538" y2="2.637" gradientUnits="objectBoundingBox">
      <stop offset="0" stop-color="#fdc740"/>
      <stop offset="1" stop-color="#ef5e28"/>
    </linearGradient>
    <linearGradient id="linear-gradient-4" x1="-0.032" y1="-0.324" x2="0.946" y2="1.191" xlink:href="#linear-gradient-3"/>
    <linearGradient id="linear-gradient-5" x1="0.272" y1="-0.366" x2="0.63" y2="0.992" gradientUnits="objectBoundingBox">
      <stop offset="0" stop-color="#6e6f71"/>
      <stop offset="1"/>
    </linearGradient>
    <linearGradient id="linear-gradient-6" x1="0.248" y1="-0.006" x2="0.772" y2="1.045" xlink:href="#linear-gradient-3"/>
    <clipPath id="clip-path">
      <path id="Path_553" data-name="Path 553" d="M559.4,541.551l-9.756-25.108,8.658-12.3,18.538,10.687,9.757,25.107-8.66,12.3Z" fill="none"/>
    </clipPath>
    <linearGradient id="linear-gradient-7" x1="-0.271" y1="0.5" x2="1" y2="0.5" xlink:href="#linear-gradient-3"/>
    <linearGradient id="linear-gradient-8" x1="-15.368" y1="0.5" x2="30.148" y2="0.5" xlink:href="#linear-gradient-5"/>
    <linearGradient id="linear-gradient-9" x1="-0.014" y1="0.5" x2="1" y2="0.5" xlink:href="#linear-gradient-3"/>
    <linearGradient id="linear-gradient-10" x1="0" y1="0.5" x2="1" y2="0.5" xlink:href="#linear-gradient-5"/>
    <linearGradient id="linear-gradient-11" x1="-2.603" y1="0.497" x2="11.019" y2="0.497" xlink:href="#linear-gradient-5"/>
    <linearGradient id="linear-gradient-12" x1="-2.226" y1="0.495" x2="15.644" y2="0.495" xlink:href="#linear-gradient-5"/>
    <linearGradient id="linear-gradient-13" x1="-5.89" y1="0.499" x2="14.041" y2="0.499" xlink:href="#linear-gradient-5"/>
    <linearGradient id="linear-gradient-14" x1="-1.769" y1="0.498" x2="24.428" y2="0.498" xlink:href="#linear-gradient-5"/>
    <linearGradient id="linear-gradient-15" x1="-8.934" y1="0.501" x2="6.905" y2="0.501" xlink:href="#linear-gradient-5"/>
    <linearGradient id="linear-gradient-16" x1="-6.827" y1="0.504" x2="11.147" y2="0.504" xlink:href="#linear-gradient-5"/>
    <linearGradient id="linear-gradient-17" x1="-0.479" y1="0.499" x2="27.422" y2="0.499" xlink:href="#linear-gradient-5"/>
    <linearGradient id="linear-gradient-18" x1="-5.928" y1="0.501" x2="6.905" y2="0.501" xlink:href="#linear-gradient-5"/>
    <linearGradient id="linear-gradient-19" x1="-0.023" y1="0.5" x2="1" y2="0.5" xlink:href="#linear-gradient-5"/>
    <linearGradient id="linear-gradient-20" x1="-500.322" y1="0.51" x2="810.093" y2="0.51" xlink:href="#linear-gradient-5"/>
    <linearGradient id="linear-gradient-21" x1="-10.631" y1="0.5" x2="9.564" y2="0.5" xlink:href="#linear-gradient-5"/>
    <linearGradient id="linear-gradient-22" x1="-27.767" y1="0.501" x2="37.373" y2="0.501" xlink:href="#linear-gradient-5"/>
    <linearGradient id="linear-gradient-23" x1="-25.296" y1="0.528" x2="28.589" y2="0.528" xlink:href="#linear-gradient-5"/>
    <linearGradient id="linear-gradient-24" x1="-1227.062" y1="0.502" x2="239.978" y2="0.502" xlink:href="#linear-gradient-5"/>
    <linearGradient id="linear-gradient-25" x1="0.24" y1="-0.114" x2="0.782" y2="0.813" gradientUnits="objectBoundingBox">
      <stop offset="0" stop-color="#fff"/>
      <stop offset="1" stop-color="#9bb3dd"/>
    </linearGradient>
    <linearGradient id="linear-gradient-27" x1="0.5" y1="-0.32" x2="0.5" y2="0.852" xlink:href="#linear-gradient-25"/>
  </defs>
  <g id="Group_345" data-name="Group 345" transform="translate(-436.908 -398.166)">
    <path id="Path_542" data-name="Path 542" d="M536.767,454.152H479.206a5.107,5.107,0,0,1-3.627-8.726,5.055,5.055,0,0,1,3.627-1.5h42.161a5.539,5.539,0,1,0,0-11.077H503.58a5.118,5.118,0,0,1-5.131-5.116,5.125,5.125,0,0,1,5.131-5.11h85.376S555.3,454.152,536.767,454.152Z" fill="#d5dce8"/>
    <path id="Path_543" data-name="Path 543" d="M592.976,416.184H546.787a4.965,4.965,0,0,1-4.973-4.956h0a4.965,4.965,0,0,1,4.973-4.955H602.8Z" fill="#d5dce8"/>
    <path id="Path_544" data-name="Path 544" d="M708.228,516.912c0,73.094-59.465,132.356-132.82,132.356S442.584,590.006,442.584,516.912s79.558-14.545,157.988-101.672C634.245,377.834,708.228,443.82,708.228,516.912Z" fill="#f1f1f1"/>
    <path id="Path_545" data-name="Path 545" d="M450.736,546.355c17.577-7.66,129.133-27.446,251.146-1.443,0,0-23.742,101.029-125.14,99.806C472.865,643.467,450.736,546.355,450.736,546.355Z" opacity="0.5" fill="url(#linear-gradient)"/>
    <g id="Group_331" data-name="Group 331">
      <g id="Group_329" data-name="Group 329">
        <g id="Group_328" data-name="Group 328">
          <path id="Path_546" data-name="Path 546" d="M589,540.232l8.383-3.817-10.443,14.835-8.381,3.817Z" fill="url(#linear-gradient-2)"/>
          <path id="Path_547" data-name="Path 547" d="M557.674,501.314l8.382-3.817,20.885,12.041-8.379,3.817Z" fill="url(#linear-gradient-3)"/>
          <path id="Path_548" data-name="Path 548" d="M578.562,513.355l8.379-3.817,10.445,26.876L589,540.232Z" fill="url(#linear-gradient-4)"/>
          <path id="Path_549" data-name="Path 549" d="M578.562,555.066,589,540.232l-10.441-26.876-20.888-12.041-10.441,14.835,10.441,26.876Z" fill="#fff"/>
          <path id="Path_550" data-name="Path 550" d="M578.562,555.066,589,540.232l-10.441-26.876-20.888-12.041-10.441,14.835,10.441,26.876Z" fill="url(#linear-gradient-5)"/>
          <path id="Path_551" data-name="Path 551" d="M559.4,541.551l-9.756-25.108,8.658-12.3,18.538,10.687,9.757,25.107-8.66,12.3Z" fill="url(#linear-gradient-6)"/>
          <g id="Group_327" data-name="Group 327">
            <g id="Group_326" data-name="Group 326" clip-path="url(#clip-path)">
              <path id="Path_552" data-name="Path 552" d="M578.562,513.355s.779,25.22-20.888,29.67l20.888,12.041L589,540.231Z" fill="#ec1c24" opacity="0.25"/>
            </g>
          </g>
        </g>
      </g>
      <g id="Group_330" data-name="Group 330" opacity="0.25">
        <path id="Path_554" data-name="Path 554" d="M579.942,505.512H572.3c-.347,0-1.3-1.254-.954-1.254h6.415Z" fill="#ec1c24"/>
      </g>
    </g>
    <g id="Group_332" data-name="Group 332">
      <path id="Path_555" data-name="Path 555" d="M710.561,491.09c-2.71-.851-16.855-3.086-26-6.026-6.8-2.184-11.062-3.424-19.478-3.424-2.745,0-6.027.133-10.033.408-5.387.362-20.917,1.644-38.969,3.171l-21.045-16.935.121.706-.723-.041L610.382,485.7c-32.62,2.772-70.638,6.079-72.323,6.225l1.134.582-.411.7c2.317-.011,15.261-.072,32.165-.134v10.856a1.637,1.637,0,0,0,3.273,0V493.056c17.652-.062,38.955-.121,56.977-.121,22.6,0,34.494.1,35.355.291,2.807.628,46.776,22.6,46.352,17.079C712.348,503.065,710.561,491.09,710.561,491.09Z" fill="#d5dce8"/>
      <path id="Path_556" data-name="Path 556" d="M595,468.895a53.254,53.254,0,0,1-5.868-.638c-4.265-.653-6.64-3.263-7.049-7.754-.238-2.609-.381-4.189.186-4.808a1.56,1.56,0,0,1,1.2-.374,8.821,8.821,0,0,1,1.478.158l.124.022c2.615.459,5.939,1.047,8.115,6.084.041.1.084.189.123.29a26.132,26.132,0,0,1,1.537,5.933c.01.075.02.153.03.228C594.921,468.319,594.963,468.6,595,468.895Zm.077-1.1a26.111,26.111,0,0,0-1.646-6.254c.877-2.364,2.956-5.359,7.9-6.193.125,1.27.553,7.332-2.243,10.5A5.793,5.793,0,0,1,595.079,467.8Z" fill="#fff"/>
      <path id="Path_557" data-name="Path 557" d="M595,468.895a53.254,53.254,0,0,1-5.868-.638c-4.265-.653-6.64-3.263-7.049-7.754-.238-2.609-.381-4.189.186-4.808a1.56,1.56,0,0,1,1.2-.374,8.821,8.821,0,0,1,1.478.158l.124.022c2.615.459,5.939,1.047,8.115,6.084.041.1.084.189.123.29a26.132,26.132,0,0,1,1.537,5.933c.01.075.02.153.03.228C594.921,468.319,594.963,468.6,595,468.895Zm.077-1.1a26.111,26.111,0,0,0-1.646-6.254c.877-2.364,2.956-5.359,7.9-6.193.125,1.27.553,7.332-2.243,10.5A5.793,5.793,0,0,1,595.079,467.8Z" fill="#39b24a"/>
      <path id="Path_558" data-name="Path 558" d="M537.729,491.576c-.024.077-.046.152-.071.228.476.267,1.011.614,1.185.737-.422.849-2.7,4.854-8.736,6.163a14.226,14.226,0,0,1-3.051.338,12.754,12.754,0,0,1-7.875-2.658c.254-.643,1.635-3.456,6.836-5.307a15.82,15.82,0,0,1,3.874-.859c.107-.011.214-.009.319-.016.315-.022.63-.042.942-.042a13.633,13.633,0,0,1,6.506,1.644c.025-.073.047-.152.071-.228a13.875,13.875,0,0,0-6.577-1.646c-.376,0-.768.015-1.165.047a21.47,21.47,0,0,1-3.64-5.672,13.113,13.113,0,0,1,5.025-1.163,6,6,0,0,1,5.086,2.374,6.523,6.523,0,0,1,1.271,6.06" fill="#fff"/>
      <path id="Path_559" data-name="Path 559" d="M537.729,491.576c-.024.077-.046.152-.071.228.476.267,1.011.614,1.185.737-.422.849-2.7,4.854-8.736,6.163a14.226,14.226,0,0,1-3.051.338,12.754,12.754,0,0,1-7.875-2.658c.254-.643,1.635-3.456,6.836-5.307a15.82,15.82,0,0,1,3.874-.859c.107-.011.214-.009.319-.016.315-.022.63-.042.942-.042a13.633,13.633,0,0,1,6.506,1.644c.025-.073.047-.152.071-.228a13.875,13.875,0,0,0-6.577-1.646c-.376,0-.768.015-1.165.047a21.47,21.47,0,0,1-3.64-5.672,13.113,13.113,0,0,1,5.025-1.163,6,6,0,0,1,5.086,2.374,6.523,6.523,0,0,1,1.271,6.06" fill="#39b24a"/>
    </g>
    <path id="Path_560" data-name="Path 560" d="M712.9,516.563c0,75.669-61.561,137.013-137.5,137.013s-137.5-61.344-137.5-137.013c0-80.191,79.94-16.086,161.129-106.28C633.9,371.561,712.9,440.895,712.9,516.563Z" fill="none" stroke="#d5dce8" stroke-linecap="round" stroke-linejoin="round" stroke-width="2" stroke-dasharray="500 0 0 10 5 5"/>
    <g id="Group_336" data-name="Group 336">
      <path id="Path_561" data-name="Path 561" d="M658.224,544.908c0,.878-5.672,1.588-12.67,1.588s-12.67-.71-12.67-1.588,5.674-1.586,12.67-1.586S658.224,544.036,658.224,544.908Z" opacity="0.1"/>
      <g id="Group_334" data-name="Group 334">
        <g id="Group_333" data-name="Group 333">
          <path id="Path_562" data-name="Path 562" d="M648.2,539.237c-.673-2.249-1.2-7.477-.715-7.743a22.678,22.678,0,0,1,2.445-.812c1.67-.138,6.255-8.791,6.255-8.791l-.368-.224a55.86,55.86,0,0,1-4.053,6.664c-.121-.223-1.405-3.908-1.405-3.908l-.339.312c.35,1.119,1.131,4.316,1.131,4.316-.609.782-4.689,1.469-4.689,1.469a5.029,5.029,0,0,1-1.9-2.1l-.984-.087,1.4,2.514c-6.078-.429-6.673-3.44-6.673-3.44.52,3.8,5.212,4.751,5.212,4.751v.208c.008.414.026,1.657.084,5.406.088,5.615-5.3,6.653-5.3,6.653s2.991.083,6.374-.042c.547-.021,1.116-.028,1.687-.021,2.957.025,5.93.324,5.93.324C651.682,544.264,648.871,541.485,648.2,539.237Z" fill="#d5dce8"/>
        </g>
      </g>
      <g id="Group_335" data-name="Group 335">
        <path id="Path_563" data-name="Path 563" d="M629.542,513.917a6.775,6.775,0,0,1,6.784-6.752,6.875,6.875,0,0,1,1.4.146l.148.03-.018-.267c-.009-.106-.015-.212-.015-.321a7.438,7.438,0,0,1,14.875,0,7.234,7.234,0,0,1-.056.893l-.012.1.1.022a7.408,7.408,0,0,1,5.242,4.855c.027.082.051.159.073.241a7.294,7.294,0,0,1,.3,2.075,7.424,7.424,0,0,1-5.926,7.246c-.079.017-.159.025-.239.04a7.873,7.873,0,0,1-1.276.114,7.429,7.429,0,0,1-7.439-7.4,6.789,6.789,0,0,1,.062-.891l.011-.1-.15-.037-.156-.039-.146-.043v.15a6.7,6.7,0,0,1-1.865,4.563c-.068.07-.131.143-.2.208a6.763,6.763,0,0,1-9.313.12c-.055-.051-.115-.1-.169-.153A6.711,6.711,0,0,1,629.542,513.917Z" fill="#fff" opacity="0.75"/>
        <path id="Path_564" data-name="Path 564" d="M644.759,528.329a7.629,7.629,0,0,1-4.882-1.768l-.068-.06-.073.054a5.618,5.618,0,0,1-8.127-7.492,6.982,6.982,0,0,0,9.486-.051c.065-.06.129-.118.192-.185a6.937,6.937,0,0,0,1.973-3.883,7.658,7.658,0,0,0,7.667,7.623,7.954,7.954,0,0,0,1.223-.1,7.5,7.5,0,0,1-.94,2.271c-.062.1-.122.2-.186.3A7.6,7.6,0,0,1,644.759,528.329Z" fill="#fff" opacity="0.75"/>
        <path id="Path_565" data-name="Path 565" d="M657.448,522.142a4.762,4.762,0,0,1-1.943-.421l-.085-.043-.056.081a7.869,7.869,0,0,1-3.825,2.872,7.622,7.622,0,0,0,.857-2.208,7.649,7.649,0,0,0,6.2-7.483,7.534,7.534,0,0,0-.283-2.037,4.658,4.658,0,0,1-.866,9.239Z" fill="#fff" opacity="0.75"/>
      </g>
      <path id="Path_566" data-name="Path 566" d="M629.542,513.917a6.775,6.775,0,0,1,6.784-6.752,6.875,6.875,0,0,1,1.4.146l.148.03-.018-.267c-.009-.106-.015-.212-.015-.321a7.438,7.438,0,0,1,14.875,0,7.234,7.234,0,0,1-.056.893l-.012.1.1.022a7.408,7.408,0,0,1,5.242,4.855c.027.082.051.159.073.241a7.294,7.294,0,0,1,.3,2.075,7.424,7.424,0,0,1-5.926,7.246c-.079.017-.159.025-.239.04a7.873,7.873,0,0,1-1.276.114,7.429,7.429,0,0,1-7.439-7.4,6.789,6.789,0,0,1,.062-.891l.011-.1-.15-.037-.156-.039-.146-.043v.15a6.7,6.7,0,0,1-1.865,4.563c-.068.07-.131.143-.2.208a6.763,6.763,0,0,1-9.313.12c-.055-.051-.115-.1-.169-.153A6.711,6.711,0,0,1,629.542,513.917Z" fill="#39b24a" opacity="0.5"/>
      <path id="Path_567" data-name="Path 567" d="M644.759,528.329a7.629,7.629,0,0,1-4.882-1.768l-.068-.06-.073.054a5.618,5.618,0,0,1-8.127-7.492,6.982,6.982,0,0,0,9.486-.051c.065-.06.129-.118.192-.185a6.937,6.937,0,0,0,1.973-3.883,7.658,7.658,0,0,0,7.667,7.623,7.954,7.954,0,0,0,1.223-.1,7.5,7.5,0,0,1-.94,2.271c-.062.1-.122.2-.186.3A7.6,7.6,0,0,1,644.759,528.329Z" fill="#39b24a" opacity="0.5"/>
      <path id="Path_568" data-name="Path 568" d="M657.448,522.142a4.762,4.762,0,0,1-1.943-.421l-.085-.043-.056.081a7.869,7.869,0,0,1-3.825,2.872,7.622,7.622,0,0,0,.857-2.208,7.649,7.649,0,0,0,6.2-7.483,7.534,7.534,0,0,0-.283-2.037,4.658,4.658,0,0,1-.866,9.239Z" fill="#39b24a" opacity="0.5"/>
    </g>
    <path id="Path_569" data-name="Path 569" d="M661.187,452.869h-.012c0-.077.012-.152.012-.232a7.648,7.648,0,1,0-15.233.923,4.7,4.7,0,1,0-2.689,8.546c2.466,0,16.116-.156,17.922-.156a4.541,4.541,0,1,0,0-9.082Z" fill="#fff"/>
    <path id="Path_570" data-name="Path 570" d="M610.966,442.856h-.01c0-.056.01-.114.01-.173a5.735,5.735,0,1,0-11.424.694,3.523,3.523,0,1,0-2.017,6.4c1.847,0,12.084-.114,13.441-.114a3.406,3.406,0,1,0,0-6.812Z" fill="#fff"/>
    <path id="Path_571" data-name="Path 571" d="M487.591,489.308h-.007c0-.047.007-.1.007-.148a4.775,4.775,0,0,0-9.549,0,5,5,0,0,0,.039.58,2.9,2.9,0,0,0-1.679-.527,2.929,2.929,0,1,0,0,5.858c1.541,0,10.06-.094,11.189-.094a2.835,2.835,0,1,0,0-5.669Z" fill="#fff"/>
    <g id="Group_344" data-name="Group 344">
      <g id="Group_337" data-name="Group 337">
        <path id="Path_572" data-name="Path 572" d="M532.269,551.1a6.506,6.506,0,0,0-8.793-2.685l-3.771,2.75c1.921-1.016,5.576.474,7.039,3.219s.69,6.233-1.225,7.258l4.059-1.764A6.487,6.487,0,0,0,532.269,551.1Z" fill="url(#linear-gradient-7)"/>
        <path id="Path_573" data-name="Path 573" d="M519.7,551.163l-.265.194.268-.2Z" fill="url(#linear-gradient-8)"/>
      </g>
      <g id="Group_338" data-name="Group 338">
        <path id="Path_574" data-name="Path 574" d="M521.837,556.848a4.661,4.661,0,0,0-6.295-1.925,15.623,15.623,0,0,0-2.745,4.9c.436-.543.781-.921.781-.921a2.335,2.335,0,1,1,2.673,3.8s-.512.211-1.213.447a15.956,15.956,0,0,0,4.934.09A4.751,4.751,0,0,0,521.837,556.848Z" fill="url(#linear-gradient-9)"/>
      </g>
      <g id="Group_339" data-name="Group 339" opacity="0.25">
        <path id="Path_575" data-name="Path 575" d="M515.039,563.15a15.951,15.951,0,0,0,4.933.09v0a3.362,3.362,0,0,0,1.732.05l.013,0,.03-.015a2.743,2.743,0,0,0,.593-.224l3.172-1.408,0,0,4.063-1.765a6.438,6.438,0,0,0,2.731-2.772v.01l.017-.044a6.532,6.532,0,0,0,.677-2.413,5.692,5.692,0,0,0-.734-3.559,6.489,6.489,0,0,0-2.883-2.781c.018-.019.035-.039.051-.057l-.25-.036s6.613,7.533-18.091,15.254C511.584,564.172,513.677,563.612,515.039,563.15Z" fill="#ec1c24"/>
      </g>
      <path id="Path_576" data-name="Path 576" d="M511.1,563.477c.738,1.051,5.155-.774,5.155-.774a2.449,2.449,0,0,0,.762-3.373h0a2.457,2.457,0,0,0-3.435-.43s-3.221,3.528-2.482,4.577Z" fill="url(#linear-gradient-10)"/>
      <g id="Group_340" data-name="Group 340">
        <path id="Path_577" data-name="Path 577" d="M512.683,563.753c-.164.022-.322.04-.471.047C512.361,563.793,512.519,563.775,512.683,563.753Z" fill="url(#linear-gradient-11)"/>
        <path id="Path_578" data-name="Path 578" d="M512.144,563.8a2.764,2.764,0,0,1-.359-.013A2.764,2.764,0,0,0,512.144,563.8Z" fill="url(#linear-gradient-12)"/>
        <path id="Path_579" data-name="Path 579" d="M513.2,563.662c-.109.022-.216.041-.322.06C512.988,563.7,513.095,563.684,513.2,563.662Z" fill="url(#linear-gradient-13)"/>
        <path id="Path_580" data-name="Path 580" d="M511.664,563.767a1.366,1.366,0,0,1-.245-.067A1.366,1.366,0,0,0,511.664,563.767Z" fill="url(#linear-gradient-14)"/>
        <path id="Path_581" data-name="Path 581" d="M515.01,563.159c-.128.044-.266.088-.405.132C514.746,563.247,514.88,563.2,515.01,563.159Z" fill="url(#linear-gradient-15)"/>
        <path id="Path_582" data-name="Path 582" d="M513.78,563.527c-.118.032-.238.061-.357.088C513.542,563.588,513.661,563.559,513.78,563.527Z" fill="url(#linear-gradient-16)"/>
        <path id="Path_583" data-name="Path 583" d="M511.326,563.662a.623.623,0,0,1-.23-.185A.623.623,0,0,0,511.326,563.662Z" fill="url(#linear-gradient-17)"/>
        <path id="Path_584" data-name="Path 584" d="M514.45,563.34q-.245.075-.5.144Q514.2,563.415,514.45,563.34Z" fill="url(#linear-gradient-18)"/>
        <path id="Path_585" data-name="Path 585" d="M514.6,563.291l-.155.049Z" fill="#ec1c24"/>
        <path id="Path_586" data-name="Path 586" d="M513.95,563.484c-.056.016-.113.029-.17.043C513.837,563.513,513.894,563.5,513.95,563.484Z" fill="#ec1c24"/>
        <path id="Path_587" data-name="Path 587" d="M513.423,563.615c-.073.017-.146.031-.219.047C513.277,563.646,513.35,563.632,513.423,563.615Z" fill="#ec1c24"/>
        <path id="Path_588" data-name="Path 588" d="M511.785,563.786c-.043-.005-.082-.013-.121-.019C511.7,563.773,511.742,563.781,511.785,563.786Z" fill="#ec1c24"/>
        <path id="Path_589" data-name="Path 589" d="M511.419,563.7c-.031-.013-.065-.023-.093-.038C511.354,563.677,511.388,563.687,511.419,563.7Z" fill="#ec1c24"/>
        <path id="Path_590" data-name="Path 590" d="M512.882,563.722c-.067.01-.135.022-.2.031C512.748,563.744,512.814,563.732,512.882,563.722Z" fill="#ec1c24"/>
        <path id="Path_591" data-name="Path 591" d="M512.212,563.8c-.024,0-.045,0-.068,0C512.167,563.8,512.188,563.8,512.212,563.8Z" fill="#ec1c24"/>
        <path id="Path_592" data-name="Path 592" d="M517.278,561.3c-1.8.717-3.853,1.444-6.182,2.172a.623.623,0,0,0,.23.185c.028.015.062.025.093.038a1.366,1.366,0,0,0,.245.067c.039.006.078.014.121.019a2.764,2.764,0,0,0,.359.013c.023,0,.044,0,.068,0,.149-.007.307-.025.471-.047.064-.009.132-.021.2-.031.106-.019.213-.038.322-.06.073-.016.146-.03.219-.047.119-.027.239-.056.357-.088.057-.014.114-.027.17-.043q.255-.069.5-.144l.155-.049c.139-.044.277-.088.405-.132.715-.24,1.241-.456,1.241-.456A2.678,2.678,0,0,0,517.278,561.3Z" opacity="0.75"/>
      </g>
      <g id="Group_341" data-name="Group 341">
        <path id="Path_593" data-name="Path 593" d="M526.744,554.381c-1.463-2.746-5.122-4.236-7.041-3.218l-2.655,1.943a3.137,3.137,0,0,0-1.453,1.795,4.658,4.658,0,0,1,6.242,1.947,4.752,4.752,0,0,1-1.861,6.39,3.155,3.155,0,0,0,2.364-.187l3.172-1.408C527.432,560.623,528.206,557.127,526.744,554.381Z" fill="url(#linear-gradient-19)"/>
      </g>
      <g id="Group_342" data-name="Group 342">
        <path id="Path_594" data-name="Path 594" d="M519.976,563.238l.009,0-.009,0Z" fill="url(#linear-gradient-20)"/>
        <path id="Path_595" data-name="Path 595" d="M521.737,563.28a2.725,2.725,0,0,0,.6-.229,2.743,2.743,0,0,1-.593.224Z" fill="url(#linear-gradient-21)"/>
        <path id="Path_596" data-name="Path 596" d="M520.7,563.362c-.062-.005-.124-.009-.187-.017C520.58,563.353,520.642,563.357,520.7,563.362Z" fill="url(#linear-gradient-22)"/>
        <path id="Path_597" data-name="Path 597" d="M521.269,563.361c-.074.007-.15.006-.226.008C521.119,563.367,521.2,563.368,521.269,563.361Z" fill="url(#linear-gradient-23)"/>
        <path id="Path_598" data-name="Path 598" d="M525.512,561.643l.008,0-.005,0Z" fill="url(#linear-gradient-24)"/>
        <path id="Path_599" data-name="Path 599" d="M521.043,563.369a3.219,3.219,0,0,1-.339-.007C520.818,563.37,520.931,563.372,521.043,563.369Z" fill="#ec1c24"/>
        <path id="Path_600" data-name="Path 600" d="M521.7,563.287l.013,0,.02-.01a2.94,2.94,0,0,1-.468.081A3.04,3.04,0,0,0,521.7,563.287Z" fill="#ec1c24"/>
        <path id="Path_601" data-name="Path 601" d="M520.517,563.345a4.03,4.03,0,0,1-.532-.1A3.878,3.878,0,0,0,520.517,563.345Z" fill="#ec1c24"/>
        <path id="Path_602" data-name="Path 602" d="M527.248,555.657a23.674,23.674,0,0,1-4.875,3.31,4.651,4.651,0,0,1-2.4,4.271l.009,0a4.03,4.03,0,0,0,.532.1c.063.008.125.012.187.017a3.219,3.219,0,0,0,.339.007c.076,0,.152,0,.226-.008a2.94,2.94,0,0,0,.468-.081l.01-.005a2.743,2.743,0,0,0,.593-.224l3.172-1.408,0,0,.005,0C527.146,560.766,527.94,558.117,527.248,555.657Z" opacity="0.75"/>
      </g>
      <path id="Path_603" data-name="Path 603" d="M523.828,550.12s1.793-8.874-3.584-9.472,2.314,9.472,2.314,9.472Z" fill="url(#linear-gradient-25)"/>
      <g id="Group_343" data-name="Group 343">
        <path id="Path_604" data-name="Path 604" d="M526.554,547.652a6.5,6.5,0,0,1,5.715,3.445c.864,1.628,1.191,3.258.04,6.016C533.306,549.083,526.554,547.652,526.554,547.652Z" fill="url(#linear-gradient-10)"/>
      </g>
      <path id="Path_605" data-name="Path 605" d="M525.8,550.527s-.322-9.048,5.083-8.76-3.829,8.966-3.829,8.966Z" fill="url(#linear-gradient-27)"/>
    </g>
  </g>
</svg>
