<svg xmlns="http://www.w3.org/2000/svg" xmlns:xlink="http://www.w3.org/1999/xlink" width="276.99" height="256.403" viewBox="0 0 276.99 256.403">
  <defs>
    <linearGradient id="linear-gradient" x1="0.5" y1="0.988" x2="0.5" y2="-0.012" gradientUnits="objectBoundingBox">
      <stop offset="0" stop-color="#fff" stop-opacity="0"/>
      <stop offset="1" stop-color="#39b24a"/>
    </linearGradient>
    <linearGradient id="linear-gradient-2" x1="0.091" y1="-0.024" x2="0.458" y2="0.446" gradientUnits="objectBoundingBox">
      <stop offset="0" stop-color="#fdc740"/>
      <stop offset="1" stop-color="#ef5e28"/>
    </linearGradient>
    <linearGradient id="linear-gradient-3" x1="0.027" y1="-0.03" x2="0.412" y2="0.401" xlink:href="#linear-gradient-2"/>
    <linearGradient id="linear-gradient-4" x1="0.121" y1="0.054" x2="0.484" y2="0.482" xlink:href="#linear-gradient-2"/>
    <radialGradient id="radial-gradient" cx="0.751" cy="8.802" r="39.083" gradientTransform="translate(0.318 3.73) scale(0.577 0.576)" xlink:href="#linear-gradient-2"/>
    <linearGradient id="linear-gradient-5" x1="0.136" y1="0.098" x2="0.59" y2="0.6" xlink:href="#linear-gradient-2"/>
    <linearGradient id="linear-gradient-6" x1="0.196" y1="0.042" x2="0.66" y2="0.741" xlink:href="#linear-gradient-2"/>
    <linearGradient id="linear-gradient-7" x1="0.168" y1="0.129" x2="0.743" y2="0.771" xlink:href="#linear-gradient-2"/>
    <linearGradient id="linear-gradient-8" x1="0.151" y1="0.142" x2="0.858" y2="0.867" xlink:href="#linear-gradient-2"/>
    <linearGradient id="linear-gradient-9" x1="0.14" y1="0.142" x2="0.869" y2="0.868" xlink:href="#linear-gradient-2"/>
    <linearGradient id="linear-gradient-10" x1="0.414" y1="0.212" x2="0.704" y2="1.183" gradientUnits="objectBoundingBox">
      <stop offset="0" stop-color="#6e6f71"/>
      <stop offset="1"/>
    </linearGradient>
    <linearGradient id="linear-gradient-11" x1="0.54" y1="-0.314" x2="0.488" y2="0.78" xlink:href="#linear-gradient-10"/>
    <linearGradient id="linear-gradient-12" x1="-0.271" y1="0.5" x2="1" y2="0.5" xlink:href="#linear-gradient-2"/>
    <linearGradient id="linear-gradient-13" x1="-15.366" y1="0.5" x2="30.144" y2="0.5" xlink:href="#linear-gradient-10"/>
    <linearGradient id="linear-gradient-14" x1="-0.014" y1="0.5" x2="1" y2="0.5" xlink:href="#linear-gradient-2"/>
    <linearGradient id="linear-gradient-15" x1="0" y1="0.5" x2="1" y2="0.5" xlink:href="#linear-gradient-10"/>
    <linearGradient id="linear-gradient-16" x1="-2.61" y1="0.505" x2="11.043" y2="0.505" xlink:href="#linear-gradient-10"/>
    <linearGradient id="linear-gradient-17" x1="-2.225" y1="0.524" x2="15.649" y2="0.524" xlink:href="#linear-gradient-10"/>
    <linearGradient id="linear-gradient-18" x1="-5.869" y1="0.504" x2="13.998" y2="0.504" xlink:href="#linear-gradient-10"/>
    <linearGradient id="linear-gradient-19" x1="-1.777" y1="0.504" x2="24.514" y2="0.504" xlink:href="#linear-gradient-10"/>
    <linearGradient id="linear-gradient-20" x1="-8.937" y1="0.503" x2="6.906" y2="0.503" xlink:href="#linear-gradient-10"/>
    <linearGradient id="linear-gradient-21" x1="-6.828" y1="0.496" x2="11.144" y2="0.496" xlink:href="#linear-gradient-10"/>
    <linearGradient id="linear-gradient-22" x1="-0.483" y1="0.501" x2="27.536" y2="0.501" xlink:href="#linear-gradient-10"/>
    <linearGradient id="linear-gradient-23" x1="-5.929" y1="0.5" x2="6.904" y2="0.5" xlink:href="#linear-gradient-10"/>
    <linearGradient id="linear-gradient-24" x1="-0.023" y1="0.5" x2="1" y2="0.5" xlink:href="#linear-gradient-10"/>
    <linearGradient id="linear-gradient-25" x1="-502.434" y1="0.502" x2="813.51" y2="0.502" xlink:href="#linear-gradient-10"/>
    <linearGradient id="linear-gradient-26" x1="-10.632" y1="0.499" x2="9.563" y2="0.499" xlink:href="#linear-gradient-10"/>
    <linearGradient id="linear-gradient-27" x1="-27.785" y1="0.494" x2="37.392" y2="0.494" xlink:href="#linear-gradient-10"/>
    <linearGradient id="linear-gradient-28" x1="-25.189" y1="0.513" x2="28.473" y2="0.513" xlink:href="#linear-gradient-10"/>
    <linearGradient id="linear-gradient-29" x1="-1227.058" y1="0.501" x2="239.981" y2="0.501" xlink:href="#linear-gradient-10"/>
    <linearGradient id="linear-gradient-30" x1="0.24" y1="-0.114" x2="0.782" y2="0.813" gradientUnits="objectBoundingBox">
      <stop offset="0" stop-color="#fff"/>
      <stop offset="1" stop-color="#9bb3dd"/>
    </linearGradient>
    <linearGradient id="linear-gradient-32" x1="0.5" y1="-0.32" x2="0.5" y2="0.851" xlink:href="#linear-gradient-30"/>
    <linearGradient id="linear-gradient-33" x1="0.162" y1="0.5" x2="1.433" y2="0.5" xlink:href="#linear-gradient-2"/>
    <linearGradient id="linear-gradient-34" x1="-44.526" y1="0.5" x2="0.985" y2="0.5" xlink:href="#linear-gradient-10"/>
    <linearGradient id="linear-gradient-35" x1="-1.24" y1="0.5" x2="-0.227" y2="0.5" xlink:href="#linear-gradient-2"/>
    <linearGradient id="linear-gradient-36" x1="-2.895" y1="0.5" x2="-1.895" y2="0.5" xlink:href="#linear-gradient-10"/>
    <linearGradient id="linear-gradient-37" x1="-49.454" y1="0.505" x2="-35.803" y2="0.505" xlink:href="#linear-gradient-10"/>
    <linearGradient id="linear-gradient-38" x1="-66.298" y1="0.524" x2="-48.425" y2="0.524" xlink:href="#linear-gradient-10"/>
    <linearGradient id="linear-gradient-39" x1="-70.647" y1="0.498" x2="-50.749" y2="0.498" xlink:href="#linear-gradient-10"/>
    <linearGradient id="linear-gradient-40" x1="-99.989" y1="0.498" x2="-73.625" y2="0.498" xlink:href="#linear-gradient-10"/>
    <linearGradient id="linear-gradient-41" x1="-51.738" y1="0.501" x2="-35.895" y2="0.501" xlink:href="#linear-gradient-10"/>
    <linearGradient id="linear-gradient-42" x1="-62.243" y1="0.499" x2="-44.26" y2="0.499" xlink:href="#linear-gradient-10"/>
    <linearGradient id="linear-gradient-43" x1="-108.154" y1="0.5" x2="-80.172" y2="0.5" xlink:href="#linear-gradient-10"/>
    <linearGradient id="linear-gradient-44" x1="-43.083" y1="0.499" x2="-30.24" y2="0.499" xlink:href="#linear-gradient-10"/>
    <linearGradient id="linear-gradient-45" x1="-0.347" y1="0.5" x2="0.675" y2="0.5" xlink:href="#linear-gradient-10"/>
    <linearGradient id="linear-gradient-46" x1="-1156.668" y1="0.623" x2="121.857" y2="0.623" xlink:href="#linear-gradient-10"/>
    <linearGradient id="linear-gradient-47" x1="-15.411" y1="0.5" x2="4.779" y2="0.5" xlink:href="#linear-gradient-10"/>
    <linearGradient id="linear-gradient-48" x1="-58.543" y1="0.494" x2="6.685" y2="0.494" xlink:href="#linear-gradient-10"/>
    <linearGradient id="linear-gradient-49" x1="-45.571" y1="0.513" x2="8.024" y2="0.513" xlink:href="#linear-gradient-10"/>
    <linearGradient id="linear-gradient-50" x1="-743.486" y1="0.496" x2="725.517" y2="0.496" xlink:href="#linear-gradient-10"/>
    <linearGradient id="linear-gradient-51" x1="-0.542" y1="-0.114" x2="0" y2="0.813" xlink:href="#linear-gradient-30"/>
    <linearGradient id="linear-gradient-52" x1="1.945" y1="0.5" x2="2.945" y2="0.5" xlink:href="#linear-gradient-10"/>
    <linearGradient id="linear-gradient-53" x1="2.182" y1="-0.32" x2="2.182" y2="0.852" xlink:href="#linear-gradient-30"/>
    <linearGradient id="linear-gradient-55" x1="-15.365" y1="0.5" x2="30.143" y2="0.5" xlink:href="#linear-gradient-10"/>
    <linearGradient id="linear-gradient-57" x1="0" y1="0.5" x2="1" y2="0.5" xlink:href="#linear-gradient-10"/>
    <linearGradient id="linear-gradient-58" x1="-2.602" y1="0.505" x2="11.018" y2="0.505" xlink:href="#linear-gradient-10"/>
    <linearGradient id="linear-gradient-59" x1="-2.234" y1="0.483" x2="15.702" y2="0.483" xlink:href="#linear-gradient-10"/>
    <linearGradient id="linear-gradient-60" x1="-5.874" y1="0.496" x2="14.006" y2="0.496" xlink:href="#linear-gradient-10"/>
    <linearGradient id="linear-gradient-61" x1="-1.771" y1="0.506" x2="24.47" y2="0.506" xlink:href="#linear-gradient-10"/>
    <linearGradient id="linear-gradient-62" x1="-8.942" y1="0.504" x2="6.911" y2="0.504" xlink:href="#linear-gradient-10"/>
    <linearGradient id="linear-gradient-63" x1="-6.835" y1="0.503" x2="11.157" y2="0.503" xlink:href="#linear-gradient-10"/>
    <linearGradient id="linear-gradient-64" x1="-0.481" y1="0.497" x2="27.505" y2="0.497" xlink:href="#linear-gradient-10"/>
    <linearGradient id="linear-gradient-65" x1="-5.93" y1="0.5" x2="6.903" y2="0.5" xlink:href="#linear-gradient-10"/>
    <linearGradient id="linear-gradient-66" x1="-0.023" y1="0.5" x2="1" y2="0.5" xlink:href="#linear-gradient-10"/>
    <linearGradient id="linear-gradient-67" x1="-496.691" y1="0.483" x2="804.22" y2="0.483" xlink:href="#linear-gradient-10"/>
    <linearGradient id="linear-gradient-68" x1="-10.633" y1="0.501" x2="9.565" y2="0.501" xlink:href="#linear-gradient-10"/>
    <linearGradient id="linear-gradient-69" x1="-27.803" y1="0.535" x2="37.417" y2="0.535" xlink:href="#linear-gradient-10"/>
    <linearGradient id="linear-gradient-70" x1="-25.165" y1="0.551" x2="28.44" y2="0.551" xlink:href="#linear-gradient-10"/>
    <linearGradient id="linear-gradient-71" x1="-1219.914" y1="0.501" x2="238.586" y2="0.501" xlink:href="#linear-gradient-10"/>
    <linearGradient id="linear-gradient-72" x1="0.24" y1="-0.114" x2="0.782" y2="0.813" xlink:href="#linear-gradient-30"/>
    <linearGradient id="linear-gradient-73" x1="0" y1="0.5" x2="1" y2="0.5" xlink:href="#linear-gradient-10"/>
    <linearGradient id="linear-gradient-74" x1="0.5" y1="-0.32" x2="0.5" y2="0.852" xlink:href="#linear-gradient-30"/>
  </defs>
  <g id="Group_323" data-name="Group 323" transform="translate(-813.746 -398.176)">
    <path id="Path_379" data-name="Path 379" d="M990.928,452.391h57.561a5.107,5.107,0,0,0,3.627-8.727,5.06,5.06,0,0,0-3.627-1.5h-42.161a5.539,5.539,0,1,1,0-11.078h17.787a5.117,5.117,0,0,0,5.131-5.114,5.127,5.127,0,0,0-5.131-5.111H938.739S972.4,452.391,990.928,452.391Z" fill="#d5dce8"/>
    <path id="Path_380" data-name="Path 380" d="M934.671,416.193H980.86a4.963,4.963,0,0,0,4.971-4.954h0a4.963,4.963,0,0,0-4.971-4.956H924.842Z" fill="#d5dce8"/>
    <path id="Path_381" data-name="Path 381" d="M819.423,516.919c0,73.093,59.464,132.351,132.817,132.351s132.819-59.258,132.819-132.351S1005.5,502.375,927.076,415.251C893.4,377.845,819.423,443.829,819.423,516.919Z" fill="#f1f1f1"/>
    <path id="Path_382" data-name="Path 382" d="M827.575,546.362c17.576-7.66,129.13-27.446,251.139-1.444,0,0-23.742,101.025-125.138,99.8C849.7,643.471,827.575,546.362,827.575,546.362Z" opacity="0.5" fill="url(#linear-gradient)"/>
    <g id="Group_283" data-name="Group 283">
      <g id="Group_281" data-name="Group 281">
        <path id="Path_383" data-name="Path 383" d="M956.705,557.8a9.884,9.884,0,0,1-8.929,0c-2.465-1.42-2.465-3.727,0-5.15a9.878,9.878,0,0,1,8.929,0C959.169,554.073,959.169,556.38,956.705,557.8Z" fill="url(#linear-gradient-2)"/>
        <g id="Group_271" data-name="Group 271" opacity="0.25">
          <path id="Path_384" data-name="Path 384" d="M956.705,552.65a7.659,7.659,0,0,0-1.947-.761c2.393,1.425,2.372,3.7-.069,5.106a9.959,9.959,0,0,1-6.98.762c.024.014.044.028.067.043a9.884,9.884,0,0,0,8.929,0C959.169,556.38,959.169,554.073,956.705,552.65Z" fill="#ec1c24"/>
        </g>
        <path id="Path_385" data-name="Path 385" d="M961.406,554.528c-5.063,2.917-13.269,2.917-18.329,0s-5.062-7.651,0-10.571,13.266-2.92,18.329,0S966.467,551.608,961.406,554.528Z" fill="url(#linear-gradient-3)"/>
        <g id="Group_272" data-name="Group 272" opacity="0.25">
          <path id="Path_386" data-name="Path 386" d="M961.406,543.956a13.85,13.85,0,0,0-1.471-.721c4.914,2.926,4.87,7.6-.141,10.488-4.6,2.652-11.787,2.884-16.859.718.047.028.092.057.142.086,5.06,2.918,13.266,2.918,18.329,0S966.467,546.876,961.406,543.956Z" fill="#ec1c24"/>
        </g>
        <path id="Path_387" data-name="Path 387" d="M966.244,550.3c-7.745,4.464-20.3,4.464-28.05,0s-7.744-11.712,0-16.179,20.305-4.466,28.05,0S973.989,545.831,966.244,550.3Z" fill="url(#linear-gradient-4)"/>
        <g id="Group_273" data-name="Group 273" opacity="0.25">
          <path id="Path_388" data-name="Path 388" d="M966.244,534.12a20.771,20.771,0,0,0-1.879-.952c.089.05.179.1.268.147,7.744,4.467,7.744,11.711,0,16.178-7.147,4.122-18.387,4.438-26.168.952,7.764,4.317,20.123,4.272,27.779-.144C973.989,545.831,973.989,538.587,966.244,534.12Z" fill="#ec1c24"/>
        </g>
        <ellipse id="Ellipse_13" data-name="Ellipse 13" cx="22.369" cy="12.903" rx="22.369" ry="12.903" transform="translate(929.851 523.656)" fill="url(#radial-gradient)"/>
        <g id="Group_274" data-name="Group 274" opacity="0.25">
          <path id="Path_389" data-name="Path 389" d="M969.13,528.118c5.906,5.021,5.008,11.908-2.7,16.357-8.736,5.038-22.9,5.038-31.637,0-.382-.221-.744-.451-1.092-.684a18.23,18.23,0,0,0,2.706,1.893c8.734,5.038,22.9,5.038,31.635,0C976.391,540.864,976.749,533.186,969.13,528.118Z" fill="#ec1c24"/>
        </g>
        <path id="Path_390" data-name="Path 390" d="M969.831,538.673c-9.714,5.6-25.464,5.6-35.182,0s-9.713-14.687,0-20.293,25.468-5.6,35.182,0S979.544,533.069,969.831,538.673Z" fill="url(#linear-gradient-5)"/>
        <g id="Group_275" data-name="Group 275" opacity="0.25">
          <path id="Path_391" data-name="Path 391" d="M969.831,518.38c-.236-.134-.476-.263-.716-.39,8.386,5.636,7.959,14.136-1.3,19.475-9.481,5.467-24.706,5.6-34.464.391.414.28.841.553,1.3.817,9.718,5.6,25.468,5.6,35.182,0S979.544,523.986,969.831,518.38Z" fill="#ec1c24"/>
        </g>
        <path id="Path_392" data-name="Path 392" d="M968.038,530.357c-8.737,5.04-22.9,5.04-31.635,0s-8.739-13.209,0-18.246,22.9-5.039,31.635,0S976.774,525.32,968.038,530.357Z" fill="url(#linear-gradient-6)"/>
        <g id="Group_276" data-name="Group 276" opacity="0.25">
          <path id="Path_393" data-name="Path 393" d="M970.954,514.181c4.27,4.844,2.9,10.918-4.125,14.969-8.735,5.04-22.9,5.04-31.637,0a18.085,18.085,0,0,1-2.914-2.068,16.268,16.268,0,0,0,4.125,3.275c8.734,5.04,22.9,5.04,31.635,0C975.66,525.962,976.629,519.185,970.954,514.181Z" fill="#ec1c24"/>
        </g>
        <path id="Path_394" data-name="Path 394" d="M965.007,522.3c-7.062,4.074-18.511,4.074-25.575,0s-7.061-10.678,0-14.75,18.513-4.073,25.575,0S972.069,518.225,965.007,522.3Z" fill="url(#linear-gradient-7)"/>
        <g id="Group_277" data-name="Group 277" opacity="0.25">
          <path id="Path_395" data-name="Path 395" d="M967.48,509.329c3.519,3.924,2.428,8.871-3.28,12.163-7.062,4.073-18.51,4.073-25.573,0a14.513,14.513,0,0,1-2.475-1.781,13.3,13.3,0,0,0,3.28,2.585c7.064,4.074,18.513,4.074,25.575,0C971.113,518.775,971.934,513.362,967.48,509.329Z" fill="#ec1c24"/>
        </g>
        <path id="Path_396" data-name="Path 396" d="M961.406,514.568c-5.063,2.92-13.269,2.92-18.329,0s-5.062-7.652,0-10.571,13.266-2.918,18.329,0S966.467,511.65,961.406,514.568Z" fill="url(#linear-gradient-8)"/>
        <path id="Path_397" data-name="Path 397" d="M965.3,507.722a5.792,5.792,0,0,1,.151.825,5.525,5.525,0,0,1-.067,1.6,5.441,5.441,0,0,1-.772,1.928,7.082,7.082,0,0,1-1.673,1.769,11.448,11.448,0,0,1-2.336,1.343,17.666,17.666,0,0,1-2.714.932,24.253,24.253,0,0,1-2.9.59,19.175,19.175,0,0,1-5.8-.03,16.942,16.942,0,0,1-4.817-1.535,15.485,15.485,0,0,1-3.007-1.931,9.3,9.3,0,0,1-.993-.924,9.349,9.349,0,0,0,1,.913,15.753,15.753,0,0,0,3.025,1.888,17,17,0,0,0,4.808,1.465,19.187,19.187,0,0,0,5.753-.041,24.086,24.086,0,0,0,2.865-.626,17.339,17.339,0,0,0,2.667-.951,11.226,11.226,0,0,0,2.257-1.338,6.745,6.745,0,0,0,1.577-1.707,5.166,5.166,0,0,0,.7-1.808,5.25,5.25,0,0,0,.039-1.495,5.136,5.136,0,0,0-.2-.943c-.034-.105-.063-.184-.084-.236l-.03-.074-.006-.01C964.707,507.225,965.285,507.652,965.3,507.722Z" fill="#af2a25"/>
        <path id="Path_398" data-name="Path 398" d="M970.376,513.7a6.694,6.694,0,0,1,.108,1.057,7.121,7.121,0,0,1-.262,2.114A7.63,7.63,0,0,1,969,519.329a10.478,10.478,0,0,1-2.335,2.238,16.3,16.3,0,0,1-3.156,1.719,28.045,28.045,0,0,1-3.638,1.21,32.447,32.447,0,0,1-3.876.754,28.312,28.312,0,0,1-7.756-.019,25.93,25.93,0,0,1-6.515-1.8,19.544,19.544,0,0,1-4.153-2.363,8.79,8.79,0,0,1-1-.885,2.956,2.956,0,0,1-.3-.367,2.836,2.836,0,0,0,.3.362,8.627,8.627,0,0,0,1.013.876,19.477,19.477,0,0,0,4.168,2.319,25.7,25.7,0,0,0,6.507,1.735,28.159,28.159,0,0,0,7.71-.053,32.086,32.086,0,0,0,3.846-.79,27.22,27.22,0,0,0,3.589-1.229,15.97,15.97,0,0,0,3.083-1.716,10.2,10.2,0,0,0,2.243-2.185,7.446,7.446,0,0,0,1.142-2.362,6.7,6.7,0,0,0,.228-2c-.019-.561.009-.932-.062-1.623C970.02,513,970.358,513.581,970.376,513.7Z" fill="#af2a25"/>
        <path id="Path_399" data-name="Path 399" d="M974.711,522.4a8.317,8.317,0,0,1-.4,1.551,10.459,10.459,0,0,1-1.145,2.2,12.832,12.832,0,0,1-2.13,2.383,20.669,20.669,0,0,1-6.95,3.809,38.2,38.2,0,0,1-8.9,1.833,34.984,34.984,0,0,1-9.064-.4,31.665,31.665,0,0,1-7.559-2.316,22.652,22.652,0,0,1-4.8-2.87,9.575,9.575,0,0,1-1.144-1.071,3.718,3.718,0,0,1-.261-.321c-.056-.075-.083-.113-.083-.113l.083.113a3.605,3.605,0,0,0,.264.319,9.363,9.363,0,0,0,1.151,1.057,22.467,22.467,0,0,0,4.813,2.827,31.607,31.607,0,0,0,7.555,2.249,34.738,34.738,0,0,0,9.022.319,37.764,37.764,0,0,0,8.826-1.89,20.334,20.334,0,0,0,6.815-3.8,12.554,12.554,0,0,0,2.051-2.333,10.006,10.006,0,0,0,1.084-2.124c.222-.624.509-2.2.619-2.208S974.766,522.03,974.711,522.4Z" fill="#af2a25"/>
        <path id="Path_400" data-name="Path 400" d="M973.689,536.15a18.991,18.991,0,0,1-4.151,2.943,30.262,30.262,0,0,1-6.7,2.557,45.33,45.33,0,0,1-8.109,1.259,39.26,39.26,0,0,1-8.191-.291,36.038,36.038,0,0,1-6.945-1.688,30.233,30.233,0,0,1-4.615-2.061,15.638,15.638,0,0,1-1.627-1.013,15.394,15.394,0,0,0,1.637,1,29.872,29.872,0,0,0,4.627,2.016,35.806,35.806,0,0,0,6.939,1.62,38.746,38.746,0,0,0,8.16.216,45.052,45.052,0,0,0,8.054-1.322,29.93,29.93,0,0,0,6.607-2.589,18.542,18.542,0,0,0,4.043-2.922,10.233,10.233,0,0,0,.938-1.025c.2-.254.284-.388.284-.388a.206.206,0,0,1,.278-.067A6.351,6.351,0,0,1,973.689,536.15Z" fill="#af2a25"/>
        <path id="Path_401" data-name="Path 401" d="M971.615,543.26a16.734,16.734,0,0,1-1.624,1.342c-.165.12-.334.243-.511.369s-.368.238-.561.361c-.38.254-.8.485-1.236.727s-.909.46-1.392.7-1.006.427-1.532.65c-.535.2-1.093.384-1.66.584-.577.162-1.166.329-1.767.5-.606.135-1.226.269-1.853.406-.63.1-1.271.205-1.918.307s-1.3.146-1.955.22-1.322.088-1.984.136-1.326.025-1.987.041-1.317-.041-1.968-.058c-.653-.042-1.3-.11-1.934-.163-.634-.1-1.261-.167-1.871-.278a29.49,29.49,0,0,1-3.484-.832l-.8-.25-.768-.281c-.507-.174-.979-.383-1.436-.577a26.635,26.635,0,0,1-2.426-1.207c-.356-.188-.67-.4-.969-.579s-.567-.358-.8-.521c-.483-.319-.846-.593-1.093-.78s-.381-.285-.381-.285l.383.282c.249.186.615.452,1.1.767.238.162.506.341.807.513s.615.385.976.569a26.138,26.138,0,0,0,2.429,1.185c.458.188.933.393,1.439.563.253.089.509.178.769.271l.8.241a29.389,29.389,0,0,0,3.478.795c.611.106,1.236.169,1.866.258.635.048,1.277.109,1.926.146.65.012,1.3.051,1.96.038s1.319-.011,1.977-.06,1.314-.074,1.968-.152,1.314-.144,1.949-.238l1.9-.322q.931-.214,1.834-.42l1.744-.51c.561-.2,1.111-.389,1.637-.592.518-.227,1.031-.421,1.508-.657s.945-.448,1.365-.705.84-.474,1.209-.73c.186-.122.374-.236.546-.358l.5-.364a16.656,16.656,0,0,0,1.576-1.33,9.589,9.589,0,0,0,1.177-1.331.2.2,0,0,1,.278-.055A6.115,6.115,0,0,1,971.615,543.26Z" fill="#af2a25"/>
        <path id="Path_402" data-name="Path 402" d="M964.265,551.549c-.353.147-.774.348-1.281.512a17.079,17.079,0,0,1-1.7.542l-.986.266c-.339.094-.7.146-1.067.224s-.746.143-1.13.218-.787.1-1.191.152a23.432,23.432,0,0,1-2.5.219c-.427.013-.859.029-1.29.041s-.87.041-1.3.017-.866-.019-1.3-.047l-1.288-.1-1.262-.15c-.417-.054-.823-.131-1.224-.194a30.821,30.821,0,0,1-4.309-1.083A24.713,24.713,0,0,1,939.518,551c-.684-.327-1.053-.555-1.053-.555s.373.223,1.06.539a24.985,24.985,0,0,0,2.929,1.124,30.926,30.926,0,0,0,4.309,1.017c.4.058.807.128,1.223.174s.833.089,1.257.135q.636.036,1.279.076c.429.021.863.017,1.3.029s.86-.017,1.293-.035l1.282-.061a22.814,22.814,0,0,0,2.479-.252c.4-.059.8-.086,1.179-.167s.755-.161,1.117-.236.717-.135,1.053-.231.657-.192.967-.282c.626-.164,1.176-.377,1.667-.557s.905-.372,1.248-.518,1.261-.569,1.32-.475S964.619,551.405,964.265,551.549Z" fill="#af2a25"/>
        <path id="Path_403" data-name="Path 403" d="M956.129,556.49c-.75.117-1.631.221-2.576.276-.474.034-.965.029-1.461.045-.5-.021-1.005-.014-1.509-.059s-1.008-.072-1.5-.161a13.059,13.059,0,0,1-1.435-.268c-.231-.051-.456-.1-.68-.154s-.429-.134-.635-.2a9.763,9.763,0,0,1-1.152-.409c-.347-.147-.666-.284-.948-.406-.27-.146-.5-.277-.7-.382-.385-.215-.6-.335-.6-.335s.222.117.612.319l.7.365c.283.113.606.241.956.382a9.652,9.652,0,0,0,1.154.376c.207.056.416.131.638.178s.447.092.678.138a12.786,12.786,0,0,0,1.429.228c.488.079.99.087,1.49.126s1,.01,1.493.019c.492-.029.978-.034,1.444-.081.935-.075,1.8-.2,2.538-.335a16.136,16.136,0,0,1,2.678-.449A6.559,6.559,0,0,1,956.129,556.49Z" fill="#af2a25"/>
        <g id="Group_278" data-name="Group 278" opacity="0.25">
          <path id="Path_404" data-name="Path 404" d="M963.034,505.144c2.419,2.8,1.608,6.287-2.434,8.62-5.062,2.919-13.269,2.919-18.329,0a10.5,10.5,0,0,1-1.63-1.147,9.336,9.336,0,0,0,2.436,1.951c5.06,2.92,13.266,2.92,18.329,0C965.847,512.005,966.39,508.047,963.034,505.144Z" fill="#ec1c24"/>
        </g>
        <path id="Path_405" data-name="Path 405" d="M956.705,507.263a9.884,9.884,0,0,1-8.929,0c-2.465-1.422-2.465-3.726,0-5.149a9.884,9.884,0,0,1,8.929,0C959.169,503.537,959.169,505.841,956.705,507.263Z" fill="url(#linear-gradient-9)"/>
        <path id="Path_406" data-name="Path 406" d="M933.875,533.665a6.431,6.431,0,0,0,2.914,5.043c1.609.929,2.913.175,2.913-1.68a6.43,6.43,0,0,0-2.913-5.041C935.18,531.06,933.875,531.811,933.875,533.665Z" fill="url(#linear-gradient-10)"/>
        <g id="Group_279" data-name="Group 279">
          <path id="Path_407" data-name="Path 407" d="M933.875,533.665a6.431,6.431,0,0,0,2.914,5.043c1.476.852,2.69.287,2.884-1.243-.031.438-1.254,1.4-2.712.4-1.514-1.042-2.624-3.262-2.3-4.7.352-1.555,2.129-1.181,2.129-1.181C935.18,531.06,933.875,531.811,933.875,533.665Z" fill="url(#linear-gradient-11)"/>
        </g>
        <path id="Path_408" data-name="Path 408" d="M957.826,502.578a3.671,3.671,0,0,1,.547.761,2.845,2.845,0,0,1,.328,1.071,2.569,2.569,0,0,1-.218,1.215,3.608,3.608,0,0,1-.794,1.053,5.879,5.879,0,0,1-1.091.765,5.4,5.4,0,0,1-.6.293,5.68,5.68,0,0,1-.615.236,9.149,9.149,0,0,1-1.238.313,8.787,8.787,0,0,1-2.25.117l-.471-.037c-.15-.017-.29-.045-.421-.064a5.92,5.92,0,0,1-.681-.129l-.586-.143.591.127a6.177,6.177,0,0,0,.682.107c.131.016.271.04.42.053l.47.021a10.173,10.173,0,0,0,1.056-.011,10.282,10.282,0,0,0,1.165-.168,5.576,5.576,0,0,0,.6-.146,4.915,4.915,0,0,0,.6-.2,4.972,4.972,0,0,0,.6-.247,5.1,5.1,0,0,0,.57-.3,5.464,5.464,0,0,0,1.023-.764,3.307,3.307,0,0,0,.7-.973,2.261,2.261,0,0,0,.169-1.092,2.561,2.561,0,0,0-.318-.936,3.389,3.389,0,0,0-.515-.675,4.017,4.017,0,0,0-.5-.439,3.975,3.975,0,0,0-.475-.318A4.4,4.4,0,0,1,957.826,502.578Z" fill="#af2a25"/>
        <g id="Group_280" data-name="Group 280" opacity="0.25">
          <path id="Path_409" data-name="Path 409" d="M962.462,505.5H952.219a1.007,1.007,0,1,1,0-2.014h8.2s2.914,1.582,2.7,1.767A1.012,1.012,0,0,1,962.462,505.5Z" fill="#ec1c24"/>
        </g>
      </g>
      <g id="Group_282" data-name="Group 282" opacity="0.25">
        <path id="Path_410" data-name="Path 410" d="M958.47,555.609a15.082,15.082,0,0,0,2.936-1.264,7.774,7.774,0,0,0,3.414-3.485c.489-.233.966-.479,1.424-.745,3.722-2.145,5.65-4.934,5.795-7.748a8.466,8.466,0,0,0,2.385-7.531c3.547-4.031,3.579-8.819.1-12.864.371-3.023-1.091-6.1-4.392-8.646-.514-2.182-2.222-4.287-5.128-5.963-.068-.039-.14-.076-.211-.115a7.812,7.812,0,0,0-3.39-3.435,15.9,15.9,0,0,0-4.337-1.651c.055.063,22.911,26.106-4.655,56.517a9.071,9.071,0,0,0,4.291-1.063A3.5,3.5,0,0,0,958.47,555.609Z" fill="#ec1c24" opacity="0.5"/>
        <path id="Path_411" data-name="Path 411" d="M958.47,555.609a15.082,15.082,0,0,0,2.936-1.264,7.774,7.774,0,0,0,3.414-3.485c.489-.233.966-.479,1.424-.745,3.722-2.145,5.65-4.934,5.795-7.748a8.466,8.466,0,0,0,2.385-7.531c3.547-4.031,3.579-8.819.1-12.864.371-3.023-1.091-6.1-4.392-8.646-.514-2.182-2.222-4.287-5.128-5.963-.068-.039-.14-.076-.211-.115a7.812,7.812,0,0,0-3.39-3.435,15.9,15.9,0,0,0-4.337-1.651c.055.063,22.911,26.106-4.655,56.517a9.071,9.071,0,0,0,4.291-1.063A3.5,3.5,0,0,0,958.47,555.609Z" fill="#ec1c24"/>
      </g>
    </g>
    <g id="Group_284" data-name="Group 284">
      <path id="Path_412" data-name="Path 412" d="M817.093,491.1c2.71-.85,16.854-3.084,26-6.022,6.8-2.186,11.061-3.427,19.478-3.427,2.743,0,6.025.135,10.032.408,5.389.363,20.917,1.645,38.969,3.172l21.045-16.935-.122.706.722-.041L917.27,485.71c32.617,2.771,70.637,6.077,72.319,6.224l-1.133.58.411.7c-2.318-.012-18.063-.074-34.965-.135v10.855a1.637,1.637,0,0,1-3.274,0V493.063c-17.652-.062-36.151-.121-54.172-.121-22.6,0-34.494.1-35.355.291-2.807.629-46.775,22.6-46.352,17.079C815.3,503.073,817.093,491.1,817.093,491.1Z" fill="#d5dce8"/>
      <path id="Path_413" data-name="Path 413" d="M932.769,468.044c.011-.076.021-.153.03-.229a26.286,26.286,0,0,1,1.536-5.931c.041-.1.084-.194.124-.29,2.175-5.038,5.5-5.626,8.115-6.084l.125-.022a8.783,8.783,0,0,1,1.475-.157,1.568,1.568,0,0,1,1.205.373c.569.619.424,2.2.186,4.808-.41,4.49-2.784,7.1-7.049,7.752a53.185,53.185,0,0,1-5.868.64C932.687,468.608,932.729,468.328,932.769,468.044Zm-4.207-2.177c-2.8-3.175-2.369-9.234-2.242-10.507,4.941.835,7.022,3.828,7.9,6.2a26.065,26.065,0,0,0-1.648,6.254A5.808,5.808,0,0,1,928.562,465.867Z" fill="#fff"/>
      <path id="Path_414" data-name="Path 414" d="M932.769,468.044c.011-.076.021-.153.03-.229a26.286,26.286,0,0,1,1.536-5.931c.041-.1.084-.194.124-.29,2.175-5.038,5.5-5.626,8.115-6.084l.125-.022a8.783,8.783,0,0,1,1.475-.157,1.568,1.568,0,0,1,1.205.373c.569.619.424,2.2.186,4.808-.41,4.49-2.784,7.1-7.049,7.752a53.185,53.185,0,0,1-5.868.64C932.687,468.608,932.729,468.328,932.769,468.044Zm-4.207-2.177c-2.8-3.175-2.369-9.234-2.242-10.507,4.941.835,7.022,3.828,7.9,6.2a26.065,26.065,0,0,0-1.648,6.254A5.808,5.808,0,0,1,928.562,465.867Z" fill="#39b24a"/>
      <path id="Path_415" data-name="Path 415" d="M989.918,491.583c.025.078.046.152.075.228-.479.268-1.014.615-1.188.738.421.849,2.7,4.853,8.735,6.163a14.324,14.324,0,0,0,3.052.337,12.77,12.77,0,0,0,7.876-2.657c-.256-.644-1.637-3.455-6.836-5.306a15.928,15.928,0,0,0-3.874-.861c-.107-.01-.212-.009-.32-.016-.314-.023-.63-.04-.942-.04a13.633,13.633,0,0,0-6.5,1.642c-.029-.072-.05-.15-.075-.228a13.889,13.889,0,0,1,6.578-1.646c.376,0,.768.017,1.165.048a21.363,21.363,0,0,0,3.639-5.672,13.076,13.076,0,0,0-5.023-1.164,6.008,6.008,0,0,0-5.086,2.375,6.531,6.531,0,0,0-1.273,6.059" fill="#fff"/>
      <path id="Path_416" data-name="Path 416" d="M989.918,491.583c.025.078.046.152.075.228-.479.268-1.014.615-1.188.738.421.849,2.7,4.853,8.735,6.163a14.324,14.324,0,0,0,3.052.337,12.77,12.77,0,0,0,7.876-2.657c-.256-.644-1.637-3.455-6.836-5.306a15.928,15.928,0,0,0-3.874-.861c-.107-.01-.212-.009-.32-.016-.314-.023-.63-.04-.942-.04a13.633,13.633,0,0,0-6.5,1.642c-.029-.072-.05-.15-.075-.228a13.889,13.889,0,0,1,6.578-1.646c.376,0,.768.017,1.165.048a21.363,21.363,0,0,0,3.639-5.672,13.076,13.076,0,0,0-5.023-1.164,6.008,6.008,0,0,0-5.086,2.375,6.531,6.531,0,0,0-1.273,6.059" fill="#39b24a"/>
    </g>
    <path id="Path_417" data-name="Path 417" d="M814.746,516.57c0,75.667,61.559,137.009,137.5,137.009s137.494-61.342,137.494-137.009c0-80.189-79.94-16.086-161.126-106.278C893.752,371.571,814.746,440.9,814.746,516.57Z" fill="none" stroke="#d5dce8" stroke-linecap="round" stroke-linejoin="round" stroke-width="2" stroke-dasharray="500 0 0 10 5 5"/>
    <g id="Group_288" data-name="Group 288">
      <path id="Path_418" data-name="Path 418" d="M1037.669,546.5c0,.907-5.863,1.643-13.095,1.643s-13.1-.736-13.1-1.643,5.865-1.639,13.1-1.639S1037.669,545.6,1037.669,546.5Z" opacity="0.1"/>
      <g id="Group_286" data-name="Group 286">
        <g id="Group_285" data-name="Group 285">
          <path id="Path_419" data-name="Path 419" d="M1027.306,540.64c-.694-2.325-1.244-7.73-.738-8.006a24.051,24.051,0,0,1,2.527-.839c1.727-.14,6.467-9.087,6.467-9.087l-.381-.23a58.248,58.248,0,0,1-4.19,6.888c-.126-.23-1.454-4.04-1.454-4.04l-.348.323c.359,1.156,1.168,4.461,1.168,4.461-.63.809-4.848,1.52-4.848,1.52a5.2,5.2,0,0,1-1.967-2.17l-1.019-.09,1.449,2.6c-6.283-.442-6.9-3.554-6.9-3.554.539,3.928,5.387,4.91,5.387,4.91v.215c.009.428.03,1.713.089,5.587.09,5.8-5.476,6.878-5.476,6.878s3.1.086,6.59-.044c.565-.022,1.152-.027,1.744-.022,3.056.027,6.131.336,6.131.336C1030.9,545.835,1028,542.964,1027.306,540.64Z" fill="#d5dce8"/>
        </g>
      </g>
      <g id="Group_287" data-name="Group 287">
        <path id="Path_420" data-name="Path 420" d="M1008.022,514.466a7,7,0,0,1,7.012-6.977,7.208,7.208,0,0,1,1.45.148l.149.033-.014-.277a3.02,3.02,0,0,1-.016-.332,7.688,7.688,0,0,1,15.375,0,8.192,8.192,0,0,1-.058.923l-.013.1.1.025a7.656,7.656,0,0,1,5.419,5.018c.028.084.051.165.076.25a7.576,7.576,0,0,1,.315,2.144,7.677,7.677,0,0,1-6.125,7.49c-.081.017-.164.025-.248.04a8.047,8.047,0,0,1-1.319.119,7.679,7.679,0,0,1-7.689-7.649,7.233,7.233,0,0,1,.062-.922l.013-.105-.155-.039c-.057-.012-.11-.029-.162-.04l-.152-.044v.154a6.913,6.913,0,0,1-1.925,4.718c-.072.072-.137.147-.208.215a6.987,6.987,0,0,1-9.625.123c-.057-.053-.12-.1-.176-.157A6.941,6.941,0,0,1,1008.022,514.466Z" fill="#fff" opacity="0.75"/>
        <path id="Path_421" data-name="Path 421" d="M1023.749,529.364a7.878,7.878,0,0,1-5.043-1.828l-.075-.061-.073.055a5.831,5.831,0,0,1-9.3-4.661,5.719,5.719,0,0,1,.9-3.083,7.211,7.211,0,0,0,9.8-.054,2.338,2.338,0,0,0,.2-.19,7.166,7.166,0,0,0,2.041-4.013,7.915,7.915,0,0,0,7.925,7.879,8.083,8.083,0,0,0,1.264-.106,7.746,7.746,0,0,1-.972,2.347c-.065.1-.124.2-.192.3A7.851,7.851,0,0,1,1023.749,529.364Z" fill="#fff" opacity="0.75"/>
        <path id="Path_422" data-name="Path 422" d="M1036.866,522.968a4.937,4.937,0,0,1-2.009-.434l-.086-.045-.059.084a8.13,8.13,0,0,1-3.952,2.968,7.781,7.781,0,0,0,.882-2.281,7.909,7.909,0,0,0,6.412-7.735,7.655,7.655,0,0,0-.293-2.105,4.813,4.813,0,0,1-.9,9.548Z" fill="#fff" opacity="0.75"/>
      </g>
      <path id="Path_423" data-name="Path 423" d="M1008.022,514.466a7,7,0,0,1,7.012-6.977,7.208,7.208,0,0,1,1.45.148l.149.033-.014-.277a3.02,3.02,0,0,1-.016-.332,7.688,7.688,0,0,1,15.375,0,8.192,8.192,0,0,1-.058.923l-.013.1.1.025a7.656,7.656,0,0,1,5.419,5.018c.028.084.051.165.076.25a7.576,7.576,0,0,1,.315,2.144,7.677,7.677,0,0,1-6.125,7.49c-.081.017-.164.025-.248.04a8.047,8.047,0,0,1-1.319.119,7.679,7.679,0,0,1-7.689-7.649,7.233,7.233,0,0,1,.062-.922l.013-.105-.155-.039c-.057-.012-.11-.029-.162-.04l-.152-.044v.154a6.913,6.913,0,0,1-1.925,4.718c-.072.072-.137.147-.208.215a6.987,6.987,0,0,1-9.625.123c-.057-.053-.12-.1-.176-.157A6.941,6.941,0,0,1,1008.022,514.466Z" fill="#39b24a" opacity="0.5"/>
      <path id="Path_424" data-name="Path 424" d="M1023.749,529.364a7.878,7.878,0,0,1-5.043-1.828l-.075-.061-.073.055a5.831,5.831,0,0,1-9.3-4.661,5.719,5.719,0,0,1,.9-3.083,7.211,7.211,0,0,0,9.8-.054,2.338,2.338,0,0,0,.2-.19,7.166,7.166,0,0,0,2.041-4.013,7.915,7.915,0,0,0,7.925,7.879,8.083,8.083,0,0,0,1.264-.106,7.746,7.746,0,0,1-.972,2.347c-.065.1-.124.2-.192.3A7.851,7.851,0,0,1,1023.749,529.364Z" fill="#39b24a" opacity="0.5"/>
      <path id="Path_425" data-name="Path 425" d="M1036.866,522.968a4.937,4.937,0,0,1-2.009-.434l-.086-.045-.059.084a8.13,8.13,0,0,1-3.952,2.968,7.781,7.781,0,0,0,.882-2.281,7.909,7.909,0,0,0,6.412-7.735,7.655,7.655,0,0,0-.293-2.105,4.813,4.813,0,0,1-.9,9.548Z" fill="#39b24a" opacity="0.5"/>
    </g>
    <path id="Path_426" data-name="Path 426" d="M886.075,449.1l-.012,0c0-.079.012-.153.012-.233a7.647,7.647,0,0,0-15.294,0,7.411,7.411,0,0,0,.062.924,4.7,4.7,0,1,0-2.688,8.545c2.463,0,16.113-.155,17.92-.155a4.542,4.542,0,1,0,0-9.083Z" fill="#fff"/>
    <path id="Path_427" data-name="Path 427" d="M980.109,470.361H980.1c0-.056.011-.116.011-.174a5.735,5.735,0,0,0-11.47,0,5.923,5.923,0,0,0,.046.694,3.523,3.523,0,1,0-2.017,6.4c1.848,0,12.083-.114,13.441-.114a3.406,3.406,0,1,0,0-6.811Z" fill="#fff"/>
    <path id="Path_428" data-name="Path 428" d="M923.77,437.965h-.007c0-.047.007-.1.007-.149a4.773,4.773,0,1,0-9.508.58,2.933,2.933,0,1,0-1.679,5.332c1.539,0,10.058-.094,11.187-.094a2.835,2.835,0,1,0,0-5.669Z" fill="#fff"/>
    <g id="Group_293" data-name="Group 293">
      <path id="Path_429" data-name="Path 429" d="M1063.314,546.346c0,.516-3.336.937-7.449.937s-7.455-.421-7.455-.937,3.337-.937,7.455-.937S1063.314,545.827,1063.314,546.346Z" opacity="0.1"/>
      <g id="Group_289" data-name="Group 289">
        <path id="Path_430" data-name="Path 430" d="M1054.019,546.475a10.742,10.742,0,0,1,4.3,0s-1.377-4.16-1.293-6.26-.123-3.831.743-5.4a5.429,5.429,0,0,1,3.584-2.882,15.085,15.085,0,0,1,2.807-.464l-.669-.442-1.805.206.039-1.814h-.453s.041,1.956-.947,2.05-2.969,2.234-2.969,2.234-.33-6.589-.125-7.786a12.006,12.006,0,0,1,1.855-3.378l-.41-.205a18.708,18.708,0,0,0-1.609,2.431c-.125.453-1.031-.082-2.019-2.431l-.412.249s1.111,2.264,1.442,3.088a36.474,36.474,0,0,1-.206,8.732c-.372.825-1.526-.576-1.856-1.152s-1.938-3.329-1.938-3.329l-.166.362.578,1.731-1.277-1.485-.168.455s1.53,1.979,2.725,3.418,1.9,2.266,1.814,4.162S1054.719,545.731,1054.019,546.475Z" fill="#d5dce8"/>
      </g>
      <g id="Group_290" data-name="Group 290" opacity="0.5">
        <path id="Path_431" data-name="Path 431" d="M1044.083,527.485c.122-2.069,1.526-2.759,5.4-2.718s6.182.83,6.1,3.238-4.369,3.806-7.3,3.393S1043.916,530.245,1044.083,527.485Z" fill="#39b24a"/>
      </g>
      <g id="Group_291" data-name="Group 291" opacity="0.5">
        <path id="Path_432" data-name="Path 432" d="M1048.329,520.813c0-2.266,2.144-4.983,10.1-5.519s7.71,8.608,4.452,8.32-5.2-1.4-6.6-1.113-3.668,2.279-6.459,1.278C1048.451,523.282,1048.329,520.813,1048.329,520.813Z" fill="#39b24a"/>
      </g>
      <g id="Group_292" data-name="Group 292" opacity="0.5">
        <path id="Path_433" data-name="Path 433" d="M1062.964,524.272c2.482-.058,4.289-1.11,5.32,1.647s.084,7.991-4.04,6.386c-1.444-.575-.949-2.06-2.516-2.554s-3.667-1.357-3.38-3.13S1059.5,524.356,1062.964,524.272Z" fill="#39b24a"/>
      </g>
    </g>
    <g id="Group_298" data-name="Group 298">
      <g id="Group_294" data-name="Group 294" opacity="0.1">
        <path id="Path_434" data-name="Path 434" d="M870.668,545.564c0,.955-6.143,1.729-13.722,1.729s-13.721-.774-13.721-1.729,6.143-1.724,13.721-1.724S870.668,544.611,870.668,545.564Z"/>
      </g>
      <g id="Group_297" data-name="Group 297">
        <g id="Group_295" data-name="Group 295">
          <path id="Path_435" data-name="Path 435" d="M859.61,539.893c-.729-2.446-1.3-8.131-.774-8.418a24.223,24.223,0,0,1,2.648-.883c1.809-.152,6.773-9.565,6.773-9.565l-.4-.242a61.248,61.248,0,0,1-4.39,7.251c-.133-.242-1.522-4.253-1.522-4.253l-.364.34c.376,1.221,1.223,4.694,1.223,4.694-.659.848-5.08,1.6-5.08,1.6a4.39,4.39,0,0,1-2.35-3.381h-.657c-.376,1.783,1.6,3.758,1.6,3.758-6.582-.471-7.429-3.758-7.429-3.758.566,4.133,5.642,5.167,5.642,5.167l0,.224c.008.447.03,1.8.09,5.881.095,6.1-5.735,7.231-5.735,7.231s3.239.087,6.9-.044c.592-.021,1.21-.028,1.83-.021,3.2.026,6.421.35,6.421.35C863.382,545.359,860.337,542.342,859.61,539.893Z" fill="#d5dce8"/>
        </g>
        <g id="Group_296" data-name="Group 296">
          <path id="Path_436" data-name="Path 436" d="M875.424,514.095c-.048,0-.1.007-.147.007a11.559,11.559,0,0,0-21.231-4.922,7.245,7.245,0,1,0-12,8.123c-.2-.02-.414-.032-.624-.032a7.24,7.24,0,1,0,6.972,9.2,6.53,6.53,0,0,0,9.43-1.2,11.47,11.47,0,0,0,1.965.945,6.465,6.465,0,0,0,7.4.2c.137-.039.272-.086.407-.133a8.616,8.616,0,1,0,7.832-12.193Z" fill="#fff"/>
          <path id="Path_437" data-name="Path 437" d="M841.422,531.867a7.356,7.356,0,1,1,0-14.712c.124,0,.255,0,.4.015a7.361,7.361,0,0,1,12.22-8.2,11.675,11.675,0,0,1,21.336,5.007h.046a8.727,8.727,0,1,1-7.892,12.452c-.1.032-.2.066-.3.1a6.578,6.578,0,0,1-7.5-.209,11.539,11.539,0,0,1-1.879-.893,6.647,6.647,0,0,1-9.4,1.242A7.386,7.386,0,0,1,841.422,531.867Z" fill="#39b24a" opacity="0.5"/>
        </g>
      </g>
    </g>
    <g id="Group_306" data-name="Group 306">
      <g id="Group_299" data-name="Group 299">
        <path id="Path_438" data-name="Path 438" d="M902.725,530.166a6.509,6.509,0,0,0-8.793-2.685l-3.771,2.75c1.92-1.015,5.576.474,7.038,3.219s.69,6.234-1.225,7.258l4.059-1.764A6.487,6.487,0,0,0,902.725,530.166Z" fill="url(#linear-gradient-12)"/>
        <path id="Path_439" data-name="Path 439" d="M890.158,530.232l-.265.194.268-.2Z" fill="url(#linear-gradient-13)"/>
      </g>
      <g id="Group_300" data-name="Group 300">
        <path id="Path_440" data-name="Path 440" d="M892.293,535.917a4.661,4.661,0,0,0-6.3-1.925,15.635,15.635,0,0,0-2.746,4.9c.437-.543.781-.921.781-.921a2.335,2.335,0,1,1,2.674,3.8s-.513.211-1.213.448a15.956,15.956,0,0,0,4.934.09A4.753,4.753,0,0,0,892.293,535.917Z" fill="url(#linear-gradient-14)"/>
      </g>
      <g id="Group_301" data-name="Group 301" opacity="0.25">
        <path id="Path_441" data-name="Path 441" d="M885.494,542.22a15.956,15.956,0,0,0,4.934.09v0a3.358,3.358,0,0,0,1.731.049l.014,0,.03-.014a2.782,2.782,0,0,0,.593-.225l3.172-1.408,0,0,4.062-1.765a6.432,6.432,0,0,0,2.732-2.771v.01l.016-.044a6.54,6.54,0,0,0,.678-2.413,5.693,5.693,0,0,0-.734-3.56,6.491,6.491,0,0,0-2.883-2.78l.051-.058-.25-.036s6.613,7.533-18.091,15.254C882.04,543.241,884.133,542.682,885.494,542.22Z" fill="#ec1c24"/>
      </g>
      <path id="Path_442" data-name="Path 442" d="M881.552,542.546c.738,1.052,5.155-.774,5.155-.774a2.451,2.451,0,0,0,.762-3.373h0a2.458,2.458,0,0,0-3.436-.429s-3.221,3.527-2.481,4.576Z" fill="url(#linear-gradient-15)"/>
      <g id="Group_302" data-name="Group 302">
        <path id="Path_443" data-name="Path 443" d="M883.138,542.822c-.163.023-.322.04-.47.047C882.817,542.862,882.975,542.845,883.138,542.822Z" fill="url(#linear-gradient-16)"/>
        <path id="Path_444" data-name="Path 444" d="M882.6,542.868a2.767,2.767,0,0,1-.359-.013A2.767,2.767,0,0,0,882.6,542.868Z" fill="url(#linear-gradient-17)"/>
        <path id="Path_445" data-name="Path 445" d="M883.66,542.731c-.109.022-.217.041-.323.06C883.444,542.772,883.55,542.753,883.66,542.731Z" fill="url(#linear-gradient-18)"/>
        <path id="Path_446" data-name="Path 446" d="M882.119,542.836a1.294,1.294,0,0,1-.244-.067A1.294,1.294,0,0,0,882.119,542.836Z" fill="url(#linear-gradient-19)"/>
        <path id="Path_447" data-name="Path 447" d="M885.466,542.228c-.129.044-.266.088-.405.132C885.2,542.316,885.336,542.272,885.466,542.228Z" fill="url(#linear-gradient-20)"/>
        <path id="Path_448" data-name="Path 448" d="M884.236,542.6c-.119.031-.238.06-.357.088C884,542.657,884.117,542.628,884.236,542.6Z" fill="url(#linear-gradient-21)"/>
        <path id="Path_449" data-name="Path 449" d="M881.781,542.731a.611.611,0,0,1-.229-.185A.611.611,0,0,0,881.781,542.731Z" fill="url(#linear-gradient-22)"/>
        <path id="Path_450" data-name="Path 450" d="M884.906,542.409c-.163.05-.33.1-.5.145C884.576,542.508,884.742,542.459,884.906,542.409Z" fill="url(#linear-gradient-23)"/>
        <path id="Path_451" data-name="Path 451" d="M885.061,542.36l-.155.049Z" fill="#ec1c24"/>
        <path id="Path_452" data-name="Path 452" d="M884.406,542.554l-.17.043Z" fill="#ec1c24"/>
        <path id="Path_453" data-name="Path 453" d="M883.879,542.685l-.219.046Z" fill="#ec1c24"/>
        <path id="Path_454" data-name="Path 454" d="M882.24,542.855c-.042,0-.081-.012-.121-.019C882.159,542.843,882.2,542.851,882.24,542.855Z" fill="#ec1c24"/>
        <path id="Path_455" data-name="Path 455" d="M881.875,542.769a.88.88,0,0,1-.094-.038A.88.88,0,0,0,881.875,542.769Z" fill="#ec1c24"/>
        <path id="Path_456" data-name="Path 456" d="M883.337,542.791c-.067.011-.134.022-.2.031C883.2,542.813,883.27,542.8,883.337,542.791Z" fill="#ec1c24"/>
        <path id="Path_457" data-name="Path 457" d="M882.668,542.869c-.025,0-.045,0-.069,0C882.623,542.867,882.643,542.87,882.668,542.869Z" fill="#ec1c24"/>
        <path id="Path_458" data-name="Path 458" d="M887.734,540.374c-1.8.718-3.853,1.444-6.182,2.172a.611.611,0,0,0,.229.185.88.88,0,0,0,.094.038,1.294,1.294,0,0,0,.244.067c.04.007.079.015.121.019a2.767,2.767,0,0,0,.359.013c.024,0,.044,0,.069,0,.148-.007.307-.024.47-.047.065-.009.132-.02.2-.031.106-.019.214-.038.323-.06l.219-.046c.119-.028.238-.057.357-.088l.17-.043c.17-.046.337-.1.5-.145l.155-.049c.139-.044.276-.088.405-.132.715-.24,1.241-.456,1.241-.456A2.683,2.683,0,0,0,887.734,540.374Z" opacity="0.75"/>
      </g>
      <g id="Group_303" data-name="Group 303">
        <path id="Path_459" data-name="Path 459" d="M897.2,533.45c-1.463-2.746-5.121-4.235-7.041-3.218l-2.654,1.944a3.126,3.126,0,0,0-1.453,1.795,4.658,4.658,0,0,1,6.242,1.946,4.752,4.752,0,0,1-1.862,6.391,3.162,3.162,0,0,0,2.365-.188l3.172-1.408C897.888,539.692,898.661,536.2,897.2,533.45Z" fill="url(#linear-gradient-24)"/>
      </g>
      <g id="Group_304" data-name="Group 304">
        <path id="Path_460" data-name="Path 460" d="M890.431,542.308l.009,0-.009,0Z" fill="url(#linear-gradient-25)"/>
        <path id="Path_461" data-name="Path 461" d="M892.193,542.35a2.74,2.74,0,0,0,.6-.23,2.782,2.782,0,0,1-.593.225Z" fill="url(#linear-gradient-26)"/>
        <path id="Path_462" data-name="Path 462" d="M891.16,542.432c-.062-.005-.125-.01-.187-.018C891.036,542.422,891.1,542.427,891.16,542.432Z" fill="url(#linear-gradient-27)"/>
        <path id="Path_463" data-name="Path 463" d="M891.725,542.431c-.075.006-.151,0-.227.007C891.575,542.436,891.65,542.437,891.725,542.431Z" fill="url(#linear-gradient-28)"/>
        <path id="Path_464" data-name="Path 464" d="M895.968,540.712l.008,0-.005,0Z" fill="url(#linear-gradient-29)"/>
        <path id="Path_465" data-name="Path 465" d="M891.5,542.438c-.112,0-.224,0-.338-.006C891.274,542.439,891.386,542.441,891.5,542.438Z" fill="#ec1c24"/>
        <path id="Path_466" data-name="Path 466" d="M892.159,542.356l.014,0,.02-.009a3.055,3.055,0,0,1-.468.081A3,3,0,0,0,892.159,542.356Z" fill="#ec1c24"/>
        <path id="Path_467" data-name="Path 467" d="M890.973,542.414a4.081,4.081,0,0,1-.533-.1A3.916,3.916,0,0,0,890.973,542.414Z" fill="#ec1c24"/>
        <path id="Path_468" data-name="Path 468" d="M897.7,534.727a23.7,23.7,0,0,1-4.875,3.309,4.654,4.654,0,0,1-2.4,4.272l.009,0a4.081,4.081,0,0,0,.533.1c.062.008.125.013.187.018.114.008.226.009.338.006.076,0,.152,0,.227-.007a3.055,3.055,0,0,0,.468-.081l.01-.005a2.782,2.782,0,0,0,.593-.225l3.172-1.408,0,0,.005,0C897.6,539.835,898.4,537.186,897.7,534.727Z" opacity="0.75"/>
      </g>
      <path id="Path_469" data-name="Path 469" d="M894.283,529.189s1.793-8.874-3.584-9.471,2.315,9.471,2.315,9.471Z" fill="url(#linear-gradient-30)"/>
      <g id="Group_305" data-name="Group 305">
        <path id="Path_470" data-name="Path 470" d="M897.01,526.722a6.5,6.5,0,0,1,5.715,3.444c.864,1.628,1.191,3.259.04,6.017C903.762,528.152,897.01,526.722,897.01,526.722Z" fill="url(#linear-gradient-15)"/>
      </g>
      <path id="Path_471" data-name="Path 471" d="M896.255,529.6s-.322-9.048,5.083-8.761-3.829,8.967-3.829,8.967Z" fill="url(#linear-gradient-32)"/>
    </g>
    <g id="Group_314" data-name="Group 314">
      <g id="Group_307" data-name="Group 307">
        <path id="Path_472" data-name="Path 472" d="M987.387,552.05a6.822,6.822,0,0,1,9.22-2.816l3.953,2.884c-2.014-1.065-5.847.5-7.38,3.375s-.724,6.536,1.284,7.61l-4.255-1.849A6.8,6.8,0,0,1,987.387,552.05Z" fill="url(#linear-gradient-33)"/>
        <path id="Path_473" data-name="Path 473" d="M1000.563,552.119l.278.2-.281-.2Z" fill="url(#linear-gradient-34)"/>
      </g>
      <g id="Group_308" data-name="Group 308">
        <path id="Path_474" data-name="Path 474" d="M998.325,558.079a4.887,4.887,0,0,1,6.6-2.018,16.381,16.381,0,0,1,2.879,5.136c-.458-.569-.818-.966-.818-.966a2.449,2.449,0,1,0-2.8,3.988s.536.221,1.272.469a16.724,16.724,0,0,1-5.173.094A4.98,4.98,0,0,1,998.325,558.079Z" fill="url(#linear-gradient-35)"/>
      </g>
      <g id="Group_309" data-name="Group 309" opacity="0.25">
        <path id="Path_475" data-name="Path 475" d="M1005.454,564.688a16.725,16.725,0,0,1-5.173.094v0a3.527,3.527,0,0,1-1.817.052l-.014,0-.031-.015a2.971,2.971,0,0,1-.623-.235l-3.325-1.477,0,0-4.26-1.849a6.753,6.753,0,0,1-2.865-2.906v.01c0-.014-.011-.031-.016-.047a6.849,6.849,0,0,1-.711-2.53,5.967,5.967,0,0,1,.77-3.731,6.787,6.787,0,0,1,3.023-2.916c-.019-.021-.038-.041-.053-.06l.262-.038s-6.935,7.9,18.967,15.994C1009.075,565.759,1006.881,565.172,1005.454,564.688Z" fill="#ec1c24"/>
      </g>
      <path id="Path_476" data-name="Path 476" d="M1009.586,565.03c-.774,1.1-5.4-.811-5.4-.811a2.567,2.567,0,0,1-.8-3.536h0a2.578,2.578,0,0,1,3.6-.452s3.377,3.7,2.6,4.8Z" fill="url(#linear-gradient-36)"/>
      <g id="Group_310" data-name="Group 310">
        <path id="Path_477" data-name="Path 477" d="M1007.923,565.32c.171.024.338.041.494.049C1008.26,565.361,1008.094,565.344,1007.923,565.32Z" fill="url(#linear-gradient-37)"/>
        <path id="Path_478" data-name="Path 478" d="M1008.489,565.368a2.877,2.877,0,0,0,.377-.014A2.877,2.877,0,0,1,1008.489,565.368Z" fill="url(#linear-gradient-38)"/>
        <path id="Path_479" data-name="Path 479" d="M1007.376,565.225c.116.022.228.043.338.062C1007.6,565.268,1007.492,565.247,1007.376,565.225Z" fill="url(#linear-gradient-39)"/>
        <path id="Path_480" data-name="Path 480" d="M1008.993,565.334a1.525,1.525,0,0,0,.255-.069A1.525,1.525,0,0,1,1008.993,565.334Z" fill="url(#linear-gradient-40)"/>
        <path id="Path_481" data-name="Path 481" d="M1005.483,564.7c.135.046.279.092.425.139C1005.76,564.789,1005.62,564.743,1005.483,564.7Z" fill="url(#linear-gradient-41)"/>
        <path id="Path_482" data-name="Path 482" d="M1006.773,565.083c.125.033.25.063.374.093C1007.023,565.146,1006.9,565.116,1006.773,565.083Z" fill="url(#linear-gradient-42)"/>
        <path id="Path_483" data-name="Path 483" d="M1009.347,565.225a.65.65,0,0,0,.239-.195A.65.65,0,0,1,1009.347,565.225Z" fill="url(#linear-gradient-43)"/>
        <path id="Path_484" data-name="Path 484" d="M1006.07,564.887c.172.051.346.1.524.151C1006.416,564.99,1006.243,564.938,1006.07,564.887Z" fill="url(#linear-gradient-44)"/>
        <path id="Path_485" data-name="Path 485" d="M1005.908,564.836l.162.051Z" fill="#ec1c24"/>
        <path id="Path_486" data-name="Path 486" d="M1006.594,565.038c.06.017.119.03.179.045C1006.713,565.068,1006.654,565.055,1006.594,565.038Z" fill="#ec1c24"/>
        <path id="Path_487" data-name="Path 487" d="M1007.147,565.176l.229.049Z" fill="#ec1c24"/>
        <path id="Path_488" data-name="Path 488" d="M1008.866,565.354c.044,0,.085-.012.127-.02C1008.95,565.342,1008.91,565.35,1008.866,565.354Z" fill="#ec1c24"/>
        <path id="Path_489" data-name="Path 489" d="M1009.248,565.265c.034-.014.068-.025.1-.04C1009.316,565.24,1009.282,565.251,1009.248,565.265Z" fill="#ec1c24"/>
        <path id="Path_490" data-name="Path 490" d="M1007.714,565.287c.071.011.142.024.209.033C1007.855,565.311,1007.786,565.3,1007.714,565.287Z" fill="#ec1c24"/>
        <path id="Path_491" data-name="Path 491" d="M1008.417,565.369c.025,0,.047,0,.072,0C1008.464,565.367,1008.442,565.37,1008.417,565.369Z" fill="#ec1c24"/>
        <path id="Path_492" data-name="Path 492" d="M1003.1,562.753c1.891.753,4.04,1.515,6.481,2.277a.65.65,0,0,1-.239.195c-.031.015-.065.026-.1.04a1.525,1.525,0,0,1-.255.069c-.042.008-.083.016-.127.02a2.877,2.877,0,0,1-.377.014c-.025,0-.047,0-.072,0-.156-.008-.323-.025-.494-.049-.067-.009-.138-.022-.209-.033-.11-.019-.222-.04-.338-.062l-.229-.049c-.124-.03-.249-.06-.374-.093-.06-.015-.119-.028-.179-.045-.178-.048-.352-.1-.524-.151l-.162-.051c-.146-.047-.29-.093-.425-.139-.75-.252-1.3-.478-1.3-.478A2.814,2.814,0,0,1,1003.1,562.753Z" opacity="0.75"/>
      </g>
      <g id="Group_311" data-name="Group 311">
        <path id="Path_493" data-name="Path 493" d="M993.18,555.493c1.534-2.88,5.37-4.441,7.383-3.374l2.783,2.037a3.289,3.289,0,0,1,1.525,1.883,4.884,4.884,0,0,0-6.546,2.04,4.982,4.982,0,0,0,1.952,6.7,3.327,3.327,0,0,1-2.481-.2l-3.325-1.477C992.457,562.038,991.647,558.372,993.18,555.493Z" fill="url(#linear-gradient-45)"/>
      </g>
      <g id="Group_312" data-name="Group 312">
        <path id="Path_494" data-name="Path 494" d="M1000.277,564.78l-.011,0,.011,0Z" fill="url(#linear-gradient-46)"/>
        <path id="Path_495" data-name="Path 495" d="M998.429,564.824a2.909,2.909,0,0,1-.633-.24,2.971,2.971,0,0,0,.623.235Z" fill="url(#linear-gradient-47)"/>
        <path id="Path_496" data-name="Path 496" d="M999.513,564.91c.066,0,.131-.01.2-.018C999.643,564.9,999.579,564.905,999.513,564.91Z" fill="url(#linear-gradient-48)"/>
        <path id="Path_497" data-name="Path 497" d="M998.919,564.909c.079.007.16.006.239.008C999.078,564.915,999,564.916,998.919,564.909Z" fill="url(#linear-gradient-49)"/>
        <path id="Path_498" data-name="Path 498" d="M994.471,563.107l-.009-.006.007,0Z" fill="url(#linear-gradient-50)"/>
        <path id="Path_499" data-name="Path 499" d="M999.158,564.917a3.009,3.009,0,0,0,.355-.007A3.5,3.5,0,0,1,999.158,564.917Z" fill="#ec1c24"/>
        <path id="Path_500" data-name="Path 500" d="M998.464,564.831l-.014,0-.021-.01a3.091,3.091,0,0,0,.49.085A3.186,3.186,0,0,1,998.464,564.831Z" fill="#ec1c24"/>
        <path id="Path_501" data-name="Path 501" d="M999.709,564.892a4.249,4.249,0,0,0,.557-.11A4.094,4.094,0,0,1,999.709,564.892Z" fill="#ec1c24"/>
        <path id="Path_502" data-name="Path 502" d="M992.65,556.831a24.833,24.833,0,0,0,5.112,3.471,4.876,4.876,0,0,0,2.515,4.478l-.011,0a4.249,4.249,0,0,1-.557.11c-.065.008-.13.013-.2.018a3.009,3.009,0,0,1-.355.007c-.079,0-.16,0-.239-.008a3.091,3.091,0,0,1-.49-.085l-.01-.005a2.971,2.971,0,0,1-.623-.235l-3.325-1.477,0,0h-.007C992.757,562.187,991.925,559.41,992.65,556.831Z" opacity="0.75"/>
      </g>
      <path id="Path_503" data-name="Path 503" d="M996.238,551.025s-1.88-9.3,3.758-9.931-2.427,9.931-2.427,9.931Z" fill="url(#linear-gradient-51)"/>
      <g id="Group_313" data-name="Group 313">
        <path id="Path_504" data-name="Path 504" d="M993.379,548.437a6.821,6.821,0,0,0-5.992,3.613c-.907,1.706-1.249,3.416-.043,6.308C986.3,549.937,993.379,548.437,993.379,548.437Z" fill="url(#linear-gradient-52)"/>
      </g>
      <path id="Path_505" data-name="Path 505" d="M994.169,551.452s.338-9.487-5.328-9.185,4.014,9.4,4.014,9.4Z" fill="url(#linear-gradient-53)"/>
    </g>
    <g id="Group_322" data-name="Group 322">
      <g id="Group_315" data-name="Group 315">
        <path id="Path_506" data-name="Path 506" d="M930.2,558.546a4.035,4.035,0,0,0-5.455-1.666l-2.34,1.706c1.192-.63,3.46.294,4.367,2s.428,3.868-.76,4.5l2.518-1.095A4.023,4.023,0,0,0,930.2,558.546Z" fill="url(#linear-gradient-12)"/>
        <path id="Path_507" data-name="Path 507" d="M922.4,558.587l-.164.12.166-.121Z" fill="url(#linear-gradient-55)"/>
      </g>
      <g id="Group_316" data-name="Group 316">
        <path id="Path_508" data-name="Path 508" d="M923.723,562.113a2.891,2.891,0,0,0-3.906-1.193,9.7,9.7,0,0,0-1.7,3.039c.271-.337.485-.572.485-.572a1.449,1.449,0,1,1,1.658,2.359s-.318.131-.753.277a9.849,9.849,0,0,0,3.062.056A2.948,2.948,0,0,0,923.723,562.113Z" fill="url(#linear-gradient-14)"/>
      </g>
      <g id="Group_317" data-name="Group 317" opacity="0.25">
        <path id="Path_509" data-name="Path 509" d="M919.505,566.023a9.844,9.844,0,0,0,3.061.056h0a2.09,2.09,0,0,0,1.074.03l.008,0,.019-.008a1.819,1.819,0,0,0,.368-.14l1.968-.874h0l2.52-1.1a3.983,3.983,0,0,0,1.695-1.72v.007l.01-.027a4.079,4.079,0,0,0,.421-1.5,3.534,3.534,0,0,0-.456-2.208,4.028,4.028,0,0,0-1.788-1.726l.031-.035-.155-.023s4.1,4.674-11.224,9.464C917.362,566.657,918.66,566.311,919.505,566.023Z" fill="#ec1c24"/>
      </g>
      <path id="Path_510" data-name="Path 510" d="M917.059,566.226c.458.653,3.2-.48,3.2-.48a1.52,1.52,0,0,0,.473-2.093h0a1.525,1.525,0,0,0-2.131-.266s-2,2.188-1.54,2.839Z" fill="url(#linear-gradient-57)"/>
      <g id="Group_318" data-name="Group 318">
        <path id="Path_511" data-name="Path 511" d="M918.043,566.4c-.1.013-.2.024-.292.029C917.844,566.422,917.942,566.411,918.043,566.4Z" fill="url(#linear-gradient-58)"/>
        <path id="Path_512" data-name="Path 512" d="M917.708,566.426a1.6,1.6,0,0,1-.222-.007A1.6,1.6,0,0,0,917.708,566.426Z" fill="url(#linear-gradient-59)"/>
        <path id="Path_513" data-name="Path 513" d="M918.367,566.341l-.2.038Z" fill="url(#linear-gradient-60)"/>
        <path id="Path_514" data-name="Path 514" d="M917.411,566.406a.881.881,0,0,1-.152-.041A.881.881,0,0,0,917.411,566.406Z" fill="url(#linear-gradient-61)"/>
        <path id="Path_515" data-name="Path 515" d="M919.487,566.029c-.079.028-.165.055-.251.081C919.323,566.084,919.407,566.057,919.487,566.029Z" fill="url(#linear-gradient-62)"/>
        <path id="Path_516" data-name="Path 516" d="M918.724,566.258c-.074.018-.147.037-.221.053C918.577,566.295,918.65,566.276,918.724,566.258Z" fill="url(#linear-gradient-63)"/>
        <path id="Path_517" data-name="Path 517" d="M917.2,566.341a.378.378,0,0,1-.142-.115A.378.378,0,0,0,917.2,566.341Z" fill="url(#linear-gradient-64)"/>
        <path id="Path_518" data-name="Path 518" d="M919.14,566.142c-.1.031-.205.061-.31.088C918.935,566.2,919.039,566.173,919.14,566.142Z" fill="url(#linear-gradient-65)"/>
        <path id="Path_519" data-name="Path 519" d="M919.236,566.11l-.1.032C919.173,566.132,919.2,566.122,919.236,566.11Z" fill="#ec1c24"/>
        <path id="Path_520" data-name="Path 520" d="M918.83,566.23l-.106.028Z" fill="#ec1c24"/>
        <path id="Path_521" data-name="Path 521" d="M918.5,566.311c-.046.012-.091.02-.136.03C918.412,566.331,918.457,566.323,918.5,566.311Z" fill="#ec1c24"/>
        <path id="Path_522" data-name="Path 522" d="M917.486,566.419l-.075-.013Z" fill="#ec1c24"/>
        <path id="Path_523" data-name="Path 523" d="M917.259,566.365c-.019-.009-.04-.014-.058-.024C917.219,566.351,917.24,566.356,917.259,566.365Z" fill="#ec1c24"/>
        <path id="Path_524" data-name="Path 524" d="M918.167,566.379l-.124.019Z" fill="#ec1c24"/>
        <path id="Path_525" data-name="Path 525" d="M917.751,566.427h0Z" fill="#ec1c24"/>
        <path id="Path_526" data-name="Path 526" d="M920.894,564.879c-1.119.445-2.39.9-3.835,1.347a.378.378,0,0,0,.142.115c.018.01.039.015.058.024a.881.881,0,0,0,.152.041l.075.013a1.6,1.6,0,0,0,.222.007h.043c.093-.005.191-.016.292-.029l.124-.019.2-.038c.045-.01.09-.018.136-.03.074-.016.147-.035.221-.053l.106-.028c.1-.027.209-.057.31-.088l.1-.032c.086-.026.172-.053.251-.081.444-.148.77-.283.77-.283A1.657,1.657,0,0,0,920.894,564.879Z" opacity="0.75"/>
      </g>
      <g id="Group_319" data-name="Group 319">
        <path id="Path_527" data-name="Path 527" d="M926.767,560.583c-.908-1.7-3.177-2.627-4.369-2l-1.646,1.206a1.936,1.936,0,0,0-.9,1.113,2.891,2.891,0,0,1,3.873,1.207,2.948,2.948,0,0,1-1.155,3.965,1.957,1.957,0,0,0,1.467-.116l1.968-.874C927.194,564.456,927.674,562.286,926.767,560.583Z" fill="url(#linear-gradient-66)"/>
      </g>
      <g id="Group_320" data-name="Group 320">
        <path id="Path_528" data-name="Path 528" d="M922.568,566.078h0Z" fill="url(#linear-gradient-67)"/>
        <path id="Path_529" data-name="Path 529" d="M923.661,566.1a1.682,1.682,0,0,0,.374-.142,1.819,1.819,0,0,1-.368.14Z" fill="url(#linear-gradient-68)"/>
        <path id="Path_530" data-name="Path 530" d="M923.02,566.155c-.039,0-.077-.006-.116-.011C922.943,566.149,922.981,566.152,923.02,566.155Z" fill="url(#linear-gradient-69)"/>
        <path id="Path_531" data-name="Path 531" d="M923.371,566.154c-.047.005-.094,0-.141.005C923.277,566.158,923.324,566.159,923.371,566.154Z" fill="url(#linear-gradient-70)"/>
        <path id="Path_532" data-name="Path 532" d="M926,565.088l.005,0H926Z" fill="url(#linear-gradient-71)"/>
        <path id="Path_533" data-name="Path 533" d="M923.23,566.159a1.863,1.863,0,0,1-.21,0A1.863,1.863,0,0,0,923.23,566.159Z" fill="#ec1c24"/>
        <path id="Path_534" data-name="Path 534" d="M923.64,566.108l.008,0,.013-.006a1.889,1.889,0,0,1-.29.05A1.859,1.859,0,0,0,923.64,566.108Z" fill="#ec1c24"/>
        <path id="Path_535" data-name="Path 535" d="M922.9,566.144a2.4,2.4,0,0,1-.33-.065A2.262,2.262,0,0,0,922.9,566.144Z" fill="#ec1c24"/>
        <path id="Path_536" data-name="Path 536" d="M927.08,561.375a14.711,14.711,0,0,1-3.024,2.053,2.887,2.887,0,0,1-1.488,2.65h.006a2.4,2.4,0,0,0,.33.065c.039.005.077.008.116.011a1.863,1.863,0,0,0,.21,0c.047,0,.094,0,.141-.005a1.889,1.889,0,0,0,.29-.05l.006,0a1.819,1.819,0,0,0,.368-.14l1.968-.874h.005C927.017,564.544,927.51,562.9,927.08,561.375Z" opacity="0.75"/>
      </g>
      <path id="Path_537" data-name="Path 537" d="M924.958,557.939s1.112-5.505-2.224-5.877,1.436,5.877,1.436,5.877Z" fill="url(#linear-gradient-72)"/>
      <g id="Group_321" data-name="Group 321">
        <path id="Path_538" data-name="Path 538" d="M926.649,556.408a4.035,4.035,0,0,1,3.546,2.138,3.872,3.872,0,0,1,.025,3.732C930.838,557.3,926.649,556.408,926.649,556.408Z" fill="url(#linear-gradient-73)"/>
      </g>
      <path id="Path_539" data-name="Path 539" d="M926.181,558.192s-.2-5.613,3.154-5.435-2.376,5.563-2.376,5.563Z" fill="url(#linear-gradient-74)"/>
    </g>
  </g>
</svg>
