<?xml version="1.0" encoding="utf-8"?>
<!-- Generator: Adobe Illustrator 16.0.0, SVG Export Plug-In . SVG Version: 6.00 Build 0)  -->
<!DOCTYPE svg PUBLIC "-//W3C//DTD SVG 1.1//EN" "http://www.w3.org/Graphics/SVG/1.1/DTD/svg11.dtd">
<svg version="1.1" id="Layer_1" xmlns="http://www.w3.org/2000/svg" xmlns:xlink="http://www.w3.org/1999/xlink" x="0px" y="0px"
	 width="38px" height="38px" viewBox="0 0 38 38" enable-background="new 0 0 38 38" xml:space="preserve">
<g>
	<path fill="#181D22" d="M29,4H9v6.666h20V4z M30.667,19C29.75,19,29,18.25,29,17.334c0-0.917,0.75-1.668,1.667-1.668
		c0.916,0,1.665,0.751,1.665,1.668C32.333,18.25,31.583,19,30.667,19z M25.667,30.666H12.333v-8.332h13.335V30.666z M30.667,12.334
		H7.333c-2.766,0-5,2.232-5,5v10H9V34h20v-6.666h6.667v-10C35.667,14.566,33.434,12.334,30.667,12.334z"/>
</g>
</svg>
