<?xml version="1.0" encoding="utf-8"?>
<!-- Generator: Adobe Illustrator 16.0.0, SVG Export Plug-In . SVG Version: 6.00 Build 0)  -->
<!DOCTYPE svg PUBLIC "-//W3C//DTD SVG 1.1//EN" "http://www.w3.org/Graphics/SVG/1.1/DTD/svg11.dtd">
<svg version="1.1" id="Layer_1" xmlns="http://www.w3.org/2000/svg" xmlns:xlink="http://www.w3.org/1999/xlink" x="0px" y="0px"
	 width="100px" height="100px" viewBox="0 0 100 100" enable-background="new 0 0 100 100" xml:space="preserve">
<g>
	<circle fill="#FBBD5E" cx="68.61" cy="31.433" r="16.627"/>
	<path fill="#16B49C" d="M72.684,67V34.076c0-2.423-1.982-4.404-4.404-4.404H20.269c-2.422,0-4.404,1.981-4.404,4.404V67H72.684z"/>
	<path fill="#183651" d="M72.684,68.101H15.866c-0.662,0-1.102-0.439-1.102-1.102V34.076c0-3.083,2.422-5.507,5.505-5.507H68.28
		c3.082,0,5.505,2.423,5.505,5.507V67C73.785,67.662,73.235,68.101,72.684,68.101z M16.966,65.9h54.616V34.076
		c0-1.872-1.432-3.304-3.303-3.304H20.269c-1.871,0-3.304,1.432-3.304,3.304L16.966,65.9L16.966,65.9z"/>
	<g>
		<rect x="20.269" y="34.076" fill="#FFFFFF" width="48.011" height="28.52"/>
		<path fill="#FFFFFF" d="M15.866,67v4.846c0,2.424,1.981,4.404,4.403,4.404H68.28c2.422,0,4.404-1.98,4.404-4.404V67H15.866z"/>
	</g>
	<g>
		<path fill="#183651" d="M68.28,77.46H20.269c-3.083,0-5.505-2.422-5.505-5.506v-4.844c0-0.662,0.439-1.102,1.101-1.102h56.819
			c0.66,0,1.1,0.439,1.1,1.102v4.844C73.785,74.927,71.252,77.46,68.28,77.46z M16.966,68.101v3.744
			c0,1.871,1.432,3.305,3.303,3.305H68.28c1.871,0,3.303-1.434,3.303-3.305v-3.744H16.966z"/>
		<path fill="#183651" d="M52.092,85.279L52.092,85.279H36.456c-0.33,0-0.66-0.221-0.881-0.441c-0.22-0.33-0.22-0.66-0.109-0.99
			l3.193-7.818c0.22-0.439,0.551-0.66,0.99-0.66h9.25c0.44,0,0.881,0.221,0.99,0.66l3.193,7.709c0.111,0.219,0.221,0.33,0.221,0.66
			C53.194,84.837,52.752,85.279,52.092,85.279z M37.999,83.076H50.44l-2.313-5.615H40.31L37.999,83.076z"/>
	</g>
	<path fill="#183651" d="M53.854,85.279h-19.16c-0.66,0-1.101-0.441-1.101-1.102s0.44-1.102,1.101-1.102h19.16
		c0.66,0,1.102,0.441,1.102,1.102S54.514,85.279,53.854,85.279z"/>
	<rect x="25.115" y="46.739" fill="#FFFFFF" width="7.598" height="7.598"/>
	<path fill="#183651" d="M32.823,55.548h-7.708c-0.661,0-1.102-0.439-1.102-1.102v-7.598c0-0.66,0.44-1.102,1.102-1.102h7.598
		c0.661,0,1.102,0.441,1.102,1.102v7.598C33.924,54.998,33.374,55.548,32.823,55.548z M26.215,53.345h5.396V47.95h-5.396V53.345z"/>
	<rect x="40.42" y="46.739" fill="#FFFFFF" width="7.598" height="7.598"/>
	<path fill="#183651" d="M48.127,55.548H40.53c-0.66,0-1.1-0.439-1.1-1.102v-7.598c0-0.66,0.439-1.102,1.1-1.102h7.598
		c0.662,0,1.102,0.441,1.102,1.102v7.598C49.229,54.998,48.679,55.548,48.127,55.548z M41.522,53.345h5.395V47.95h-5.395V53.345z"/>
	<rect x="55.726" y="46.739" fill="#FFFFFF" width="7.598" height="7.598"/>
	<path fill="#183651" d="M63.434,55.548h-7.598c-0.661,0-1.102-0.439-1.102-1.102v-7.598c0-0.66,0.44-1.102,1.102-1.102h7.598
		c0.66,0,1.102,0.441,1.102,1.102v7.598C64.536,54.998,63.985,55.548,63.434,55.548z M56.827,53.345h5.396V47.95h-5.396V53.345z"/>
	<path fill="#183651" d="M32.823,59.953h-7.708c-0.661,0-1.102-0.439-1.102-1.102c0-0.66,0.44-1.1,1.102-1.1h7.598
		c0.661,0,1.102,0.439,1.102,1.1C33.814,59.513,33.374,59.953,32.823,59.953z"/>
	<path fill="#183651" d="M48.127,59.953H40.53c-0.66,0-1.1-0.439-1.1-1.102c0-0.66,0.439-1.1,1.1-1.1h7.598
		c0.662,0,1.102,0.439,1.102,1.1C49.229,59.513,48.679,59.953,48.127,59.953z"/>
	<g>
		<path fill="#183651" d="M63.434,59.953h-7.598c-0.661,0-1.102-0.439-1.102-1.102c0-0.66,0.44-1.1,1.102-1.1h7.598
			c0.66,0,1.102,0.439,1.102,1.1C64.536,59.513,63.985,59.953,63.434,59.953z"/>
		<rect x="36.676" y="70.523" fill="#183651" width="2.203" height="2.203"/>
		<rect x="43.172" y="70.523" fill="#183651" width="2.203" height="2.203"/>
		<rect x="49.67" y="70.523" fill="#183651" width="2.201" height="2.203"/>
	</g>
	<path fill="#FFFFFF" d="M48.127,35.067l1.652-3.634l-2.533-1.432c0.221-0.991,0.221-1.981,0.111-2.862L50,25.817l-1.321-3.744
		l-2.863,0.661c-0.55-0.771-1.212-1.542-1.981-2.093l0.881-2.752l-3.635-1.651l-1.432,2.422c-0.99-0.22-1.981-0.22-2.862-0.109
		l-1.321-2.644l-3.744,1.321l0.66,2.863c-0.771,0.55-1.541,1.211-2.092,1.981l-2.863-0.881l-1.65,3.634l2.531,1.542
		c-0.22,0.991-0.22,1.981-0.109,2.862l-2.643,1.322l1.321,3.744l2.862-0.661c0.551,0.77,1.211,1.542,1.982,2.092l-0.881,2.752
		l3.634,1.652l1.542-2.533c0.99,0.221,1.981,0.221,2.862,0.111l1.321,2.643l3.744-1.322l-0.66-2.861
		c0.771-0.551,1.541-1.213,2.092-1.983L48.127,35.067z"/>
	<path fill="#183651" d="M40.2,41.454c-0.44,0-0.77-0.221-0.99-0.551l-0.991-1.982c-0.55,0-1.102,0-1.651-0.111l-1.212,1.873
		c-0.33,0.441-0.88,0.66-1.431,0.441l-3.635-1.652c-0.551-0.221-0.77-0.77-0.551-1.322l0.662-2.092
		c-0.441-0.33-0.771-0.77-1.102-1.211l-2.203,0.551c-0.55,0.109-1.102-0.221-1.32-0.662l-1.322-3.743
		c-0.22-0.551,0-1.102,0.551-1.321l1.982-0.991c0-0.551,0-1.101,0.109-1.652l-1.871-1.32c-0.441-0.33-0.661-0.882-0.441-1.432
		l1.652-3.634c0.22-0.55,0.771-0.771,1.32-0.55l2.093,0.66c0.331-0.44,0.771-0.771,1.212-1.102l-0.551-2.203
		c-0.11-0.549,0.221-1.101,0.66-1.32l3.744-1.321c0.551-0.221,1.102,0,1.321,0.551l1.102,1.982c0.551,0,1.101,0,1.651,0.108
		l1.211-1.871c0.33-0.44,0.881-0.661,1.432-0.44l3.635,1.651c0.55,0.221,0.77,0.771,0.55,1.321l-0.771,2.092
		c0.439,0.331,0.771,0.771,1.101,1.212l2.202-0.551c0.551-0.109,1.102,0.22,1.322,0.661l1.32,3.744c0.221,0.55,0,1.101-0.551,1.321
		l-1.981,0.991c0,0.55,0,1.101-0.11,1.65l1.873,1.212c0.439,0.33,0.66,0.881,0.439,1.433l-1.651,3.632
		c-0.22,0.551-0.771,0.771-1.321,0.551l-2.092-0.66c-0.33,0.439-0.771,0.771-1.212,1.102l0.551,2.203
		c0.11,0.549-0.22,1.1-0.661,1.32l-3.744,1.32C40.42,41.454,40.31,41.454,40.2,41.454z M38.768,36.608
		c0.441,0,0.771,0.221,0.991,0.551l0.882,1.762l1.871-0.66l-0.44-1.873c-0.11-0.441,0.11-0.881,0.44-1.211
		c0.66-0.441,1.321-1.101,1.872-1.761c0.331-0.331,0.771-0.552,1.212-0.331l1.871,0.551l0.881-1.762l-1.65-0.991
		c-0.441-0.22-0.551-0.661-0.551-1.102c0.109-0.881,0.221-1.651,0.109-2.532c0-0.44,0.221-0.882,0.551-1.102l1.762-0.881
		l-0.66-1.872l-1.872,0.441c-0.44,0.109-0.881-0.11-1.212-0.441c-0.44-0.661-1.101-1.321-1.762-1.871
		c-0.33-0.331-0.55-0.771-0.33-1.212l0.551-1.872l-1.762-0.881L40.53,19.21c-0.219,0.439-0.66,0.55-1.1,0.55
		c-0.881-0.11-1.652-0.22-2.533-0.11c-0.44,0-0.881-0.22-1.102-0.551l-0.881-1.761l-1.981,0.659l0.44,1.872
		c0.109,0.441-0.111,0.882-0.44,1.212c-0.661,0.441-1.321,1.102-1.872,1.763c-0.33,0.33-0.771,0.55-1.211,0.33l-1.873-0.55
		l-0.881,1.762l1.652,0.991c0.44,0.22,0.551,0.659,0.551,1.101c-0.111,0.881-0.221,1.651-0.111,2.532c0,0.44-0.22,0.881-0.551,1.101
		l-1.761,0.882l0.66,1.871l1.872-0.44c0.44-0.109,0.881,0.111,1.211,0.44c0.441,0.661,1.102,1.322,1.762,1.872
		c0.331,0.332,0.551,0.771,0.331,1.213l-0.551,1.871l1.763,0.883l0.99-1.652c0.22-0.441,0.66-0.551,1.102-0.551
		c0.881,0.109,1.651,0.219,2.532,0.109C38.768,36.608,38.768,36.608,38.768,36.608z"/>
	<circle fill="#F06151" cx="37.778" cy="28.13" r="6.938"/>
	<circle fill="#FFFFFF" cx="37.778" cy="28.13" r="2.752"/>
	<path fill="#183651" d="M37.778,31.983c-0.551,0-1.102-0.109-1.652-0.33c-0.881-0.439-1.65-1.211-1.981-2.202
		c-0.33-0.99-0.33-1.981,0.11-2.973c0.66-1.322,1.981-2.203,3.523-2.203c0.551,0,1.102,0.111,1.652,0.331
		c1.871,0.881,2.752,3.193,1.871,5.065C40.641,31.102,39.209,31.983,37.778,31.983z M37.778,26.478c-0.661,0-1.211,0.33-1.542,0.99
		c-0.22,0.44-0.22,0.881,0,1.212c0.22,0.33,0.44,0.771,0.881,0.881c0.771,0.33,1.763,0,2.202-0.771c0.33-0.771,0-1.763-0.771-2.202
		C38.217,26.588,37.999,26.478,37.778,26.478z"/>
	<path fill="#FFFFFF" d="M81.933,33.746v-4.295l-3.193-0.329c-0.22-0.992-0.661-1.982-1.212-2.863l1.982-2.533l-2.973-2.973
		l-2.533,1.981c-0.881-0.551-1.871-0.881-2.862-1.211l-0.331-3.194h-4.295l-0.329,3.194c-0.991,0.22-1.982,0.66-2.863,1.211
		l-2.532-1.981l-2.973,2.973l1.981,2.533c-0.551,0.881-0.881,1.871-1.212,2.863l-3.193,0.329v4.295l3.193,0.33
		c0.221,0.992,0.66,1.982,1.212,2.863l-1.981,2.533l2.973,2.973l2.532-1.982c0.881,0.551,1.872,0.881,2.863,1.211l0.33,3.193h4.294
		l0.331-3.193c0.991-0.219,1.981-0.66,2.862-1.211l2.533,1.982l2.973-2.973l-1.982-2.533c0.551-0.881,0.882-1.871,1.212-2.863
		L81.933,33.746z"/>
	<path fill="#183651" d="M70.811,45.968h-4.295c-0.549,0-0.99-0.441-1.1-0.99l-0.33-2.424c-0.551-0.219-1.212-0.439-1.763-0.77
		l-1.872,1.541c-0.44,0.332-1.102,0.332-1.432-0.109l-2.973-2.973c-0.441-0.441-0.441-0.992-0.11-1.434l1.542-1.871
		c-0.331-0.551-0.551-1.102-0.771-1.762l-2.422-0.33c-0.551-0.111-0.992-0.55-0.992-1.101v-4.295c0-0.551,0.441-0.99,0.992-1.102
		l2.422-0.329c0.221-0.551,0.44-1.212,0.771-1.762l-1.542-1.872c-0.331-0.441-0.331-1.102,0.11-1.433l2.973-2.973
		c0.441-0.44,0.991-0.44,1.432-0.11l1.872,1.542c0.551-0.331,1.102-0.551,1.763-0.771l0.33-2.422c0.109-0.55,0.55-0.991,1.1-0.991
		h4.295c0.551,0,0.992,0.441,1.102,0.991l0.33,2.422c0.551,0.221,1.212,0.44,1.762,0.771l1.873-1.542
		c0.439-0.33,1.101-0.33,1.432,0.11l2.973,2.973c0.44,0.44,0.44,0.991,0.11,1.433l-1.542,1.98c0.33,0.552,0.551,1.102,0.771,1.763
		l2.423,0.331c0.551,0.108,0.99,0.55,0.99,1.101v4.294c0,0.55-0.439,0.992-0.99,1.101l-2.423,0.221
		c-0.22,0.551-0.44,1.211-0.771,1.762l1.542,1.871c0.33,0.441,0.33,1.102-0.11,1.434l-2.973,2.973
		c-0.441,0.439-0.992,0.439-1.432,0.109l-1.982-1.541c-0.551,0.33-1.102,0.551-1.762,0.77l-0.33,2.424
		C71.803,45.526,71.362,45.968,70.811,45.968z M67.508,43.765h2.313l0.221-2.201c0.109-0.439,0.329-0.881,0.881-0.992
		c0.881-0.219,1.762-0.549,2.532-1.1c0.44-0.221,0.881-0.221,1.212,0.109l1.761,1.322l1.651-1.652l-1.32-1.762
		c-0.331-0.33-0.331-0.881-0.111-1.213c0.441-0.77,0.881-1.65,1.102-2.531c0.11-0.44,0.441-0.771,0.991-0.882l2.202-0.22v-2.312
		l-2.202-0.222c-0.44-0.109-0.881-0.33-0.991-0.881c-0.221-0.881-0.551-1.762-1.102-2.532c-0.22-0.439-0.22-0.881,0.111-1.212
		l1.32-1.65l-1.651-1.652l-1.761,1.322c-0.331,0.33-0.882,0.33-1.212,0.109c-0.771-0.44-1.651-0.881-2.532-1.101
		c-0.441-0.11-0.771-0.441-0.881-0.991l-0.221-2.203h-2.313l-0.221,2.203c-0.109,0.44-0.33,0.881-0.881,0.991
		c-0.881,0.22-1.762,0.55-2.532,1.101c-0.44,0.221-0.882,0.221-1.212-0.109l-1.762-1.322l-1.651,1.652l1.321,1.762
		c0.33,0.33,0.33,0.881,0.11,1.211c-0.44,0.771-0.881,1.652-1.101,2.533c-0.111,0.439-0.441,0.77-0.991,0.881l-2.202,0.22v2.313
		l2.202,0.22c0.44,0,0.88,0.331,0.991,0.881c0.22,0.88,0.551,1.763,1.101,2.533c0.22,0.441,0.22,0.881-0.11,1.211L59.25,39.36
		l1.651,1.652l1.762-1.322c0.33-0.33,0.882-0.33,1.212-0.109c0.771,0.441,1.651,0.881,2.532,1.102
		c0.44,0.109,0.771,0.441,0.881,0.99L67.508,43.765z"/>
	<circle fill="#E0E4E8" cx="68.61" cy="31.653" r="7.378"/>
	<circle fill="#FFFFFF" cx="68.61" cy="31.653" r="2.973"/>
	<path fill="#183651" d="M68.61,35.618c-2.203,0-4.074-1.763-4.074-4.075c0-2.202,1.762-4.075,4.074-4.075
		c2.201,0,4.074,1.762,4.074,4.075C72.684,33.855,70.922,35.618,68.61,35.618z M68.61,29.781c-0.992,0-1.873,0.882-1.873,1.872
		c0,0.991,0.881,1.872,1.873,1.872c0.99,0,1.871-0.881,1.871-1.872C70.481,30.552,69.71,29.781,68.61,29.781z"/>
</g>
</svg>
