<svg version="1.1" id="Layer_1" xmlns="http://www.w3.org/2000/svg" xmlns:xlink="http://www.w3.org/1999/xlink" x="0px" y="0px"
	 width="530px" height="430px" viewBox="35 85.5 530 430" enable-background="new 35 85.5 530 430" xml:space="preserve">
<g>
	<path opacity="0.05" fill="#FF6530" enable-background="new    " d="M398.684,194.387c-13.646,23.569,3.723,37.834,52.721,22.329
		c64.479-20.405,145.757,86.834,62.645,206.539s-191.343,80.969-224.525,60.162c-65.604-41.135-57.062-98.618-160.021-80.011
		C26.542,422.013,9.795,240.904,167.956,144.768C326.115,48.632,458.846,105.072,398.684,194.387z"/>
	<g>
		<path fill="#D1D3D4" d="M421.999,180.5c0,11.046-8.954,20-20,20H242c-11.046,0-20-8.954-20-20v-60c0-11.046,8.954-20,20-20h160
			c11.046,0,20,8.954,20,20V180.5z"/>
		<path fill="#242C31" d="M421.999,290.222c-11.029,0-20-8.973-20-20c0-11.027,8.971-20,20-20s20,8.973,20,20
			C441.999,281.249,433.028,290.222,421.999,290.222z"/>
		<g>
			<path fill="#D1D3D4" d="M397.999,269.861c0-13.016,10.416-23.817,23.349-24.164c-2.218-8.63-10.026-15.197-19.349-15.197h-60
				c-11.046,0-20,8.954-20,20s8.954,20,20,20h56.025C398.011,270.5,397.999,270.196,397.999,269.861z"/>
		</g>
		<path fill="#242C31" d="M421.999,220.222c-11.029,0-20-8.973-20-20c0-11.027,8.971-20,20-20s20,8.973,20,20
			C441.999,211.249,433.028,220.222,421.999,220.222z"/>
		<path fill="#FFFFFF" d="M421.999,180.222c11.046,0,20,8.954,20,20c0,11.046-8.954,20-20,20s-20-8.954-20-20
			C401.999,189.176,410.953,180.222,421.999,180.222 M421.999,176.222c-13.233,0-24,10.767-24,24c0,13.233,10.767,24,24,24
			s24-10.767,24-24C445.999,186.989,435.232,176.222,421.999,176.222L421.999,176.222z"/>
		<path fill="#FF6530" d="M174,500.223c-11.027,0-20-8.971-20-20c0-11.028,8.973-20,20-20s20,8.972,20,20
			C194,491.252,185.026,500.223,174,500.223z"/>
		<g opacity="0.6" enable-background="new    ">
			<g>
				<defs>
					<path id="SVGID_1_" d="M174,500.223c-11.027,0-20-8.971-20-20c0-11.028,8.973-20,20-20s20,8.972,20,20
						C194,491.252,185.026,500.223,174,500.223z"/>
				</defs>
				<clipPath id="SVGID_2_">
					<use href="#SVGID_1_"  overflow="visible"/>
				</clipPath>
				<g clip-path="url(#SVGID_2_)">
					<path fill="#E5EAEB" d="M206.641,456.223c0,17.224,0,34.443,0,51.666c-21.761,0-43.521,0-65.282,0c0-17.223,0-34.442,0-51.666
						C163.12,456.223,184.879,456.223,206.641,456.223z M143.631,500.063c-0.138,1.515-0.14,3.028,0.001,4.543
						c-0.042,1.03-0.042,1.03,0.963,1.03c19.57,0,39.139,0,58.708,0c0.169,0,0.339-0.014,0.508,0.001
						c0.321,0.028,0.453-0.088,0.449-0.428c-0.022-1.695-0.024-3.392-0.034-5.087c0-0.042,0-0.084,0-0.126
						c0.009-0.806,0.03-1.612,0.028-2.416c-0.007-2.544-0.021-5.089-0.033-7.634c0.001-10.22-0.005-20.438,0.02-30.657
						c0.001-0.686-0.227-0.79-0.836-0.79c-19.653,0.015-39.307,0.017-58.961-0.001c-0.647-0.002-0.812,0.169-0.812,0.813
						c0.02,12.147,0.015,24.298,0.018,36.444c0,0.229-0.062,0.47,0.094,0.678c-0.117,0.163-0.133,0.351-0.131,0.542
						c0.009,1.017,0.014,2.031,0.02,3.046L143.631,500.063z"/>
					<path fill="#C2E0EC" d="M143.746,496.434c-0.156-0.208-0.094-0.449-0.094-0.678c-0.003-12.146,0.002-24.297-0.018-36.444
						c0-0.645,0.165-0.814,0.812-0.813c19.654,0.018,39.308,0.016,58.961,0.001c0.609,0,0.837,0.105,0.836,0.79
						c-0.025,10.221-0.019,20.438-0.02,30.657c-0.836-0.897-1.72-1.748-2.627-2.576c-3.788-3.46-7.563-6.933-11.346-10.397
						c-0.591-0.543-0.593-0.534-1.146,0.072c-1.642,1.804-3.288,3.603-4.927,5.404c-2.067,2.273-4.128,4.553-6.191,6.828
						c-0.292,0.047-0.397-0.209-0.552-0.362c-1.699-1.688-3.383-3.388-5.085-5.071c-0.718-0.711-0.488-0.776-1.317-0.052
						c-3.073,2.696-6.126,5.415-9.206,8.104c-0.696,0.606-1.311,1.32-2.143,1.764c-1.856-1.86-3.72-3.714-5.561-5.588
						c-0.316-0.325-0.502-0.294-0.816-0.011c-1.306,1.18-2.632,2.335-3.957,3.492C147.483,493.183,145.612,494.806,143.746,496.434z
						 M166.695,469.235c0.009-4.094-3.294-7.409-7.374-7.404c-4.038,0.004-7.363,3.323-7.377,7.362
						c-0.014,4.037,3.299,7.377,7.336,7.394C163.388,476.604,166.688,473.332,166.695,469.235z"/>
					<path fill="#1A9172" d="M177.984,489.277c2.063-2.275,4.125-4.555,6.191-6.828c1.639-1.803,3.286-3.602,4.927-5.404
						c0.553-0.606,0.554-0.615,1.146-0.072c3.783,3.466,7.558,6.938,11.346,10.397c0.907,0.828,1.791,1.679,2.627,2.576
						c0.012,2.545,0.026,5.09,0.033,7.634c0.002,0.804-0.019,1.61-0.028,2.416c-5.258-0.007-10.516-0.013-15.773-0.019
						c-0.051-0.302-0.301-0.453-0.491-0.645c-3.158-3.164-6.32-6.322-9.478-9.485C178.308,489.67,178.151,489.468,177.984,489.277z"
						/>
					<path fill="#6B5B4B" d="M204.228,500.122c0.009,1.695,0.012,3.392,0.034,5.087c0.004,0.34-0.128,0.456-0.449,0.428
						c-0.168-0.015-0.339-0.001-0.508-0.001c-19.57,0-39.139,0-58.708,0c-1.005,0-1.005,0-0.963-1.03
						c-0.001-1.515-0.001-3.028-0.001-4.542c0,0,0.002-0.041,0.002-0.042c3.018-0.007,6.034-0.015,9.051-0.021
						c0.593,0.006,1.186,0.015,1.779,0.017c3.898,0.008,7.795,0.012,11.693,0.02c0.211,0.143,0.452,0.091,0.681,0.091
						C179.3,500.127,191.764,500.126,204.228,500.122z"/>
					<path fill="#1A9172" d="M152.685,500.001c-3.017,0.006-6.033,0.014-9.051,0.021c-0.006-1.015-0.011-2.029-0.02-3.046
						c-0.001-0.191,0.014-0.379,0.131-0.542c1.868-1.628,3.739-3.251,5.604-4.881c1.324-1.158,2.65-2.313,3.957-3.492
						c0.314-0.283,0.5-0.314,0.816,0.011c1.841,1.874,3.704,3.728,5.561,5.588c-0.018,0.061-0.016,0.144-0.056,0.179
						c-1.469,1.297-2.945,2.583-4.412,3.881C154.363,498.472,153.527,499.24,152.685,500.001z"/>
					<path fill="#657F6E" d="M204.228,500.122c-12.464,0.004-24.927,0.005-37.391,0.005c-0.229,0-0.47,0.052-0.681-0.092
						c0.274-0.012,0.549-0.034,0.824-0.034c5.634-0.001,11.267,0,16.9-0.003c1.524,0,3.048-0.013,4.574-0.02
						c5.258,0.005,10.515,0.011,15.773,0.018C204.228,500.038,204.228,500.08,204.228,500.122z"/>
					<path fill="#657F6E" d="M143.631,500.063c0,1.515,0,3.028,0.001,4.543C143.492,503.091,143.494,501.576,143.631,500.063z"/>
					<path fill="#25AD88" d="M188.455,499.979c-1.525,0.008-3.049,0.021-4.574,0.021c-5.633,0.003-11.267,0.002-16.9,0.003
						c-0.274,0-0.549,0.022-0.824,0.034c-3.898-0.007-7.795-0.011-11.693-0.019c-0.593-0.002-1.186-0.011-1.779-0.017
						c0.843-0.761,1.679-1.529,2.529-2.283c1.467-1.298,2.943-2.584,4.412-3.881c0.04-0.035,0.039-0.118,0.056-0.179
						c0.832-0.442,1.447-1.156,2.143-1.765c3.08-2.688,6.133-5.405,9.206-8.103c0.83-0.726,0.6-0.659,1.317,0.052
						c1.702,1.685,3.386,3.385,5.085,5.071c0.155,0.153,0.26,0.409,0.552,0.362c0.167,0.189,0.322,0.393,0.5,0.57
						c3.158,3.163,6.32,6.321,9.478,9.485C188.152,499.524,188.403,499.677,188.455,499.979z"/>
					<path fill="#EC8A1A" d="M166.695,469.235c-0.009,4.097-3.308,7.368-7.416,7.352c-4.037-0.017-7.35-3.355-7.336-7.394
						c0.015-4.039,3.339-7.358,7.377-7.362C163.401,461.826,166.705,465.143,166.695,469.235z"/>
				</g>
			</g>
		</g>
		<g>
			<path fill="#FFE0D2" d="M254,440.5h-60c-9.322,0-17.131,6.748-19.349,15.378C187.583,456.226,198,466.666,198,479.681
				c0,0.335-0.012,0.819-0.025,0.819H254c11.046,0,20-8.954,20-20S265.045,440.5,254,440.5z"/>
		</g>
		<path fill="#FF6530" d="M174,430.223c-11.027,0-20-8.971-20-20c0-11.028,8.973-20,20-20s20,8.972,20,20
			C194,421.252,185.026,430.223,174,430.223z"/>
		<g>
			<path fill="#FFE0D2" d="M353.999,310.5H194c-11.046,0-20,9.676-20,20.723v55c13.233,0,24,10.405,24,23.64
				c0,0.335-0.012,0.639-0.025,0.639h156.024c11.046,0,20-8.231,20-19.276v-60C373.999,320.176,365.045,310.5,353.999,310.5z"/>
		</g>
		<g>
			<path fill="#FFE0D2" d="M180.338,409.626v7.028c-0.67,0.328-1.478,0.589-2.426,0.78c-0.944,0.19-1.91,0.287-2.895,0.287
				c-1.509,0-2.817-0.301-3.926-0.903c-1.11-0.604-1.959-1.466-2.549-2.59c-0.588-1.122-0.883-2.466-0.883-4.026
				c0-1.534,0.295-2.863,0.883-3.986c0.59-1.124,1.428-1.985,2.517-2.589c1.088-0.604,2.366-0.904,3.833-0.904
				c1.028,0,1.99,0.15,2.886,0.451c0.898,0.303,1.647,0.728,2.252,1.275l-0.905,1.931c-0.683-0.534-1.355-0.917-2.013-1.151
				c-0.658-0.231-1.376-0.35-2.158-0.35c-1.507,0-2.646,0.453-3.421,1.357c-0.775,0.903-1.161,2.227-1.161,3.966
				c0,1.795,0.396,3.146,1.191,4.058c0.794,0.912,1.979,1.367,3.555,1.367c0.959,0,1.905-0.131,2.837-0.391v-3.699h-3.167v-1.911
				H180.338z"/>
		</g>
		<g>
			<path fill="#D1D3D4" d="M425.687,204.205h-7.332l-1.518,3.518h-2.738l6.783-15h2.213l6.806,15h-2.719L425.687,204.205z
				 M424.779,202.097l-2.759-6.426l-2.762,6.426H424.779z"/>
		</g>
		<g opacity="0.6" enable-background="new    ">
			<g>
				<defs>
					<path id="SVGID_3_" d="M421.999,290.222c-11.027,0-20-8.971-20-20c0-11.029,8.973-20,20-20s20,8.971,20,20
						C441.999,281.251,433.026,290.222,421.999,290.222z"/>
				</defs>
				<clipPath id="SVGID_4_">
					<use href="#SVGID_3_"  overflow="visible"/>
				</clipPath>
				<g clip-path="url(#SVGID_4_)">
					<path fill="#E5EAEB" d="M454.64,246.222c0,17.223,0,34.443,0,51.666c-21.76,0-43.521,0-65.28,0c0-17.223,0-34.443,0-51.666
						C411.119,246.222,432.88,246.222,454.64,246.222z M391.631,290.062c-0.138,1.514-0.14,3.028,0.001,4.542
						c-0.041,1.031-0.041,1.031,0.964,1.031c19.569,0,39.14,0,58.708,0c0.17,0,0.34-0.014,0.508,0.001
						c0.321,0.028,0.453-0.088,0.449-0.428c-0.021-1.695-0.023-3.392-0.033-5.087c0-0.042,0-0.084,0-0.126
						c0.01-0.806,0.029-1.612,0.027-2.416c-0.007-2.544-0.021-5.089-0.033-7.634c0.001-10.219-0.006-20.437,0.021-30.657
						c0.002-0.685-0.228-0.79-0.836-0.79c-19.653,0.015-39.308,0.017-58.961-0.001c-0.646-0.002-0.813,0.169-0.813,0.813
						c0.021,12.147,0.016,24.297,0.019,36.444c0,0.228-0.063,0.47,0.095,0.678c-0.117,0.163-0.133,0.35-0.132,0.542
						c0.009,1.016,0.014,2.031,0.021,3.046L391.631,290.062z"/>
					<path fill="#C2E0EC" d="M391.745,286.433c-0.156-0.208-0.095-0.45-0.095-0.678c-0.003-12.147,0.002-24.297-0.019-36.444
						c-0.001-0.645,0.165-0.815,0.813-0.813c19.653,0.018,39.308,0.016,58.961,0.001c0.608,0,0.838,0.105,0.836,0.79
						c-0.025,10.221-0.02,20.438-0.021,30.657c-0.836-0.897-1.721-1.748-2.627-2.576c-3.788-3.46-7.563-6.933-11.346-10.397
						c-0.592-0.543-0.594-0.535-1.146,0.072c-1.641,1.804-3.286,3.602-4.927,5.404c-2.066,2.274-4.128,4.553-6.19,6.828
						c-0.292,0.047-0.397-0.209-0.553-0.362c-1.698-1.687-3.383-3.388-5.085-5.071c-0.718-0.711-0.486-0.777-1.316-0.052
						c-3.072,2.696-6.126,5.415-9.206,8.103c-0.696,0.607-1.313,1.321-2.145,1.764c-1.854-1.86-3.719-3.714-5.561-5.588
						c-0.316-0.325-0.502-0.294-0.815-0.01c-1.306,1.179-2.632,2.334-3.956,3.492C395.483,283.182,393.612,284.805,391.745,286.433z
						 M414.695,259.235c0.009-4.093-3.294-7.409-7.374-7.404c-4.038,0.004-7.363,3.323-7.377,7.362
						c-0.016,4.037,3.299,7.377,7.336,7.394C411.388,266.604,414.687,263.332,414.695,259.235z"/>
					<path fill="#1A9172" d="M425.984,279.277c2.063-2.275,4.124-4.554,6.19-6.828c1.641-1.803,3.286-3.601,4.927-5.404
						c0.554-0.607,0.556-0.615,1.146-0.072c3.782,3.465,7.558,6.938,11.346,10.397c0.906,0.828,1.791,1.679,2.627,2.576
						c0.013,2.545,0.026,5.09,0.033,7.634c0.002,0.804-0.019,1.61-0.027,2.416c-5.259-0.007-10.516-0.013-15.772-0.018
						c-0.051-0.302-0.302-0.454-0.492-0.645c-3.158-3.164-6.319-6.322-9.478-9.485C426.307,279.669,426.151,279.467,425.984,279.277
						z"/>
					<path fill="#6B5B4B" d="M452.228,290.122c0.01,1.695,0.013,3.392,0.033,5.087c0.004,0.34-0.128,0.456-0.449,0.428
						c-0.168-0.015-0.338-0.001-0.508-0.001c-19.568,0-39.139,0-58.708,0c-1.005,0-1.005,0-0.964-1.031c0-1.514,0-3.028-0.001-4.542
						c0,0,0.003-0.041,0.003-0.042c3.019-0.006,6.033-0.014,9.051-0.02c0.594,0.006,1.187,0.015,1.778,0.017
						c3.897,0.007,7.795,0.011,11.692,0.019c0.211,0.143,0.452,0.091,0.682,0.091C427.3,290.126,439.763,290.125,452.228,290.122z"
						/>
					<path fill="#1A9172" d="M400.685,290c-3.018,0.006-6.032,0.014-9.051,0.02c-0.007-1.014-0.012-2.029-0.021-3.045
						c-0.001-0.192,0.015-0.379,0.132-0.542c1.867-1.628,3.738-3.251,5.604-4.881c1.324-1.158,2.65-2.313,3.956-3.492
						c0.313-0.284,0.499-0.315,0.815,0.01c1.842,1.874,3.705,3.728,5.561,5.588c-0.018,0.061-0.016,0.144-0.056,0.179
						c-1.469,1.297-2.944,2.583-4.412,3.881C402.362,288.471,401.527,289.24,400.685,290z"/>
					<path fill="#657F6E" d="M452.228,290.122c-12.465,0.004-24.928,0.005-37.391,0.005c-0.229,0-0.471,0.052-0.682-0.092
						c0.274-0.012,0.55-0.034,0.824-0.034c5.634-0.001,11.268,0,16.899-0.003c1.524,0,3.049-0.013,4.574-0.02
						c5.258,0.005,10.515,0.011,15.772,0.018C452.228,290.038,452.228,290.08,452.228,290.122z"/>
					<path fill="#657F6E" d="M391.631,290.062c0.001,1.514,0.001,3.028,0.001,4.542C391.491,293.09,391.493,291.576,391.631,290.062
						z"/>
					<path fill="#25AD88" d="M436.454,289.978c-1.525,0.007-3.05,0.02-4.574,0.02c-5.633,0.003-11.267,0.002-16.899,0.003
						c-0.274,0-0.55,0.022-0.824,0.034c-3.897-0.007-7.795-0.011-11.692-0.018c-0.593-0.002-1.186-0.011-1.778-0.017
						c0.844-0.761,1.679-1.529,2.528-2.283c1.468-1.298,2.943-2.584,4.412-3.881c0.04-0.035,0.038-0.118,0.056-0.179
						c0.832-0.442,1.447-1.156,2.145-1.764c3.08-2.688,6.134-5.406,9.206-8.103c0.83-0.726,0.6-0.659,1.316,0.052
						c1.702,1.684,3.387,3.385,5.085,5.071c0.154,0.153,0.261,0.409,0.553,0.362c0.167,0.19,0.321,0.393,0.5,0.571
						c3.157,3.163,6.318,6.321,9.478,9.485C436.152,289.524,436.403,289.676,436.454,289.978z"/>
					<path fill="#EC8A1A" d="M414.695,259.235c-0.009,4.097-3.309,7.369-7.415,7.352c-4.037-0.017-7.352-3.356-7.336-7.394
						c0.014-4.039,3.339-7.358,7.377-7.362C411.401,251.826,414.704,255.142,414.695,259.235z"/>
				</g>
			</g>
		</g>
		<g>
			<path fill="#FFFFFF" d="M339.999,122.5c0,2.761-2.238,5-5,5h-90c-2.761,0-5-2.239-5-5l0,0c0-2.761,2.239-5,5-5h90
				C337.761,117.5,339.999,119.739,339.999,122.5L339.999,122.5z"/>
			<path fill="#FFFFFF" d="M402.999,122.5c0,2.761-2.238,5-5,5h-50c-2.762,0-5-2.239-5-5l0,0c0-2.761,2.238-5,5-5h50
				C400.761,117.5,402.999,119.739,402.999,122.5L402.999,122.5z"/>
			<path fill="#FFFFFF" d="M402.999,141.5c0,2.761-2.238,5-5,5H245c-2.761,0-5-2.239-5-5l0,0c0-2.761,2.239-5,5-5h153
				C400.761,136.5,402.999,138.739,402.999,141.5L402.999,141.5z"/>
			<path fill="#FFFFFF" d="M339.999,179.5c0,2.761-2.238,5-5,5h-90c-2.761,0-5-2.239-5-5l0,0c0-2.761,2.239-5,5-5h90
				C337.761,174.5,339.999,176.739,339.999,179.5L339.999,179.5z"/>
			<path fill="#FFFFFF" d="M402.999,160.5c0,2.761-2.238,5-5,5h-90c-2.762,0-5-2.239-5-5l0,0c0-2.761,2.238-5,5-5h90
				C400.761,155.5,402.999,157.739,402.999,160.5L402.999,160.5z"/>
			<path fill="#FFFFFF" d="M300,160.5c0,2.761-2.238,5-5,5h-50c-2.761,0-5-2.239-5-5l0,0c0-2.761,2.239-5,5-5h50
				C297.762,155.5,300,157.739,300,160.5L300,160.5z"/>
		</g>
		<g>
			<path fill="#FFFFFF" d="M292,332.5c0,2.762-2.239,5-5,5h-90c-2.761,0-5-2.238-5-5l0,0c0-2.762,2.239-5,5-5h90
				C289.76,327.5,292,329.738,292,332.5L292,332.5z"/>
			<path fill="#FFFFFF" d="M354.999,332.5c0,2.762-2.238,5-5,5h-50c-2.762,0-5-2.238-5-5l0,0c0-2.762,2.238-5,5-5h50
				C352.761,327.5,354.999,329.738,354.999,332.5L354.999,332.5z"/>
			<path fill="#FFFFFF" d="M354.999,351.5c0,2.762-2.238,5-5,5H197c-2.761,0-5-2.238-5-5l0,0c0-2.762,2.239-5,5-5h153
				C352.761,346.5,354.999,348.738,354.999,351.5L354.999,351.5z"/>
			<path fill="#FFFFFF" d="M292,389.5c0,2.762-2.239,5-5,5h-90c-2.761,0-5-2.238-5-5l0,0c0-2.762,2.239-5,5-5h90
				C289.76,384.5,292,386.738,292,389.5L292,389.5z"/>
			<path fill="#FFFFFF" d="M354.999,370.5c0,2.762-2.238,5-5,5h-90c-2.761,0-5-2.238-5-5l0,0c0-2.762,2.239-5,5-5h90
				C352.761,365.5,354.999,367.738,354.999,370.5L354.999,370.5z"/>
			<path fill="#FFFFFF" d="M252,370.5c0,2.762-2.239,5-5,5h-50c-2.761,0-5-2.238-5-5l0,0c0-2.762,2.239-5,5-5h50
				C249.761,365.5,252,367.738,252,370.5L252,370.5z"/>
		</g>
		<g>
			<circle fill="#FFFFFF" cx="386.144" cy="251.222" r="6.03"/>
			<circle opacity="0.5" fill="#FFFFFF" enable-background="new    " cx="357.203" cy="251.222" r="6.03"/>
			<circle opacity="0.2" fill="#FFFFFF" enable-background="new    " cx="371.673" cy="251.222" r="3.618"/>
		</g>
		<g>
			<circle fill="#FFFFFF" cx="209.854" cy="461.223" r="6.03"/>
			<circle opacity="0.5" fill="#FFFFFF" enable-background="new    " cx="238.795" cy="461.223" r="6.03"/>
			<circle opacity="0.2" fill="#FFFFFF" enable-background="new    " cx="224.326" cy="461.223" r="3.618"/>
		</g>
	</g>
</g>
</svg>
