<?xml version="1.0" encoding="utf-8"?>
<!-- Generator: Adobe Illustrator 16.0.0, SVG Export Plug-In . SVG Version: 6.00 Build 0)  -->
<!DOCTYPE svg PUBLIC "-//W3C//DTD SVG 1.1//EN" "http://www.w3.org/Graphics/SVG/1.1/DTD/svg11.dtd">
<svg version="1.1" id="Layer_1" xmlns="http://www.w3.org/2000/svg" xmlns:xlink="http://www.w3.org/1999/xlink" x="0px" y="0px"
	 width="650px" height="430px" viewBox="0 0 650 430" enable-background="new 0 0 650 430" xml:space="preserve">
<g>
	<path opacity="0.2" fill="#F16522" enable-background="new    " d="M10.928,280.549h614.709c0,0-55.19-116.091-141.782-127.51
		c-86.592-11.418-87.543,59.95-162.716,78.029c-75.174,18.078-81.834-54.239-158.912-75.173
		C85.151,134.959,14.735,256.76,10.928,280.549z"/>
	<g opacity="0.5">
		<g>
			<rect x="11.122" y="280.049" fill="#F96311" width="614.183" height="2"/>
		</g>
		<g>
			<rect x="11.122" y="247.209" fill="#FA772F" width="614.183" height="1.875"/>
		</g>
		<g>
			<rect x="11.122" y="214.369" fill="#FB8A4D" width="614.183" height="1.75"/>
		</g>
		<g>
			<rect x="11.122" y="181.528" fill="#FB9E6A" width="614.183" height="1.625"/>
		</g>
		<g>
			<rect x="11.122" y="148.688" fill="#FCB188" width="614.183" height="1.5"/>
		</g>
		<g>
			<rect x="11.122" y="115.849" fill="#FDC5A6" width="614.183" height="1.375"/>
		</g>
		<g>
			<rect x="11.122" y="83.007" fill="#FED8C4" width="614.183" height="1.25"/>
		</g>
		<g>
			<rect x="11.122" y="50.167" fill="#FEECE1" width="614.183" height="1.125"/>
		</g>
		<g>
			<rect x="11.122" y="17.327" fill="#FFFFFF" width="614.183" height="1"/>
		</g>
	</g>
	<path opacity="0.2" fill="#F16522" enable-background="new    " d="M625.639,280.549c0,0-34.256-106.574-106.573-158.91
		C446.744,69.301,364.91,98.8,306.866,164.458c-58.045,65.657-149.396,116.09-295.938,116.09L625.639,280.549L625.639,280.549z"/>
	<path opacity="0.2" fill="#F16522" enable-background="new    " d="M14.735,278.646c0,0,151.104-160.091,319.726-94.206
		c143.687,56.143,85.641,96.107,291.178,96.107H10.929"/>
	<g>
		<path fill="#D0D2D3" d="M613.191,8.184c-6.293,0-11.412,5.118-11.412,11.413c0,2.474,0.799,4.759,2.141,6.63l-68.713,66.54
			c-1.859-1.316-4.123-2.099-6.57-2.099c-4.526,0-8.434,2.656-10.276,6.484l-143.312-42c0.018-0.265,0.041-0.531,0.041-0.802
			c0-6.292-5.121-11.412-11.412-11.412c-6.293,0-11.414,5.12-11.414,11.412c0,2.365,0.725,4.564,1.963,6.39l-56.347,60.105
			c-1.986-1.676-4.547-2.689-7.344-2.689c-3.1,0-5.912,1.246-7.971,3.261l-89.699-65.854c0.422-1.193,0.666-2.471,0.666-3.807
			c0-6.292-5.121-11.411-11.412-11.411c-6.293,0-11.412,5.118-11.412,11.411c0,0.604,0.059,1.191,0.15,1.771L28.506,121.4
			c-2.063-2.986-5.504-4.948-9.396-4.948c-6.293,0-11.412,5.12-11.412,11.412c0,6.293,5.119,11.413,11.412,11.413
			s11.414-5.12,11.414-11.413c0-0.921-0.123-1.813-0.332-2.673l142.057-67.73c1.979,3.407,5.656,5.708,9.871,5.708
			c3.461,0,6.559-1.554,8.652-3.995l89.402,65.637c-0.668,1.451-1.051,3.058-1.051,4.757c0,6.293,5.119,11.413,11.412,11.413
			c6.291,0,11.412-5.119,11.412-11.413c0-1.989-0.514-3.859-1.412-5.489l56.609-60.383c1.854,1.299,4.104,2.068,6.532,2.068
			c4.56,0,8.49-2.693,10.316-6.566l143.274,41.986c-0.022,0.297-0.045,0.595-0.045,0.897c0,6.292,5.119,11.413,11.412,11.413
			s11.412-5.12,11.412-11.413c0-2.343-0.711-4.521-1.926-6.335l68.789-66.631c1.805,1.193,3.959,1.893,6.279,1.893
			c6.293,0,11.411-5.119,11.411-11.411C624.604,13.302,619.484,8.184,613.191,8.184z M26.372,127.864
			c0,4.005-3.258,7.263-7.262,7.263s-7.264-3.258-7.264-7.263c0-4.004,3.26-7.262,7.264-7.262c2.238,0,4.242,1.02,5.576,2.618
			l-7.209,3.437l1.785,3.746l7.061-3.366C26.354,127.31,26.372,127.584,26.372,127.864z M182.12,44.495
			c4.004,0,7.262,3.257,7.262,7.262c0,0.4-0.039,0.791-0.104,1.174l-6.76-4.965l-7.654,3.649
			C174.94,47.677,178.163,44.495,182.12,44.495z M182.12,59.021c-2.564,0-4.816-1.339-6.109-3.353l6.055-2.887l5.35,3.929
			C186.088,58.127,184.208,59.021,182.12,59.021z M356.416,54.352c0-4.004,3.258-7.263,7.262-7.263c3.725,0,6.801,2.822,7.211,6.44
			l-7.246-2.832l-6.457,6.889C356.697,56.61,356.416,55.515,356.416,54.352z M290.536,122.307c1.699,0,3.26,0.591,4.5,1.572
			l-3.719,3.965l-5.34-3.921C287.225,122.914,288.809,122.307,290.536,122.307z M297.797,129.568c0,4.004-3.258,7.263-7.262,7.263
			s-7.262-3.258-7.262-7.263c0-0.775,0.125-1.522,0.352-2.226l8.203,6.023l5.625-6.001
			C297.676,128.062,297.797,128.8,297.797,129.568z M363.678,61.613c-1.332,0-2.578-0.366-3.65-0.994l4.722-5.036l5.375,2.101
			C368.912,60.016,366.48,61.613,363.678,61.613z M528.637,94.818c1.42,0,2.74,0.416,3.861,1.124l-4.312,5.052l-5.956-2.328
			C523.455,96.379,525.867,94.818,528.637,94.818z M535.898,102.081c0,4.004-3.259,7.262-7.263,7.262
			c-3.762,0-6.862-2.875-7.227-6.542l8.02,3.134l5.826-6.828C535.666,100.016,535.898,101.021,535.898,102.081z M613.191,26.858
			c-1.293,0-2.502-0.343-3.558-0.938l5.135-6.017l-3.155-2.693l-4.873,5.709c-0.515-0.997-0.813-2.126-0.813-3.323
			c0-4.005,3.261-7.264,7.265-7.264s7.262,3.258,7.262,7.264C620.453,23.602,617.195,26.858,613.191,26.858z"/>
		<circle fill="#FFFFFF" cx="528.636" cy="102.082" r="7.392"/>
		<circle fill="#F96311" cx="613.096" cy="19.593" r="7.393"/>
		<path fill="#FFFFFF" d="M370.992,54.479c0,4.083-3.309,7.393-7.395,7.393c-4.082,0-7.392-3.31-7.392-7.393s3.31-7.393,7.392-7.393
			C367.684,47.087,370.992,50.396,370.992,54.479z"/>
		<circle fill="#FFFFFF" cx="290.405" cy="129.698" r="7.393"/>
		<circle fill="#FFFFFF" cx="181.998" cy="51.866" r="7.394"/>
		<circle fill="#FFFFFF" cx="19.105" cy="128.012" r="7.394"/>
	</g>
	<g>
		<g opacity="0.75">
			
				<linearGradient id="SVGID_1_" gradientUnits="userSpaceOnUse" x1="106.0703" y1="142.1089" x2="184.5708" y2="7.6081" gradientTransform="matrix(1 0 0 -1 4 425)">
				<stop  offset="0" style="stop-color:#FFFFFF;stop-opacity:0"/>
				<stop  offset="1" style="stop-color:#808184"/>
			</linearGradient>
			<path fill="url(#SVGID_1_)" d="M147.301,405.602c-27.115,0-52.615-6.102-71.803-17.18
				c-19.273-11.129-29.889-25.953-29.889-41.744c0.002-15.791,10.615-30.614,29.889-41.742c19.188-11.078,44.688-17.18,71.801-17.18
				c27.115,0,52.615,6.102,71.803,17.18c19.273,11.128,29.887,25.951,29.887,41.742c0.002,15.791-10.613,30.617-29.887,41.744
				C199.915,399.5,174.415,405.602,147.301,405.602z M147.299,288.756c-26.941,0-52.264,6.055-71.301,17.045
				c-18.951,10.941-29.387,25.457-29.389,40.877c0,15.418,10.438,29.937,29.389,40.879c19.037,10.99,44.359,17.045,71.303,17.045
				c26.941,0,52.264-6.055,71.301-17.045c18.951-10.942,29.389-25.459,29.387-40.879c0-15.418-10.436-29.936-29.387-40.877
				C199.565,294.811,174.243,288.756,147.299,288.756z"/>
		</g>
		<g opacity="0.25">
			
				<linearGradient id="SVGID_2_" gradientUnits="userSpaceOnUse" x1="95.8247" y1="159.666" x2="195.9288" y2="-11.8497" gradientTransform="matrix(1 0 0 -1 4 425)">
				<stop  offset="0" style="stop-color:#FFFFFF;stop-opacity:0"/>
				<stop  offset="1" style="stop-color:#808184"/>
			</linearGradient>
			<path fill="url(#SVGID_2_)" d="M147.301,421.816c-34.578,0-67.096-7.779-91.564-21.906
				c-24.576-14.191-38.111-33.096-38.111-53.232c0-20.136,13.535-39.041,38.111-53.229c24.469-14.128,56.986-21.906,91.563-21.906
				c34.578,0,67.096,7.778,91.563,21.906c24.578,14.188,38.113,33.094,38.113,53.229c0,20.137-13.535,39.043-38.113,53.232
				C214.395,414.037,181.877,421.816,147.301,421.816z M147.299,272.816c-34.355,0-66.646,7.719-90.924,21.733
				c-24.166,13.953-37.475,32.463-37.477,52.127c0,19.662,13.311,38.174,37.477,52.129c24.277,14.017,56.568,21.734,90.926,21.734
				c34.355,0,66.646-7.719,90.922-21.734c24.168-13.955,37.479-32.467,37.477-52.129c0-19.662-13.309-38.174-37.477-52.127
				C213.948,280.535,181.657,272.816,147.299,272.816z"/>
		</g>
		
			<linearGradient id="SVGID_3_" gradientUnits="userSpaceOnUse" x1="270.5513" y1="76.897" x2="151.8004" y2="76.897" gradientTransform="matrix(1 0 0 -1 4 425)">
			<stop  offset="0" style="stop-color:#FFFFFF;stop-opacity:0"/>
			<stop  offset="1" style="stop-color:#808184"/>
		</linearGradient>
		<polygon fill="url(#SVGID_3_)" points="276.94,394.592 144.377,395.064 139.334,301.143 276.94,301.143 		"/>
		
			<linearGradient id="SVGID_4_" gradientUnits="userSpaceOnUse" x1="161.312" y1="74.7544" x2="78.6394" y2="74.7544" gradientTransform="matrix(1 0 0 -1 4 425)">
			<stop  offset="0" style="stop-color:#FFFFFF;stop-opacity:0"/>
			<stop  offset="1" style="stop-color:#808184"/>
		</linearGradient>
		<polygon fill="url(#SVGID_4_)" points="166.975,397.229 73.777,397.135 71.176,303.264 166.975,303.264 		"/>
		<g>
			<path fill="#CCCCCC" d="M85.073,318.727"/>
			<g>
				<path fill="#6D6E70" d="M230.012,305.76c-16.816-14.82-54.641-28.098-87.453-26.869c-27.957,1.043-61.512,11.521-76.059,23.533
					c-7.707,6.363-7.367,19.519-7.229,31.113l42.053,0.178v54.033c19.361,5.68,31.242,7.961,51.436,7.207
					c48.529-1.813,85.322-25.994,82.182-54.01C233.928,331.867,238.063,312.859,230.012,305.76z"/>
			</g>
			<g>
				<path fill="#6D6E70" d="M230.012,305.76c-16.816-14.82-54.641-28.098-87.453-26.869c-27.957,1.043-61.512,11.521-76.059,23.533
					c-7.707,6.363-7.367,19.519-7.229,31.113l42.053,0.178v41.979v12.055c19.361,5.68,31.242,7.961,51.436,7.207
					c48.529-1.813,85.322-25.994,82.182-54.01C233.928,331.867,238.063,312.859,230.012,305.76z"/>
			</g>
			<g>
				<path fill="#D14027" d="M122.938,354.963l0.059-23.852l-0.023,0.021l-49.148,42.222l-0.063,23.766
					c0.02,0.008,0.039,0.014,0.055,0.021L122.938,354.963z"/>
			</g>
			<path fill="#6D6E70" d="M101.299,376.482v-12.496l9.943,0.225c0,0,2.006,1.719,0.326,4.973
				C109.885,372.439,101.299,376.482,101.299,376.482z"/>
			
				<linearGradient id="SVGID_5_" gradientUnits="userSpaceOnUse" x1="55.3169" y1="104.5195" x2="231.1289" y2="104.5195" gradientTransform="matrix(1 0 0 -1 4 425)">
				<stop  offset="0" style="stop-color:#E6E7E8"/>
				<stop  offset="1" style="stop-color:#A6A8AB"/>
			</linearGradient>
			<path fill="url(#SVGID_5_)" d="M101.321,363.986c19.363,5.682,31.242,7.965,51.439,7.209
				c48.529-1.813,85.322-25.996,82.182-54.015c-3.139-28.016-45.023-49.262-93.551-47.446C92.862,271.547,58.344,297,59.338,321.396
				l87.734-0.933L101.321,363.986z"/>
			<g>
				<path fill="#F16522" d="M73.817,373.379l49.121-42.176l-29.449,1.1l-58.34,2.355l-0.002,0.379
					C37.254,351.16,52.206,364.979,73.817,373.379z"/>
			</g>
			<path fill="#CCCCCC" d="M93.532,399.813"/>
			<g>
				<polyline fill="#F05623" points="120.801,331.283 122.938,331.203 122.997,331.111 				"/>
				<path fill="#F05623" d="M73.762,397.119c0.02,0.008,0.039,0.014,0.055,0.021C73.801,397.133,73.782,397.125,73.762,397.119
					L73.762,397.119z"/>
				<path fill="#EE6D2B" d="M43.532,353.178c-0.041-0.049-0.078-0.098-0.119-0.146c-4.533-5.498-7.426-11.564-8.266-17.994
					l-0.059,18.305l-0.016,0.002c0.004,0.037,0.01,0.076,0.012,0.113l-0.012,4.789c1.83,16.344,16.861,30.373,38.689,38.873v-23.758
					C60.874,368.34,50.36,361.389,43.532,353.178z"/>
			</g>
		</g>
	</g>
	<g>
		
			<linearGradient id="SVGID_6_" gradientUnits="userSpaceOnUse" x1="4094.5762" y1="49.0889" x2="4250.9375" y2="49.0889" gradientTransform="matrix(-1 0 0 -1 4603.8066 425)">
			<stop  offset="0" style="stop-color:#FFFFFF;stop-opacity:0"/>
			<stop  offset="1" style="stop-color:#808184"/>
		</linearGradient>
		
			<rect x="352.869" y="363.949" opacity="0.7" fill="url(#SVGID_6_)" enable-background="new    " width="156.361" height="23.924"/>
		
			<linearGradient id="SVGID_7_" gradientUnits="userSpaceOnUse" x1="4050.5645" y1="56.5771" x2="4206.9258" y2="56.5771" gradientTransform="matrix(-1 0 0 -1 4603.8066 425)">
			<stop  offset="0" style="stop-color:#FFFFFF;stop-opacity:0"/>
			<stop  offset="1" style="stop-color:#808184"/>
		</linearGradient>
		
			<rect x="396.881" y="356.461" opacity="0.8" fill="url(#SVGID_7_)" enable-background="new    " width="156.361" height="23.924"/>
		
			<linearGradient id="SVGID_8_" gradientUnits="userSpaceOnUse" x1="4006.3203" y1="64.04" x2="4162.6816" y2="64.04" gradientTransform="matrix(-1 0 0 -1 4603.8066 425)">
			<stop  offset="0" style="stop-color:#FFFFFF;stop-opacity:0"/>
			<stop  offset="1" style="stop-color:#808184"/>
		</linearGradient>
		
			<rect x="441.125" y="348.998" opacity="0.9" fill="url(#SVGID_8_)" enable-background="new    " width="156.361" height="23.924"/>
		
			<linearGradient id="SVGID_9_" gradientUnits="userSpaceOnUse" x1="3961.5049" y1="71.708" x2="4117.8652" y2="71.708" gradientTransform="matrix(-1 0 0 -1 4603.8066 425)">
			<stop  offset="0" style="stop-color:#FFFFFF;stop-opacity:0"/>
			<stop  offset="1" style="stop-color:#808184"/>
		</linearGradient>
		<rect x="485.941" y="341.33" fill="url(#SVGID_9_)" width="156.36" height="23.924"/>
		<g>
			<g>
				<polygon fill="#A6A8AB" points="485.904,365.346 465.564,353.602 485.904,341.857 506.242,353.602 				"/>
				<polygon fill="#D0D2D3" points="485.904,146.128 465.611,134.416 485.904,122.641 506.242,134.384 				"/>
				<polygon fill="#808184" points="506.236,353.568 485.889,365.371 485.924,146.056 506.225,134.403 				"/>
				<polygon fill="#BBBDBF" points="465.613,353.568 485.959,365.371 485.922,146.056 465.621,134.403 				"/>
			</g>
			<g>
				<polygon fill="#A6A8AB" points="441.148,372.832 420.809,361.09 441.148,349.346 461.486,361.09 				"/>
				<polygon fill="#D0D2D3" points="441.148,196.021 420.855,184.308 441.148,172.533 461.486,184.276 				"/>
				<polygon fill="#808184" points="461.479,361.057 441.133,372.859 441.17,195.948 461.467,184.295 				"/>
				<polygon fill="#BBBDBF" points="420.855,361.057 441.203,372.859 441.164,195.948 420.865,184.295 				"/>
			</g>
			<g>
				<polygon fill="#A6A8AB" points="396.838,380.322 376.498,368.578 396.838,356.834 417.174,368.578 				"/>
				<polygon fill="#D0D2D3" points="396.838,240.951 376.543,229.238 396.838,217.463 417.174,229.207 				"/>
				<polygon fill="#808184" points="417.168,368.545 396.82,380.348 396.857,240.877 417.158,229.227 				"/>
				<polygon fill="#BBBDBF" points="376.545,368.545 396.893,380.348 396.855,240.877 376.555,229.227 				"/>
			</g>
			<g>
				<polygon fill="#A6A8AB" points="352.801,387.809 332.461,376.066 352.801,364.322 373.137,376.066 				"/>
				<polygon fill="#D0D2D3" points="352.801,285.881 332.506,274.168 352.801,262.395 373.137,274.139 				"/>
				<polygon fill="#808184" points="373.131,376.033 352.783,387.836 352.82,285.809 373.121,274.156 				"/>
				<polygon fill="#BBBDBF" points="332.508,376.033 352.855,387.836 352.816,285.809 332.518,274.156 				"/>
			</g>
		</g>
	</g>
</g>
</svg>
