<svg xmlns="http://www.w3.org/2000/svg" width="38px" height="38px" viewBox="0 0 38 38" enable-background="new 0 0 38 38" xml:space="preserve">
<rect x="-20" y="-20" display="none" fill="#2D2D2D" width="78" height="78"/>
<path fill="#008000" d="M31.6,4.6h-7.523C23.321,2.512,21.34,1,19,1s-4.319,1.512-5.075,3.6H6.4c-1.98,0-3.6,1.62-3.6,3.6v25.2
	c0,1.979,1.62,3.6,3.6,3.6h25.2c1.979,0,3.6-1.621,3.6-3.6V8.2C35.2,6.22,33.579,4.6,31.6,4.6z M19,4.6c0.99,0,1.8,0.81,1.8,1.8
	S19.99,8.2,19,8.2s-1.8-0.811-1.8-1.8S18.01,4.6,19,4.6z M15.4,29.8l-7.2-7.2l2.538-2.539l4.662,4.645l11.862-11.862L29.8,15.4
	L15.4,29.8z"/>
</svg>
