<svg xmlns="http://www.w3.org/2000/svg" x="0px" y="0px" width="38px" height="38px" viewBox="0 0 38 38" enable-background="new 0 0 38 38" xml:space="preserve">
<path fill="#FFFFFF" enable-background="new    " d="M23.857,14.727c-1.254,0-2.27,1.016-2.27,2.269
	c0,1.253,1.016,2.604,2.27,2.604s2.27-1.351,2.27-2.604C26.127,15.743,25.111,14.727,23.857,14.727z"/>
<path fill="#FFFFFF" enable-background="new    " d="M14.18,14.727c-1.254,0-2.27,1.016-2.27,2.269
	c0,1.253,1.016,2.604,2.27,2.604s2.271-1.351,2.271-2.604C16.451,15.743,15.434,14.727,14.18,14.727z"/>
<path fill="#FFFFFF" enable-background="new    " d="M34,14.519V7.375c0-0.156,0.311-0.447,0.311-0.785
	c0-0.501-0.48-0.908-0.982-0.908c-0.5,0-0.849,0.407-0.849,0.908C32.479,6.928,33,7.219,33,7.376V15h-1v-1.869
	c0-1.055-0.495-2.339-1.409-2.867L20.553,4.396c-0.916-0.528-2.338-0.528-3.252,0l-9.904,5.868C6.482,10.792,6,12.076,6,13.131V15
	H5V7.375c1-0.157,0.597-0.447,0.597-0.785c0-0.501-0.337-0.908-0.839-0.908c-0.5,0-1.062,0.407-1.062,0.908
	C3.696,6.928,4,7.219,4,7.375v7.137c0,0.017-1,0.663-1,1.458v5.296C3,22.074,3.602,23,4.41,23H6v1.868
	c0,1.056,0.514,2.34,1.428,2.867l10.049,5.868c0.914,0.529,2.34,0.529,3.256,0l9.887-5.868C31.533,27.208,32,25.924,32,24.868V23
	h1.615C34.424,23,35,22.074,35,21.268v-5.296C35,15.195,34,14.565,34,14.519z M19.484,23.766c-2.336,0-9.709-0.755-9.709-7.01
	c0-2.494,2.021-4.756,4.516-4.756h9.457c2.494,0,4.516,2.262,4.516,4.756C28.264,22.633,21.822,23.766,19.484,23.766z"/>
</svg>
