<?xml version="1.0" encoding="utf-8"?>
<!-- Generator: Adobe Illustrator 16.0.0, SVG Export Plug-In . SVG Version: 6.00 Build 0)  -->
<!DOCTYPE svg PUBLIC "-//W3C//DTD SVG 1.1//EN" "http://www.w3.org/Graphics/SVG/1.1/DTD/svg11.dtd">
<svg version="1.1" id="Layer_1" xmlns="http://www.w3.org/2000/svg" xmlns:xlink="http://www.w3.org/1999/xlink" x="0px" y="0px"
	 width="38px" height="38px" viewBox="0 0 38 38" enable-background="new 0 0 38 38" xml:space="preserve">
<g>
	<path fill="#C9302C" d="M7.745,10.692V27.57c0,1.766,0.6,3.296,1.777,4.546C10.703,33.365,12.148,34,13.814,34h10.373
		c1.668,0,3.112-0.635,4.292-1.884c1.176-1.249,1.775-2.778,1.775-4.546V10.692H7.745z M17.362,25.891
		c0,0.637-0.485,1.152-1.089,1.152c-0.601,0-1.091-0.516-1.091-1.152v-7.336c0-0.636,0.49-1.153,1.091-1.153
		c0.604,0,1.089,0.517,1.089,1.153V25.891z M22.817,25.891c0,0.637-0.488,1.152-1.089,1.152c-0.603,0-1.092-0.516-1.092-1.152
		v-7.336c0-0.636,0.489-1.153,1.092-1.153c0.601,0,1.089,0.517,1.089,1.153V25.891z"/>
	<path fill="#C9302C" d="M30.411,5.865h-6.458c0.15-0.2,0.251-0.438,0.251-0.712C24.204,4.517,23.717,4,23.115,4h-8.147
		c-0.603,0-1.089,0.517-1.089,1.153c0,0.274,0.103,0.514,0.25,0.712H7.59c-0.603,0-1.09,0.516-1.09,1.152
		c0,0.637,0.487,1.154,1.09,1.154h22.821c0.602,0,1.089-0.517,1.089-1.153C31.5,6.382,31.013,5.865,30.411,5.865z"/>
</g>
</svg>
