<?xml version="1.0" encoding="utf-8"?>
<!-- Generator: Adobe Illustrator 16.0.0, SVG Export Plug-In . SVG Version: 6.00 Build 0)  -->
<!DOCTYPE svg PUBLIC "-//W3C//DTD SVG 1.1//EN" "http://www.w3.org/Graphics/SVG/1.1/DTD/svg11.dtd">
<svg version="1.1" id="Layer_1" xmlns="http://www.w3.org/2000/svg" xmlns:xlink="http://www.w3.org/1999/xlink" x="0px" y="0px"
	 width="38px" height="38px" viewBox="0 0 38 38" enable-background="new 0 0 38 38" xml:space="preserve">
<g>
	<path fill="#5D5F60" d="M19.01,4c8.284,0,15.004,6.716,15.004,15c0,8.286-6.72,15-15.004,15c-8.281,0-14.996-6.714-14.996-15
		C4.014,10.716,10.729,4,19.01,4z M19.01,5c-1.89,0-3.723,0.37-5.447,1.1c-1.667,0.705-3.163,1.715-4.449,3.001s-2.295,2.783-3,4.45
		c-0.729,1.726-1.1,3.559-1.1,5.449c0,1.891,0.37,3.725,1.1,5.45c0.705,1.667,1.714,3.164,3,4.45c1.286,1.286,2.782,2.295,4.449,3
		C15.287,32.63,17.12,33,19.01,33c1.891,0,3.724-0.37,5.45-1.1c1.667-0.705,3.165-1.714,4.451-3
		c1.287-1.286,2.297-2.784,3.002-4.451c0.73-1.725,1.101-3.559,1.101-5.45c0-1.89-0.37-3.724-1.101-5.449
		c-0.705-1.667-1.715-3.165-3.002-4.451C27.625,7.814,26.127,6.805,24.46,6.1C22.733,5.37,20.9,5,19.01,5"/>
	<circle fill="#5D5F60" cx="14.294" cy="15.604" r="1.611"/>
	<path fill="#5D5F60" d="M25.563,15.604c0,0.991-0.803,1.802-1.801,1.802c-0.996,0-1.801-0.811-1.801-1.802
		c0-0.996,0.805-1.807,1.801-1.807C24.761,13.797,25.563,14.608,25.563,15.604z"/>
	<path fill="#5D5F60" d="M26.85,22.492c-0.054-0.151-0.162-0.272-0.307-0.341c-0.082-0.039-0.169-0.059-0.259-0.059
		c-0.23,0-0.442,0.134-0.541,0.341c-0.02,0.04-1.96,3.943-6.72,3.943c-4.761,0-6.79-4.039-6.874-4.211
		c-0.101-0.205-0.313-0.337-0.54-0.337c-0.092,0-0.18,0.021-0.262,0.062c-0.298,0.144-0.422,0.503-0.277,0.801
		c0.097,0.199,2.437,4.886,7.953,4.886c5.528,0,7.711-4.437,7.802-4.625C26.894,22.807,26.903,22.644,26.85,22.492z"/>
</g>
</svg>
