<?xml version="1.0" encoding="utf-8"?>
<!-- Generator: Adobe Illustrator 16.0.0, SVG Export Plug-In . SVG Version: 6.00 Build 0)  -->
<!DOCTYPE svg PUBLIC "-//W3C//DTD SVG 1.1//EN" "http://www.w3.org/Graphics/SVG/1.1/DTD/svg11.dtd">
<svg version="1.1" id="Layer_1" xmlns="http://www.w3.org/2000/svg" xmlns:xlink="http://www.w3.org/1999/xlink" x="0px" y="0px"
	 width="38px" height="38px" viewBox="0 0 38 38" enable-background="new 0 0 38 38" xml:space="preserve">
<g>
	<path fill="#F96311" d="M10.938,4.041H4.579c-0.017,0-0.031,0.007-0.047,0.008c-0.011,0-0.021-0.006-0.032-0.006
		C4.224,4.043,4,4.264,4,4.535v6.26c0,0.272,0.224,0.492,0.5,0.492S5,11.067,5,10.795V5.023h5.938c0.276,0,0.5-0.219,0.5-0.491
		S11.214,4.041,10.938,4.041z"/>
	<path fill="#F96311" d="M33.274,4c-0.006,0-0.012,0.004-0.018,0.004c-0.002,0-0.004-0.002-0.006-0.002H27
		c-0.276,0-0.5,0.221-0.5,0.492s0.224,0.492,0.5,0.492h5.774v5.811c0,0.271,0.224,0.491,0.5,0.491c0.276,0,0.5-0.22,0.5-0.491V4.492
		C33.774,4.22,33.551,4,33.274,4z"/>
	<path fill="#F96311" d="M10.858,32.551H5.084v-5.81c0-0.272-0.224-0.491-0.5-0.491s-0.5,0.219-0.5,0.491v6.305
		c0,0.271,0.224,0.491,0.5,0.491c0.011,0,0.021-0.006,0.032-0.006c0.007,0,0.013,0.004,0.02,0.004h6.223
		c0.276,0,0.5-0.221,0.5-0.492S11.135,32.551,10.858,32.551z"/>
	<path fill="#F96311" d="M33.58,26.52c-0.275-0.658-0.68-1.249-1.19-1.756c-0.515-0.502-1.115-0.9-1.785-1.17
		c-1.34-0.546-2.865-0.546-4.21,0c-0.4,0.162-0.775,0.369-1.12,0.614c-0.235,0.167-0.455,0.354-0.665,0.556
		c-0.03,0.029-0.061,0.059-0.085,0.089c-0.47,0.487-0.845,1.048-1.105,1.667c-0.205,0.487-0.335,0.993-0.39,1.516
		C23.01,28.217,23,28.403,23,28.59c0,0.143,0.005,0.285,0.015,0.428c0.045,0.566,0.181,1.117,0.405,1.643
		c0.275,0.659,0.68,1.25,1.19,1.756c0.515,0.507,1.115,0.9,1.785,1.171C27.065,33.862,27.775,34,28.5,34s1.435-0.138,2.105-0.413
		c0.67-0.271,1.27-0.664,1.785-1.171c0.51-0.506,0.915-1.097,1.19-1.756c0.28-0.658,0.42-1.357,0.42-2.07S33.86,27.179,33.58,26.52z
		 M24.345,30.282c-0.175-0.403-0.28-0.831-0.325-1.265C24.005,28.875,24,28.732,24,28.59c0-0.187,0.01-0.373,0.035-0.555
		c0.05-0.389,0.155-0.773,0.31-1.137c0.165-0.394,0.38-0.758,0.655-1.082c0.095-0.123,0.205-0.24,0.32-0.354
		c0.135-0.132,0.274-0.255,0.425-0.363c0.315-0.246,0.66-0.448,1.035-0.601c0.545-0.221,1.125-0.334,1.72-0.334
		s1.175,0.113,1.72,0.334c0.365,0.148,0.7,0.345,1.01,0.586c-2.22,2.184-5.26,5.198-6.285,6.211
		C24.695,30.985,24.495,30.646,24.345,30.282z M32.655,30.282c-0.226,0.54-0.555,1.022-0.976,1.437
		c-0.42,0.412-0.91,0.737-1.46,0.958c-1.095,0.448-2.345,0.448-3.439,0c-0.415-0.167-0.8-0.394-1.141-0.673
		c1.016-1.004,4.08-4.043,6.315-6.242c0.295,0.34,0.525,0.724,0.7,1.137C32.885,27.435,33,28.005,33,28.59
		C33,29.176,32.885,29.746,32.655,30.282z"/>
	<path fill="#FFFFFF" d="M20.68,21.056c1.491-0.661,2.53-2.132,2.53-3.845c0-2.33-1.921-4.219-4.29-4.219s-4.289,1.889-4.289,4.219
		c0,1.719,1.046,3.194,2.544,3.852c-5.636,1.095-5.814,7.387-5.814,7.453l-0.005,0.502h11.66C23.005,28.875,23,28.732,23,28.59
		c0-0.187,0.01-0.373,0.03-0.555H12.395c0.165-1.56,1.115-6.152,6.54-6.152c3.025,0,4.68,1.43,5.59,2.97
		c0.025-0.03,0.055-0.06,0.085-0.089c0.21-0.201,0.43-0.389,0.665-0.556C24.405,22.805,22.991,21.497,20.68,21.056z M15.642,17.211
		c0-1.781,1.468-3.225,3.278-3.225s3.278,1.443,3.278,3.225s-1.468,3.225-3.278,3.225S15.642,18.992,15.642,17.211z"/>
	<path fill="#FFFFFF" d="M29.695,15.529c1.192-0.547,2.023-1.75,2.023-3.15c0-1.914-1.548-3.465-3.458-3.465
		s-3.457,1.551-3.457,3.465c0,1.387,0.814,2.578,1.987,3.133c-4.214,0.887-4.291,5.701-4.291,5.701H34
		C34,21.213,33.849,16.457,29.695,15.529z M25.826,12.379c0-1.371,1.09-2.484,2.435-2.484c1.345,0,2.436,1.113,2.436,2.484
		s-1.09,2.483-2.436,2.483C26.916,14.862,25.826,13.75,25.826,12.379z M24.172,18.672c0.348-0.682,0.809-1.219,1.372-1.599
		c0.707-0.477,1.602-0.718,2.661-0.718c1.073,0,1.983,0.248,2.705,0.738c0.574,0.39,1.046,0.941,1.404,1.641
		c0.269,0.525,0.433,1.057,0.533,1.495h-9.213C23.73,19.775,23.894,19.219,24.172,18.672z"/>
	<path fill="#FFFFFF" d="M11.195,15.529c1.192-0.547,2.023-1.75,2.023-3.15c0-1.914-1.548-3.465-3.458-3.465
		s-3.457,1.551-3.457,3.465c0,1.387,0.814,2.578,1.987,3.133C4.076,16.398,4,21.213,4,21.213h11.5
		C15.5,21.213,15.349,16.457,11.195,15.529z M7.326,12.379c0-1.371,1.09-2.484,2.435-2.484c1.345,0,2.436,1.113,2.436,2.484
		s-1.09,2.483-2.436,2.483C8.416,14.862,7.326,13.75,7.326,12.379z M5.672,18.672c0.348-0.682,0.809-1.219,1.372-1.599
		c0.707-0.477,1.602-0.718,2.661-0.718c1.073,0,1.983,0.248,2.705,0.738c0.574,0.39,1.046,0.941,1.404,1.641
		c0.269,0.525,0.433,1.057,0.533,1.495H5.134C5.23,19.775,5.394,19.219,5.672,18.672z"/>
</g>
</svg>
