<?xml version="1.0" encoding="utf-8"?>
<!-- Generator: Adobe Illustrator 16.0.0, SVG Export Plug-In . SVG Version: 6.00 Build 0)  -->
<!DOCTYPE svg PUBLIC "-//W3C//DTD SVG 1.1//EN" "http://www.w3.org/Graphics/SVG/1.1/DTD/svg11.dtd">
<svg version="1.1" id="Layer_1" xmlns="http://www.w3.org/2000/svg" xmlns:xlink="http://www.w3.org/1999/xlink" x="0px" y="0px"
	 width="38px" height="38px" viewBox="4.789 11 38 38" enable-background="new 4.789 11 38 38" xml:space="preserve">
<g>
	<g>
		<path fill="#F96311" d="M25.737,28.025h-3.343c-0.827,0-1.5-0.673-1.5-1.5v-2.002c0-0.826,0.673-1.5,1.5-1.5h3.343
			c0.827,0,1.5,0.674,1.5,1.5v2.002C27.237,27.353,26.564,28.025,25.737,28.025z M22.395,24.023c-0.276,0-0.5,0.225-0.5,0.5v2.002
			c0,0.275,0.224,0.5,0.5,0.5h3.343c0.276,0,0.5-0.225,0.5-0.5v-2.002c0-0.275-0.224-0.5-0.5-0.5H22.395z"/>
	</g>
	<g>
		<path fill="#F96311" d="M25.68,23.803c-0.276,0-0.5-0.224-0.5-0.5v-2.207c-0.011-0.477-0.687-0.589-1.098-0.596
			c-0.573,0.006-1.188,0.247-1.188,0.596v2.207c0,0.276-0.224,0.5-0.5,0.5s-0.5-0.224-0.5-0.5v-2.207
			c0-1.033,1.096-1.584,2.178-1.595c0.011,0,0.022,0,0.034,0c1.203,0,2.054,0.648,2.073,1.585v2.217
			C26.18,23.579,25.956,23.803,25.68,23.803z"/>
	</g>
	<g>
		<path fill="#FFFFFF" d="M24.133,15c6.544,0,11.533,2.555,11.533,2.555s0.039,12.736,0,12.813C34.969,39.736,24.13,45,24.133,45
			c-7.778-3.832-12.196-10.877-12.234-14.633c-0.039-3.754,0.232-12.813,0.232-12.813S17.511,15,24.133,15z M24.133,16
			c-3.284,0-6.25,0.666-8.16,1.224c-1.29,0.377-2.286,0.758-2.861,0.995c-0.06,2.124-0.246,9.021-0.213,12.138
			c0.008,0.811,0.268,1.828,0.751,2.944c0.525,1.212,1.306,2.506,2.256,3.744c1.054,1.372,2.292,2.653,3.68,3.812
			c1.401,1.169,2.927,2.183,4.539,3.019c0.874-0.476,2.881-1.659,4.939-3.509c1.529-1.373,2.77-2.834,3.689-4.344
			c1.125-1.847,1.77-3.775,1.915-5.73l0.002-0.031c0.021-0.638,0.011-7.3-0.003-12.067c-0.54-0.236-1.459-0.608-2.658-0.977
			C30.202,16.662,27.367,16,24.133,16"/>
	</g>
	<g>
		<path fill="#F96311" d="M27.81,32.195h-8.165c-0.276,0-0.5-0.225-0.5-0.5c0-0.277,0.224-0.5,0.5-0.5h8.165
			c0.276,0,0.5,0.223,0.5,0.5C28.31,31.971,28.086,32.195,27.81,32.195z"/>
	</g>
	<g>
		<path fill="#F96311" d="M25.264,35.564h-2.619c-0.276,0-0.5-0.224-0.5-0.5s0.224-0.5,0.5-0.5h2.619c0.276,0,0.5,0.224,0.5,0.5
			S25.54,35.564,25.264,35.564z"/>
	</g>
</g>
</svg>
