<?xml version="1.0" encoding="utf-8"?>
<!-- Generator: Adobe Illustrator 16.0.0, SVG Export Plug-In . SVG Version: 6.00 Build 0)  -->
<!DOCTYPE svg PUBLIC "-//W3C//DTD SVG 1.1//EN" "http://www.w3.org/Graphics/SVG/1.1/DTD/svg11.dtd">
<svg version="1.1" id="Layer_1" xmlns="http://www.w3.org/2000/svg" xmlns:xlink="http://www.w3.org/1999/xlink" x="0px" y="0px"
	 width="38px" height="38px" viewBox="11 11 38 38" enable-background="new 11 11 38 38" xml:space="preserve">
<g>
	<g>
		<path fill="#FFFFFF" d="M42.5,45h-25c-0.688,0-1.282-0.246-1.768-0.732C15.246,43.781,15,43.188,15,42.5v-25
			c0-0.688,0.246-1.282,0.732-1.768C16.218,15.246,16.813,15,17.5,15h25c0.688,0,1.282,0.246,1.768,0.732
			C44.754,16.218,45,16.813,45,17.5v25c0,0.688-0.246,1.281-0.732,1.768C43.782,44.754,43.188,45,42.5,45z M17.5,16
			c-0.418,0-0.766,0.144-1.061,0.439C16.144,16.734,16,17.082,16,17.5v25c0,0.418,0.144,0.765,0.439,1.061
			C16.734,43.856,17.082,44,17.5,44h25c0.418,0,0.766-0.144,1.061-0.439C43.856,43.265,44,42.918,44,42.5v-25
			c0-0.418-0.144-0.766-0.439-1.061C43.266,16.144,42.918,16,42.5,16H17.5z"/>
	</g>
	<g>
		<rect x="15.25" y="19.75" fill="#FFFFFF" width="29.5" height="1"/>
	</g>
	<g>
		<circle fill="#FFFFFF" cx="35.976" cy="18" r="1"/>
	</g>
	<g>
		<circle fill="#FFFFFF" cx="38.976" cy="18" r="1"/>
	</g>
	<g>
		<circle fill="#FFFFFF" cx="41.976" cy="18" r="1"/>
	</g>
	<g>
		<path fill="#FFFFFF" d="M26.732,26.577h-6.74c-0.276,0-0.5-0.224-0.5-0.5s0.224-0.5,0.5-0.5h6.74c0.275,0,0.5,0.224,0.5,0.5
			S27.008,26.577,26.732,26.577z"/>
	</g>
	<g>
		<path fill="#FFFFFF" d="M24.519,28.797h-4.513c-0.276,0-0.5-0.224-0.5-0.5s0.224-0.5,0.5-0.5h4.513c0.276,0,0.5,0.224,0.5,0.5
			S24.795,28.797,24.519,28.797z"/>
	</g>
	<g>
		<path fill="#FFFFFF" d="M18.62,23h11.757c0.618,0,1.119,0.504,1.119,1.124v6.183c0,0.621-0.501,1.123-1.119,1.123H20.3
			c-1.007,0-1.683,1.57-2.8,1.57c-0.009,0,0-2.197,0-2.693v-6.183C17.5,23.504,18.002,23,18.62,23z M18.62,24
			c-0.065,0-0.12,0.056-0.12,0.124v6.183c0,0.136,0,0.398-0.001,0.71c0,0.077-0.001,0.162-0.001,0.253
			c0.465-0.41,1.036-0.84,1.802-0.84h10.077c0.065,0,0.119-0.055,0.119-0.123v-6.183c0-0.068-0.054-0.124-0.119-0.124H18.62"/>
	</g>
	<g>
		<path fill="#FFFFFF" d="M40.051,35.807h-6.463c-0.275,0-0.5-0.224-0.5-0.5s0.225-0.5,0.5-0.5h6.463c0.276,0,0.5,0.224,0.5,0.5
			S40.327,35.807,40.051,35.807z"/>
	</g>
	<g>
		<path fill="#FFFFFF" d="M40.051,38.026h-4.327c-0.276,0-0.5-0.224-0.5-0.5s0.224-0.5,0.5-0.5h4.327c0.276,0,0.5,0.224,0.5,0.5
			S40.327,38.026,40.051,38.026z"/>
	</g>
	<g>
		<path fill="#FFFFFF" d="M31.087,32.229h10.322c0.601,0,1.087,0.503,1.087,1.124v6.182c0,0.497,0.009,2.694,0,2.694
			c-1.084,0-1.74-1.569-2.717-1.569h-8.692c-0.601,0-1.087-0.504-1.087-1.125v-6.182C30,32.732,30.486,32.229,31.087,32.229z
			 M31.087,33.229c-0.041,0-0.087,0.054-0.087,0.124v6.182c0,0.072,0.046,0.125,0.087,0.125h8.692c0.729,0,1.273,0.397,1.719,0.794
			c0-0.073,0-0.144,0-0.208c-0.002-0.311-0.002-0.574-0.002-0.711v-6.182c0-0.07-0.046-0.124-0.087-0.124H31.087"/>
	</g>
	<g>
		<path fill="#F96311" d="M28.224,36.561c-0.071,0-0.144-0.016-0.21-0.047c-0.123-0.057-0.219-0.162-0.263-0.291
			c-0.05-0.143-0.165-0.42-0.265-0.554c-0.066-0.081-0.379-0.275-0.657-0.407c-0.137-0.066-0.237-0.189-0.271-0.338
			c-0.035-0.146-0.001-0.303,0.093-0.422l1.179-1.511c0.089-0.114,0.224-0.185,0.368-0.192c0.15-0.002,0.286,0.049,0.387,0.153
			l1.594,1.655c0.092,0.097,0.143,0.226,0.139,0.358c-0.003,0.134-0.059,0.26-0.155,0.352c-0.038,0.036-0.944,0.89-1.755,1.208
			C28.348,36.549,28.285,36.561,28.224,36.561z M27.799,34.656c0.189,0.121,0.379,0.268,0.49,0.417
			c0.066,0.089,0.127,0.194,0.182,0.298c0.219-0.137,0.438-0.301,0.621-0.449l-0.829-0.861L27.799,34.656z"/>
	</g>
	<g>
		<path fill="#F96311" d="M29.882,35.354c-0.124,0-0.265-0.051-0.357-0.135l-1.636-1.676c-0.051-0.054-0.091-0.118-0.114-0.188
			c-0.126-0.369-0.118-1.489,2.67-3.911C32.787,27.408,36.566,25,37.418,25c0.256,0,0.4,0.133,0.463,0.213
			c0.105,0.132,0.143,0.307,0.104,0.479c-0.163,0.705-2.123,4.759-4.867,7.271C30.505,35.354,30.084,35.354,29.882,35.354z
			 M28.755,32.998l1.231,1.263c0.294-0.185,0.98-0.686,2.455-2.036c1.976-1.809,3.506-4.484,4.187-5.876
			c-1.233,0.655-3.576,2.154-5.528,3.85C29.199,31.849,28.828,32.715,28.755,32.998z"/>
	</g>
	<g>
		<path fill="#F96311" d="M24.786,39.5c-0.266,0-2.604-0.023-2.774-0.814c-0.046-0.216,0.042-0.494,0.344-0.629
			c0.02-0.01,0.039-0.017,0.059-0.023c1.207-0.367,2.112-1.612,2.711-2.437c0.285-0.392,0.491-0.676,0.699-0.845
			c0.328-0.268,0.648-0.398,0.98-0.398c0.54,0,1.021,0.354,1.422,0.701c0.047,0.04,0.086,0.09,0.115,0.145
			c0.534,1.016,0.596,1.906,0.184,2.648c-0.775,1.391-2.922,1.609-3.344,1.639C25.056,39.496,24.923,39.5,24.786,39.5z
			 M23.835,38.437c0.403,0.05,0.877,0.079,1.276,0.054c0.739-0.053,2.105-0.35,2.54-1.13c0.229-0.409,0.178-0.952-0.151-1.612
			c-0.317-0.265-0.545-0.395-0.695-0.395c-0.059,0-0.159,0.019-0.349,0.174c-0.107,0.086-0.317,0.377-0.521,0.657
			C25.439,36.865,24.76,37.801,23.835,38.437z"/>
	</g>
</g>
</svg>
