<?xml version="1.0" encoding="utf-8"?>
<!-- Generator: Adobe Illustrator 16.0.0, SVG Export Plug-In . SVG Version: 6.00 Build 0)  -->
<!DOCTYPE svg PUBLIC "-//W3C//DTD SVG 1.1//EN" "http://www.w3.org/Graphics/SVG/1.1/DTD/svg11.dtd">
<svg version="1.1" id="Layer_1" xmlns="http://www.w3.org/2000/svg" xmlns:xlink="http://www.w3.org/1999/xlink" x="0px" y="0px"
	 width="38px" height="38px" viewBox="0 0 38 38" enable-background="new 0 0 38 38" xml:space="preserve">
<g>
	<g>
		<g>
			<path fill="#FFFFFF" d="M18.092,32.505c-0.16,0-0.322-0.003-0.479-0.007c-1.916-0.047-5.135-0.896-7.902-3.134
				c-1.423-1.152-2.544-2.528-3.333-4.093c-0.911-1.805-1.373-3.86-1.373-6.109c0-4.392,1.443-8.082,4.172-10.666
				c1.176-1.111,2.541-1.979,4.062-2.58c1.407-0.556,2.915-0.856,4.358-0.869c1.813-0.016,4.166-0.024,6.989-0.024V4
				c-2.435,0-4.944,0.006-6.999,0.024C11.426,4.078,3.979,8.868,3.979,19.162c0,10.294,9.029,14.247,13.606,14.358
				c0.16,0.005,0.329,0.007,0.506,0.007c2.518,0,6.543-0.454,9.923-2.669c-0.449-0.047-0.863-0.206-1.209-0.46
				C23.625,32.222,20.003,32.505,18.092,32.505z"/>
		</g>
		<g>
			<path fill="#FFFFFF" d="M34.021,4.026c0,0-4.566-0.024-9.436-0.024v1.024c3.456,0,6.791,0.012,8.411,0.019v14.092
				c-0.17,3.271-1.036,5.967-2.578,8.068c0.201,0.356,0.325,0.765,0.325,1.204c0,0.014-0.004,0.027-0.004,0.042
				c1.788-2.123,3.066-5.104,3.281-9.288C34.021,19.077,34.021,4.026,34.021,4.026z"/>
		</g>
	</g>
	<g>
		<path fill="#FFFFFF" d="M20.262,26.968c-0.018,0-0.033-0.002-0.051-0.002c-0.16-0.017-0.306-0.106-0.389-0.245l-0.996-1.654
			c-3.083-0.086-5.449-2.075-5.66-4.795c-0.003-0.035-0.001-0.072,0.003-0.107c0.019-0.441-0.036-4.723-0.052-5.041
			c-0.001-0.018-0.002-0.036-0.002-0.054c0-3.036,2.654-5.507,5.917-5.507c0.549,0,1.095,0.072,1.625,0.212
			c1.146,0.303,2.158,0.915,2.924,1.771c0.885,0.986,1.371,2.238,1.371,3.524l-0.077,5.297c-0.056,1.218-1.146,2.932-2.063,4.033
			l-2.172,2.397C20.544,26.907,20.405,26.968,20.262,26.968z M19.116,24.042c0.18,0,0.346,0.095,0.438,0.248l0.789,1.313
			l1.695-1.873c0.865-1.039,1.773-2.549,1.813-3.393l0.078-5.275c-0.002-1.026-0.396-2.035-1.109-2.834
			c-0.633-0.705-1.471-1.211-2.426-1.463c-0.441-0.119-0.9-0.178-1.361-0.178c-2.699,0-4.894,2.012-4.894,4.482h-0.008
			c0.023,0.292,0.031,0.941,0.049,2.564c0.02,1.678,0.025,2.309,0.01,2.58c0.186,2.258,2.173,3.83,4.843,3.83L19.116,24.042z"/>
	</g>
	<g>
		<path fill="#FFFFFF" d="M22.1,16.531h-6.088c-0.283,0-0.513-0.229-0.513-0.512s0.229-0.512,0.513-0.512H22.1
			c0.283,0,0.513,0.229,0.513,0.512S22.383,16.531,22.1,16.531z"/>
	</g>
	<g>
		<path fill="#FFFFFF" d="M20.088,19.064H16.01c-0.283,0-0.512-0.229-0.512-0.512s0.229-0.512,0.512-0.512h4.078
			c0.283,0,0.512,0.229,0.512,0.512S20.372,19.064,20.088,19.064z"/>
	</g>
	<g>
		<path fill="#F96311" d="M28.595,30.374c-1.084,0.113-2.056-0.673-2.169-1.758s0.671-2.056,1.757-2.17
			c1.084-0.114,2.058,0.672,2.17,1.757C30.468,29.288,29.681,30.259,28.595,30.374z M33.854,29.583
			c0.119-0.563,0.156-1.152,0.094-1.758c-0.003-0.025-0.007-0.053-0.01-0.079l-1.344-0.369c-0.072-0.302-0.178-0.59-0.309-0.859
			l0.797-1.142c-0.338-0.521-0.758-0.979-1.238-1.356l-1.211,0.688c-0.261-0.156-0.537-0.289-0.828-0.39l-0.244-1.371
			c-0.563-0.12-1.153-0.157-1.758-0.095c-0.025,0.004-0.053,0.008-0.078,0.011l-0.368,1.343c-0.304,0.074-0.591,0.178-0.861,0.311
			l-1.141-0.797c-0.521,0.336-0.979,0.756-1.357,1.238l0.688,1.21c-0.157,0.261-0.289,0.537-0.389,0.827l-1.373,0.244
			c-0.121,0.563-0.156,1.153-0.094,1.757c0.003,0.025,0.008,0.053,0.012,0.079l1.342,0.369c0.074,0.302,0.178,0.59,0.31,0.86
			l-0.797,1.143c0.338,0.52,0.758,0.979,1.239,1.355l1.209-0.688c0.262,0.158,0.537,0.289,0.827,0.389l0.244,1.372
			c0.563,0.121,1.153,0.157,1.758,0.095c0.025-0.004,0.053-0.008,0.078-0.011l0.369-1.343c0.303-0.074,0.59-0.178,0.861-0.311
			l1.143,0.797c0.52-0.338,0.978-0.756,1.356-1.238l-0.688-1.21c0.158-0.261,0.289-0.537,0.391-0.828L33.854,29.583z"/>
	</g>
</g>
</svg>
