<?xml version="1.0" encoding="utf-8"?>
<!-- Generator: Adobe Illustrator 16.0.0, SVG Export Plug-In . SVG Version: 6.00 Build 0)  -->
<!DOCTYPE svg PUBLIC "-//W3C//DTD SVG 1.1//EN" "http://www.w3.org/Graphics/SVG/1.1/DTD/svg11.dtd">
<svg version="1.1" id="Layer_1" xmlns="http://www.w3.org/2000/svg" xmlns:xlink="http://www.w3.org/1999/xlink" x="0px" y="0px"
	 width="38px" height="38px" viewBox="12 12.008 38 38" enable-background="new 12 12.008 38 38" xml:space="preserve">
<g>
	<g>
		<path fill="#FFFFFF" d="M43.529,46.008c-0.114,0-0.242-0.018-0.387-0.059c0,0-0.737-0.159-1.868-0.444
			c-6.305-1.739-9.419-4.902-9.46-4.969c-0.017-0.023-0.028-0.052-0.037-0.085c0-0.005-0.004-0.008-0.008-0.013
			c-0.008-0.036-0.012-0.073-0.012-0.11v-7.113c0-0.037,0.004-0.074,0.012-0.111c0.004-0.003,0.008-0.008,0.008-0.012
			c0.009-0.033,0.021-0.062,0.037-0.086c0.004-0.008,0.008-0.013,0.013-0.017c0.017-0.024,0.032-0.05,0.058-0.069
			c0.012-0.018,0.028-0.024,0.045-0.037c0.016-0.009,0.028-0.021,0.04-0.029h0.005l0.021-0.012l6.69-3.544
			c0.062-0.031,0.129-0.045,0.194-0.045c0.066,0,0.132,0.015,0.19,0.045l6.713,3.556C45.918,32.924,46,33.062,46,33.215v7.113
			c0,0.151-0.082,0.291-0.217,0.36L42.6,42.372c-0.693,0.427-1.054,0.845-1.013,1.173c0.078,0.582,1.527,1.072,2.104,1.248
			c0.455,0.152,0.588,0.399,0.531,0.712C44.178,45.752,43.96,46.008,43.529,46.008z M40.869,44.346
			c-0.137-0.19-0.239-0.413-0.273-0.669v-0.005l-0.001-0.004c-0.095-0.762,0.403-1.484,1.479-2.148l0.028-0.017l0.029-0.016
			L45,39.97v-6.4l-6.122-3.243l-6.12,3.243v6.489c0.317,0.29,1.028,0.894,2.158,1.607C36.686,42.786,38.686,43.685,40.869,44.346"/>
	</g>
	<g>
		<path fill="#FFFFFF" d="M43.071,35.781h-8c-0.276,0-0.5-0.224-0.5-0.5s0.224-0.5,0.5-0.5h8c0.276,0,0.5,0.224,0.5,0.5
			S43.348,35.781,43.071,35.781z"/>
	</g>
	<g>
		<path fill="#FFFFFF" d="M43.071,38.562h-6c-0.276,0-0.5-0.224-0.5-0.5s0.224-0.5,0.5-0.5h6c0.276,0,0.5,0.224,0.5,0.5
			S43.348,38.562,43.071,38.562z"/>
	</g>
	<g>
		<path fill="#FFFFFF" d="M18.471,32.763c-0.431,0-0.649-0.256-0.694-0.503c-0.057-0.313,0.076-0.56,0.531-0.712
			c0.578-0.176,2.027-0.667,2.105-1.248c0.041-0.328-0.32-0.746-1.012-1.173l-3.184-1.684C16.082,27.375,16,27.235,16,27.084V19.97
			c0-0.152,0.082-0.291,0.217-0.361l6.712-3.557c0.059-0.031,0.125-0.045,0.191-0.045c0.066,0,0.133,0.015,0.194,0.045l6.69,3.544
			l0.021,0.012h0.005c0.012,0.008,0.024,0.02,0.04,0.029c0.017,0.013,0.033,0.02,0.045,0.037c0.025,0.021,0.041,0.045,0.057,0.07
			c0.004,0.004,0.009,0.009,0.013,0.017c0.017,0.024,0.028,0.053,0.037,0.085c0,0.004,0.004,0.009,0.008,0.013
			c0.008,0.037,0.012,0.074,0.012,0.111v7.113c0,0.037-0.004,0.074-0.012,0.11c-0.004,0.004-0.008,0.008-0.008,0.012
			c-0.008,0.033-0.02,0.062-0.037,0.085c-0.041,0.066-3.155,3.23-9.46,4.969c-1.131,0.285-1.868,0.444-1.868,0.444
			C18.713,32.746,18.585,32.763,18.471,32.763z M21.131,31.102c2.183-0.661,4.183-1.561,5.953-2.68
			c1.13-0.714,1.841-1.317,2.159-1.607v-6.49l-6.121-3.243L17,20.326v6.4l2.868,1.517l0.029,0.015l0.028,0.017
			c1.077,0.664,1.574,1.387,1.479,2.148l0,0.004l0,0.004C21.37,30.69,21.268,30.912,21.131,31.102"/>
	</g>
	<g>
		<path fill="#FFFFFF" d="M26.929,22.537h-8c-0.276,0-0.5-0.224-0.5-0.5s0.224-0.5,0.5-0.5h8c0.276,0,0.5,0.224,0.5,0.5
			S27.205,22.537,26.929,22.537z"/>
	</g>
	<g>
		<path fill="#FFFFFF" d="M24.929,25.318h-6c-0.276,0-0.5-0.224-0.5-0.5s0.224-0.5,0.5-0.5h6c0.276,0,0.5,0.224,0.5,0.5
			S25.205,25.318,24.929,25.318z"/>
	</g>
	<g>
		<path fill="#F96311" d="M43.508,26.066c-0.013,0-0.025,0-0.039-0.001c-0.058-0.004-0.113-0.019-0.163-0.041
			c-0.228-0.08-1.997-0.638-3.089-0.98c-0.264-0.083-0.41-0.363-0.327-0.627s0.363-0.41,0.626-0.327
			c1.16,0.364,1.94,0.609,2.465,0.789c-0.123-1.542-0.67-2.806-1.631-3.762c-2.038-2.03-5.277-2.05-5.34-2.05l0,0
			c-0.001,0-0.002,0-0.002,0c-0.275,0-0.499-0.223-0.5-0.498c-0.002-0.276,0.221-0.501,0.497-0.502
			c0.174,0.009,3.712,0.012,6.051,2.341c1.265,1.26,1.921,2.945,1.95,5.011c0.02,0.065,0.01,0.135-0.004,0.223
			C43.964,25.887,43.752,26.066,43.508,26.066z"/>
	</g>
	<g>
		<path fill="#F96311" d="M25.934,44.623c-0.228,0-3.732-0.039-6.044-2.341c-1.265-1.26-1.92-2.944-1.95-5.011
			c-0.02-0.065-0.009-0.136,0.004-0.224c0.04-0.258,0.279-0.439,0.532-0.423c0.058,0.004,0.113,0.019,0.164,0.041
			c0.228,0.08,1.997,0.638,3.089,0.98c0.264,0.082,0.41,0.363,0.327,0.627s-0.364,0.408-0.626,0.327
			c-1.159-0.364-1.94-0.608-2.464-0.789c0.123,1.542,0.669,2.806,1.63,3.762c2.039,2.03,5.278,2.05,5.34,2.05l0,0
			c0.001,0,0.002,0,0.002,0c0.275,0,0.499,0.223,0.5,0.498s-0.222,0.501-0.498,0.502C25.938,44.623,25.936,44.623,25.934,44.623z"/>
	</g>
</g>
</svg>
