<?xml version="1.0" encoding="utf-8"?>
<!-- Generator: Adobe Illustrator 16.0.0, SVG Export Plug-In . SVG Version: 6.00 Build 0)  -->
<!DOCTYPE svg PUBLIC "-//W3C//DTD SVG 1.1//EN" "http://www.w3.org/Graphics/SVG/1.1/DTD/svg11.dtd">
<svg version="1.1" id="Layer_1" xmlns="http://www.w3.org/2000/svg" xmlns:xlink="http://www.w3.org/1999/xlink" x="0px" y="0px"
	 width="38px" height="38px" viewBox="0 0 38 38" enable-background="new 0 0 38 38" xml:space="preserve">
<g>
	<g>
		<path fill="#FFFFFF" d="M23.555,15.381H8.76c-0.285,0-0.518-0.233-0.518-0.52c0-0.287,0.232-0.521,0.518-0.521h14.795
			c0.286,0,0.52,0.232,0.52,0.521C24.073,15.149,23.841,15.381,23.555,15.381z"/>
	</g>
	<g>
		<path fill="#FFFFFF" d="M19.855,20.55H8.76c-0.285,0-0.518-0.233-0.518-0.52c0-0.287,0.232-0.521,0.518-0.521h11.096
			c0.287,0,0.52,0.232,0.52,0.521C20.375,20.318,20.143,20.55,19.855,20.55z"/>
	</g>
	<g>
		<path fill="#FFFFFF" d="M12.132,31.968c-1.964,0.498-3.269,0.783-3.28,0.785L8.82,32.76l-0.03,0.01
			c-0.151,0.043-0.288,0.064-0.406,0.064s-0.177-0.023-0.2-0.036c0.043-0.024,0.114-0.062,0.229-0.1
			c3.77-1.156,4.342-2.312,4.445-3.087c0.129-1.043-0.637-2.088-2.278-3.104l-0.03-0.019l-0.029-0.018l-5.484-2.912V11.253
			l11.602-6.177l11.602,6.175v7.424c0.354,0.095,0.701,0.206,1.035,0.348v-7.958c0-0.066-0.008-0.132-0.021-0.198
			c-0.008-0.007-0.016-0.015-0.016-0.023c-0.014-0.058-0.034-0.107-0.063-0.153c-0.008-0.014-0.016-0.021-0.022-0.029
			c-0.027-0.043-0.059-0.088-0.102-0.125c-0.023-0.03-0.051-0.042-0.08-0.066c-0.029-0.015-0.051-0.036-0.072-0.05h-0.008
			L28.854,10.4L16.98,4.08C16.869,4.027,16.751,4,16.633,4c-0.117,0-0.232,0.027-0.338,0.082l-11.91,6.341
			C4.146,10.546,4,10.794,4,11.066v12.681c0,0.271,0.146,0.519,0.385,0.644l5.649,3.002c1.229,0.762,1.868,1.504,1.796,2.09
			c-0.139,1.037-2.71,1.912-3.734,2.228c-0.808,0.271-1.044,0.712-0.943,1.271c0.08,0.438,0.467,0.896,1.23,0.896
			c0.202,0,0.432-0.031,0.688-0.104c0,0,1.308-0.283,3.313-0.793c2.773-0.769,5.197-1.691,7.278-2.648
			c-0.184-0.294-0.35-0.602-0.493-0.92C17.157,30.329,14.82,31.223,12.132,31.968z"/>
	</g>
	<g>
		<path fill="#F96311" d="M29.271,19.024c-0.332-0.142-0.681-0.253-1.035-0.348c-0.639-0.17-1.305-0.271-1.996-0.271
			c-4.286,0-7.762,3.491-7.762,7.797c0,1.143,0.252,2.225,0.69,3.203c0.144,0.319,0.31,0.626,0.493,0.92
			C21.033,32.529,23.463,34,26.24,34c4.285,0,7.76-3.491,7.76-7.797C34,22.979,32.051,20.21,29.271,19.024z M26.24,32.951
			c-2.36,0-4.432-1.227-5.631-3.075c-0.188-0.29-0.354-0.595-0.494-0.913c-0.377-0.843-0.592-1.775-0.592-2.761
			c0-3.728,3.006-6.749,6.717-6.749c0.695,0,1.367,0.105,1.996,0.304c0.361,0.112,0.705,0.261,1.035,0.429
			c2.185,1.114,3.685,3.389,3.685,6.018C32.956,29.93,29.949,32.951,26.24,32.951z"/>
	</g>
	<g>
		<g>
			<path fill="#F96311" d="M29.289,25.545h-1.264l-0.164,1.378h1.228l-0.108,1.015h-1.246l-0.182,1.461h-1.009l0.183-1.461h-1.381
				l-0.183,1.461h-1.019l0.183-1.461h-1.236l0.108-1.015h1.255l0.163-1.378h-1.227l0.107-1.014h1.246l0.189-1.525h1.01l-0.19,1.525
				h1.381l0.191-1.525h1.018l-0.19,1.525h1.236L29.289,25.545z M26.844,26.924l0.174-1.378h-1.383l-0.172,1.378H26.844z"/>
		</g>
	</g>
</g>
</svg>
