<?xml version="1.0" encoding="utf-8"?>
<!-- Generator: Adobe Illustrator 16.0.0, SVG Export Plug-In . SVG Version: 6.00 Build 0)  -->
<!DOCTYPE svg PUBLIC "-//W3C//DTD SVG 1.1//EN" "http://www.w3.org/Graphics/SVG/1.1/DTD/svg11.dtd">
<svg version="1.1" id="Layer_1" xmlns="http://www.w3.org/2000/svg" xmlns:xlink="http://www.w3.org/1999/xlink" x="0px" y="0px"
	 width="38px" height="38px" viewBox="8.869 7.402 38 38" enable-background="new 8.869 7.402 38 38" xml:space="preserve">
<g>
	<g>
		<path fill="#FFFFFF" d="M22.168,41.402L22.168,41.402c-0.854,0-1.338-0.555-1.438-1.104c-0.062-0.337-0.083-1.163,1.051-1.541
			c1.729-0.526,2.238-1.001,2.283-1.127c-0.008-0.062-0.204-0.413-1.019-0.915l-3.997-2.112c-0.354-0.181-0.577-0.549-0.577-0.958
			v-9.002c0-0.407,0.223-0.776,0.581-0.962l8.49-4.499c0.316-0.162,0.693-0.161,1.006-0.007c5.386,2.693,8.556,4.428,8.931,4.884
			l0.087,0.105l0.029,0.134c0.017,0.073,0.079,9.619-0.133,9.931c-0.149,0.238-4.377,3.841-12.26,6.506
			c-1.469,0.372-2.417,0.578-2.426,0.58C22.586,41.369,22.37,41.402,22.168,41.402z M19.609,33.613l4.001,2.117
			c1.143,0.702,1.663,1.389,1.579,2.057c-0.039,0.293-0.156,1.169-3.062,2.054c-0.307,0.102-0.293,0.172-0.279,0.254
			c0.021,0.108,0.137,0.171,0.32,0.171l0,0c0.098,0,0.211-0.018,0.335-0.053c0.043-0.01,0.975-0.213,2.379-0.566
			c6.861-2.322,10.761-5.348,11.549-5.999c0.016-1.279,0.047-7.591,0.044-8.958c-0.423-0.287-2.13-1.344-8.432-4.496l-8.435,4.48
			V33.613z"/>
	</g>
	<g>
		<defs>
			<path id="SVGID_1_" d="M22.766,29.498c0-1.404,0.497-2.604,1.49-3.598c0.994-0.993,2.193-1.49,3.599-1.49s2.604,0.497,3.598,1.49
				s1.49,2.193,1.49,3.598c0,1.406-0.496,2.604-1.49,3.599s-2.192,1.49-3.598,1.49s-2.604-0.496-3.599-1.49
				C23.263,32.103,22.766,30.905,22.766,29.498z"/>
		</defs>
		<clipPath id="SVGID_2_">
			<use href="#SVGID_1_"  overflow="visible"/>
		</clipPath>
		<g clip-path="url(#SVGID_2_)">
			<path fill="#F96311" d="M27.855,35.724c-0.821,0-1.622-0.159-2.382-0.474c-0.759-0.314-1.438-0.769-2.02-1.35
				c-0.582-0.582-1.036-1.262-1.35-2.02c-0.314-0.759-0.474-1.561-0.474-2.383s0.159-1.623,0.474-2.382
				c0.313-0.759,0.768-1.438,1.35-2.019c0.58-0.581,1.259-1.035,2.019-1.35c1.517-0.63,3.249-0.63,4.765,0
				c0.761,0.314,1.439,0.77,2.02,1.35c0.581,0.58,1.035,1.26,1.35,2.019s0.474,1.56,0.474,2.382s-0.159,1.624-0.474,2.383
				c-0.313,0.758-0.768,1.438-1.35,2.02c-0.581,0.581-1.261,1.035-2.02,1.35C29.477,35.565,28.675,35.724,27.855,35.724z
				 M27.855,25.547c-0.53,0-1.024,0.098-1.512,0.301c-0.489,0.203-0.909,0.483-1.283,0.856c-0.374,0.375-0.654,0.794-0.856,1.282
				s-0.301,0.982-0.301,1.512s0.099,1.024,0.301,1.513s0.482,0.908,0.856,1.282s0.794,0.654,1.282,0.857
				c0.979,0.404,2.046,0.404,3.025,0c0.488-0.203,0.907-0.483,1.281-0.857c0.375-0.374,0.655-0.794,0.856-1.281
				c0.203-0.489,0.302-0.984,0.302-1.514s-0.099-1.023-0.301-1.512c-0.203-0.488-0.482-0.907-0.857-1.282
				c-0.373-0.373-0.793-0.653-1.282-0.856C28.878,25.645,28.385,25.547,27.855,25.547z"/>
		</g>
	</g>
	<g>
		<path fill="#F96311" d="M28.263,30.596c-0.15,0-0.301-0.06-0.413-0.178l-2.079-2.193c-0.216-0.228-0.206-0.587,0.022-0.803
			c0.228-0.216,0.587-0.207,0.803,0.021l2.079,2.193c0.216,0.228,0.207,0.588-0.021,0.804
			C28.544,30.544,28.404,30.596,28.263,30.596z"/>
	</g>
	<g>
		<path fill="#F96311" d="M27.3,30.635c-0.146,0-0.293-0.057-0.404-0.169c-0.22-0.224-0.218-0.583,0.006-0.804l2.657-2.618
			c0.223-0.221,0.583-0.217,0.804,0.006c0.22,0.224,0.217,0.583-0.007,0.804l-2.657,2.617C27.589,30.58,27.445,30.635,27.3,30.635z"
			/>
	</g>
	<g>
		<rect x="26.775" y="22.714" fill="#F96311" width="2.159" height="1.233"/>
	</g>
	<g>
		<rect x="27.546" y="23.793" fill="#F96311" width="0.616" height="0.771"/>
	</g>
	<g>
		<path fill="#F96311" d="M16.809,23.598c-0.104,0-0.211-0.028-0.306-0.09l-3.157-2.023c-0.265-0.17-0.342-0.521-0.172-0.785
			c0.169-0.265,0.521-0.342,0.785-0.172l3.156,2.024c0.265,0.169,0.342,0.521,0.172,0.785
			C17.179,23.506,16.996,23.598,16.809,23.598z"/>
	</g>
	<g>
		<path fill="#F96311" d="M22.007,19.377c-0.163,0-0.324-0.069-0.437-0.205l-1.804-2.163c-0.2-0.242-0.168-0.601,0.073-0.801
			c0.24-0.201,0.599-0.169,0.8,0.072l1.804,2.164c0.2,0.241,0.168,0.6-0.072,0.801C22.265,19.333,22.136,19.377,22.007,19.377z"/>
	</g>
	<g>
		<path fill="#F96311" d="M27.773,16.019c-0.313,0-0.567-0.255-0.567-0.568v-3.48c0-0.314,0.254-0.568,0.567-0.568
			c0.314,0,0.568,0.254,0.568,0.568v3.48C28.341,15.764,28.087,16.019,27.773,16.019z"/>
	</g>
	<g>
		<path fill="#F96311" d="M33.717,19.136c-0.112,0-0.227-0.033-0.325-0.104c-0.257-0.18-0.319-0.534-0.139-0.791l1.503-2.141
			c0.18-0.257,0.534-0.319,0.791-0.139s0.319,0.535,0.139,0.791l-1.503,2.141C34.073,19.052,33.897,19.136,33.717,19.136z"/>
	</g>
	<g>
		<path fill="#F96311" d="M39.043,23.139c-0.205,0-0.402-0.11-0.503-0.304c-0.146-0.277-0.04-0.621,0.238-0.767l3.67-1.929
			c0.278-0.146,0.622-0.04,0.768,0.238c0.146,0.277,0.039,0.621-0.238,0.767l-3.671,1.929
			C39.222,23.118,39.132,23.139,39.043,23.139z"/>
	</g>
	<g>
		<path fill="#F96311" d="M43.136,30.407h-2.579c-0.313,0-0.567-0.255-0.567-0.568c0-0.314,0.254-0.568,0.567-0.568h2.579
			c0.313,0,0.568,0.254,0.568,0.568C43.704,30.153,43.449,30.407,43.136,30.407z"/>
	</g>
	<g>
		<path fill="#F96311" d="M14.954,30.407h-2.353c-0.313,0-0.567-0.255-0.567-0.568c0-0.314,0.254-0.568,0.567-0.568h2.353
			c0.313,0,0.568,0.254,0.568,0.568C15.523,30.153,15.268,30.407,14.954,30.407z"/>
	</g>
</g>
</svg>
