<?xml version="1.0" encoding="utf-8"?>
<!-- Generator: Adobe Illustrator 16.0.0, SVG Export Plug-In . SVG Version: 6.00 Build 0)  -->
<!DOCTYPE svg PUBLIC "-//W3C//DTD SVG 1.1//EN" "http://www.w3.org/Graphics/SVG/1.1/DTD/svg11.dtd">
<svg version="1.1" id="Layer_1" xmlns="http://www.w3.org/2000/svg" xmlns:xlink="http://www.w3.org/1999/xlink" x="0px" y="0px"
	 width="38px" height="38px" viewBox="0 0 38 38" enable-background="new 0 0 38 38" xml:space="preserve">
<g>
	<g>
		<circle fill="#FFFFFF" cx="24.907" cy="7.139" r="0.988"/>
		<circle fill="#FFFFFF" cx="27.872" cy="7.139" r="0.988"/>
		<circle fill="#FFFFFF" cx="30.837" cy="7.139" r="0.988"/>
		<path fill="#F96311" d="M27.643,25.962c-0.003,0-0.007,0-0.011,0c0,0-1.861,0-3.257,0c-0.004,0-0.008,0-0.011,0
			c-0.276,0-0.5,0.224-0.5,0.5s0.224,0.5,0.5,0.5c0,0,0,0,0,0c1.402,0,3.277,0,3.277,0h0.001c0.276,0,0.5-0.224,0.5-0.5
			S27.919,25.962,27.643,25.962z"/>
		<path fill="#F96311" d="M27.642,15.438c0,0-0.52,0.001-1.145,0.002v-1.196c-0.036-0.24-0.256-0.427-0.507-0.427
			c-0.254,0-0.456,0.191-0.487,0.438v1.187c-0.623,0.001-1.14,0.002-1.14,0.002c-0.012,0-0.02,0-0.02,0v0.005
			c-0.266,0.011-0.479,0.227-0.479,0.495c0,0.265,0.208,0.477,0.469,0.493v0.007h1.17v1.151c0.036,0.24,0.256,0.428,0.507,0.428
			c0.254,0,0.456-0.193,0.487-0.438v-1.141h1.135c0.266-0.011,0.479-0.235,0.479-0.505C28.11,15.672,27.902,15.455,27.642,15.438z"
			/>
		<g>
			<path fill-rule="evenodd" clip-rule="evenodd" fill="none" d="M4,20v-8h14.5c0.667,0,1,0.334,1,1v6c0,0.666-0.333,1-1,1H4z"/>
		</g>
		<path fill="#FFFFFF" d="M30.91,4H7.095C5.385,4,4,5.385,4,7.09V12v8v2.5v8v0.404C4,32.615,5.385,34,7.095,34H30.91
			c1.705,0,3.09-1.385,3.09-3.096V7.09C34,5.385,32.615,4,30.91,4z M5.2,13h13.3v6H5.2V13z M5.2,23.5h13.3v6H5.2V23.5z M32.8,30.904
			c0,1.046-0.85,1.896-1.89,1.896H7.095C6.05,32.8,5.2,31.95,5.2,30.904V30.5h13.3c0.607,0,1-0.393,1-1v-6c0-0.607-0.393-1-1-1H5.2
			V20h13.3c0.607,0,1-0.393,1-1v-6c0-0.607-0.393-1-1-1H5.2v-1.88h27.6V30.904z M32.8,8.92H5.2V7.09c0-1.04,0.85-1.89,1.895-1.89
			H30.91c1.04,0,1.89,0.85,1.89,1.89V8.92z"/>
		<g>
			<path fill-rule="evenodd" clip-rule="evenodd" fill="none" d="M4,30.5v-8h14.5c0.667,0,1,0.334,1,1v6c0,0.666-0.333,1-1,1H4z"/>
		</g>
		<path fill="#F96311" d="M25.987,22.499c-2.209,0-4,1.791-4,4s1.791,4,4,4s4-1.791,4-4S28.196,22.499,25.987,22.499z
			 M25.987,29.506c-1.661,0-3.007-1.346-3.007-3.007s1.346-3.007,3.007-3.007s3.007,1.346,3.007,3.007S27.647,29.506,25.987,29.506z
			"/>
	</g>
	<path fill="#F96311" d="M25.987,12.006c-2.209,0-4,1.791-4,4s1.791,4,4,4s4-1.791,4-4S28.196,12.006,25.987,12.006z M25.987,19.013
		c-1.661,0-3.007-1.347-3.007-3.007s1.346-3.007,3.007-3.007s3.007,1.347,3.007,3.007S27.647,19.013,25.987,19.013z"/>
</g>
</svg>
