<?xml version="1.0" encoding="utf-8"?>
<!-- Generator: Adobe Illustrator 16.0.0, SVG Export Plug-In . SVG Version: 6.00 Build 0)  -->
<!DOCTYPE svg PUBLIC "-//W3C//DTD SVG 1.1//EN" "http://www.w3.org/Graphics/SVG/1.1/DTD/svg11.dtd">
<svg version="1.1" id="Layer_1" xmlns="http://www.w3.org/2000/svg" xmlns:xlink="http://www.w3.org/1999/xlink" x="0px" y="0px"
	 width="38px" height="38px" viewBox="11 11 38 38" enable-background="new 11 11 38 38" xml:space="preserve">
<g>
	<g>
		<path fill="#FFFFFF" d="M44.268,15.732C43.781,15.247,43.188,15,42.5,15h-25c-0.688,0-1.282,0.247-1.768,0.732
			C15.247,16.218,15,16.813,15,17.5v25c0,0.688,0.247,1.281,0.732,1.768C16.218,44.754,16.813,45,17.5,45h25
			c0.688,0,1.281-0.246,1.768-0.732S45,43.188,45,42.5v-25C45,16.813,44.754,16.218,44.268,15.732z M16.44,16.439
			C16.735,16.144,17.082,16,17.5,16h25c0.418,0,0.765,0.144,1.061,0.439S44,17.082,44,17.5v2.25H16V17.5
			C16,17.082,16.144,16.735,16.44,16.439z M43.561,43.561C43.265,43.856,42.918,44,42.5,44h-25c-0.418,0-0.765-0.144-1.061-0.439
			C16.144,43.265,16,42.918,16,42.5V20.75h28V42.5C44,42.918,43.856,43.265,43.561,43.561z"/>
		<circle fill="#FFFFFF" cx="35.976" cy="18" r="1"/>
		<circle fill="#FFFFFF" cx="38.976" cy="18" r="1"/>
		<circle fill="#FFFFFF" cx="41.976" cy="18" r="1"/>
	</g>
	<g>
		<polygon fill="#F96311" points="25.311,36.662 20.793,32.095 25.315,27.622 26.018,28.333 22.207,32.103 26.022,35.959 		"/>
	</g>
	<g>
		<polygon fill="#F96311" points="35.189,36.662 34.479,35.959 38.293,32.103 34.482,28.333 35.186,27.622 39.707,32.095 		"/>
	</g>
	<g>
		
			<rect x="29.795" y="25.262" transform="matrix(0.8944 0.4472 -0.4472 0.8944 17.621 -10.1437)" fill="#F96311" width="1" height="13.975"/>
	</g>
</g>
</svg>
