<?xml version="1.0" encoding="utf-8"?>
<!-- Generator: Adobe Illustrator 16.0.0, SVG Export Plug-In . SVG Version: 6.00 Build 0)  -->
<!DOCTYPE svg PUBLIC "-//W3C//DTD SVG 1.1//EN" "http://www.w3.org/Graphics/SVG/1.1/DTD/svg11.dtd">
<svg version="1.1" id="Layer_1" xmlns="http://www.w3.org/2000/svg" xmlns:xlink="http://www.w3.org/1999/xlink" x="0px" y="0px"
	 width="38px" height="38px" viewBox="11 11 38 38" enable-background="new 11 11 38 38" xml:space="preserve">
<g>
	<g>
		<path fill="#FFFFFF" d="M42.5,45h-25c-0.687,0-1.282-0.246-1.768-0.732C15.246,43.781,15,43.188,15,42.5v-25
			c0-0.688,0.246-1.282,0.732-1.768C16.218,15.247,16.813,15,17.5,15h25c0.688,0,1.282,0.247,1.768,0.732
			C44.754,16.218,45,16.813,45,17.5v25c0,0.688-0.246,1.281-0.732,1.768C43.782,44.754,43.188,45,42.5,45z M17.5,16
			c-0.418,0-0.765,0.144-1.061,0.439C16.144,16.735,16,17.082,16,17.5v25c0,0.418,0.144,0.765,0.439,1.061
			C16.735,43.856,17.082,44,17.5,44h25c0.418,0,0.766-0.144,1.061-0.439C43.856,43.265,44,42.918,44,42.5v-25
			c0-0.418-0.144-0.765-0.439-1.061C43.266,16.144,42.918,16,42.5,16H17.5z"/>
	</g>
	<g>
		<path fill="#F96311" d="M30.963,22.5H23c-0.276,0-0.5-0.224-0.5-0.5s0.224-0.5,0.5-0.5h7.963c0.276,0,0.5,0.224,0.5,0.5
			S31.239,22.5,30.963,22.5z"/>
	</g>
	<g>
		<path fill="#F96311" d="M37,22.5h-3.963c-0.276,0-0.5-0.224-0.5-0.5s0.224-0.5,0.5-0.5H37c0.276,0,0.5,0.224,0.5,0.5
			S37.276,22.5,37,22.5z"/>
	</g>
	<g>
		<path fill="#F96311" d="M37,24.987H23c-0.276,0-0.5-0.224-0.5-0.5s0.224-0.5,0.5-0.5h14c0.276,0,0.5,0.224,0.5,0.5
			S37.276,24.987,37,24.987z"/>
	</g>
	<g>
		<path fill="#F96311" d="M26.963,27.5h-3.952c-0.276,0-0.5-0.224-0.5-0.5s0.224-0.5,0.5-0.5h3.952c0.276,0,0.5,0.224,0.5,0.5
			S27.239,27.5,26.963,27.5z"/>
	</g>
	<g>
		<path fill="#F96311" d="M32.985,27.5h-3.952c-0.276,0-0.5-0.224-0.5-0.5s0.224-0.5,0.5-0.5h3.952c0.276,0,0.5,0.224,0.5,0.5
			S33.262,27.5,32.985,27.5z"/>
	</g>
	<g>
		<path fill="#F96311" d="M37,27.5h-2c-0.276,0-0.5-0.224-0.5-0.5s0.224-0.5,0.5-0.5h2c0.276,0,0.5,0.224,0.5,0.5
			S37.276,27.5,37,27.5z"/>
	</g>
	<g>
		<path fill="#F96311" d="M36.963,38.453H29c-0.276,0-0.5-0.223-0.5-0.5c0-0.275,0.224-0.5,0.5-0.5h7.963c0.276,0,0.5,0.225,0.5,0.5
			C37.463,38.23,37.239,38.453,36.963,38.453z"/>
	</g>
	<g>
		<path fill="#F96311" d="M26.926,38.453h-3.963c-0.276,0-0.5-0.223-0.5-0.5c0-0.275,0.224-0.5,0.5-0.5h3.963
			c0.276,0,0.5,0.225,0.5,0.5C27.426,38.23,27.202,38.453,26.926,38.453z"/>
	</g>
	<g>
		<path fill="#F96311" d="M36.963,35.967h-14c-0.276,0-0.5-0.224-0.5-0.5s0.224-0.5,0.5-0.5h14c0.276,0,0.5,0.224,0.5,0.5
			S37.239,35.967,36.963,35.967z"/>
	</g>
	<g>
		<path fill="#F96311" d="M36.952,33.453H33c-0.276,0-0.5-0.223-0.5-0.5c0-0.275,0.224-0.5,0.5-0.5h3.952c0.276,0,0.5,0.225,0.5,0.5
			C37.452,33.23,37.229,33.453,36.952,33.453z"/>
	</g>
	<g>
		<path fill="#F96311" d="M30.93,33.453h-3.952c-0.276,0-0.5-0.223-0.5-0.5c0-0.275,0.224-0.5,0.5-0.5h3.952
			c0.276,0,0.5,0.225,0.5,0.5C31.43,33.23,31.206,33.453,30.93,33.453z"/>
	</g>
	<g>
		<path fill="#F96311" d="M24.963,33.453h-2c-0.276,0-0.5-0.223-0.5-0.5c0-0.275,0.224-0.5,0.5-0.5h2c0.276,0,0.5,0.225,0.5,0.5
			C25.463,33.23,25.239,33.453,24.963,33.453z"/>
	</g>
</g>
</svg>
