<?xml version="1.0" encoding="utf-8"?>
<!-- Generator: Adobe Illustrator 16.0.0, SVG Export Plug-In . SVG Version: 6.00 Build 0)  -->
<!DOCTYPE svg PUBLIC "-//W3C//DTD SVG 1.1//EN" "http://www.w3.org/Graphics/SVG/1.1/DTD/svg11.dtd">
<svg version="1.1" id="Layer_1" xmlns="http://www.w3.org/2000/svg" xmlns:xlink="http://www.w3.org/1999/xlink" x="0px" y="0px"
	 width="38px" height="38px" viewBox="10.999 11.748 38 38" enable-background="new 10.999 11.748 38 38" xml:space="preserve">
<g>
	<path fill="#FFFFFF" d="M41.328,16.707h-3.21v0.016c-0.13-0.011-0.261-0.018-0.394-0.018h-3.773c0,0-5.205-0.031-9.73-0.031
		c-2.263,0-4.356,0.008-5.545,0.031c-3.565,0.071-4.171,1.831-4.119,3.681c0.052,1.849,0,16.256,0,16.256v5.427
		c0,2.031,1.843,3.68,4.119,3.68h19.049c0.133,0,0.264-0.006,0.394-0.018v0.018h3.21c2.273,0,4.116-1.648,4.116-3.679V20.386
		C45.444,18.356,43.602,16.707,41.328,16.707z M37.725,44.719H36.22c-0.477,0.324-1.045,0.515-1.656,0.515h-16.45
		c-1.677,0-3.042-1.42-3.042-3.165v-5.427c0.002-0.587,0.044-14.434,0-16.269c-0.027-1.115,0.179-1.863,0.648-2.355
		c0.48-0.504,1.289-0.771,2.406-0.797c0.904-0.021,2.511-0.032,4.776-0.032c3.862,0,8.354,0.032,8.399,0.032h0.001h0.002h3.259
		c0.611,0,1.18,0.19,1.656,0.515h1.505c0.134,0,0.265,0.01,0.394,0.023l0,0c0.367,0.041,0.714,0.136,1.029,0.277l0,0
		c0.987,0.442,1.663,1.328,1.663,2.35v6.111v15.572c0,1.021-0.676,1.906-1.663,2.35l0,0c-0.315,0.142-0.662,0.236-1.029,0.276l0,0
		C37.989,44.709,37.858,44.719,37.725,44.719z M44.415,42.069c0,1.461-1.385,2.649-3.087,2.649h-0.753
		c0.778-0.67,1.266-1.608,1.266-2.65V26.497v-6.111c0-1.041-0.486-1.979-1.264-2.648h0.751c1.702,0,3.087,1.188,3.087,2.649V42.069z
		"/>
	<g>
		<path fill="#F96311" d="M34.563,45.748h-16.45c-1.966,0-3.558-1.648-3.558-3.68v-5.427c0,0,0.045-14.408,0-16.256
			c-0.044-1.85,0.479-3.609,3.558-3.681c1.026-0.023,2.833-0.031,4.789-0.031c3.908,0,8.402,0.031,8.402,0.031h3.259
			c1.964,0,3.555,1.649,3.555,3.681v6.111v15.572C38.118,44.1,36.527,45.748,34.563,45.748z M34.563,44.719
			c1.393,0,2.524-1.188,2.524-2.65V26.497v-6.111c0-1.462-1.132-2.65-2.524-2.65h-3.259h-0.003h-0.004
			c-0.045,0-4.536-0.032-8.396-0.032c-2.262,0-3.865,0.011-4.765,0.032c-0.975,0.021-1.663,0.236-2.045,0.638
			c-0.369,0.387-0.53,1.019-0.507,1.987c0.045,1.841,0.002,15.671,0,16.284v5.425c0,1.462,1.134,2.65,2.528,2.65H34.563"/>
	</g>
	<g>
		<path fill="#FFFFFF" d="M33.501,32.709H18.98c-0.285,0-0.515-0.23-0.515-0.516c0-0.284,0.23-0.515,0.515-0.515h14.521
			c0.284,0,0.515,0.23,0.515,0.515C34.016,32.479,33.785,32.709,33.501,32.709z"/>
	</g>
	<g>
		<path fill="#FFFFFF" d="M27.146,28.187h-8.15c-0.285,0-0.515-0.23-0.515-0.515c0-0.285,0.23-0.516,0.515-0.516h8.15
			c0.285,0,0.515,0.23,0.515,0.516C27.662,27.957,27.431,28.187,27.146,28.187z"/>
	</g>
	<g>
		<path fill="#FFFFFF" d="M27.146,23.666h-8.15c-0.285,0-0.515-0.23-0.515-0.515s0.23-0.515,0.515-0.515h8.15
			c0.285,0,0.515,0.23,0.515,0.515S27.431,23.666,27.146,23.666z"/>
	</g>
	<g>
		<path fill="#FFFFFF" d="M33.451,37.193H18.93c-0.285,0-0.515-0.229-0.515-0.515c0-0.284,0.23-0.515,0.515-0.515h14.521
			c0.284,0,0.515,0.23,0.515,0.515C33.966,36.964,33.735,37.193,33.451,37.193z"/>
	</g>
	<g>
		<path fill="#FFFFFF" d="M29.743,41.591H18.93c-0.285,0-0.515-0.23-0.515-0.515c0-0.285,0.23-0.516,0.515-0.516h10.813
			c0.285,0,0.515,0.23,0.515,0.516C30.257,41.36,30.027,41.591,29.743,41.591z"/>
	</g>
	<g>
		<path fill="#F96311" d="M32.061,30.14c-1.46,0-2.318-1.165-2.394-1.868c-0.063-0.564-0.014-8.568,0.009-9.033
			c0.021-0.387,0.2-0.739,0.504-0.998c0.313-0.267,0.722-0.396,1.122-0.353c0.854,0.09,1.38,0.663,1.446,1.572
			c0.056,0.749,0.017,5.528,0.015,5.731l-1.029-0.009c0.014-1.705,0.029-5.08-0.013-5.646c-0.034-0.477-0.235-0.594-0.526-0.624
			c-0.117-0.014-0.25,0.028-0.348,0.112c-0.05,0.043-0.136,0.134-0.143,0.267c-0.03,0.61-0.06,8.428-0.014,8.868
			c0.02,0.189,0.479,1.032,1.525,0.944c1.029-0.091,1.301-0.81,1.315-1.055c0.024-0.438,0-7.221-0.015-9.137
			c-0.011-1.272-0.739-1.986-2.164-2.122c-1.16-0.112-2.025,0.531-2.142,0.705l-0.919-0.462c0.252-0.525,1.559-1.423,3.16-1.268
			c1.951,0.186,3.079,1.329,3.096,3.138c0.011,1.437,0.041,8.688,0.012,9.205c-0.04,0.708-0.688,1.884-2.253,2.021
			C32.223,30.137,32.141,30.14,32.061,30.14z"/>
	</g>
</g>
</svg>
