<?xml version="1.0" encoding="utf-8"?>
<!-- Generator: Adobe Illustrator 16.0.0, SVG Export Plug-In . SVG Version: 6.00 Build 0)  -->
<!DOCTYPE svg PUBLIC "-//W3C//DTD SVG 1.1//EN" "http://www.w3.org/Graphics/SVG/1.1/DTD/svg11.dtd">
<svg version="1.1" id="Layer_1" xmlns="http://www.w3.org/2000/svg" xmlns:xlink="http://www.w3.org/1999/xlink" x="0px" y="0px"
	 width="38px" height="38px" viewBox="0 0 38 38" enable-background="new 0 0 38 38" xml:space="preserve">
<g>
	<path fill="#FFFFFF" d="M33.268,4.732C32.781,4.247,32.188,4,31.5,4h-25C5.813,4,5.218,4.247,4.731,4.732
		C4.246,5.218,4,5.813,4,6.5v25c0,0.687,0.246,1.281,0.731,1.768C5.218,33.753,5.813,34,6.5,34h25c0.688,0,1.281-0.247,1.768-0.732
		S34,32.187,34,31.5v-25C34,5.813,33.754,5.218,33.268,4.732z M5.439,5.439C5.735,5.144,6.082,5,6.5,5h25
		c0.418,0,0.766,0.144,1.061,0.44C32.856,5.734,33,6.082,33,6.5v2.25H5V6.5C5,6.082,5.144,5.734,5.439,5.439z M32.561,32.561
		C32.266,32.856,31.918,33,31.5,33h-25c-0.418,0-0.765-0.144-1.061-0.439S5,31.918,5,31.5V9.75h28V31.5
		C33,31.918,32.856,32.265,32.561,32.561z"/>
	<g>
		<circle fill="#FFFFFF" cx="24.976" cy="7" r="1"/>
	</g>
	<g>
		<circle fill="#FFFFFF" cx="27.976" cy="7" r="1"/>
	</g>
	<g>
		<circle fill="#FFFFFF" cx="30.976" cy="7" r="1"/>
	</g>
	<path fill="#F96311" d="M28.496,20.836c-0.147-0.949-1.299-6.779-7.483-7.947v-1.432h-3.986v1.457
		c-6.072,1.218-7.217,6.967-7.365,7.919C8.729,20.933,8,21.713,8,22.672c0,1.027,0.833,1.86,1.86,1.86s1.859-0.833,1.859-1.86
		c0-0.744-0.44-1.382-1.072-1.679c0.1-0.735,0.992-5.858,6.379-7.057v1.506h3.986v-1.531c5.451,1.142,6.383,6.267,6.495,7.066
		c-0.648,0.291-1.102,0.938-1.102,1.694c0,1.027,0.833,1.86,1.86,1.86c1.026,0,1.86-0.833,1.86-1.86
		C30.127,21.724,29.414,20.95,28.496,20.836z M9.86,23.532c-0.475,0-0.86-0.386-0.86-0.86c0-0.474,0.386-0.859,0.86-0.859
		c0.474,0,0.859,0.386,0.859,0.859C10.72,23.146,10.334,23.532,9.86,23.532z M20.013,14.442h-1.985v-1.985h1.985V14.442z
		 M28.267,23.532c-0.475,0-0.86-0.386-0.86-0.86c0-0.474,0.386-0.859,0.86-0.859c0.474,0,0.86,0.386,0.86,0.859
		C29.127,23.146,28.74,23.532,28.267,23.532z"/>
	<g>
		<path fill="#FFFFFF" d="M19,16.157c-0.275,0-0.5,0.224-0.5,0.501v1.933c0,0.276,0.225,0.5,0.5,0.5s0.5-0.224,0.5-0.5v-1.933
			C19.5,16.381,19.275,16.157,19,16.157z"/>
		<path fill="#FFFFFF" d="M22,21.691h-0.867l1.119-3.568c0.051-0.16,0.018-0.334-0.089-0.465l-2.718-3.341
			c-0.094-0.116-0.234-0.184-0.383-0.186c-0.137-0.004-0.29,0.063-0.387,0.178l-2.832,3.341c-0.115,0.136-0.149,0.322-0.091,0.489
			l1.252,3.552H16c-0.276,0-0.5,0.224-0.5,0.5v1.9c0,0.275,0.224,0.499,0.5,0.499h0.973l-0.76,5.473
			c-0.021,0.144,0.022,0.288,0.118,0.397s0.232,0.172,0.377,0.172h4.673c0.144,0,0.28-0.063,0.375-0.17
			c0.096-0.108,0.139-0.251,0.121-0.394l-0.697-5.479H22c0.276,0,0.5-0.224,0.5-0.499v-1.9C22.5,21.915,22.276,21.691,22,21.691z
			 M16.792,18.078l2.257-2.663l2.168,2.665l-1.133,3.611h-2.019L16.792,18.078z M20.813,29.633h-3.531l0.7-5.036
			c0-0.002-0.001-0.004-0.001-0.006h2.19L20.813,29.633z M21.5,23.591h-5v-0.899h5V23.591z"/>
	</g>
</g>
</svg>
