<?xml version="1.0" encoding="utf-8"?>
<!-- Generator: Adobe Illustrator 16.0.0, SVG Export Plug-In . SVG Version: 6.00 Build 0)  -->
<!DOCTYPE svg PUBLIC "-//W3C//DTD SVG 1.1//EN" "http://www.w3.org/Graphics/SVG/1.1/DTD/svg11.dtd">
<svg version="1.1" id="Layer_1" xmlns="http://www.w3.org/2000/svg" xmlns:xlink="http://www.w3.org/1999/xlink" x="0px" y="0px"
	 width="38px" height="38px" viewBox="11 11 38 38" enable-background="new 11 11 38 38" xml:space="preserve">
<g>
	<g>
		<path fill="#FFFFFF" d="M42.5,45h-25c-0.687,0-1.282-0.246-1.768-0.732C15.246,43.781,15,43.188,15,42.5v-25
			c0-0.688,0.246-1.282,0.732-1.768C16.218,15.247,16.813,15,17.5,15h25c0.688,0,1.282,0.247,1.768,0.732
			C44.754,16.218,45,16.813,45,17.5v25c0,0.688-0.246,1.281-0.732,1.768C43.782,44.754,43.188,45,42.5,45z M17.5,16
			c-0.418,0-0.765,0.144-1.061,0.439C16.144,16.735,16,17.082,16,17.5v25c0,0.418,0.144,0.765,0.439,1.061
			C16.735,43.856,17.082,44,17.5,44h25c0.418,0,0.766-0.144,1.061-0.439C43.856,43.265,44,42.918,44,42.5v-25
			c0-0.418-0.144-0.765-0.439-1.061C43.266,16.144,42.918,16,42.5,16H17.5z"/>
	</g>
	<g>
		<path fill="#FFFFFF" d="M30.963,20H23c-0.276,0-0.5-0.224-0.5-0.5S22.724,19,23,19h7.963c0.276,0,0.5,0.224,0.5,0.5
			S31.239,20,30.963,20z"/>
	</g>
	<g>
		<path fill="#FFFFFF" d="M37,20h-3.963c-0.276,0-0.5-0.224-0.5-0.5s0.224-0.5,0.5-0.5H37c0.276,0,0.5,0.224,0.5,0.5
			S37.276,20,37,20z"/>
	</g>
	<g>
		<path fill="#FFFFFF" d="M37,22.487H23c-0.276,0-0.5-0.224-0.5-0.5s0.224-0.5,0.5-0.5h14c0.276,0,0.5,0.224,0.5,0.5
			S37.276,22.487,37,22.487z"/>
	</g>
	<g>
		<path fill="#FFFFFF" d="M26.963,25h-3.952c-0.276,0-0.5-0.224-0.5-0.5s0.224-0.5,0.5-0.5h3.952c0.276,0,0.5,0.224,0.5,0.5
			S27.239,25,26.963,25z"/>
	</g>
	<g>
		<path fill="#FFFFFF" d="M32.985,25h-3.952c-0.276,0-0.5-0.224-0.5-0.5s0.224-0.5,0.5-0.5h3.952c0.276,0,0.5,0.224,0.5,0.5
			S33.262,25,32.985,25z"/>
	</g>
	<g>
		<path fill="#FFFFFF" d="M37,25h-2c-0.276,0-0.5-0.224-0.5-0.5S34.724,24,35,24h2c0.276,0,0.5,0.224,0.5,0.5S37.276,25,37,25z"/>
	</g>
	<g>
		<path fill="#F96311" d="M30,42.5c-0.989,0-1.955-0.191-2.87-0.57s-1.733-0.927-2.433-1.627c-0.7-0.699-1.247-1.518-1.626-2.433
			C22.692,36.955,22.5,35.99,22.5,35s0.192-1.955,0.571-2.87c0.379-0.915,0.926-1.733,1.626-2.433
			c0.699-0.7,1.518-1.248,2.433-1.626c1.829-0.758,3.911-0.758,5.74,0c0.915,0.378,1.733,0.926,2.433,1.626
			c0.7,0.699,1.247,1.518,1.626,2.433S37.5,34.01,37.5,35s-0.192,1.955-0.571,2.87s-0.926,1.733-1.626,2.433
			c-0.699,0.7-1.518,1.248-2.433,1.627S30.989,42.5,30,42.5z M30,28.5c-0.857,0-1.694,0.166-2.487,0.494
			c-0.793,0.329-1.503,0.803-2.108,1.41c-0.607,0.605-1.081,1.315-1.41,2.108C23.667,33.305,23.5,34.143,23.5,35
			s0.167,1.695,0.495,2.487c0.329,0.794,0.803,1.503,1.41,2.108c0.605,0.607,1.315,1.081,2.108,1.41
			c1.585,0.656,3.389,0.656,4.975,0c0.793-0.329,1.503-0.803,2.108-1.41c0.606-0.605,1.081-1.314,1.409-2.108
			C36.334,36.695,36.5,35.857,36.5,35s-0.166-1.695-0.495-2.487c-0.328-0.793-0.802-1.503-1.409-2.108
			c-0.605-0.607-1.315-1.081-2.108-1.41C31.694,28.666,30.857,28.5,30,28.5z"/>
	</g>
	<g>
		<path fill="#FFFFFF" d="M27.475,40c-0.257,0-0.387-0.152-0.414-0.301c-0.033-0.186,0.045-0.334,0.316-0.424
			c0.346-0.105,1.21-0.398,1.257-0.745c0.024-0.196-0.19-0.445-0.604-0.7l-1.899-1.005C26.049,36.784,26,36.701,26,36.61v-4.245
			c0-0.091,0.049-0.174,0.13-0.215l4.005-2.123C30.171,30.009,30.21,30,30.249,30c0.04,0,0.079,0.009,0.116,0.027l3.993,2.115
			l0.012,0.008h0.003c0.007,0.004,0.015,0.012,0.024,0.017c0.01,0.007,0.02,0.012,0.026,0.022c0.016,0.012,0.025,0.027,0.035,0.041
			c0.002,0.002,0.004,0.006,0.007,0.01c0.01,0.016,0.017,0.031,0.022,0.051c0,0.003,0.002,0.006,0.004,0.008
			c0.006,0.021,0.008,0.044,0.008,0.066v4.245c0,0.022-0.002,0.044-0.008,0.065c-0.002,0.003-0.004,0.006-0.004,0.008
			c-0.006,0.02-0.013,0.037-0.022,0.051c-0.024,0.039-1.883,1.928-5.646,2.965c-0.676,0.171-1.115,0.266-1.115,0.266
			C27.619,39.989,27.543,40,27.475,40z M29.633,38.396c2.094-0.743,3.378-1.713,3.867-2.129V32.82l-3.25-1.723L27,32.82v3.334
			l1.497,0.792l0.029,0.015l0.028,0.018C29.233,37.398,29.596,37.873,29.633,38.396"/>
	</g>
	<g>
		<path fill="#FFFFFF" d="M31.75,34.099h-3.418c-0.275,0-0.5-0.224-0.5-0.5s0.225-0.5,0.5-0.5h3.418c0.276,0,0.5,0.224,0.5,0.5
			S32.026,34.099,31.75,34.099z"/>
	</g>
	<g>
		<path fill="#707070" d="M30.225,35.758h-1.893c-0.275,0-0.5-0.223-0.5-0.5c0-0.275,0.225-0.5,0.5-0.5h1.893
			c0.275,0,0.5,0.225,0.5,0.5C30.725,35.535,30.5,35.758,30.225,35.758z"/>
	</g>
	<g>
		<rect x="23" y="34.75" fill="#F96311" width="13.805" height="1"/>
	</g>
</g>
</svg>
