<?xml version="1.0" encoding="utf-8"?>
<!-- Generator: Adobe Illustrator 16.0.0, SVG Export Plug-In . SVG Version: 6.00 Build 0)  -->
<!DOCTYPE svg PUBLIC "-//W3C//DTD SVG 1.1//EN" "http://www.w3.org/Graphics/SVG/1.1/DTD/svg11.dtd">
<svg version="1.1" id="Layer_1" xmlns="http://www.w3.org/2000/svg" xmlns:xlink="http://www.w3.org/1999/xlink" x="0px" y="0px"
	 width="38px" height="38px" viewBox="0 0 38 38" enable-background="new 0 0 38 38" xml:space="preserve">
<g>
	<g>
		<path fill="#F96311" d="M19,34c-8.271,0-15-6.729-15-15c0-8.271,6.729-15,15-15c8.271,0,15,6.729,15,15C34,27.271,27.271,34,19,34
			z M19,4.968C11.263,4.968,4.968,11.263,4.968,19S11.263,33.032,19,33.032S33.032,26.737,33.032,19S26.737,4.968,19,4.968z"/>
	</g>
	<g>
		<path fill="#FFFFFF" d="M21.049,12.922c0.623,0,2.415,0,2.415,0v-2.876c0,0-1.521,0-3.283,0c-1.764,0-3.284,1.655-3.284,3.066
			c0,0.416,0,1.87,0,3.717h-2.36v3.257h2.36c0,3.865,0,7.869,0,7.869h3.256c0,0,0-4.138,0-7.869h3.12l0.19-3.257h-3.311
			c0-1.403,0-2.415,0-2.577C20.153,13.628,20.425,12.922,21.049,12.922z"/>
	</g>
</g>
</svg>
