<?xml version="1.0" encoding="utf-8"?>
<!-- Generator: Adobe Illustrator 16.0.0, SVG Export Plug-In . SVG Version: 6.00 Build 0)  -->
<!DOCTYPE svg PUBLIC "-//W3C//DTD SVG 1.1//EN" "http://www.w3.org/Graphics/SVG/1.1/DTD/svg11.dtd">
<svg version="1.1" id="Layer_1" xmlns="http://www.w3.org/2000/svg" xmlns:xlink="http://www.w3.org/1999/xlink" x="0px" y="0px"
	 width="38px" height="38px" viewBox="11 6 38 38" enable-background="new 11 6 38 38" xml:space="preserve">
<g>
	<g>
		<g>
			<path fill="#FFFFFF" d="M42.812,31.848c-0.32,0.288-0.688,0.515-1.104,0.679c-0.416,0.163-0.825,0.245-1.225,0.245
				c-0.527,0-1.02-0.153-1.476-0.461c-0.456-0.309-0.845-0.743-1.164-1.303c-0.832,0-1.588-0.191-2.268-0.575
				c-0.681-0.385-1.217-0.906-1.608-1.566c-0.393-0.66-0.588-1.39-0.588-2.189c0-0.801,0.195-1.528,0.588-2.185
				c0.392-0.656,0.93-1.172,1.614-1.548c0.684-0.376,1.441-0.564,2.273-0.564s1.59,0.188,2.274,0.564
				c0.684,0.376,1.222,0.892,1.613,1.548c0.393,0.656,0.589,1.384,0.589,2.185c0,0.623-0.122,1.21-0.366,1.758
				c-0.245,0.548-0.586,1.021-1.026,1.422s-0.948,0.7-1.523,0.899c0.424,0.448,0.844,0.673,1.26,0.673
				c0.432,0,0.936-0.225,1.512-0.673L42.812,31.848z M35.413,28.128c0.261,0.44,0.608,0.788,1.045,1.044
				c0.436,0.256,0.909,0.385,1.422,0.385c0.504,0,0.972-0.129,1.403-0.385c0.433-0.256,0.774-0.604,1.026-1.044
				c0.252-0.439,0.378-0.924,0.378-1.451c0-0.529-0.126-1.011-0.378-1.446c-0.252-0.437-0.594-0.78-1.026-1.032
				c-0.432-0.252-0.899-0.378-1.403-0.378c-0.513,0-0.988,0.126-1.428,0.378c-0.44,0.252-0.788,0.596-1.045,1.032
				c-0.256,0.436-0.384,0.917-0.384,1.446C35.023,27.204,35.154,27.688,35.413,28.128z"/>
		</g>
	</g>
	<g>
		<path fill="#FFFFFF" d="M47.694,21.454l-9.464-5.015c-0.084-0.043-0.176-0.064-0.27-0.064c-0.093,0-0.188,0.021-0.274,0.064
			l-6.205,3.287v1.358l6.477-3.432l8.842,4.686v9.276l-4.156,2.198l-0.035,0.019l-0.033,0.021c-1.442,0.89-2.111,1.839-1.988,2.824
			l0.001,0.005l0.001,0.005c0.051,0.386,0.221,0.873,0.877,1.395c-3.358-0.945-6.545-2.339-9.227-4.036
			c-1.684-1.065-2.705-1.951-3.121-2.339v-4.221c-0.299,0.208-0.614,0.423-0.965,0.646c-0.072,0.047-0.159,0.098-0.235,0.146v3.715
			c0,0.053,0.006,0.105,0.018,0.156c0.006,0.007,0.012,0.012,0.012,0.018c0.012,0.047,0.027,0.087,0.051,0.12
			c0.059,0.094,4.449,4.555,13.339,7.006c1.595,0.402,2.634,0.627,2.634,0.627C44.175,39.976,44.355,40,44.516,40
			c0.608,0,0.915-0.361,0.979-0.709c0.08-0.44-0.106-0.789-0.748-1.003c-0.814-0.248-2.858-0.94-2.968-1.761
			c-0.059-0.463,0.45-1.052,1.427-1.653l4.489-2.374C47.885,32.402,48,32.206,48,31.991V21.962
			C48,21.748,47.885,21.552,47.694,21.454z"/>
	</g>
	<g>
		<path fill="#F96311" d="M15.484,33.626c-0.607,0-0.915-0.362-0.978-0.71c-0.08-0.44,0.107-0.789,0.749-1.003
			c0.814-0.247,2.858-0.94,2.968-1.761c0.058-0.463-0.451-1.051-1.427-1.653l-4.49-2.374C12.115,26.027,12,25.831,12,25.617V15.588
			c0-0.215,0.115-0.411,0.306-0.509l9.464-5.015C21.854,10.021,21.945,10,22.039,10c0.093,0,0.188,0.021,0.274,0.064l9.434,4.998
			l0.029,0.017h0.006c0.017,0.012,0.034,0.028,0.057,0.041c0.023,0.018,0.047,0.028,0.064,0.051
			c0.034,0.029,0.058,0.064,0.081,0.099c0.006,0.006,0.012,0.012,0.018,0.023c0.023,0.036,0.039,0.075,0.051,0.121
			c0,0.006,0.006,0.012,0.012,0.018c0.012,0.052,0.018,0.104,0.018,0.156v10.029c0,0.052-0.006,0.104-0.018,0.155
			c-0.006,0.007-0.012,0.012-0.012,0.018c-0.012,0.047-0.027,0.088-0.051,0.121c-0.059,0.093-4.449,4.554-13.339,7.005
			c-1.595,0.402-2.634,0.627-2.634,0.627C15.826,33.601,15.645,33.626,15.484,33.626z M18.534,31.707
			c3.358-0.945,6.545-2.34,9.227-4.037c1.684-1.065,2.705-1.951,3.121-2.338v-9.37l-8.84-4.684L13.2,15.964v9.276l4.156,2.198
			l0.035,0.019l0.034,0.021c1.442,0.89,2.111,1.84,1.988,2.824l-0.001,0.005l-0.001,0.006C19.36,30.697,19.19,31.186,18.534,31.707"
			/>
	</g>
	<g>
		<g>
			<path fill="#F96311" d="M24.938,23.883l-0.707-1.687h-3.898l-0.707,1.687h-1.584l3.499-7.98h1.585l3.454,7.98H24.938z
				 M20.879,20.884h2.805l-1.391-3.352L20.879,20.884z"/>
		</g>
	</g>
</g>
</svg>
