<?xml version="1.0" encoding="utf-8"?>
<!-- Generator: Adobe Illustrator 16.0.0, SVG Export Plug-In . SVG Version: 6.00 Build 0)  -->
<!DOCTYPE svg PUBLIC "-//W3C//DTD SVG 1.1//EN" "http://www.w3.org/Graphics/SVG/1.1/DTD/svg11.dtd">
<svg version="1.1" id="Layer_1" xmlns="http://www.w3.org/2000/svg" xmlns:xlink="http://www.w3.org/1999/xlink" x="0px" y="0px"
	 width="38px" height="38px" viewBox="11 11 38 38" enable-background="new 11 11 38 38" xml:space="preserve">
<g>
	<g>
		<path fill="#FFFFFF" d="M42.5,45h-25c-0.688,0-1.282-0.246-1.768-0.732C15.246,43.781,15,43.188,15,42.5v-25
			c0-0.688,0.246-1.282,0.732-1.768C16.218,15.247,16.813,15,17.5,15h25c0.688,0,1.282,0.247,1.768,0.732
			C44.754,16.218,45,16.813,45,17.5v25c0,0.688-0.246,1.281-0.732,1.768C43.782,44.754,43.188,45,42.5,45z M17.5,16
			c-0.418,0-0.766,0.144-1.061,0.439C16.144,16.735,16,17.082,16,17.5v25c0,0.418,0.144,0.765,0.439,1.061
			C16.734,43.856,17.082,44,17.5,44h25c0.418,0,0.766-0.144,1.061-0.439C43.856,43.265,44,42.918,44,42.5v-25
			c0-0.418-0.144-0.765-0.439-1.061C43.266,16.144,42.918,16,42.5,16H17.5z"/>
	</g>
	<g>
		<path fill="#FFFFFF" d="M30.963,20H23c-0.276,0-0.5-0.224-0.5-0.5S22.724,19,23,19h7.963c0.276,0,0.5,0.224,0.5,0.5
			S31.239,20,30.963,20z"/>
	</g>
	<g>
		<path fill="#FFFFFF" d="M37,20h-3.963c-0.276,0-0.5-0.224-0.5-0.5s0.224-0.5,0.5-0.5H37c0.276,0,0.5,0.224,0.5,0.5
			S37.276,20,37,20z"/>
	</g>
	<g>
		<path fill="#FFFFFF" d="M37,22.487H23c-0.276,0-0.5-0.224-0.5-0.5s0.224-0.5,0.5-0.5h14c0.276,0,0.5,0.224,0.5,0.5
			S37.276,22.487,37,22.487z"/>
	</g>
	<g>
		<path fill="#FFFFFF" d="M26.963,25h-3.952c-0.276,0-0.5-0.224-0.5-0.5s0.224-0.5,0.5-0.5h3.952c0.276,0,0.5,0.224,0.5,0.5
			S27.239,25,26.963,25z"/>
	</g>
	<g>
		<path fill="#FFFFFF" d="M32.985,25h-3.952c-0.276,0-0.5-0.224-0.5-0.5s0.224-0.5,0.5-0.5h3.952c0.276,0,0.5,0.224,0.5,0.5
			S33.262,25,32.985,25z"/>
	</g>
	<g>
		<path fill="#FFFFFF" d="M37,25h-2c-0.276,0-0.5-0.224-0.5-0.5S34.724,24,35,24h2c0.276,0,0.5,0.224,0.5,0.5S37.276,25,37,25z"/>
	</g>
	<g>
		<path fill="#F96311" d="M24.043,40.989c-0.562,0-1.048-0.202-1.445-0.599C22.201,39.994,22,39.508,22,38.946v-4.113
			c0-0.562,0.201-1.048,0.599-1.444c0.396-0.396,0.882-0.598,1.444-0.598c0.561,0,1.047,0.201,1.443,0.598
			c0.397,0.396,0.599,0.883,0.599,1.444v4.113c0,0.562-0.201,1.048-0.599,1.444C25.09,40.788,24.604,40.989,24.043,40.989z
			 M24.043,33.791c-0.295,0-0.529,0.097-0.737,0.305C23.098,34.305,23,34.539,23,34.833v4.113c0,0.294,0.098,0.528,0.306,0.737
			s0.442,0.306,0.737,0.306c0.294,0,0.528-0.097,0.736-0.306c0.209-0.209,0.306-0.442,0.306-0.737v-4.113
			c0-0.295-0.097-0.528-0.306-0.737C24.571,33.888,24.337,33.791,24.043,33.791z"/>
	</g>
	<g>
		<path fill="#F96311" d="M35.185,40.921c-0.017,0-0.032-0.001-0.049-0.003c-0.312-0.01-3.861-0.004-6.205,0.003H28.93
			c-0.275,0-0.5-0.224-0.5-0.499c-0.001-0.275,0.223-0.5,0.498-0.501c3.998-0.011,5.517-0.016,6.132,0.022l-0.001-0.006
			c0.391-0.103,0.562-0.237,0.589-0.322c0.021-0.065-0.007-0.252-0.244-0.537c-0.022-0.027-0.059-0.078-0.075-0.109
			c-0.064-0.125-0.074-0.271-0.026-0.402c0.048-0.133,0.149-0.238,0.28-0.291c0.377-0.156,0.611-0.34,0.645-0.508
			c0.033-0.176-0.136-0.41-0.227-0.502c-0.063-0.057-0.109-0.131-0.137-0.217c-0.079-0.26,0.063-0.535,0.32-0.621
			c0.247-0.084,0.555-0.23,0.615-0.459c0.063-0.242-0.129-0.567-0.209-0.668c-0.068-0.059-0.121-0.137-0.149-0.229
			c-0.065-0.207,0.012-0.434,0.19-0.559c0.27-0.189,0.393-0.416,0.365-0.678c-0.029-0.287-0.217-0.489-0.282-0.518
			c-0.312-0.023-2.341-0.008-3.62,0.009c-0.158-0.013-0.282-0.059-0.378-0.165c-0.097-0.107-0.143-0.251-0.126-0.395
			c0.083-0.695,0.18-2.723-0.352-3.727c-0.213-0.401-0.547-0.611-0.856-0.536c-0.316,0.079-0.687,0.517-0.687,1.491
			c-0.104,2.385-0.774,4.04-1.992,4.938c-1.408,1.04-3.001,0.641-3.067,0.623c-0.268-0.069-0.428-0.342-0.358-0.609
			c0.07-0.268,0.342-0.428,0.608-0.358c0.017,0.005,1.218,0.291,2.234-0.468c0.956-0.713,1.486-2.108,1.576-4.147
			c-0.001-1.528,0.746-2.266,1.444-2.439c0.767-0.19,1.546,0.216,1.981,1.039c0.579,1.093,0.563,2.849,0.509,3.748
			c0.96-0.01,2.81-0.025,3.204,0.009c0.478,0.042,0.942,0.519,1.105,1.132c0.149,0.56,0.014,1.109-0.364,1.541
			c0.121,0.24,0.195,0.491,0.214,0.608c0.052,0.315,0.06,1.01-0.707,1.495c0.075,0.164,0.126,0.334,0.142,0.483
			c0.032,0.323-0.039,0.876-0.732,1.335c0.207,0.424,0.183,0.764,0.107,0.998c-0.151,0.469-0.585,0.799-1.289,0.982
			C35.269,40.916,35.227,40.921,35.185,40.921z"/>
	</g>
</g>
</svg>
