<?xml version="1.0" encoding="utf-8"?>
<!-- Generator: Adobe Illustrator 16.0.0, SVG Export Plug-In . SVG Version: 6.00 Build 0)  -->
<!DOCTYPE svg PUBLIC "-//W3C//DTD SVG 1.1//EN" "http://www.w3.org/Graphics/SVG/1.1/DTD/svg11.dtd">
<svg version="1.1" id="Layer_1" xmlns="http://www.w3.org/2000/svg" xmlns:xlink="http://www.w3.org/1999/xlink" x="0px" y="0px"
	 width="38px" height="38px" viewBox="11 11 38 38" enable-background="new 11 11 38 38" xml:space="preserve">
<g>
	<g>
		<polygon fill="#F96311" points="43.027,24.932 17.002,24.932 17.002,19.609 18.003,19.609 18.003,23.926 42.021,23.926 
			42.021,19.609 43.027,19.609 		"/>
	</g>
	<g>
		<path fill="#F96311" d="M20,20h-5v-5h5V20z M16.001,19.004h2.998v-3.008h-2.998V19.004z"/>
	</g>
	<g>
		<rect x="29.502" y="19.58" fill="#F96311" width="0.996" height="9.092"/>
	</g>
	<g>
		<path fill="#F96311" d="M32.5,20h-5v-5h5V20z M28.496,19.004h3.008v-3.008h-3.008V19.004z"/>
	</g>
	<g>
		<path fill="#F96311" d="M45,20h-5v-5h5V20z M40.996,19.004h3.008v-3.008h-3.008V19.004z"/>
	</g>
	<g>
		<path fill="#FFFFFF" d="M34.922,45h-10.21c-1.221,0-2.212-0.957-2.212-2.139v-3.145c0,0,0.029-8.369,0-9.443
			c-0.024-1.074,0.298-2.09,2.212-2.129c0.635-0.02,1.753-0.02,2.974-0.02c2.422,0,5.215,0.02,5.215,0.02h2.021
			c1.221,0,2.207,0.957,2.207,2.129v12.588C37.129,44.043,36.143,45,34.922,45z M34.922,44.004c0.664,0,1.211-0.518,1.211-1.143
			V30.273c0-0.625-0.547-1.133-1.211-1.133H32.9h-0.01l0,0c-0.029,0-2.813-0.02-5.205-0.02c-1.406,0-2.397,0.01-2.954,0.02
			c-0.513,0.01-0.889,0.107-1.05,0.283c-0.132,0.137-0.19,0.41-0.181,0.83c0.029,1.074,0,9.102,0,9.463v3.145
			c0,0.625,0.542,1.143,1.211,1.143H34.922"/>
	</g>
	<g>
		<path fill="#FFFFFF" d="M33.701,33.34h-8.169c-0.273,0-0.498-0.225-0.498-0.498c0-0.283,0.225-0.498,0.498-0.498h8.169
			c0.273,0,0.498,0.215,0.498,0.498C34.199,33.115,33.975,33.34,33.701,33.34z"/>
	</g>
	<g>
		<path fill="#FFFFFF" d="M33.701,36.699h-8.169c-0.273,0-0.498-0.225-0.498-0.508c0-0.273,0.225-0.498,0.498-0.498h8.169
			c0.273,0,0.498,0.225,0.498,0.498C34.199,36.475,33.975,36.699,33.701,36.699z"/>
	</g>
	<g>
		<path fill="#FFFFFF" d="M31.211,40.068h-2.617c-0.283,0-0.508-0.225-0.508-0.508c0-0.273,0.225-0.498,0.508-0.498h2.617
			c0.273,0,0.498,0.225,0.498,0.498C31.709,39.844,31.484,40.068,31.211,40.068z"/>
	</g>
</g>
</svg>
