<?xml version="1.0" encoding="utf-8"?>
<!-- Generator: Adobe Illustrator 16.0.0, SVG Export Plug-In . SVG Version: 6.00 Build 0)  -->
<!DOCTYPE svg PUBLIC "-//W3C//DTD SVG 1.1//EN" "http://www.w3.org/Graphics/SVG/1.1/DTD/svg11.dtd">
<svg version="1.1" id="Layer_1" xmlns="http://www.w3.org/2000/svg" xmlns:xlink="http://www.w3.org/1999/xlink" x="0px" y="0px"
	 width="38px" height="38px" viewBox="0 0 38 38" enable-background="new 0 0 38 38" xml:space="preserve">
<g>
	<path fill="#5D5F60" d="M18.479,13.165H8.004c-0.407,0-0.736,0.329-0.736,0.736v1.104c0,0.407,0.33,0.736,0.736,0.736h10.475
		c0.407,0,0.736-0.329,0.736-0.736v-1.104C19.216,13.494,18.886,13.165,18.479,13.165z"/>
	<path fill="#5D5F60" d="M18.479,17.066H8.004c-0.407,0-0.736,0.329-0.736,0.736v1.104c0,0.407,0.33,0.736,0.736,0.736h10.475
		c0.407,0,0.736-0.329,0.736-0.736v-1.104C19.216,17.396,18.886,17.066,18.479,17.066z"/>
	<path fill="#5D5F60" d="M18.479,24.703H8.004c-0.407,0-0.736,0.329-0.736,0.736v3.504c0,0.407,0.33,0.736,0.736,0.736h10.475
		c0.407,0,0.736-0.329,0.736-0.736v-3.504C19.216,25.032,18.886,24.703,18.479,24.703z"/>
	<path fill="#5D5F60" d="M29.071,22.923v0.667c0,0.369,0.39,0.668,0.873,0.668c0.481,0,0.872-0.299,0.872-0.668v-0.667
		c0-0.368-0.391-0.667-0.872-0.667C29.461,22.256,29.071,22.555,29.071,22.923z"/>
	<path fill="#5D5F60" d="M29.071,26.26v0.667c0,0.369,0.39,0.667,0.873,0.667c0.481,0,0.872-0.298,0.872-0.667V26.26
		c0-0.369-0.391-0.667-0.872-0.667C29.461,25.593,29.071,25.891,29.071,26.26z"/>
	<path fill="#5D5F60" d="M21.912,24.005c-0.482,0-0.873,0.299-0.873,0.668v0.666c0,0.369,0.391,0.668,0.873,0.668
		s0.873-0.299,0.873-0.668v-0.666C22.785,24.304,22.395,24.005,21.912,24.005z"/>
	<path fill="#5D5F60" d="M21.039,28.342v0.668v0.001c0,0.014,0.001,0.027,0.002,0.04c0.028,0.35,0.408,0.626,0.871,0.626
		c0.482,0,0.873-0.298,0.873-0.667v-0.668c0-0.367-0.391-0.667-0.873-0.667S21.039,27.975,21.039,28.342z"/>
	<path fill="#5D5F60" d="M30.815,28.929c0.001-0.002,0.001-0.006,0.001-0.009l0,0c0,0,0,0,0-0.001s0-0.001,0-0.001
		c0-0.01,0-0.021,0-0.031h-0.001c0,0.008,0.001,0.017,0.001,0.025C30.816,28.917,30.816,28.923,30.815,28.929z"/>
	<path fill="#5D5F60" d="M24.075,29.01c0,0.369,0.391,0.667,0.872,0.667h0.873c0.482,0,0.873-0.298,0.873-0.667
		c0-0.368-0.391-0.668-0.873-0.668h-0.873C24.466,28.342,24.075,28.642,24.075,29.01z"/>
	<path fill="#5D5F60" d="M24.03,13.748c0,0.368,0.39,0.667,0.872,0.667h0.873c0.481,0,0.873-0.299,0.873-0.667
		c0-0.369-0.392-0.668-0.873-0.668h-0.873C24.42,13.08,24.03,13.379,24.03,13.748z"/>
	<path fill="#5D5F60" d="M28.199,29.038c0,0.369,0.391,0.668,0.872,0.668h0.873c0.481,0,0.872-0.299,0.872-0.668
		c0-0.368-0.391-0.667-0.872-0.667h-0.873C28.59,28.371,28.199,28.67,28.199,29.038z"/>
	<path fill="#5D5F60" d="M21.912,13.232c-0.463,0-0.84,0.274-0.87,0.622c-0.001,0.014-0.003,0.026-0.003,0.038
		c0,0.001,0,0.001,0,0.002c0,0,0,0.001,0,0.003l0,0c0,0,0,0,0,0.001l0,0c0,0,0,0,0,0.001v0.667c0,0.368,0.391,0.668,0.873,0.668
		s0.873-0.3,0.873-0.668v-0.667C22.785,13.531,22.395,13.232,21.912,13.232z"/>
	<path fill="#5D5F60" d="M29.071,16.057v0.667c0,0.368,0.392,0.667,0.873,0.667s0.872-0.299,0.872-0.667v-0.667
		c0-0.368-0.391-0.668-0.872-0.668C29.461,15.389,29.071,15.688,29.071,16.057z"/>
	<path fill="#5D5F60" d="M21.041,13.857c0,0,0.001-0.002,0.001-0.003c0.001-0.012,0.001-0.024,0.003-0.037
		C21.043,13.831,21.042,13.844,21.041,13.857z"/>
	<path fill="#5D5F60" d="M28.001,13.77c0,0.369,0.391,0.668,0.872,0.668h0.873c0.482,0,0.873-0.299,0.873-0.668
		c0-0.354-0.361-0.645-0.818-0.666c-0.018,0-0.035-0.001-0.054-0.001h-0.001h-0.873C28.392,13.103,28.001,13.4,28.001,13.77z"/>
	<path fill="#5D5F60" d="M21.912,20.572c-0.482,0-0.873,0.299-0.873,0.668v0.667c0,0.368,0.391,0.667,0.873,0.667
		s0.873-0.299,0.873-0.667V21.24C22.785,20.871,22.395,20.572,21.912,20.572z"/>
	<path fill="#5D5F60" d="M21.912,16.779c-0.482,0-0.873,0.298-0.873,0.667v0.667c0,0.369,0.391,0.668,0.873,0.668
		s0.873-0.299,0.873-0.668v-0.667C22.785,17.077,22.395,16.779,21.912,16.779z"/>
	<path fill="#5D5F60" d="M29.071,19.587v0.667c0,0.368,0.39,0.667,0.873,0.667c0.481,0,0.872-0.299,0.872-0.667v-0.667
		c0-0.369-0.391-0.668-0.872-0.668C29.461,18.919,29.071,19.218,29.071,19.587z"/>
	<path fill="#5D5F60" d="M8.028,23.815h1.718c0.407,0,0.736-0.329,0.736-0.736v-1.717c0-0.407-0.33-0.737-0.736-0.737H8.028
		c-0.406,0-0.736,0.33-0.736,0.737v1.717C7.292,23.486,7.622,23.815,8.028,23.815z"/>
	<path fill="#5D5F60" d="M30.907,4H7.093C5.385,4,4,5.385,4,7.093v23.814C4,32.615,5.385,34,7.093,34h23.814
		C32.615,34,34,32.615,34,30.907V7.093C34,5.385,32.615,4,30.907,4z M7.093,5.2h23.814c1.044,0,1.893,0.849,1.893,1.893v1.825H5.2
		V7.093C5.2,6.049,6.049,5.2,7.093,5.2z M30.907,32.8H7.093c-1.044,0-1.893-0.849-1.893-1.893V10.118h27.6v20.789
		C32.8,31.951,31.951,32.8,30.907,32.8z"/>
	<circle fill="#5D5F60" cx="24.906" cy="7.138" r="0.989"/>
	<circle fill="#5D5F60" cx="27.872" cy="7.138" r="0.989"/>
	<circle fill="#5D5F60" cx="30.838" cy="7.138" r="0.989"/>
	<circle fill="#5D5F60" cx="13.527" cy="22.221" r="1.346"/>
</g>
</svg>
