<?xml version="1.0" encoding="utf-8"?>
<!-- Generator: Adobe Illustrator 16.0.0, SVG Export Plug-In . SVG Version: 6.00 Build 0)  -->
<!DOCTYPE svg PUBLIC "-//W3C//DTD SVG 1.1//EN" "http://www.w3.org/Graphics/SVG/1.1/DTD/svg11.dtd">
<svg version="1.1" id="Layer_1" xmlns="http://www.w3.org/2000/svg" xmlns:xlink="http://www.w3.org/1999/xlink" x="0px" y="0px"
	 width="38px" height="38px" viewBox="0 0 38 38" enable-background="new 0 0 38 38" xml:space="preserve">
<g>
	<g>
		<path fill="#FFFFFF" d="M23.32,17.006H10.321c-0.281,0-0.508-0.224-0.508-0.499c0-0.276,0.227-0.5,0.508-0.5H23.32
			c0.28,0,0.508,0.224,0.508,0.5C23.828,16.782,23.601,17.006,23.32,17.006z"/>
	</g>
	<g>
		<path fill="#FFFFFF" d="M23.32,21.602H10.321c-0.281,0-0.508-0.225-0.508-0.501c0-0.275,0.227-0.5,0.508-0.5H23.32
			c0.28,0,0.508,0.225,0.508,0.5C23.828,21.377,23.601,21.602,23.32,21.602z"/>
	</g>
	<g>
		<path fill="#FFFFFF" d="M19.959,26.217h-6.221c-0.279,0-0.507-0.225-0.507-0.5c0-0.276,0.228-0.5,0.507-0.5h6.221
			c0.281,0,0.508,0.224,0.508,0.5C20.467,25.992,20.24,26.217,19.959,26.217z"/>
	</g>
	<g>
		<path fill="#FFFFFF" d="M29.15,34H4.789V8H29.15V34z M5.805,33h22.33V9H5.805V33z"/>
	</g>
	<g>
		<path fill="#F96311" d="M25.598,4c1.01,0,1.98,0.19,2.913,0.57c0.933,0.381,1.757,0.923,2.47,1.627
			c0.715,0.703,1.264,1.514,1.65,2.433s0.58,1.876,0.58,2.87s-0.193,1.951-0.58,2.869c-0.387,0.919-0.936,1.73-1.65,2.434
			c-0.713,0.704-1.537,1.246-2.47,1.627C27.578,18.81,26.607,19,25.598,19s-1.98-0.19-2.913-0.57
			c-0.933-0.381-1.756-0.923-2.47-1.627c-0.714-0.703-1.264-1.515-1.65-2.434c-0.387-0.918-0.58-1.875-0.58-2.869
			s0.193-1.951,0.58-2.87s0.937-1.729,1.65-2.433c0.714-0.704,1.537-1.246,2.47-1.627C23.617,4.19,24.588,4,25.598,4z"/>
	</g>
	<g>
		<g>
			<path fill="#FFFFFF" d="M23.496,8h3.035v7h-1.604V9.34h-1.432V8z"/>
		</g>
	</g>
</g>
</svg>
