<?xml version="1.0" encoding="utf-8"?>
<!-- Generator: Adobe Illustrator 16.0.0, SVG Export Plug-In . SVG Version: 6.00 Build 0)  -->
<!DOCTYPE svg PUBLIC "-//W3C//DTD SVG 1.1//EN" "http://www.w3.org/Graphics/SVG/1.1/DTD/svg11.dtd">
<svg version="1.1" id="Layer_1" xmlns="http://www.w3.org/2000/svg" xmlns:xlink="http://www.w3.org/1999/xlink" x="0px" y="0px"
	 width="38px" height="38px" viewBox="6 7.75 38 38" enable-background="new 6 7.75 38 38" xml:space="preserve">
<g>
	<g>
		<path fill="#F96311" d="M35.725,41.75H14.275c-0.447,0-0.883-0.087-1.297-0.259c-0.412-0.171-0.782-0.418-1.098-0.734
			c-0.315-0.315-0.563-0.685-0.734-1.097c-0.171-0.415-0.258-0.851-0.258-1.297v-2.258c0-0.447,0.087-0.883,0.258-1.297
			c0.172-0.413,0.419-0.782,0.734-1.098c0.315-0.316,0.686-0.563,1.098-0.734c0.414-0.172,0.85-0.258,1.297-0.258h21.449
			c0.447,0,0.883,0.086,1.297,0.258c0.412,0.171,0.781,0.418,1.098,0.734c0.316,0.315,0.563,0.685,0.734,1.098
			s0.258,0.85,0.258,1.297v2.258c0,0.446-0.087,0.883-0.258,1.296s-0.418,0.782-0.734,1.098c-0.316,0.316-0.686,0.563-1.098,0.734
			C36.607,41.663,36.172,41.75,35.725,41.75z M14.275,33.848c-0.302,0-0.585,0.056-0.864,0.172
			c-0.275,0.113-0.521,0.278-0.732,0.489c-0.21,0.21-0.376,0.457-0.489,0.732c-0.115,0.279-0.172,0.562-0.172,0.864v2.258
			c0,0.302,0.057,0.584,0.172,0.864c0.113,0.274,0.279,0.521,0.489,0.731c0.211,0.211,0.457,0.376,0.732,0.489
			c0.279,0.116,0.563,0.173,0.864,0.173h21.449c0.302,0,0.585-0.057,0.864-0.173c0.279-0.115,0.519-0.275,0.732-0.489
			c0.21-0.21,0.375-0.457,0.489-0.731c0.115-0.28,0.172-0.563,0.172-0.864v-2.258c0-0.303-0.057-0.585-0.172-0.865
			c-0.114-0.274-0.279-0.521-0.489-0.731c-0.214-0.214-0.453-0.374-0.732-0.489c-0.279-0.116-0.563-0.172-0.864-0.172H14.275z"/>
	</g>
	<g>
		<path fill="#F96311" d="M33.777,36.67H16.533c-0.312,0-0.564-0.253-0.564-0.564c0-0.313,0.253-0.564,0.564-0.564h17.244
			c0.313,0,0.564,0.252,0.564,0.564C34.342,36.417,34.09,36.67,33.777,36.67z"/>
	</g>
	<g>
		<path fill="#F96311" d="M26.884,39.182H16.599c-0.313,0-0.564-0.253-0.564-0.564c0-0.313,0.252-0.564,0.564-0.564h10.285
			c0.312,0,0.564,0.252,0.564,0.564C27.448,38.929,27.195,39.182,26.884,39.182z"/>
	</g>
	<g>
		<path fill="#FFFFFF" d="M19.99,19.137c-0.541,0-1.13-0.088-1.765-0.266c-0.3-0.083-0.476-0.395-0.392-0.695
			s0.395-0.477,0.695-0.392c1.225,0.342,2.198,0.292,2.893-0.149c0.853-0.542,1.026-1.535,1.028-1.545
			c0.026-0.159,0.12-0.301,0.257-0.387c0.137-0.085,0.303-0.111,0.459-0.065c0.001,0,1.596,0.467,2.82,0.797
			c1.094,0.297,1.232-0.028,1.308-0.204c0.082-0.19,0.09-0.426,0.021-0.586c-0.049-0.112-0.117-0.148-0.165-0.166
			c-0.65-0.239-6.018-1.736-7.239-1.843c-0.987-0.082-2.78,0.417-3.386,0.618c-0.295,0.096-0.615-0.062-0.713-0.357
			c-0.099-0.296,0.061-0.616,0.356-0.714c0.098-0.033,2.412-0.797,3.842-0.671c1.4,0.123,6.896,1.676,7.528,1.908
			c0.365,0.133,0.654,0.41,0.813,0.778c0.193,0.447,0.187,1-0.019,1.479c-0.398,0.93-1.286,1.215-2.64,0.849
			c-0.787-0.211-1.725-0.479-2.302-0.646c-0.194,0.502-0.585,1.207-1.347,1.699C21.465,18.95,20.777,19.137,19.99,19.137z"/>
	</g>
	<g>
		<path fill="#FFFFFF" d="M20.024,24.086c-0.622,0-1.065-0.41-1.301-0.626c-0.347-0.32-0.461-0.923-0.424-1.353
			c0.039-0.47,0.246-0.851,0.583-1.071c0.526-0.344,2.001-1.111,2.063-1.144c0.276-0.143,0.618-0.035,0.762,0.241
			s0.036,0.617-0.241,0.761c-0.015,0.007-1.485,0.772-1.965,1.086c-0.026,0.018-0.052,0.072-0.066,0.143
			c-0.043,0.215,0.026,0.462,0.066,0.521c0.271,0.247,0.431,0.355,0.631,0.295c0.316-0.093,2.335-1.171,4.104-2.159
			c0.271-0.152,0.616-0.055,0.768,0.218c0.152,0.271,0.055,0.616-0.217,0.768c-0.876,0.489-3.778,2.098-4.345,2.26
			C20.295,24.068,20.156,24.086,20.024,24.086z"/>
	</g>
	<g>
		<path fill="#FFFFFF" d="M19.832,26.898c-0.416,0-0.85-0.151-1.262-0.579c-0.347-0.359-0.521-0.82-0.487-1.297
			c0.033-0.475,0.274-0.932,0.645-1.221c0.475-0.372,1.132-0.753,1.159-0.77c0.271-0.156,0.615-0.064,0.771,0.206
			c0.156,0.27,0.064,0.615-0.206,0.771c-0.005,0.003-0.617,0.359-1.029,0.682c-0.12,0.094-0.202,0.251-0.213,0.41
			c-0.011,0.158,0.048,0.304,0.173,0.435c0.239,0.248,0.486,0.399,1.297-0.09c0.84-0.508,4.478-2.526,4.632-2.612
			c0.273-0.151,0.617-0.052,0.768,0.22c0.151,0.273,0.053,0.616-0.219,0.768c-0.038,0.021-3.775,2.093-4.597,2.589
			C20.867,26.65,20.363,26.898,19.832,26.898z"/>
	</g>
	<g>
		<path fill="#FFFFFF" d="M22.335,28.239c-0.518,0-0.96-0.211-1.322-0.634c-0.684-0.797-0.348-1.787-0.042-2.245
			c0.173-0.26,0.523-0.329,0.783-0.157c0.259,0.172,0.329,0.521,0.158,0.779c-0.016,0.025-0.339,0.542-0.043,0.888
			c0.148,0.172,0.425,0.495,1.477-0.12c0.803-0.471,3.176-1.804,3.176-1.804l0.554,0.984c0,0-2.359,1.325-3.159,1.794
			C23.33,28.067,22.802,28.239,22.335,28.239z"/>
	</g>
	<g>
		<path fill="#FFFFFF" d="M24.813,29.562c-0.526,0-0.973-0.208-1.335-0.623c-0.615-0.707-0.423-1.589-0.213-1.997
			c0.143-0.277,0.483-0.387,0.76-0.245c0.275,0.141,0.386,0.479,0.247,0.755c-0.014,0.026-0.204,0.444,0.058,0.745
			c0.197,0.227,0.487,0.386,1.27,0.017c0.703-0.332,6.616-3.583,7.188-3.952c0.276-0.212,1.077-1.698,1.462-2.412
			c0.596-1.105,0.729-1.333,0.922-1.468c0.255-0.178,0.607-0.114,0.785,0.142c0.162,0.233,0.124,0.546-0.079,0.735
			c-0.103,0.139-0.396,0.685-0.634,1.126c-0.934,1.733-1.423,2.553-1.844,2.825c-0.614,0.396-6.564,3.669-7.319,4.025
			C25.618,29.453,25.195,29.562,24.813,29.562z"/>
	</g>
	<g>
		<path fill="#FFFFFF" d="M16.626,24.843c-0.15,0-0.301-0.06-0.412-0.179l-2.352-2.511c-0.213-0.228-0.201-0.585,0.026-0.798
			c0.228-0.211,0.585-0.201,0.798,0.026l2.352,2.512c0.213,0.228,0.201,0.584-0.026,0.798
			C16.902,24.792,16.765,24.843,16.626,24.843z"/>
	</g>
	<g>
		<path fill="#FFFFFF" d="M14.42,22.496c-0.043,0-0.085-0.005-0.127-0.014l-2.564-0.592c-0.303-0.07-0.492-0.373-0.423-0.677
			l1.932-8.364c0.034-0.146,0.124-0.273,0.251-0.352c0.127-0.08,0.279-0.105,0.426-0.072l2.564,0.592
			c0.303,0.071,0.492,0.374,0.423,0.677l-1.932,8.364c-0.034,0.146-0.124,0.272-0.251,0.352
			C14.628,22.466,14.524,22.496,14.42,22.496z M12.533,20.917l1.463,0.338l1.678-7.265l-1.464-0.338L12.533,20.917z"/>
	</g>
	<g>
		<path fill="#FFFFFF" d="M35.436,21.694c-0.056,0-0.111-0.008-0.165-0.024c-0.144-0.044-0.264-0.143-0.334-0.275l-4.029-7.58
			c-0.146-0.276-0.042-0.617,0.232-0.764l2.324-1.235c0.132-0.071,0.286-0.085,0.43-0.042c0.144,0.043,0.263,0.142,0.333,0.274
			l4.03,7.579c0.146,0.276,0.042,0.617-0.233,0.764L35.7,21.628C35.617,21.672,35.526,21.694,35.436,21.694z M32.169,13.783
			l3.499,6.583l1.326-0.706l-3.499-6.583L32.169,13.783z"/>
	</g>
</g>
</svg>
