<?xml version="1.0" encoding="utf-8"?>
<!-- Generator: Adobe Illustrator 16.0.0, SVG Export Plug-In . SVG Version: 6.00 Build 0)  -->
<!DOCTYPE svg PUBLIC "-//W3C//DTD SVG 1.1//EN" "http://www.w3.org/Graphics/SVG/1.1/DTD/svg11.dtd">
<svg version="1.1" id="Layer_1" xmlns="http://www.w3.org/2000/svg" xmlns:xlink="http://www.w3.org/1999/xlink" x="0px" y="0px"
	 width="38px" height="38px" viewBox="12.024 9 38 38" enable-background="new 12.024 9 38 38" xml:space="preserve">
<g>
	<path fill="#FFFFFF" d="M32.352,43h13.672c0,0-0.171-5.375-4.746-6.674c0.292-0.18,0.57-0.396,0.829-0.657
		c0.831-0.839,1.247-1.853,1.247-3.039s-0.416-2.2-1.247-3.039c-0.832-0.839-1.835-1.259-3.012-1.259
		c-0.165,0-0.326,0.01-0.484,0.027c-0.186-1.608-1.295-7.321-7.651-7.321c-6.367,0-7.385,5.725-7.545,7.331
		c-0.181-0.022-0.364-0.037-0.554-0.037c-1.176,0-2.18,0.42-3.012,1.259c-0.831,0.839-1.247,1.853-1.247,3.039
		s0.416,2.2,1.247,3.039c0.258,0.261,0.534,0.476,0.825,0.655C16.111,37.619,16.024,43,16.024,43h13.673
		c0,0-0.168-5.326-4.681-6.657c0.302-0.183,0.589-0.404,0.855-0.674c0.831-0.839,1.247-1.853,1.247-3.039s-0.416-2.2-1.247-3.039
		c-0.104-0.105-0.212-0.204-0.322-0.297h10.857c-0.11,0.093-0.218,0.191-0.322,0.297c-0.831,0.839-1.247,1.853-1.247,3.039
		s0.416,2.2,1.247,3.039c0.266,0.269,0.552,0.489,0.853,0.672C32.436,37.667,32.352,43,32.352,43z M27.835,39.924
		c0.387,0.741,0.602,1.496,0.72,2.076H17.147c0.108-0.582,0.311-1.342,0.689-2.088c0.426-0.841,0.994-1.506,1.689-1.976
		c0.874-0.592,1.978-0.892,3.28-0.892c1.304,0,2.414,0.301,3.301,0.895C26.812,38.412,27.394,39.079,27.835,39.924z M26.119,32.63
		c0,0.442-0.081,0.856-0.249,1.266c-0.168,0.408-0.399,0.758-0.709,1.069c-0.308,0.313-0.653,0.545-1.057,0.714
		c-0.803,0.336-1.685,0.336-2.487,0c-0.403-0.169-0.748-0.401-1.058-0.714c-0.309-0.312-0.54-0.661-0.707-1.069
		c-0.168-0.409-0.25-0.823-0.25-1.266s0.082-0.856,0.249-1.265c0.168-0.408,0.399-0.758,0.709-1.07
		c0.308-0.312,0.654-0.545,1.057-0.713s0.81-0.25,1.244-0.25c0.434,0,0.841,0.082,1.243,0.25c0.403,0.168,0.749,0.401,1.057,0.713
		c0.31,0.313,0.541,0.662,0.709,1.07S26.119,32.188,26.119,32.63z M30.959,22.038c5.409,0,6.447,4.664,6.644,6.256H24.419
		C24.584,26.711,25.532,22.038,30.959,22.038z M36.086,33.896c-0.168-0.409-0.249-0.823-0.249-1.266s0.081-0.856,0.249-1.265
		s0.399-0.758,0.709-1.07c0.308-0.312,0.653-0.545,1.056-0.713c0.403-0.168,0.811-0.25,1.244-0.25c0.435,0,0.842,0.082,1.244,0.25
		s0.748,0.401,1.057,0.713c0.31,0.313,0.541,0.662,0.709,1.07c0.167,0.408,0.249,0.822,0.249,1.265s-0.082,0.856-0.25,1.266
		c-0.167,0.408-0.398,0.758-0.708,1.069c-0.309,0.313-0.654,0.545-1.057,0.714c-0.804,0.336-1.685,0.336-2.487,0
		c-0.403-0.169-0.749-0.401-1.058-0.714C36.486,34.653,36.254,34.304,36.086,33.896z M35.853,37.937
		c0.875-0.592,1.979-0.892,3.28-0.892c1.304,0,2.414,0.301,3.301,0.895c0.706,0.473,1.287,1.14,1.729,1.984
		c0.388,0.741,0.602,1.496,0.72,2.076H33.474c0.108-0.582,0.311-1.342,0.689-2.088C34.589,39.071,35.158,38.406,35.853,37.937z"/>
	<g>
		<path fill="none" d="M33.256,14.962c-0.309-0.311-0.654-0.544-1.058-0.713C31.797,14.082,31.39,14,30.956,14
			s-0.842,0.082-1.244,0.25s-0.748,0.401-1.057,0.713c-0.31,0.312-0.541,0.662-0.708,1.07c-0.168,0.409-0.25,0.822-0.25,1.265
			s0.082,0.856,0.25,1.266c0.167,0.408,0.398,0.758,0.708,1.069c0.309,0.312,0.654,0.545,1.058,0.714
			c0.803,0.336,1.684,0.336,2.486,0c0.403-0.169,0.749-0.402,1.057-0.713c0.31-0.312,0.541-0.662,0.709-1.07
			c0.168-0.409,0.249-0.823,0.249-1.266s-0.081-0.856-0.249-1.265C33.797,15.625,33.565,15.275,33.256,14.962z"/>
		<path fill="#F96311" d="M33.966,14.259C33.135,13.42,32.131,13,30.956,13s-2.18,0.42-3.011,1.259
			c-0.832,0.839-1.248,1.853-1.248,3.039c0,1.187,0.416,2.2,1.248,3.039c0.831,0.84,1.835,1.259,3.011,1.259s2.18-0.419,3.011-1.259
			c0.832-0.839,1.247-1.852,1.247-3.039C35.213,16.111,34.798,15.098,33.966,14.259z M33.964,18.563
			c-0.168,0.408-0.399,0.758-0.709,1.07c-0.308,0.312-0.653,0.544-1.057,0.713c-0.803,0.336-1.684,0.336-2.486,0
			c-0.403-0.169-0.749-0.402-1.058-0.714c-0.31-0.312-0.541-0.661-0.708-1.069c-0.168-0.409-0.25-0.823-0.25-1.266
			s0.082-0.856,0.25-1.265c0.167-0.408,0.398-0.758,0.708-1.07c0.309-0.312,0.654-0.544,1.057-0.713S30.521,14,30.956,14
			s0.842,0.082,1.243,0.25c0.403,0.168,0.749,0.402,1.058,0.713c0.309,0.313,0.541,0.663,0.708,1.071
			c0.168,0.409,0.249,0.822,0.249,1.265S34.132,18.154,33.964,18.563z"/>
	</g>
</g>
</svg>
