<?xml version="1.0" encoding="utf-8"?>
<!-- Generator: Adobe Illustrator 16.0.0, SVG Export Plug-In . SVG Version: 6.00 Build 0)  -->
<!DOCTYPE svg PUBLIC "-//W3C//DTD SVG 1.1//EN" "http://www.w3.org/Graphics/SVG/1.1/DTD/svg11.dtd">
<svg version="1.1" id="Layer_1" xmlns="http://www.w3.org/2000/svg" xmlns:xlink="http://www.w3.org/1999/xlink" x="0px" y="0px"
	 width="38px" height="38px" viewBox="11 9 38 38" enable-background="new 11 9 38 38" xml:space="preserve">
<g>
	<g>
		<polygon fill="#F96311" points="29.969,32.421 22.933,24.875 27.946,24.875 27.946,13 29.018,13 29.018,25.947 25.396,25.947 
			29.953,30.832 34.33,25.947 30.855,25.947 30.855,18.162 31.928,18.162 31.928,24.875 36.728,24.875 		"/>
	</g>
	<path fill="#FFFFFF" d="M45.985,21.146H35.357v1.072h9.6L30.009,37.785L15.044,22.218h9.599v-1.072H14.015l-0.086-0.089v0.089
		v1.072V43h32.143V22.218v-1.072v-0.089L45.985,21.146z M45,41.929H15V23.718l14.236,14.811l0.773,0.804l0.772-0.805L45,23.72
		V41.929z"/>
</g>
</svg>
