<?xml version="1.0" encoding="utf-8"?>
<!-- Generator: Adobe Illustrator 16.0.0, SVG Export Plug-In . SVG Version: 6.00 Build 0)  -->
<!DOCTYPE svg PUBLIC "-//W3C//DTD SVG 1.1//EN" "http://www.w3.org/Graphics/SVG/1.1/DTD/svg11.dtd">
<svg version="1.1" id="Layer_1" xmlns="http://www.w3.org/2000/svg" xmlns:xlink="http://www.w3.org/1999/xlink" x="0px" y="0px"
	 width="38px" height="38px" viewBox="9.75 11 38 38" enable-background="new 9.75 11 38 38" xml:space="preserve">
<g>
	<g>
		<path fill="#FFFFFF" d="M19.875,45h-3.5c-0.549,0-1.025-0.197-1.414-0.586S14.375,43.549,14.375,43V27
			c0-0.549,0.197-1.025,0.586-1.414S15.826,25,16.375,25h3.5c0.549,0,1.025,0.197,1.414,0.586s0.586,0.865,0.586,1.414v16
			c0,0.549-0.197,1.025-0.586,1.414S20.424,45,19.875,45z M16.375,26c-0.282,0-0.507,0.094-0.707,0.293S15.375,26.718,15.375,27v16
			c0,0.282,0.093,0.508,0.293,0.707S16.093,44,16.375,44h3.5c0.282,0,0.507-0.094,0.707-0.293s0.293-0.425,0.293-0.707V27
			c0-0.282-0.093-0.508-0.293-0.707S20.157,26,19.875,26H16.375z"/>
	</g>
	<g>
		<path fill="#FFFFFF" d="M30.5,45H27c-0.549,0-1.025-0.197-1.414-0.586S25,43.549,25,43V32.625c0-0.549,0.197-1.025,0.586-1.414
			s0.865-0.586,1.414-0.586h3.5c0.549,0,1.025,0.197,1.414,0.586s0.586,0.865,0.586,1.414V43c0,0.549-0.197,1.025-0.586,1.414
			S31.049,45,30.5,45z M27,31.625c-0.282,0-0.508,0.094-0.707,0.293S26,32.343,26,32.625V43c0,0.282,0.094,0.508,0.293,0.707
			S26.718,44,27,44h3.5c0.282,0,0.508-0.094,0.707-0.293S31.5,43.282,31.5,43V32.625c0-0.282-0.094-0.508-0.293-0.707
			s-0.425-0.293-0.707-0.293H27z"/>
	</g>
	<g>
		<path fill="#FFFFFF" d="M41.125,45h-3.5c-0.549,0-1.025-0.197-1.414-0.586S35.625,43.549,35.625,43V23.875
			c0-0.549,0.197-1.025,0.586-1.414s0.865-0.586,1.414-0.586h3.5c0.549,0,1.025,0.197,1.414,0.586s0.586,0.865,0.586,1.414V43
			c0,0.549-0.197,1.025-0.586,1.414S41.674,45,41.125,45z M37.625,22.875c-0.282,0-0.508,0.094-0.707,0.293
			s-0.293,0.425-0.293,0.707V43c0,0.282,0.094,0.508,0.293,0.707S37.343,44,37.625,44h3.5c0.282,0,0.508-0.094,0.707-0.293
			s0.293-0.425,0.293-0.707V23.875c0-0.282-0.094-0.508-0.293-0.707s-0.425-0.293-0.707-0.293H37.625z"/>
	</g>
	<g>
		<path fill="#F96311" d="M18.125,21.875c-0.515,0-0.961-0.185-1.326-0.549S16.25,20.516,16.25,20s0.185-0.962,0.55-1.326
			c0.364-0.364,0.81-0.549,1.325-0.549s0.961,0.185,1.326,0.549S20,19.484,20,20s-0.185,0.962-0.55,1.326
			C19.086,21.69,18.64,21.875,18.125,21.875z M18.125,19.125c-0.247,0-0.444,0.082-0.619,0.256C17.332,19.557,17.25,19.752,17.25,20
			s0.082,0.443,0.256,0.618c0.175,0.175,0.372,0.257,0.619,0.257s0.444-0.082,0.619-0.256C18.918,20.443,19,20.248,19,20
			s-0.082-0.443-0.256-0.618C18.569,19.207,18.372,19.125,18.125,19.125z"/>
	</g>
	<g>
		<path fill="#F96311" d="M28.75,27.5c-0.516,0-0.961-0.185-1.326-0.549c-0.363-0.364-0.549-0.811-0.549-1.326
			s0.186-0.962,0.55-1.326s0.81-0.549,1.325-0.549s0.961,0.185,1.326,0.549c0.363,0.364,0.549,0.811,0.549,1.326
			s-0.186,0.962-0.55,1.326S29.266,27.5,28.75,27.5z M28.75,24.75c-0.247,0-0.443,0.082-0.619,0.256
			c-0.174,0.176-0.256,0.371-0.256,0.619s0.082,0.443,0.256,0.618c0.176,0.175,0.372,0.257,0.619,0.257s0.443-0.082,0.619-0.256
			c0.174-0.176,0.256-0.371,0.256-0.619s-0.082-0.443-0.256-0.618C29.193,24.832,28.997,24.75,28.75,24.75z"/>
	</g>
	<g>
		<path fill="#F96311" d="M39.375,18.75c-0.516,0-0.961-0.185-1.326-0.549c-0.363-0.364-0.549-0.811-0.549-1.326
			c0-0.516,0.186-0.962,0.55-1.326S38.859,15,39.375,15s0.961,0.185,1.326,0.549c0.363,0.364,0.549,0.81,0.549,1.326
			c0,0.516-0.186,0.962-0.55,1.326S39.891,18.75,39.375,18.75z M39.375,16c-0.247,0-0.443,0.082-0.619,0.256
			c-0.174,0.175-0.256,0.371-0.256,0.619s0.082,0.444,0.256,0.618c0.176,0.175,0.372,0.257,0.619,0.257s0.443-0.082,0.619-0.256
			c0.174-0.175,0.256-0.372,0.256-0.619s-0.082-0.444-0.256-0.618C39.818,16.082,39.622,16,39.375,16z"/>
	</g>
	<g>
		
			<rect x="18.918" y="22.411" transform="matrix(0.8927 0.4507 -0.4507 0.8927 12.8321 -8.0664)" fill="#F96311" width="8.871" height="1"/>
	</g>
	<g>
		
			<rect x="33.579" y="16.1" transform="matrix(0.6577 0.7533 -0.7533 0.6577 27.7959 -18.3419)" fill="#F96311" width="1.001" height="10.625"/>
	</g>
</g>
</svg>
