<?xml version="1.0" encoding="utf-8"?>
<!-- Generator: Adobe Illustrator 16.0.0, SVG Export Plug-In . SVG Version: 6.00 Build 0)  -->
<!DOCTYPE svg PUBLIC "-//W3C//DTD SVG 1.1//EN" "http://www.w3.org/Graphics/SVG/1.1/DTD/svg11.dtd">
<svg version="1.1" id="Layer_1" xmlns="http://www.w3.org/2000/svg" xmlns:xlink="http://www.w3.org/1999/xlink" x="0px" y="0px"
	 width="38px" height="38px" viewBox="0 0 38 38" enable-background="new 0 0 38 38" xml:space="preserve">
<g>
	<g>
		<path fill="#FFFFFF" d="M31.309,21.849c-0.205,0-0.408,0.023-0.606,0.068V18.93c0.001-0.007,0.005-0.015,0.005-0.022v-3.662
			c0-0.173-0.093-0.334-0.243-0.42s-0.337-0.085-0.486,0.003c-0.265,0.156-0.567,0.239-0.875,0.239c-0.95,0-1.725-0.772-1.725-1.723
			c0-0.95,0.774-1.725,1.725-1.725c0.308,0,0.611,0.083,0.875,0.238c0.149,0.088,0.336,0.089,0.486,0.003
			c0.15-0.086,0.243-0.246,0.243-0.42V7.781c0-0.268-0.216-0.484-0.484-0.484H27.21c0.045-0.198,0.068-0.401,0.068-0.604
			C27.278,5.208,26.071,4,24.587,4c-1.483,0-2.692,1.208-2.692,2.692c0,0.204,0.023,0.407,0.07,0.604h-2.867h-0.003h-3.011
			c0.046-0.198,0.069-0.401,0.069-0.604C16.153,5.208,14.945,4,13.461,4c-1.484,0-2.692,1.208-2.692,2.692
			c0,0.204,0.023,0.407,0.069,0.604H7.968c-0.267,0-0.484,0.216-0.484,0.484v2.99c-0.254-0.077-0.521-0.117-0.792-0.117
			C5.208,10.653,4,11.861,4,13.345c0,1.484,1.208,2.691,2.692,2.691c0.271,0,0.538-0.04,0.792-0.118v2.99
			c0,0.267,0.217,0.484,0.484,0.484h2.416v-0.968H8.452v-3.278c0-0.181-0.101-0.347-0.262-0.43
			c-0.161-0.083-0.355-0.069-0.502,0.036c-0.292,0.208-0.636,0.317-0.996,0.317c-0.951,0-1.724-0.772-1.724-1.723
			c0-0.95,0.773-1.725,1.724-1.725c0.36,0,0.704,0.11,0.995,0.318c0.148,0.105,0.342,0.119,0.502,0.035
			c0.161-0.083,0.262-0.248,0.262-0.43V8.264h3.089c0.172,0,0.332-0.092,0.418-0.24c0.087-0.149,0.087-0.333,0.003-0.482
			c-0.147-0.259-0.225-0.553-0.225-0.85c0-0.952,0.773-1.725,1.724-1.725c0.95,0,1.724,0.773,1.724,1.725
			c0,0.297-0.078,0.591-0.224,0.85c-0.085,0.149-0.084,0.333,0.002,0.482c0.087,0.148,0.246,0.24,0.418,0.24h3.229l0.003,2.453
			c-0.168-0.036-0.353-0.053-0.546-0.059c-0.031-0.001-0.06-0.005-0.091-0.005c-0.018,0-0.036,0.001-0.053,0.002
			c-0.042,0-0.081-0.004-0.123-0.002c-0.318,0.011-0.644,0.101-0.953,0.251c-0.921,0.427-1.563,1.359-1.563,2.44
			c0,0.094,0.005,0.188,0.015,0.278c0.004,0.043,0.013,0.085,0.02,0.126c0.007,0.049,0.013,0.097,0.022,0.144
			c0.008,0.042,0.021,0.08,0.031,0.12c0.012,0.048,0.023,0.096,0.039,0.143c0.008,0.026,0.019,0.05,0.028,0.077
			c0.021,0.06,0.042,0.12,0.068,0.179c0.001,0.004,0.003,0.008,0.005,0.011c0.219,0.5,0.586,0.919,1.044,1.205
			c0.386,0.247,0.818,0.392,1.241,0.408c0.046,0.002,0.088-0.001,0.132-0.001c0.017,0,0.031,0.002,0.047,0.002
			c0.021,0,0.044-0.003,0.066-0.004c0.2-0.004,0.395-0.02,0.57-0.059l-0.003,2.45h-1.635v0.968h1.631v10.641
			c0,0.268,0.216,0.484,0.483,0.484h2.992c-0.079,0.254-0.119,0.52-0.119,0.792c0,1.484,1.207,2.691,2.69,2.691
			c1.485,0,2.692-1.207,2.692-2.691c0-0.272-0.04-0.538-0.118-0.792h2.991c0.268,0,0.483-0.217,0.483-0.484v-2.87
			c0.198,0.046,0.401,0.069,0.606,0.069c1.483,0,2.691-1.207,2.691-2.691S32.792,21.849,31.309,21.849z M19.547,15.076
			c-0.011-0.026-0.019-0.052-0.033-0.076c-0.009-0.015-0.022-0.027-0.032-0.042c-0.016-0.02-0.03-0.041-0.048-0.059
			c-0.014-0.013-0.029-0.022-0.043-0.033c-0.019-0.014-0.034-0.029-0.053-0.04c-0.003-0.002-0.008-0.002-0.011-0.004
			s-0.004-0.004-0.008-0.005c-0.014-0.008-0.029-0.01-0.043-0.016c-0.023-0.009-0.046-0.019-0.071-0.024
			c-0.019-0.005-0.038-0.006-0.057-0.008c-0.023-0.002-0.046-0.005-0.069-0.005c-0.02,0.001-0.04,0.005-0.061,0.009
			c-0.021,0.004-0.043,0.007-0.064,0.014c-0.02,0.005-0.039,0.015-0.057,0.024c-0.016,0.006-0.031,0.011-0.045,0.019
			c-0.257,0.151-0.549,0.232-0.846,0.237c-0.014,0-0.029,0-0.043,0c-0.344-0.002-0.664-0.106-0.932-0.284
			c-0.007-0.004-0.013-0.008-0.021-0.012c-0.017-0.012-0.033-0.028-0.049-0.041c-0.404-0.306-0.708-0.796-0.708-1.385
			c0-0.64,0.375-1.178,0.846-1.476c0.258-0.154,0.556-0.249,0.878-0.249c0.308,0,0.61,0.083,0.875,0.239
			c0.014,0.008,0.029,0.011,0.044,0.019c0.02,0.008,0.038,0.017,0.058,0.024c0.021,0.006,0.042,0.01,0.064,0.013
			c0.021,0.003,0.041,0.008,0.062,0.009c0.022,0,0.044-0.002,0.065-0.004c0.02-0.002,0.042-0.003,0.062-0.008
			c0.021-0.005,0.043-0.015,0.064-0.023c0.016-0.006,0.033-0.009,0.048-0.017c0.003-0.001,0.006-0.004,0.009-0.006
			c0.003-0.001,0.006-0.002,0.009-0.003c0.019-0.011,0.032-0.026,0.049-0.038c0.016-0.012,0.033-0.021,0.046-0.035
			c0.018-0.018,0.032-0.039,0.048-0.059c0.01-0.014,0.023-0.026,0.032-0.042c0.015-0.024,0.023-0.051,0.033-0.077
			c0.005-0.014,0.014-0.026,0.017-0.04c0.012-0.042,0.019-0.084,0.019-0.129V8.264h3.085c0.172,0,0.331-0.092,0.418-0.24
			c0.087-0.149,0.088-0.333,0.003-0.482c-0.147-0.259-0.225-0.553-0.225-0.85c0-0.952,0.773-1.725,1.724-1.725
			c0.951,0,1.725,0.773,1.725,1.725c0,0.297-0.077,0.59-0.226,0.85c-0.085,0.149-0.083,0.333,0.003,0.482
			c0.087,0.148,0.246,0.24,0.418,0.24h3.232v2.465c-0.207-0.05-0.421-0.076-0.637-0.076c-1.483,0-2.691,1.208-2.691,2.691
			c0,1.484,1.208,2.691,2.691,2.691c0.216,0,0.43-0.025,0.637-0.076v2.461l-3.317,0.003c-0.043,0-0.086,0.006-0.128,0.018
			c-0.016,0.005-0.029,0.013-0.045,0.02c-0.024,0.009-0.049,0.018-0.072,0.031c-0.016,0.009-0.027,0.022-0.043,0.033
			c-0.019,0.015-0.039,0.028-0.057,0.045c-0.013,0.013-0.022,0.029-0.033,0.044c-0.014,0.018-0.029,0.034-0.041,0.054
			c-0.002,0.002-0.002,0.004-0.003,0.007c0,0.001-0.003,0.003-0.004,0.004c-0.007,0.016-0.011,0.031-0.017,0.046
			c-0.009,0.023-0.02,0.046-0.026,0.069c-0.004,0.019-0.004,0.038-0.007,0.056c-0.002,0.024-0.007,0.047-0.005,0.07
			c0,0.02,0.004,0.039,0.008,0.059c0.003,0.022,0.006,0.045,0.012,0.066c0.006,0.02,0.016,0.038,0.023,0.057
			c0.008,0.016,0.012,0.034,0.021,0.049c0.173,0.294,0.28,0.623,0.298,0.883c0.001,0.026,0.006,0.053,0.006,0.079
			c-0.003,0.627-0.354,1.162-0.796,1.469c-0.252,0.161-0.547,0.257-0.865,0.269c-0.491-0.016-0.917-0.181-1.229-0.458
			c-0.012-0.011-0.026-0.02-0.037-0.03c-0.026-0.024-0.045-0.053-0.068-0.079c-0.277-0.306-0.45-0.706-0.45-1.15
			c0-0.272,0.125-0.677,0.305-0.982c0.01-0.017,0.015-0.034,0.022-0.052s0.017-0.036,0.022-0.055
			c0.007-0.021,0.009-0.045,0.013-0.067c0.003-0.019,0.007-0.039,0.008-0.058c0-0.023-0.003-0.046-0.006-0.069
			c-0.002-0.019-0.003-0.039-0.007-0.058c-0.006-0.023-0.017-0.045-0.024-0.066c-0.008-0.016-0.011-0.034-0.019-0.049
			c-0.001-0.001-0.003-0.003-0.005-0.005c-0.001-0.002-0.001-0.004-0.002-0.006c-0.012-0.019-0.027-0.035-0.041-0.053
			c-0.011-0.015-0.021-0.031-0.034-0.045c-0.018-0.019-0.038-0.032-0.059-0.048c-0.014-0.009-0.025-0.021-0.041-0.031
			c-0.023-0.014-0.05-0.023-0.076-0.032c-0.014-0.005-0.025-0.014-0.041-0.018c-0.041-0.011-0.084-0.018-0.128-0.018l-3.169-0.003
			v-3.174c0-0.044-0.007-0.087-0.019-0.129C19.561,15.103,19.552,15.09,19.547,15.076z M31.309,26.264
			c-0.298,0-0.592-0.077-0.852-0.225c-0.149-0.085-0.333-0.083-0.481,0.003s-0.24,0.246-0.24,0.418v3.089h-3.279
			c-0.182,0-0.348,0.102-0.431,0.262c-0.083,0.161-0.069,0.354,0.036,0.503c0.208,0.291,0.317,0.635,0.317,0.995
			c0,0.95-0.774,1.724-1.726,1.724c-0.949,0-1.722-0.773-1.722-1.724c0-0.36,0.109-0.704,0.316-0.995
			c0.104-0.148,0.119-0.343,0.036-0.503s-0.25-0.262-0.43-0.262h-3.28V19.392H22c-0.069,0.24-0.105,0.489-0.105,0.743
			c0,0.743,0.287,1.397,0.766,1.875c0.011,0.011,0.021,0.023,0.033,0.035c0.015,0.014,0.029,0.026,0.044,0.04
			c0.483,0.458,1.133,0.741,1.85,0.741c0.021,0,0.042-0.002,0.063-0.003c0.024,0.001,0.047,0.003,0.07,0.003
			c0.581,0,1.13-0.231,1.571-0.609c0.003-0.003,0.008-0.007,0.012-0.01c0.021-0.019,0.042-0.038,0.063-0.057
			c0.558-0.493,0.912-1.214,0.912-2.016c0-0.005,0-0.011,0-0.016s0-0.009,0-0.014c0-0.027-0.007-0.054-0.007-0.082
			c-0.009-0.215-0.038-0.428-0.097-0.632h2.561v3.229c0,0.172,0.092,0.331,0.24,0.417c0.148,0.088,0.332,0.088,0.481,0.003
			c0.26-0.146,0.553-0.224,0.852-0.224c0.95,0,1.724,0.773,1.724,1.724S32.259,26.264,31.309,26.264z"/>
	</g>
	<g>
		<g>
			<path fill="#F96311" d="M13.527,34c-1.484,0-2.692-1.207-2.692-2.691c0-0.272,0.04-0.538,0.118-0.792H7.962
				c-0.267,0-0.484-0.217-0.484-0.484v-2.87c-0.198,0.046-0.401,0.069-0.604,0.069c-1.485,0-2.693-1.207-2.693-2.691
				s1.208-2.691,2.693-2.691c0.204,0,0.407,0.023,0.604,0.068v-3.013c0-0.268,0.217-0.484,0.484-0.484h3.662
				c0.174,0,0.334,0.092,0.42,0.244c0.086,0.151,0.085,0.336-0.003,0.485c-0.195,0.332-0.303,0.655-0.303,0.912
				c0,0.974,0.789,1.797,1.723,1.797c0.934,0,1.722-0.822,1.722-1.796c0-0.256-0.108-0.58-0.304-0.913
				c-0.088-0.149-0.089-0.334-0.003-0.485c0.086-0.151,0.246-0.244,0.42-0.244h3.793c0.268,0,0.484,0.216,0.484,0.484v11.128
				c0,0.268-0.216,0.484-0.484,0.484h-2.99c0.077,0.254,0.118,0.52,0.118,0.792C16.218,32.793,15.011,34,13.527,34z M8.446,29.549
				h3.279c0.181,0,0.347,0.102,0.43,0.262c0.083,0.161,0.069,0.354-0.036,0.503c-0.207,0.291-0.317,0.635-0.317,0.995
				c0,0.95,0.773,1.724,1.724,1.724c0.95,0,1.724-0.773,1.724-1.724c0-0.36-0.109-0.704-0.317-0.995
				c-0.105-0.148-0.119-0.342-0.036-0.503c0.083-0.16,0.249-0.262,0.43-0.262h3.28V19.388h-2.565
				c0.066,0.212,0.109,0.441,0.109,0.675c0,1.499-1.232,2.764-2.69,2.764c-1.459,0-2.691-1.266-2.691-2.765
				c0-0.233,0.043-0.462,0.108-0.674H8.446v3.232c0,0.172-0.092,0.331-0.241,0.417c-0.149,0.088-0.333,0.088-0.482,0.003
				c-0.258-0.146-0.553-0.224-0.85-0.224c-0.951,0-1.725,0.773-1.725,1.724s0.773,1.724,1.725,1.724c0.297,0,0.591-0.077,0.85-0.225
				c0.15-0.085,0.333-0.083,0.482,0.003s0.241,0.246,0.241,0.418V29.549z"/>
		</g>
	</g>
</g>
</svg>
