<?xml version="1.0" encoding="utf-8"?>
<!-- Generator: Adobe Illustrator 16.0.0, SVG Export Plug-In . SVG Version: 6.00 Build 0)  -->
<!DOCTYPE svg PUBLIC "-//W3C//DTD SVG 1.1//EN" "http://www.w3.org/Graphics/SVG/1.1/DTD/svg11.dtd">
<svg version="1.1" id="Layer_1" xmlns="http://www.w3.org/2000/svg" xmlns:xlink="http://www.w3.org/1999/xlink" x="0px" y="0px"
	 width="38px" height="38px" viewBox="11 11 38 38" enable-background="new 11 11 38 38" xml:space="preserve">
<g>
	<g>
		<path fill="#FFFFFF" d="M44.268,15.732C43.782,15.247,43.187,15,42.5,15h-25c-0.688,0-1.282,0.247-1.768,0.732
			C15.246,16.218,15,16.813,15,17.5v25c0,0.687,0.246,1.281,0.732,1.768C16.218,44.754,16.813,45,17.5,45h25
			c0.687,0,1.282-0.246,1.768-0.732C44.754,43.781,45,43.187,45,42.5v-25C45,16.813,44.754,16.218,44.268,15.732z M16.439,16.439
			C16.735,16.144,17.082,16,17.5,16h25c0.418,0,0.766,0.144,1.061,0.439C43.856,16.735,44,17.082,44,17.5v2.25H16V17.5
			C16,17.082,16.144,16.735,16.439,16.439z M43.561,43.561C43.266,43.856,42.918,44,42.5,44h-25c-0.418,0-0.765-0.144-1.061-0.439
			S16,42.918,16,42.5V20.75h28V42.5C44,42.918,43.856,43.265,43.561,43.561z"/>
		<circle fill="#FFFFFF" cx="35.976" cy="18" r="1"/>
		<circle fill="#FFFFFF" cx="38.976" cy="18" r="1"/>
		<circle fill="#FFFFFF" cx="41.976" cy="18" r="1"/>
	</g>
	<g>
		<path fill="#F96311" d="M22.5,27l7.504,6.344L37.5,27v10h-15V27z M23.5,29.154V36h13v-6.844l-5.85,4.951l-0.646,0.547
			l-0.646-0.547L23.5,29.154"/>
	</g>
	<g>
		<line fill="#FFFFFF" x1="37.397" y1="27.533" x2="22.5" y2="27.533"/>
	</g>
	<g>
		<rect x="22.5" y="27.032" fill="#F96311" width="14.897" height="1.001"/>
	</g>
</g>
</svg>
