<?xml version="1.0" encoding="utf-8"?>
<!-- Generator: Adobe Illustrator 16.0.0, SVG Export Plug-In . SVG Version: 6.00 Build 0)  -->
<!DOCTYPE svg PUBLIC "-//W3C//DTD SVG 1.1//EN" "http://www.w3.org/Graphics/SVG/1.1/DTD/svg11.dtd">
<svg version="1.1" id="Layer_1" xmlns="http://www.w3.org/2000/svg" xmlns:xlink="http://www.w3.org/1999/xlink" x="0px" y="0px"
	 width="38px" height="38px" viewBox="12 12 38 38" enable-background="new 12 12 38 38" xml:space="preserve">
<g>
	<g>
		<path fill="#F96311" d="M18.562,46c-0.049,0-0.1-0.001-0.151-0.004c-1.912-0.104-2.414-1.698-2.411-2.526V20.249
			c0-0.268,0.216-0.483,0.484-0.483c0.267,0,0.484,0.216,0.484,0.483v23.223c0.001,0.15,0.055,1.48,1.496,1.56
			c0.343,0.012,0.597-0.057,0.785-0.23c0.485-0.445,0.516-1.511,0.534-2.147c0.004-0.136,0.008-0.257,0.014-0.359
			c0.043-0.694,0.019-17.186-0.001-25.808l0-0.485h26.203l-0.001,0.485c0,0.254-0.055,25.402,0,26.969
			c0.027,0.774-0.175,1.391-0.602,1.832c-0.455,0.472-1.129,0.711-2.003,0.711H19.331c-0.083,0-0.162-0.021-0.23-0.059
			C18.932,45.98,18.753,46,18.562,46z M20.284,45.03h23.109c0.414,0,0.977-0.072,1.308-0.415c0.236-0.245,0.348-0.624,0.33-1.126
			c-0.052-1.482-0.009-22.897-0.002-26.521H20.764c0.008,3.583,0.051,24.546-0.002,25.385c-0.005,0.094-0.009,0.205-0.012,0.328
			C20.732,43.316,20.703,44.294,20.284,45.03z"/>
	</g>
	<g>
		<path fill="#F96311" d="M18.381,44.146c-0.268,0-0.484-0.216-0.484-0.483V18.336c0-0.268,0.216-0.484,0.484-0.484
			s0.484,0.216,0.484,0.484v25.327C18.865,43.93,18.649,44.146,18.381,44.146z"/>
	</g>
	<g>
		<path fill="#FFFFFF" d="M23.015,20.393h19.727c0.268,0,0.484-0.217,0.484-0.483c0-0.268-0.217-0.484-0.484-0.484H23.015
			c-0.268,0-0.484,0.217-0.484,0.484C22.531,20.176,22.748,20.393,23.015,20.393z"/>
		<path fill="#FFFFFF" d="M42.742,37.695H23.015c-0.268,0-0.484,0.216-0.484,0.483s0.216,0.483,0.484,0.483h19.727
			c0.268,0,0.484-0.216,0.484-0.483S43.01,37.695,42.742,37.695z"/>
		<path fill="#FFFFFF" d="M42.742,22.978H23.015c-0.268,0-0.484,0.216-0.484,0.483s0.216,0.484,0.484,0.484h19.727
			c0.268,0,0.484-0.217,0.484-0.484S43.01,22.978,42.742,22.978z"/>
		<path fill="#FFFFFF" d="M42.742,41.247H23.015c-0.268,0-0.484,0.217-0.484,0.484s0.216,0.483,0.484,0.483h19.727
			c0.268,0,0.484-0.216,0.484-0.483S43.01,41.247,42.742,41.247z"/>
		<path fill="#FFFFFF" d="M42.742,27.038h-9.717c-0.267,0-0.483,0.216-0.483,0.483s0.217,0.484,0.483,0.484h9.717
			c0.268,0,0.484-0.217,0.484-0.484S43.01,27.038,42.742,27.038z"/>
		<path fill="#FFFFFF" d="M42.742,30.59h-9.717c-0.267,0-0.483,0.216-0.483,0.483s0.217,0.483,0.483,0.483h9.717
			c0.268,0,0.484-0.216,0.484-0.483S43.01,30.59,42.742,30.59z"/>
		<path fill="#FFFFFF" d="M42.742,34.142h-9.717c-0.267,0-0.483,0.217-0.483,0.484s0.217,0.483,0.483,0.483h9.717
			c0.268,0,0.484-0.216,0.484-0.483S43.01,34.142,42.742,34.142z"/>
		<path fill="#FFFFFF" d="M30.579,27.041h-8.087v8.127h8.087V27.041z M29.611,34.2h-6.152v-6.191h6.152V34.2z"/>
	</g>
</g>
</svg>
