<?xml version="1.0" encoding="utf-8"?>
<!-- Generator: Adobe Illustrator 16.0.0, SVG Export Plug-In . SVG Version: 6.00 Build 0)  -->
<!DOCTYPE svg PUBLIC "-//W3C//DTD SVG 1.1//EN" "http://www.w3.org/Graphics/SVG/1.1/DTD/svg11.dtd">
<svg version="1.1" id="Layer_1" xmlns="http://www.w3.org/2000/svg" xmlns:xlink="http://www.w3.org/1999/xlink" x="0px" y="0px"
	 width="38px" height="38px" viewBox="11.838 11.5 38 38" enable-background="new 11.838 11.5 38 38" xml:space="preserve">
<g>
	<g>
		<path fill="#FFFFFF" d="M21.152,45.5h-4c-0.598,0-0.984-0.386-0.984-0.983V40.06c0-0.598,0.386-0.983,0.984-0.983h4
			c0.598,0,0.984,0.386,0.984,0.983v4.457C22.136,45.114,21.75,45.5,21.152,45.5z M17.152,44.517h4V40.06h-4V44.517z"/>
	</g>
	<g>
		<path fill="#FFFFFF" d="M29.108,45.5h-3.999c-0.598,0-0.984-0.386-0.984-0.983v-6.6c0-0.597,0.386-0.983,0.984-0.983h3.999
			c0.598,0,0.983,0.387,0.983,0.983v6.6C30.091,45.114,29.706,45.5,29.108,45.5z M25.109,44.517h3.999v-6.6h-3.999V44.517z"/>
	</g>
	<g>
		<path fill="#FFFFFF" d="M36.566,45.5h-4c-0.598,0-0.982-0.386-0.982-0.983v-8.74c0-0.598,0.385-0.983,0.982-0.983h4
			c0.598,0,0.984,0.386,0.984,0.983v8.74C37.551,45.114,37.164,45.5,36.566,45.5z M32.566,44.517h4v-8.74h-4V44.517z"/>
	</g>
	<g>
		<path fill="#FFFFFF" d="M44.523,45.5h-4c-0.598,0-0.984-0.386-0.984-0.983V33.635c0-0.598,0.387-0.983,0.984-0.983h4
			c0.598,0,0.984,0.386,0.984,0.983v10.882C45.508,45.114,45.121,45.5,44.523,45.5z M40.523,44.517h4V33.635h-4V44.517z"/>
	</g>
	<g>
		<path fill="#F96311" d="M18.694,36.639c-0.268,0-0.486-0.215-0.492-0.483c-0.005-0.271,0.211-0.495,0.482-0.501
			c0.151-0.002,15.204-0.432,22.735-12.792c0.141-0.232,0.443-0.306,0.676-0.164c0.23,0.142,0.305,0.444,0.162,0.676
			c-7.816,12.831-23.399,13.262-23.555,13.265C18.7,36.639,18.697,36.639,18.694,36.639z"/>
	</g>
	<g>
		<path fill="#F96311" d="M42.932,29.28c-0.25,0-0.465-0.189-0.49-0.443l-0.551-5.615l-5.602,0.565
			c-0.271,0.027-0.512-0.17-0.539-0.439c-0.027-0.271,0.17-0.512,0.439-0.539l6.584-0.664l0.646,6.596
			c0.027,0.271-0.17,0.512-0.441,0.538C42.963,29.279,42.947,29.28,42.932,29.28z"/>
	</g>
	<g>
		<path fill="#FFFFFF" d="M25.789,15.753c-0.131-0.237-0.431-0.324-0.668-0.192c-0.237,0.131-0.324,0.431-0.192,0.668l0.583,1.055
			l-8.14,9.541l-0.274-0.493c-0.133-0.237-0.431-0.322-0.669-0.191c-0.237,0.133-0.323,0.432-0.19,0.669l0.585,1.052
			c0.015,0.042,0.038,0.08,0.065,0.117l1.681,3.021c0.09,0.162,0.258,0.253,0.431,0.253c0.081,0,0.163-0.021,0.239-0.063
			c0.237-0.132,0.322-0.432,0.19-0.669l-0.39-0.701l2.009-0.392c0.003,0.013,0,0.025,0.003,0.038
			c0.226,0.758,1.042,2.091,2.572,2.091c0.117,0,0.238-0.008,0.363-0.024c1.761-0.23,2.297-2.114,2.333-3.079
			c0.001-0.018-0.007-0.034-0.008-0.051l4.828-0.941l0.679,1.228c0.09,0.162,0.258,0.254,0.43,0.254
			c0.082,0,0.162-0.021,0.238-0.062c0.238-0.132,0.324-0.432,0.191-0.669L25.789,15.753z M23.858,30.557
			c-1.236,0.159-1.747-1.043-1.846-1.317l3.308-0.645C25.263,29.084,25.002,30.407,23.858,30.557z M18.535,28.916l-0.653-1.174
			l8.138-9.538l4.619,8.351L18.535,28.916z"/>
		<path fill="#FFFFFF" d="M29.51,20.111c0.144,0,0.287-0.063,0.384-0.184l1.618-2.013c0.17-0.212,0.137-0.522-0.074-0.692
			c-0.211-0.17-0.522-0.135-0.692,0.075l-1.618,2.014c-0.17,0.211-0.137,0.521,0.075,0.691
			C29.293,20.075,29.402,20.111,29.51,20.111z"/>
		<path fill="#FFFFFF" d="M30.739,21.589c0.09,0.159,0.257,0.248,0.428,0.248c0.082,0,0.166-0.021,0.242-0.064l2.33-1.322
			c0.236-0.135,0.318-0.435,0.184-0.671c-0.133-0.236-0.434-0.318-0.67-0.185l-2.329,1.323
			C30.687,21.052,30.604,21.353,30.739,21.589z"/>
		<path fill="#FFFFFF" d="M34.535,22.903l-2.723,0.371c-0.27,0.037-0.457,0.285-0.42,0.554c0.033,0.247,0.244,0.426,0.486,0.426
			c0.021,0,0.045-0.001,0.066-0.004l2.723-0.372c0.27-0.036,0.457-0.284,0.422-0.554C35.053,23.056,34.805,22.87,34.535,22.903z"/>
	</g>
</g>
</svg>
