<?xml version="1.0" encoding="utf-8"?>
<!-- Generator: Adobe Illustrator 16.0.0, SVG Export Plug-In . SVG Version: 6.00 Build 0)  -->
<!DOCTYPE svg PUBLIC "-//W3C//DTD SVG 1.1//EN" "http://www.w3.org/Graphics/SVG/1.1/DTD/svg11.dtd">
<svg version="1.1" id="Layer_1" xmlns="http://www.w3.org/2000/svg" xmlns:xlink="http://www.w3.org/1999/xlink" x="0px" y="0px"
	 width="38px" height="38px" viewBox="0 0 38 38" enable-background="new 0 0 38 38" xml:space="preserve">
<g>
	<g>
		<path fill="#F96311" d="M23.91,24.692c-0.199,0-0.387-0.122-0.46-0.319c-0.096-0.255,0.034-0.538,0.288-0.633
			c2.51-0.936,4.309-4.334,4.326-4.368c0.126-0.241,0.422-0.334,0.663-0.208c0.241,0.125,0.334,0.422,0.209,0.663
			c-0.08,0.153-1.988,3.767-4.854,4.835C24.025,24.683,23.968,24.692,23.91,24.692z"/>
	</g>
	<g>
		<path fill="#F96311" d="M13.784,24.554c-0.075,0-0.152-0.019-0.224-0.055c-0.125-0.064-3.104-1.619-4.53-4.933
			c-0.107-0.249,0.008-0.539,0.257-0.646c0.249-0.107,0.539,0.007,0.646,0.257c1.287,2.991,4.047,4.432,4.075,4.445
			c0.242,0.124,0.337,0.42,0.214,0.662C14.135,24.455,13.962,24.554,13.784,24.554z"/>
	</g>
	<g>
		<path fill="#F96311" d="M27.817,9.736H25.1c-0.271,0-0.491-0.221-0.491-0.492s0.22-0.492,0.491-0.492h1.68
			c-1.172-1.296-3.911-3.768-7.756-3.768c-5.194,0-7.983,4.056-8.011,4.096c-0.152,0.226-0.458,0.285-0.683,0.134
			c-0.225-0.152-0.285-0.458-0.134-0.683C10.32,8.346,13.311,4,19.023,4c5.71,0,9.06,4.762,9.2,4.964
			c0.103,0.151,0.115,0.346,0.03,0.508C28.168,9.634,28,9.736,27.817,9.736z"/>
	</g>
	<path fill="#F96311" d="M21.313,13.107v-2.073c-0.019-0.956-0.893-1.635-2.13-1.602c-1.096,0.011-2.205,0.568-2.205,1.612v2.081
		c-0.591,0.206-1.02,0.764-1.02,1.425v2.047c0,0.835,0.679,1.514,1.512,1.514h3.41c0.834,0,1.512-0.679,1.512-1.514V14.55
		C22.392,13.867,21.936,13.294,21.313,13.107z M19.191,10.417c0.4-0.003,1.128,0.125,1.138,0.628v1.991h-2.368v-1.991
		C17.961,10.676,18.598,10.422,19.191,10.417z M21.408,16.597c0,0.293-0.237,0.531-0.528,0.531h-3.41
		c-0.292,0-0.528-0.238-0.528-0.531V14.55c0-0.292,0.237-0.531,0.528-0.531h3.41c0.291,0,0.528,0.238,0.528,0.531V16.597z"/>
	<path fill="#FFFFFF" d="M9.31,11.429c1.708,0,3.097,1.389,3.097,3.097c0,1.707-1.389,3.096-3.097,3.096
		c-1.708,0-3.097-1.389-3.097-3.096C6.213,12.818,7.602,11.429,9.31,11.429 M9.31,10.446c-2.253,0-4.08,1.826-4.08,4.08
		c0,2.253,1.827,4.08,4.08,4.08s4.08-1.827,4.08-4.08C13.39,12.272,11.563,10.446,9.31,10.446L9.31,10.446z"/>
	<path fill="#FFFFFF" d="M21.255,27.641c1.1-0.732,1.826-1.981,1.826-3.4c0-2.254-1.827-4.081-4.08-4.081
		c-2.254,0-4.081,1.827-4.081,4.081c0,1.406,0.712,2.647,1.796,3.381C11.95,28.858,11.86,34,11.86,34h14.281
		C26.141,34,25.965,28.912,21.255,27.641z M15.904,24.24c0-1.708,1.389-3.097,3.097-3.097c1.707,0,3.096,1.389,3.096,3.097
		c0,1.707-1.389,3.097-3.096,3.097C17.293,27.337,15.904,25.947,15.904,24.24z M13.684,31.087c1.015-1.824,2.784-2.75,5.259-2.75
		c2.507,0,4.308,0.948,5.353,2.819c0.371,0.663,0.583,1.333,0.704,1.86H12.979C13.094,32.473,13.303,31.774,13.684,31.087z"/>
	<path fill="#FFFFFF" d="M28.69,11.429c1.708,0,3.097,1.389,3.097,3.097c0,1.707-1.389,3.096-3.097,3.096s-3.097-1.389-3.097-3.096
		C25.594,12.818,26.982,11.429,28.69,11.429 M28.69,10.446c-2.254,0-4.08,1.826-4.08,4.08c0,2.253,1.826,4.08,4.08,4.08
		s4.08-1.827,4.08-4.08C32.771,12.272,30.944,10.446,28.69,10.446L28.69,10.446z"/>
</g>
</svg>
