<?xml version="1.0" encoding="utf-8"?>
<!-- Generator: Adobe Illustrator 16.0.0, SVG Export Plug-In . SVG Version: 6.00 Build 0)  -->
<!DOCTYPE svg PUBLIC "-//W3C//DTD SVG 1.1//EN" "http://www.w3.org/Graphics/SVG/1.1/DTD/svg11.dtd">
<svg version="1.1" id="Layer_1" xmlns="http://www.w3.org/2000/svg" xmlns:xlink="http://www.w3.org/1999/xlink" x="0px" y="0px"
	 width="38px" height="38px" viewBox="0 0 38 38" enable-background="new 0 0 38 38" xml:space="preserve">
<g>
	<g>
		<path fill="#FFFFFF" d="M21.635,13.953H9.001c-0.286,0-0.518-0.228-0.518-0.508s0.231-0.508,0.518-0.508h12.633
			c0.285,0,0.517,0.228,0.517,0.508S21.92,13.953,21.635,13.953z"/>
	</g>
	<g>
		<path fill="#FFFFFF" d="M21.635,25.547H9.001c-0.286,0-0.518-0.228-0.518-0.509c0-0.28,0.231-0.509,0.518-0.509h12.633
			c0.285,0,0.517,0.229,0.517,0.509C22.151,25.319,21.92,25.547,21.635,25.547z"/>
	</g>
	<g>
		<rect x="29.134" y="17.048" fill="#FFFFFF" width="1.034" height="3.884"/>
	</g>
	<g>
		<path fill="#FFFFFF" d="M26.857,34H7.31C5.485,34,4,32.472,4,30.594V7.407C4,5.528,5.485,4,7.31,4h19.548
			c1.825,0,3.311,1.528,3.311,3.407v1.955h-1.034V7.407c0-1.318-1.021-2.39-2.276-2.39H7.31c-1.254,0-2.275,1.072-2.275,2.39v23.187
			c0,1.317,1.021,2.39,2.275,2.39h19.548c1.255,0,2.276-1.072,2.276-2.39v-1.811h1.034v1.811C30.168,32.472,28.683,34,26.857,34z"/>
	</g>
	<g>
		<path fill="#F96311" d="M29.125,14.833c-0.131,0-0.257-0.048-0.353-0.136c0,0-1.103-1.01-1.534-1.398
			c-0.209-0.189-0.224-0.511-0.03-0.718c0.192-0.207,0.519-0.221,0.73-0.031c0.268,0.242,0.797,0.725,1.16,1.057l2.306-2.439
			c0.195-0.206,0.521-0.217,0.73-0.027c0.21,0.191,0.223,0.513,0.028,0.719l-2.659,2.813c-0.094,0.099-0.223,0.157-0.36,0.162
			C29.139,14.833,29.131,14.833,29.125,14.833z"/>
	</g>
	<g>
		<path fill="#F96311" d="M34,17.551h-8.699V8.856H34V17.551z M32.966,16.534V9.873h-6.631v6.661H32.966"/>
	</g>
	<g>
		<path fill="#F96311" d="M34,29.145h-8.699v-8.695H34V29.145z M32.966,28.127v-6.661h-6.631v6.661H32.966"/>
	</g>
	<g>
		<path fill="#F96311" d="M31.101,26.732c-0.133,0-0.266-0.049-0.366-0.149l-2.9-2.854c-0.201-0.199-0.201-0.521,0.001-0.72
			c0.201-0.198,0.529-0.198,0.732,0.001l2.898,2.854c0.203,0.199,0.203,0.521-0.001,0.721
			C31.365,26.684,31.232,26.732,31.101,26.732z"/>
	</g>
	<g>
		<path fill="#F96311" d="M28.2,26.732c-0.133,0-0.265-0.049-0.365-0.147c-0.202-0.199-0.202-0.521-0.001-0.721l2.9-2.854
			c0.202-0.199,0.53-0.199,0.73-0.001c0.204,0.199,0.204,0.521,0.001,0.72l-2.898,2.854C28.465,26.684,28.333,26.732,28.2,26.732z"
			/>
	</g>
</g>
</svg>
