<?xml version="1.0" encoding="utf-8"?>
<!-- Generator: Adobe Illustrator 16.0.0, SVG Export Plug-In . SVG Version: 6.00 Build 0)  -->
<!DOCTYPE svg PUBLIC "-//W3C//DTD SVG 1.1//EN" "http://www.w3.org/Graphics/SVG/1.1/DTD/svg11.dtd">
<svg version="1.1" id="Layer_1" xmlns="http://www.w3.org/2000/svg" xmlns:xlink="http://www.w3.org/1999/xlink" x="0px" y="0px"
	 width="38px" height="38px" viewBox="10.999 11 38 38" enable-background="new 10.999 11 38 38" xml:space="preserve">
<g>
	<path fill="#FFFFFF" d="M41.001,15.033h-3.117c0,0,0.01,0.008,0.025,0.02c-0.135-0.013-0.27-0.02-0.408-0.02h-3.664
		c0,0-5.054-0.033-9.45-0.033c-2.198,0-4.23,0.008-5.385,0.033c-3.462,0.074-4.051,1.889-4,3.797c0.05,1.908,0,16.773,0,16.773v5.6
		c0,2.096,1.789,3.797,4,3.797h18.499c0.139,0,0.273-0.007,0.408-0.02C37.896,44.992,37.884,45,37.884,45h3.117
		c2.207,0,3.998-1.701,3.998-3.797V18.83C44.999,16.734,43.208,15.033,41.001,15.033z M19.002,44c-1.654,0-3-1.255-3-2.797v-5.598
		c0.002-0.629,0.05-14.902,0-16.802c-0.026-0.966,0.145-1.605,0.535-2.016c0.453-0.476,1.29-0.73,2.486-0.756
		C20.038,16.011,21.842,16,24.387,16c4.342,0,9.393,0.032,9.444,0.033h0.002h0.004h3.664c0.994,0,1.875,0.456,2.42,1.154
		c0.328,0.517,0.568,1.081,0.574,1.644c0.002,0.023,0.002,0.06,0.004,0.102v6.204v15.769c-0.002,0.188-0.002,0.294-0.004,0.299
		c0.006,0.098-0.002,0.195-0.014,0.293c-0.006,0.053-0.016,0.104-0.025,0.154c-0.014,0.07-0.025,0.141-0.045,0.211
		c-0.004,0.013-0.008,0.025-0.012,0.039c-0.066,0.229-0.168,0.455-0.291,0.676C39.593,43.426,38.618,44,37.501,44H19.002z
		 M43.999,41.203c0,1.542-1.346,2.797-2.998,2.797h-0.654c0.238-0.299,0.438-0.592,0.602-0.882c0.176-0.283,0.313-0.589,0.404-0.913
		c0.008-0.025,0.014-0.05,0.021-0.074c0.018-0.072,0.037-0.143,0.051-0.216c0.021-0.099,0.037-0.198,0.049-0.296
		c0.002-0.013,0.004-0.025,0.004-0.039c0.01-0.087,0.014-0.174,0.016-0.261c0-0.039,0.006-0.077,0.006-0.116v-0.346
		c0.002-0.441,0.004-1.297,0.008-3.021c0.004-2.182,0.008-4.891,0.01-7.431c0.002-3.868,0.004-10.321-0.018-11.479V18.83
		c0-0.83-0.285-1.596-0.762-2.221c-0.123-0.191-0.256-0.383-0.41-0.576h0.674c1.652,0,2.998,1.255,2.998,2.797V41.203z"/>
	<g>
		<path fill="#FFFFFF" d="M36.94,27.009H19.787c-0.276,0-0.5-0.224-0.5-0.5s0.224-0.5,0.5-0.5H36.94c0.275,0,0.5,0.224,0.5,0.5
			S37.216,27.009,36.94,27.009z"/>
	</g>
	<g>
		<path fill="#FFFFFF" d="M36.94,32.973H19.787c-0.276,0-0.5-0.224-0.5-0.5s0.224-0.5,0.5-0.5H36.94c0.275,0,0.5,0.224,0.5,0.5
			S37.216,32.973,36.94,32.973z"/>
	</g>
	<g>
		<path fill="#FFFFFF" d="M26.742,38.963h-4.944c-0.276,0-0.5-0.225-0.5-0.5c0-0.277,0.224-0.5,0.5-0.5h4.944
			c0.276,0,0.5,0.223,0.5,0.5C27.242,38.738,27.018,38.963,26.742,38.963z"/>
	</g>
	<g>
		<polygon fill="#F96311" points="19.717,15 19.74,23.362 23.928,20.187 28.056,23.362 28.056,15 		"/>
	</g>
</g>
</svg>
