<?xml version="1.0" encoding="utf-8"?>
<!-- Generator: Adobe Illustrator 16.0.0, SVG Export Plug-In . SVG Version: 6.00 Build 0)  -->
<!DOCTYPE svg PUBLIC "-//W3C//DTD SVG 1.1//EN" "http://www.w3.org/Graphics/SVG/1.1/DTD/svg11.dtd">
<svg version="1.1" id="Layer_1" xmlns="http://www.w3.org/2000/svg" xmlns:xlink="http://www.w3.org/1999/xlink" x="0px" y="0px"
	 width="38px" height="38px" viewBox="0 0 38 38" enable-background="new 0 0 38 38" xml:space="preserve">
<g>
	<g>
		<path fill="#FFFFFF" d="M25.941,16.009H8.787c-0.276,0-0.5-0.224-0.5-0.5c0-0.277,0.224-0.5,0.5-0.5h17.154
			c0.275,0,0.5,0.224,0.5,0.5C26.441,15.785,26.217,16.009,25.941,16.009z"/>
	</g>
	<g>
		<path fill="#FFFFFF" d="M25.941,21.973H8.787c-0.276,0-0.5-0.224-0.5-0.5s0.224-0.5,0.5-0.5h17.154c0.275,0,0.5,0.224,0.5,0.5
			S26.217,21.973,25.941,21.973z"/>
	</g>
	<g>
		<path fill="#FFFFFF" d="M15.744,27.963h-4.945c-0.277,0-0.5-0.224-0.5-0.501c0-0.275,0.223-0.499,0.5-0.499h4.945
			c0.276,0,0.5,0.224,0.5,0.499C16.243,27.739,16.02,27.963,15.744,27.963z"/>
	</g>
	<g>
		<polygon fill="#F96311" points="8.719,4 8.741,12.363 12.929,9.187 17.057,12.363 17.057,4 		"/>
	</g>
	<g>
		<path fill="#FFFFFF" d="M28.734,33H6.657c-0.444,0-0.813-0.144-1.126-0.439c-0.314-0.297-0.467-0.643-0.467-1.061v-25
			c0-0.419,0.153-0.766,0.467-1.061C5.844,5.144,6.213,5,6.657,5h21.252c0.444,0,0.813,0.144,1.128,0.439
			c0.313,0.295,0.467,0.642,0.467,1.061v18.625h1.063V6.5c0-0.688-0.263-1.283-0.778-1.768C29.271,4.247,28.64,4,27.909,4H6.657
			c-0.73,0-1.362,0.247-1.878,0.732C4.262,5.217,4,5.813,4,6.5v25c0,0.687,0.262,1.281,0.779,1.768C5.294,33.753,5.927,34,6.657,34
			h22.147c-0.035-0.035,0.047-0.596,0-0.624C28.793,33.247,28.766,33.123,28.734,33z"/>
	</g>
	<g>
		<path fill="#F96311" d="M33.878,29.654c0.119-0.555,0.154-1.135,0.092-1.729c-0.002-0.026-0.007-0.053-0.01-0.079l-1.32-0.362
			c-0.073-0.298-0.176-0.58-0.305-0.848l0.784-1.123c-0.332-0.511-0.745-0.962-1.22-1.335l-1.19,0.677
			c-0.256-0.155-0.528-0.284-0.814-0.384l-0.24-1.35c-0.554-0.118-1.135-0.154-1.729-0.092c-0.025,0.003-0.051,0.007-0.077,0.011
			l-0.363,1.32c-0.297,0.072-0.58,0.174-0.848,0.305l-1.123-0.783c-0.511,0.331-0.962,0.744-1.336,1.218l0.678,1.19
			c-0.155,0.256-0.284,0.529-0.383,0.815l-1.35,0.239c-0.118,0.555-0.155,1.136-0.093,1.729c0.004,0.027,0.007,0.054,0.011,0.079
			l1.32,0.362c0.073,0.297,0.175,0.581,0.305,0.848l-0.784,1.123c0.332,0.512,0.745,0.962,1.219,1.336l1.191-0.677
			c0.256,0.154,0.528,0.284,0.814,0.382l0.24,1.35c0.554,0.119,1.135,0.155,1.729,0.093c0.026-0.003,0.052-0.008,0.077-0.011
			l0.363-1.319c0.297-0.073,0.582-0.176,0.849-0.305l1.122,0.783c0.512-0.332,0.963-0.745,1.336-1.219l-0.677-1.191
			c0.155-0.255,0.284-0.528,0.383-0.814L33.878,29.654z M28.703,30.433c-1.067,0.112-2.023-0.661-2.135-1.729
			c-0.113-1.066,0.661-2.022,1.729-2.136c1.067-0.112,2.024,0.661,2.137,1.729C30.545,29.364,29.771,30.32,28.703,30.433z"/>
	</g>
</g>
</svg>
