<?xml version="1.0" encoding="utf-8"?>
<!-- Generator: Adobe Illustrator 16.0.0, SVG Export Plug-In . SVG Version: 6.00 Build 0)  -->
<!DOCTYPE svg PUBLIC "-//W3C//DTD SVG 1.1//EN" "http://www.w3.org/Graphics/SVG/1.1/DTD/svg11.dtd">
<svg version="1.1" id="Layer_1" xmlns="http://www.w3.org/2000/svg" xmlns:xlink="http://www.w3.org/1999/xlink" x="0px" y="0px"
	 width="38px" height="38px" viewBox="0 0 38 38" enable-background="new 0 0 38 38" xml:space="preserve">
<g>
	<g>
		<path fill="#FFFFFF" d="M6.525,30.287L7.751,31.5l-1.226,1.212L5.301,31.5L6.525,30.287 M6.525,29
			c-0.074,0-0.148,0.027-0.206,0.084l-2.233,2.211c-0.115,0.113-0.115,0.297,0,0.409l2.233,2.21C6.377,33.971,6.452,34,6.526,34
			c0.075,0,0.148-0.029,0.206-0.086l2.233-2.21c0.114-0.112,0.114-0.296,0-0.409l-2.233-2.211C6.676,29.027,6.601,29,6.525,29
			L6.525,29z"/>
	</g>
	<g>
		<path fill="#FFFFFF" d="M8.05,5v3H5V5H8.05 M8.725,4h-4.4C4.146,4,4,4.145,4,4.32v4.357C4,8.855,4.146,9,4.324,9h4.4
			C8.903,9,9.05,8.855,9.05,8.678V4.32C9.05,4.145,8.903,4,8.725,4L8.725,4z"/>
	</g>
	<path fill="#FFFFFF" d="M31.475,5c0.408,0,0.793,0.158,1.082,0.443C32.843,5.727,33,6.102,33,6.5s-0.157,0.773-0.443,1.057
		C32.268,7.843,31.884,8,31.475,8c-0.408,0-0.791-0.157-1.08-0.443c-0.287-0.283-0.442-0.658-0.442-1.057s0.155-0.773,0.442-1.057
		C30.684,5.158,31.066,5,31.475,5 M31.475,4c-0.646,0-1.291,0.245-1.783,0.732c-0.986,0.977-0.986,2.559,0,3.535
		C30.184,8.756,30.829,9,31.475,9c0.647,0,1.293-0.244,1.785-0.732c0.986-0.977,0.986-2.559,0-3.535C32.768,4.245,32.122,4,31.475,4
		L31.475,4z"/>
	<path fill="#FFFFFF" d="M31.186,30.646L32.499,33h-2.626L31.186,30.646 M31.186,29c-0.104,0-0.211,0.04-0.293,0.12l-2.398,4.3
		c-0.161,0.16-0.161,0.42,0,0.58h5.386c0.162-0.16,0.162-0.42,0-0.58l-2.399-4.3C31.396,29.04,31.291,29,31.186,29L31.186,29z"/>
	<path fill="#F96311" d="M10.683,9.889l2.506,0.168c0.274,0.02,0.481,0.263,0.462,0.533c-0.02,0.275-0.258,0.486-0.529,0.468
		l-1.18-0.079l2.771,2.774c0.1,0.1,0.146,0.229,0.146,0.36c0.003,0.132-0.044,0.264-0.148,0.363
		c-0.196,0.193-0.515,0.191-0.708-0.002l-2.774-2.771l0.077,1.18c0.019,0.271-0.191,0.51-0.467,0.527
		c-0.271,0.021-0.514-0.186-0.533-0.461l-0.168-2.506c-0.009-0.121,0.033-0.234,0.104-0.329C10.338,9.967,10.503,9.877,10.683,9.889
		z"/>
	<path fill="#F96311" d="M28.076,10.603l-0.168,2.506c-0.021,0.274-0.264,0.481-0.535,0.462c-0.273-0.02-0.484-0.258-0.467-0.529
		l0.078-1.18l-2.773,2.771c-0.1,0.1-0.23,0.146-0.359,0.146c-0.133,0.003-0.265-0.044-0.365-0.148
		c-0.192-0.196-0.189-0.515,0.004-0.708l2.771-2.774l-1.181,0.077c-0.271,0.019-0.511-0.191-0.526-0.467
		c-0.021-0.271,0.187-0.514,0.461-0.533l2.506-0.168c0.121-0.009,0.234,0.033,0.328,0.104
		C27.996,10.258,28.087,10.423,28.076,10.603z"/>
	<path fill="#F96311" d="M27.361,27.996l-2.506-0.168c-0.274-0.021-0.482-0.264-0.461-0.535c0.018-0.273,0.256-0.484,0.527-0.467
		l1.18,0.078l-2.771-2.773c-0.098-0.1-0.146-0.23-0.145-0.359c-0.004-0.133,0.045-0.265,0.147-0.364
		c0.196-0.193,0.515-0.19,0.708,0.003l2.773,2.771l-0.078-1.181c-0.018-0.271,0.191-0.51,0.469-0.526
		c0.271-0.021,0.516,0.187,0.533,0.461l0.169,2.506c0.008,0.121-0.034,0.234-0.104,0.328C27.705,27.916,27.541,28.007,27.361,27.996
		z"/>
	<path fill="#F96311" d="M9.969,27.281l0.168-2.506c0.02-0.274,0.263-0.482,0.533-0.461c0.275,0.018,0.486,0.256,0.468,0.527
		l-0.079,1.18l2.774-2.771c0.1-0.098,0.229-0.146,0.36-0.145c0.132-0.004,0.264,0.045,0.363,0.147
		c0.193,0.197,0.191,0.515-0.002,0.708l-2.771,2.773l1.18-0.077c0.271-0.019,0.51,0.19,0.527,0.468
		c0.021,0.271-0.186,0.516-0.461,0.534l-2.506,0.168c-0.121,0.008-0.234-0.034-0.329-0.104C10.047,27.625,9.957,27.461,9.969,27.281
		z"/>
	<path fill="#FFFFFF" d="M23.891,20.049c0.105-0.502,0.139-1.031,0.082-1.57c-0.002-0.025-0.007-0.049-0.01-0.072l-1.199-0.33
		c-0.066-0.27-0.16-0.527-0.277-0.77l0.714-1.021c-0.304-0.465-0.679-0.875-1.109-1.215l-1.082,0.617
		c-0.231-0.143-0.479-0.26-0.741-0.35l-0.218-1.227c-0.503-0.107-1.032-0.141-1.572-0.084c-0.023,0.004-0.047,0.008-0.07,0.01
		l-0.33,1.201c-0.27,0.066-0.527,0.158-0.771,0.275l-1.02-0.713c-0.465,0.303-0.874,0.678-1.214,1.109l0.616,1.082
		c-0.142,0.232-0.259,0.48-0.35,0.74l-1.227,0.219c-0.107,0.504-0.141,1.031-0.084,1.571c0.003,0.023,0.007,0.047,0.01,0.07
		l1.201,0.33c0.065,0.27,0.158,0.527,0.276,0.771l-0.713,1.02c0.302,0.465,0.677,0.875,1.108,1.213l1.082-0.613
		c0.232,0.142,0.48,0.258,0.74,0.349l0.219,1.228c0.504,0.106,1.031,0.141,1.57,0.084c0.024-0.004,0.049-0.007,0.07-0.011
		l0.33-1.201c0.271-0.063,0.528-0.157,0.771-0.274l1.021,0.713c0.466-0.303,0.875-0.678,1.216-1.109l-0.617-1.082
		c0.143-0.232,0.26-0.48,0.35-0.74L23.891,20.049z M19.185,20.758c-0.971,0.102-1.839-0.604-1.942-1.572
		c-0.102-0.971,0.604-1.84,1.572-1.943c0.971-0.1,1.841,0.602,1.942,1.574C20.857,19.785,20.154,20.654,19.185,20.758z"/>
	<path fill="#F96311" d="M6.908,11.283h-1v1h1V11.283L6.908,11.283z M6.908,13.283h-1v1h1V13.283L6.908,13.283z M6.908,15.283h-1v1
		h1V15.283L6.908,15.283z M6.908,17.283h-1v1h1V17.283L6.908,17.283z M6.908,19.283h-1v1h1V19.283L6.908,19.283z M6.908,21.283h-1v1
		h1V21.283L6.908,21.283z M6.908,23.283h-1v1h1V23.283L6.908,23.283z M6.908,25.283h-1v1h1V25.283L6.908,25.283z M31.62,11.283h-1v1
		h1V11.283L31.62,11.283z M31.62,13.283h-1v1h1V13.283L31.62,13.283z M31.62,15.283h-1v1h1V15.283L31.62,15.283z M31.62,17.283h-1v1
		h1V17.283L31.62,17.283z M31.62,19.283h-1v1h1V19.283L31.62,19.283z M31.62,21.283h-1v1h1V21.283L31.62,21.283z M31.62,23.283h-1v1
		h1V23.283L31.62,23.283z M31.62,25.283h-1v1h1V25.283L31.62,25.283z M12.658,31.033h-1v1h1V31.033L12.658,31.033z M14.658,31.033
		h-1v1h1V31.033L14.658,31.033z M16.658,31.033h-1v1h1V31.033L16.658,31.033z M18.658,31.033h-1v1h1V31.033L18.658,31.033z
		 M20.658,31.033h-1v1h1V31.033L20.658,31.033z M22.658,31.033h-1v1h1V31.033L22.658,31.033z M24.658,31.033h-1v1h1V31.033
		L24.658,31.033z M26.658,31.033h-1v1h1V31.033L26.658,31.033z M12.658,6.148h-1v1h1V6.148L12.658,6.148z M14.658,6.148h-1v1h1
		V6.148L14.658,6.148z M16.658,6.148h-1v1h1V6.148L16.658,6.148z M18.658,6.148h-1v1h1V6.148L18.658,6.148z M20.658,6.148h-1v1h1
		V6.148L20.658,6.148z M22.658,6.148h-1v1h1V6.148L22.658,6.148z M24.658,6.148h-1v1h1V6.148L24.658,6.148z M26.658,6.148h-1v1h1
		V6.148L26.658,6.148z"/>
</g>
</svg>
