<?xml version="1.0" encoding="utf-8"?>
<!-- Generator: Adobe Illustrator 16.0.0, SVG Export Plug-In . SVG Version: 6.00 Build 0)  -->
<!DOCTYPE svg PUBLIC "-//W3C//DTD SVG 1.1//EN" "http://www.w3.org/Graphics/SVG/1.1/DTD/svg11.dtd">
<svg version="1.1" id="Layer_1" xmlns="http://www.w3.org/2000/svg" xmlns:xlink="http://www.w3.org/1999/xlink" x="0px" y="0px"
	 width="38px" height="38px" viewBox="0 0 38 38" enable-background="new 0 0 38 38" xml:space="preserve">
<g>
	<path fill="#FFFFFF" d="M19,11.976c-4.833,0-8.75,3.917-8.75,8.75c0,4.833,3.917,8.75,8.75,8.75s8.75-3.917,8.75-8.75
		C27.75,15.894,23.833,11.976,19,11.976z M19,12.922c4.303,0,7.804,3.501,7.804,7.804S23.303,28.529,19,28.529
		s-7.804-3.5-7.804-7.803S14.697,12.922,19,12.922"/>
	<path fill="#F96311" d="M19,27.927c3.977,0,7.2-3.224,7.2-7.201s-3.224-7.201-7.2-7.201V27.927z"/>
	<path fill="#FFFFFF" d="M22.059,22.608c-0.127,0-0.248-0.047-0.341-0.134c-0.001,0-1.066-0.994-1.482-1.375
		c-0.204-0.187-0.218-0.502-0.031-0.706c0.186-0.205,0.502-0.218,0.706-0.032c0.26,0.238,0.772,0.714,1.123,1.039l2.228-2.398
		c0.188-0.202,0.505-0.214,0.707-0.025c0.202,0.188,0.214,0.504,0.025,0.707l-2.568,2.765c-0.091,0.097-0.216,0.154-0.349,0.159
		H22.059z"/>
	<path fill="#FFFFFF" d="M16.32,16.599c-0.173,0-0.34-0.089-0.433-0.249l-0.737-1.268c-0.14-0.239-0.059-0.544,0.18-0.684
		s0.545-0.058,0.684,0.181l0.738,1.268c0.139,0.238,0.058,0.545-0.182,0.684C16.492,16.577,16.405,16.599,16.32,16.599z"/>
	<path fill="#FFFFFF" d="M14.375,18.561c-0.084,0-0.17-0.021-0.247-0.065l-1.274-0.726c-0.24-0.136-0.324-0.441-0.188-0.681
		c0.137-0.241,0.443-0.324,0.682-0.188l1.274,0.725c0.24,0.137,0.324,0.442,0.188,0.682C14.717,18.47,14.549,18.561,14.375,18.561z"
		/>
	<path fill="#FFFFFF" d="M12.215,21.249c-0.273,0-0.498-0.221-0.5-0.496c-0.002-0.276,0.219-0.502,0.495-0.504l1.467-0.015h0.005
		c0.273,0,0.498,0.221,0.5,0.495c0.002,0.276-0.219,0.502-0.495,0.505l-1.467,0.015H12.215z"/>
	<path fill="#FFFFFF" d="M19.007,12.779c-0.274,0-0.497-0.221-0.5-0.496l-0.014-1.466c-0.002-0.276,0.22-0.502,0.495-0.505h0.005
		c0.274,0,0.497,0.221,0.5,0.496l0.014,1.467c0.003,0.276-0.22,0.502-0.495,0.505H19.007z"/>
	<path fill="#FFFFFF" d="M24.693,15.031c-0.119,0-0.24-0.043-0.336-0.129c-0.204-0.186-0.221-0.501-0.035-0.706l0.984-1.088
		c0.186-0.205,0.501-0.22,0.706-0.036c0.204,0.186,0.221,0.502,0.035,0.707l-0.983,1.088C24.965,14.976,24.83,15.031,24.693,15.031z
		"/>
	<path fill="#FFFFFF" d="M26.37,14.309c-0.12,0-0.239-0.043-0.335-0.13l-1.088-0.983c-0.205-0.186-0.221-0.501-0.035-0.706
		c0.186-0.205,0.501-0.22,0.705-0.036l1.088,0.984c0.205,0.186,0.221,0.501,0.035,0.707C26.643,14.253,26.506,14.309,26.37,14.309z"
		/>
	<path fill="#FFFFFF" d="M21.233,11.039L21.233,11.039l-4.507-0.014c-0.275-0.001-0.499-0.225-0.498-0.501
		c0.001-0.275,0.225-0.499,0.5-0.499h0.002l4.504,0.014c0.277,0.001,0.5,0.226,0.499,0.502
		C21.732,10.816,21.509,11.039,21.233,11.039z"/>
	<path fill="#FFFFFF" d="M13.166,24.644c-0.171,0-0.338-0.087-0.431-0.245c-0.141-0.237-0.063-0.544,0.175-0.686l1.26-0.75
		c0.238-0.14,0.545-0.063,0.686,0.174c0.141,0.237,0.063,0.544-0.174,0.686l-1.262,0.75C13.34,24.621,13.252,24.644,13.166,24.644z"
		/>
	<path fill="#FFFFFF" d="M15.691,27.101c-0.082,0-0.165-0.021-0.242-0.063c-0.241-0.134-0.328-0.438-0.193-0.68l0.714-1.282
		c0.134-0.241,0.438-0.329,0.68-0.194c0.241,0.134,0.328,0.438,0.194,0.68l-0.715,1.283C16.037,27.008,15.867,27.101,15.691,27.101z
		"/>
	<polygon fill="#F96311" points="6.58,4 6.604,12.363 10.791,9.187 14.92,12.363 14.92,4 	"/>
	<path fill="#FFFFFF" d="M31.5,4h-25C5.813,4,5.219,4.247,4.732,4.732C4.246,5.219,4,5.813,4,6.5v25
		c0,0.687,0.246,1.282,0.732,1.768C5.218,33.754,5.813,34,6.5,34h25c0.688,0,1.281-0.246,1.768-0.732
		C33.754,32.783,34,32.188,34,31.5v-25c0-0.687-0.246-1.282-0.732-1.768C32.781,4.247,32.187,4,31.5,4z M31.5,5
		c0.424,0,0.761,0.14,1.061,0.439C32.86,5.739,33,6.076,33,6.5v25c0,0.424-0.14,0.761-0.439,1.061C32.261,32.86,31.924,33,31.5,33
		h-25c-0.424,0-0.762-0.139-1.061-0.439C5.14,32.261,5,31.924,5,31.5v-25c0-0.424,0.14-0.761,0.438-1.06C5.738,5.14,6.076,5,6.5,5
		H31.5"/>
</g>
</svg>
