<?xml version="1.0" encoding="utf-8"?>
<!-- Generator: Adobe Illustrator 16.0.0, SVG Export Plug-In . SVG Version: 6.00 Build 0)  -->
<!DOCTYPE svg PUBLIC "-//W3C//DTD SVG 1.1//EN" "http://www.w3.org/Graphics/SVG/1.1/DTD/svg11.dtd">
<svg version="1.1" id="Layer_1" xmlns="http://www.w3.org/2000/svg" xmlns:xlink="http://www.w3.org/1999/xlink" x="0px" y="0px"
	 width="38px" height="38px" viewBox="0 0 38 38" enable-background="new 0 0 38 38" xml:space="preserve">
<g>
	<g>
		<g>
			<g>
				<path fill="#F96311" d="M19.557,14.987c-0.635-0.135-1.302-0.176-1.982-0.105c-0.031,0.003-0.061,0.008-0.089,0.012
					l-0.417,1.514c-0.341,0.083-0.666,0.2-0.972,0.35l-1.288-0.899c-0.586,0.38-1.101,0.853-1.529,1.398l0.776,1.365
					c-0.179,0.293-0.326,0.607-0.441,0.933l-1.547,0.277c-0.136,0.634-0.176,1.3-0.104,1.981c0.003,0.029,0.007,0.059,0.011,0.088
					l1.515,0.416c0.083,0.341,0.201,0.666,0.349,0.974l-0.898,1.285c0.381,0.588,0.853,1.104,1.398,1.533l1.364-0.775
					c0.293,0.176,0.606,0.323,0.934,0.439l0.275,1.546c0.636,0.138,1.302,0.178,1.982,0.105c0.03-0.003,0.06-0.007,0.089-0.013
					l0.417-1.513c0.34-0.085,0.665-0.2,0.972-0.35l1.287,0.898c0.586-0.381,1.102-0.854,1.53-1.396l-0.775-1.366
					c0.178-0.293,0.325-0.606,0.438-0.933l1.548-0.276c0.136-0.634,0.177-1.3,0.106-1.981c-0.005-0.029-0.009-0.059-0.013-0.09
					l-1.514-0.416c-0.083-0.339-0.201-0.666-0.349-0.972l0.898-1.287c-0.381-0.587-0.854-1.104-1.398-1.532l-1.365,0.776
					c-0.293-0.18-0.605-0.326-0.934-0.439L19.557,14.987z M20.449,20.92c0.127,1.224-0.759,2.32-1.984,2.448
					c-1.223,0.128-2.319-0.759-2.449-1.981c-0.128-1.224,0.758-2.322,1.984-2.45C19.224,18.809,20.32,19.697,20.449,20.92z"/>
			</g>
		</g>
		<g>
			<g>
				<path fill="#FFFFFF" d="M23.527,9.895c-0.282-0.159-0.595-0.278-0.93-0.346c-0.015-0.003-0.03-0.005-0.045-0.008l-0.425,0.66
					c-0.175-0.011-0.348-0.003-0.516,0.022l-0.479-0.622c-0.337,0.094-0.654,0.242-0.939,0.438l0.166,0.767
					c-0.129,0.113-0.246,0.241-0.35,0.38l-0.78-0.1c-0.16,0.283-0.278,0.594-0.346,0.93c-0.003,0.015-0.006,0.029-0.008,0.044
					l0.66,0.425c-0.012,0.175-0.004,0.348,0.022,0.516l-0.623,0.479c0.093,0.337,0.243,0.654,0.438,0.941l0.766-0.167
					c0.114,0.129,0.241,0.246,0.381,0.35l-0.1,0.779c0.282,0.161,0.594,0.28,0.93,0.347c0.016,0.003,0.03,0.006,0.045,0.007
					l0.425-0.659c0.175,0.011,0.348,0.003,0.516-0.022l0.48,0.622c0.336-0.095,0.652-0.243,0.938-0.438l-0.164-0.768
					c0.128-0.114,0.245-0.241,0.348-0.38l0.78,0.1c0.159-0.282,0.278-0.594,0.348-0.93c0.001-0.015,0.004-0.03,0.007-0.044
					l-0.661-0.425c0.013-0.174,0.005-0.348-0.021-0.516l0.62-0.48c-0.094-0.336-0.241-0.654-0.437-0.94l-0.769,0.167
					c-0.113-0.129-0.239-0.247-0.38-0.349L23.527,9.895z M23.066,12.86c-0.122,0.604-0.709,0.994-1.313,0.872
					c-0.603-0.121-0.993-0.709-0.871-1.312c0.121-0.603,0.708-0.994,1.313-0.872C22.798,11.669,23.188,12.257,23.066,12.86z"/>
			</g>
		</g>
	</g>
	<g>
		<path fill="#FFFFFF" d="M6,17.5c-0.276,0-0.5-0.224-0.5-0.5V6c0-0.276,0.224-0.5,0.5-0.5h3.285c0.276,0,0.5,0.224,0.5,0.5
			c0,0.276-0.224,0.5-0.5,0.5H6.5V17C6.5,17.276,6.276,17.5,6,17.5z"/>
	</g>
	<g>
		<path fill="#FFFFFF" d="M9.285,32.5H6c-0.276,0-0.5-0.224-0.5-0.5V20.741c0-0.276,0.224-0.5,0.5-0.5c0.276,0,0.5,0.224,0.5,0.5
			v10.76h2.785c0.276,0,0.5,0.223,0.5,0.499S9.561,32.5,9.285,32.5z"/>
	</g>
	<g>
		<path fill="#FFFFFF" d="M32,17.804c-0.276,0-0.499-0.224-0.499-0.5V6.5h-2.785c-0.276,0-0.5-0.224-0.5-0.5
			c0-0.276,0.224-0.5,0.5-0.5H32c0.276,0,0.5,0.224,0.5,0.5v11.304C32.5,17.58,32.276,17.804,32,17.804z"/>
	</g>
	<g>
		<path fill="#FFFFFF" d="M32,32.5h-3.284c-0.276,0-0.5-0.224-0.5-0.5s0.224-0.499,0.5-0.499h2.785v-10.76
			c0-0.276,0.223-0.5,0.499-0.5s0.5,0.224,0.5,0.5V32C32.5,32.276,32.276,32.5,32,32.5z"/>
	</g>
	<g>
		<path fill="#F96311" d="M11,5c0.551,0,1,0.449,1,1c0,0.552-0.448,1-1,1c-0.552,0-1-0.448-1-1C10,5.449,10.449,5,11,5 M11,4
			C9.896,4,9,4.896,9,6s0.896,2,2,2c1.104,0,2-0.896,2-2S12.104,4,11,4L11,4z"/>
	</g>
	<g>
		<path fill="#F96311" d="M11,30.999c0.551,0,1,0.449,1,1.001c0,0.551-0.448,0.999-1,0.999c-0.552,0-1-0.448-1-0.999
			C10,31.448,10.449,30.999,11,30.999 M11,30c-1.105,0-2,0.895-2,2c0,1.104,0.896,2,2,2c1.104,0,2-0.896,2-2
			C13,30.895,12.104,30,11,30L11,30z"/>
	</g>
	<g>
		<path fill="#F96311" d="M6,18c0.551,0,1,0.448,1,1c0,0.551-0.448,0.999-1,0.999c-0.552,0-1-0.447-1-0.999C5,18.448,5.449,18,6,18
			 M6,17c-1.104,0-2,0.896-2,2c0,1.104,0.896,2,2,2c1.104,0,2-0.896,2-2C8,17.896,7.104,17,6,17L6,17z"/>
	</g>
	<g>
		<path fill="#F96311" d="M27,5c0.552,0,1,0.449,1,1c0,0.552-0.448,1-1,1c-0.551,0-1-0.448-1-1C26,5.449,26.449,5,27,5 M27,4
			c-1.104,0-2,0.896-2,2s0.896,2,2,2s1.999-0.896,1.999-2S28.104,4,27,4L27,4z"/>
	</g>
	<g>
		<path fill="#F96311" d="M27,30.999c0.552,0,1,0.449,1,1.001c0,0.551-0.448,0.999-1,0.999c-0.551,0-1-0.448-1-0.999
			C26,31.448,26.449,30.999,27,30.999 M27,30c-1.104,0-2,0.895-2,2c0,1.104,0.896,2,2,2s1.999-0.896,1.999-2
			C28.999,30.895,28.104,30,27,30L27,30z"/>
	</g>
	<g>
		<path fill="#F96311" d="M32,18c0.552,0,1,0.448,1,1c0,0.551-0.448,0.999-1,0.999c-0.551,0-1-0.447-1-0.999
			C31,18.448,31.449,18,32,18 M32,17c-1.104,0-2,0.896-2,2c0,1.104,0.896,2,2,2c1.104,0,2-0.896,2-2C34,17.896,33.104,17,32,17
			L32,17z"/>
	</g>
</g>
</svg>
