<?xml version="1.0" encoding="utf-8"?>
<!-- Generator: Adobe Illustrator 16.0.0, SVG Export Plug-In . SVG Version: 6.00 Build 0)  -->
<!DOCTYPE svg PUBLIC "-//W3C//DTD SVG 1.1//EN" "http://www.w3.org/Graphics/SVG/1.1/DTD/svg11.dtd">
<svg version="1.1" id="Layer_1" xmlns="http://www.w3.org/2000/svg" xmlns:xlink="http://www.w3.org/1999/xlink" x="0px" y="0px"
	 width="38px" height="38px" viewBox="0 0 38 38" enable-background="new 0 0 38 38" xml:space="preserve">
<g>
	<path fill="#FFFFFF" d="M31.5,4h-25C5.813,4,5.218,4.247,4.731,4.732C4.246,5.219,4,5.813,4,6.5v25
		c0,0.687,0.246,1.282,0.732,1.768C5.218,33.754,5.813,34,6.5,34h25c0.687,0,1.281-0.246,1.768-0.732
		C33.754,32.783,34,32.188,34,31.5v-25c0-0.687-0.246-1.282-0.732-1.768C32.781,4.247,32.187,4,31.5,4z M31.5,5
		c0.423,0,0.761,0.14,1.061,0.439C32.86,5.739,33,6.076,33,6.5v25c0,0.424-0.14,0.761-0.44,1.061C32.261,32.86,31.924,33,31.5,33
		h-25c-0.425,0-0.762-0.139-1.062-0.439C5.14,32.261,5,31.924,5,31.5v-25c0-0.424,0.14-0.761,0.438-1.06C5.738,5.14,6.076,5,6.5,5
		H31.5"/>
	<path fill="#FFFFFF" d="M28.72,11.946h-8.618c-0.276,0-0.5-0.224-0.5-0.5c0-0.276,0.224-0.5,0.5-0.5h8.618
		c0.276,0,0.5,0.224,0.5,0.5C29.22,11.722,28.996,11.946,28.72,11.946z"/>
	<path fill="#F96311" d="M28.72,19.504h-8.618c-0.276,0-0.5-0.224-0.5-0.5c0-0.276,0.224-0.5,0.5-0.5h8.618
		c0.276,0,0.5,0.224,0.5,0.5C29.22,19.28,28.996,19.504,28.72,19.504z"/>
	<path fill="#FFFFFF" d="M28.72,27.055h-8.618c-0.276,0-0.5-0.224-0.5-0.5c0-0.276,0.224-0.5,0.5-0.5h8.618
		c0.276,0,0.5,0.224,0.5,0.5C29.22,26.831,28.996,27.055,28.72,27.055z"/>
	<path fill="#FFFFFF" d="M17.689,8.671H9.28v7.55h8.409V8.671z M16.689,9.671v5.55H10.28v-5.55H16.689"/>
	<path fill="#FFFFFF" d="M17.689,21.279H9.28v8.05h8.409V21.279z M16.689,22.279v6.05H10.28v-6.05H16.689"/>
	<rect x="9.28" y="15.229" fill="#F96311" width="8.409" height="7.051"/>
	<path fill="#FFFFFF" d="M12.978,20.606c-0.126,0-0.248-0.047-0.341-0.134c0,0-1.066-0.994-1.482-1.374
		c-0.204-0.187-0.218-0.503-0.031-0.707c0.186-0.204,0.502-0.218,0.706-0.032c0.26,0.238,0.772,0.714,1.123,1.039l2.228-2.398
		c0.188-0.202,0.505-0.213,0.707-0.025s0.214,0.504,0.025,0.707l-2.568,2.765c-0.091,0.097-0.216,0.154-0.349,0.159H12.978z"/>
</g>
</svg>
