<?xml version="1.0" encoding="utf-8"?>
<!-- Generator: Adobe Illustrator 16.0.0, SVG Export Plug-In . SVG Version: 6.00 Build 0)  -->
<!DOCTYPE svg PUBLIC "-//W3C//DTD SVG 1.1//EN" "http://www.w3.org/Graphics/SVG/1.1/DTD/svg11.dtd">
<svg version="1.1" id="Layer_1" xmlns="http://www.w3.org/2000/svg" xmlns:xlink="http://www.w3.org/1999/xlink" x="0px" y="0px"
	 width="38px" height="38px" viewBox="0 0 38 38" enable-background="new 0 0 38 38" xml:space="preserve">
<g>
	<path fill="#FFFFFF" d="M9.016,18.241v3.863c0,0.017,0.008,0.03,0.009,0.047c0,0.011-0.006,0.021-0.006,0.032
		c0,0.276,0.22,0.5,0.492,0.5h6.261c0.271,0,0.491-0.224,0.491-0.5s-0.22-0.5-0.491-0.5H10v-3.442c0-0.276-0.22-0.5-0.491-0.5
		C9.236,17.74,9.016,17.965,9.016,18.241z"/>
	<path fill="#FFFFFF" d="M29.011,18.241v3.863c0,0.017-0.008,0.03-0.009,0.047c0,0.011,0.006,0.021,0.006,0.032
		c0,0.276-0.22,0.5-0.492,0.5h-6.261c-0.271,0-0.491-0.224-0.491-0.5s0.22-0.5,0.491-0.5h5.771v-3.442c0-0.276,0.22-0.5,0.491-0.5
		C28.792,17.74,29.011,17.965,29.011,18.241z"/>
	<path fill="#F96311" d="M24.521,29.649c0.119-0.554,0.154-1.136,0.092-1.731c-0.002-0.026-0.007-0.051-0.01-0.078l-1.321-0.364
		c-0.072-0.297-0.175-0.581-0.305-0.848l0.785-1.124c-0.332-0.512-0.745-0.963-1.22-1.338l-1.19,0.679
		c-0.256-0.157-0.529-0.285-0.815-0.385l-0.24-1.351c-0.553-0.119-1.135-0.154-1.729-0.092c-0.026,0.003-0.052,0.007-0.078,0.01
		l-0.363,1.323c-0.297,0.073-0.581,0.174-0.848,0.304l-1.123-0.785c-0.511,0.333-0.962,0.746-1.335,1.221l0.677,1.192
		c-0.155,0.256-0.284,0.529-0.383,0.815l-1.349,0.24c-0.12,0.555-0.155,1.136-0.093,1.731c0.003,0.026,0.007,0.052,0.011,0.077
		l1.32,0.365c0.073,0.297,0.175,0.581,0.304,0.849l-0.784,1.124c0.332,0.512,0.745,0.962,1.219,1.337l1.191-0.677
		c0.256,0.154,0.529,0.283,0.814,0.383l0.24,1.351c0.554,0.12,1.135,0.155,1.729,0.093c0.026-0.003,0.052-0.007,0.078-0.011
		l0.363-1.322c0.297-0.072,0.581-0.175,0.848-0.305l1.123,0.785c0.511-0.333,0.962-0.746,1.335-1.221l-0.677-1.192
		c0.156-0.255,0.284-0.528,0.383-0.814L24.521,29.649z M19.346,30.429c-1.067,0.112-2.023-0.663-2.135-1.731
		c-0.112-1.069,0.662-2.025,1.729-2.139c1.067-0.112,2.023,0.663,2.136,1.731C21.188,29.36,20.414,30.316,19.346,30.429z"/>
	<g>
		<path fill="#FFFFFF" d="M28.5,5.186c1.286,0,2.332,1.093,2.332,2.437S29.786,10.06,28.5,10.06c-1.286,0-2.332-1.093-2.332-2.437
			S27.214,5.186,28.5,5.186 M28.5,4.213c-1.824,0-3.303,1.526-3.303,3.409s1.479,3.409,3.303,3.409h0.001
			c1.823,0,3.302-1.526,3.302-3.409S30.324,4.213,28.5,4.213L28.5,4.213z"/>
		<path fill="#FFFFFF" d="M28.5,11.521c2.177,0,4,1.604,4.432,3.733h-8.863C24.5,13.125,26.323,11.521,28.5,11.521 M28.5,10.549
			c-3.038,0-5.5,2.542-5.5,5.677h11C34,13.091,31.538,10.549,28.5,10.549L28.5,10.549z"/>
	</g>
	<g>
		<path fill="#FFFFFF" d="M19,7.498c1.286,0,2.332,1.093,2.332,2.438c0,1.344-1.046,2.437-2.332,2.437
			c-1.286,0-2.332-1.093-2.332-2.437C16.668,8.591,17.714,7.498,19,7.498 M19,6.526c-1.824,0-3.303,1.526-3.303,3.409
			s1.479,3.409,3.303,3.409h0.001c1.823,0,3.302-1.527,3.302-3.409C22.303,8.052,20.824,6.526,19,6.526L19,6.526z"/>
		<path fill="#FFFFFF" d="M19,13.833c2.177,0,4,1.604,4.432,3.734h-8.863C15,15.437,16.823,13.833,19,13.833 M19,12.861
			c-3.038,0-5.5,2.542-5.5,5.677h11C24.5,15.403,22.038,12.861,19,12.861L19,12.861z"/>
	</g>
	<g>
		<path fill="#FFFFFF" d="M9.5,4.972c1.286,0,2.332,1.094,2.332,2.438S10.786,9.846,9.5,9.846c-1.286,0-2.332-1.093-2.332-2.437
			S8.214,4.972,9.5,4.972 M9.5,4c-1.824,0-3.303,1.527-3.303,3.41s1.479,3.409,3.303,3.409h0.001c1.823,0,3.302-1.526,3.302-3.409
			S11.324,4,9.5,4L9.5,4z"/>
		<path fill="#FFFFFF" d="M9.5,11.307c2.177,0,4,1.604,4.432,3.733H5.068C5.5,12.911,7.323,11.307,9.5,11.307 M9.5,10.335
			c-3.038,0-5.5,2.542-5.5,5.677h11C15,12.877,12.538,10.335,9.5,10.335L9.5,10.335z"/>
	</g>
</g>
</svg>
