<?xml version="1.0" encoding="utf-8"?>
<!-- Generator: Adobe Illustrator 16.0.0, SVG Export Plug-In . SVG Version: 6.00 Build 0)  -->
<!DOCTYPE svg PUBLIC "-//W3C//DTD SVG 1.1//EN" "http://www.w3.org/Graphics/SVG/1.1/DTD/svg11.dtd">
<svg version="1.1" id="Layer_1" xmlns="http://www.w3.org/2000/svg" xmlns:xlink="http://www.w3.org/1999/xlink" x="0px" y="0px"
	 width="38px" height="38px" viewBox="0 0 38 38" enable-background="new 0 0 38 38" xml:space="preserve">
<g>
	<g>
		<path fill="#F96311" d="M22.891,20.548c0-0.141-0.043-0.249-0.104-0.346h-3.634c-0.06,0.097-0.104,0.205-0.104,0.346v1.659h-0.639
			v-1.659c0-0.141-0.044-0.249-0.103-0.346h-3.633c-0.06,0.097-0.104,0.205-0.104,0.346v1.659H13.05v5.632l0.011,0.491h0.053
			c0.217,1.252,1.044,2.148,2.046,2.148h2.02V32.4c0,0.883,0.703,1.6,1.567,1.6s1.569-0.717,1.569-1.6v-1.922h1.984
			c1.002,0,1.828-0.896,2.047-2.148h0.063v-6.123h-1.521V20.548z M23.404,23.191v4.402l-0.012,0.221
			c-0.045,0.927-0.533,1.68-1.09,1.68h-3.057l0.054,0.539l0.009,2.367c0,0.34-0.252,0.615-0.561,0.615s-0.559-0.275-0.559-0.615
			l0.002-2.315l0.056-0.591h-3.086c-0.556,0-1.045-0.753-1.09-1.68l-0.011-0.146v-4.477h1.522v-2.724
			c0.139-0.025,0.406-0.048,0.913-0.048c0.504,0,0.769,0.024,0.907,0.048v2.724h2.658v-2.724c0.14-0.025,0.404-0.048,0.912-0.048
			c0.506,0,0.769,0.024,0.907,0.048v2.724H23.404z"/>
		<g>
			<g>
				<path fill="#FFFFFF" d="M18.777,4.984c3.424,0,6.447,2.057,7.523,5.118l0.27,0.766l0.822-0.109
					c0.271-0.037,0.493-0.054,0.697-0.054c2.702,0,4.9,2.064,4.9,4.601c0,2.537-2.198,4.601-4.9,4.601H8.747
					c-2.061,0-3.738-1.571-3.738-3.501c0-1.93,1.677-3.501,3.738-3.501c0.284,0,0.582,0.035,0.885,0.104l1.179,0.268l0.059-1.179
					C11.065,8.108,14.539,4.984,18.777,4.984 M18.777,4c-4.793,0-8.695,3.57-8.917,8.049c-0.357-0.081-0.729-0.129-1.114-0.129
					C6.125,11.919,4,13.928,4,16.405c0,2.477,2.125,4.486,4.747,4.486c1.725,0,17.739,0,19.343,0c3.264,0,5.91-2.5,5.91-5.584
					c0-3.084-2.646-5.584-5.91-5.584c-0.283,0-0.563,0.025-0.834,0.063C26.074,6.425,22.729,4,18.777,4L18.777,4z"/>
			</g>
		</g>
	</g>
	<g>
		<path fill="#F96311" d="M16.477,9.225c0-0.272-0.226-0.492-0.504-0.492c-0.279,0-0.505,0.22-0.505,0.492v4.287h-1.705l2.209,3.137
			l2.209-3.137h-1.705V9.225L16.477,9.225z"/>
		<path fill="#F96311" d="M22.025,9.225l-2.207,3.137h1.703v4.288c0,0.272,0.227,0.492,0.504,0.492c0.279,0,0.507-0.22,0.507-0.492
			v-4.288h1.704L22.025,9.225z"/>
	</g>
</g>
</svg>
