<?xml version="1.0" encoding="utf-8"?>
<!-- Generator: Adobe Illustrator 16.0.0, SVG Export Plug-In . SVG Version: 6.00 Build 0)  -->
<!DOCTYPE svg PUBLIC "-//W3C//DTD SVG 1.1//EN" "http://www.w3.org/Graphics/SVG/1.1/DTD/svg11.dtd">
<svg version="1.1" id="Layer_1" xmlns="http://www.w3.org/2000/svg" xmlns:xlink="http://www.w3.org/1999/xlink" x="0px" y="0px"
	 width="38px" height="38px" viewBox="11 11 38 38" enable-background="new 11 11 38 38" xml:space="preserve">
<g>
	<g>
		<polygon fill="#F96311" points="36.055,40.934 33.314,38.194 34.021,37.487 36.055,39.52 41.155,34.419 41.862,35.126 		"/>
	</g>
	<g>
		<path fill="#FFFFFF" d="M32.866,44H20.845c-0.181-2.438-2.26-4.39-4.845-4.533V20.838c2.691-0.149,4.835-2.259,4.857-4.838h11.996
			c0.021,2.511,2.054,4.576,4.645,4.822v9.525c0.017,0,0.033-0.002,0.051-0.002c0.322,0,0.638,0.028,0.949,0.068V19.801
			c-0.16,0.018-0.317,0.045-0.482,0.045c-2.299,0-4.162-1.739-4.162-3.886c0-0.333,0.059-0.651,0.143-0.96H19.723l-0.002,0.019
			c0.081,0.304,0.137,0.616,0.137,0.941c0,2.146-1.864,3.886-4.162,3.886c-0.238,0-0.468-0.029-0.695-0.064v20.703
			c0.081,0.002,0.148,0.014,0.227,0.018c0.154-0.017,0.307-0.043,0.469-0.043c2.298,0,4.162,1.74,4.162,3.886
			c0,0.226-0.031,0.44-0.07,0.655h14.137c-0.04-0.215-0.07-0.43-0.07-0.655c0-0.146,0.01-0.29,0.026-0.433
			c-0.315-0.184-0.618-0.389-0.901-0.617C32.925,43.525,32.884,43.76,32.866,44z"/>
		<path fill="#FFFFFF" d="M19.948,23.5h7.963c0.276,0,0.5-0.223,0.5-0.5c0-0.275-0.224-0.5-0.5-0.5h-7.963
			c-0.276,0-0.5,0.225-0.5,0.5C19.448,23.277,19.672,23.5,19.948,23.5z"/>
		<path fill="#FFFFFF" d="M29.985,23.5h3.963c0.276,0,0.5-0.223,0.5-0.5c0-0.275-0.224-0.5-0.5-0.5h-3.963
			c-0.276,0-0.5,0.225-0.5,0.5C29.485,23.277,29.709,23.5,29.985,23.5z"/>
		<path fill="#FFFFFF" d="M33.948,24.987h-14c-0.276,0-0.5,0.224-0.5,0.5s0.224,0.5,0.5,0.5h14c0.276,0,0.5-0.224,0.5-0.5
			S34.225,24.987,33.948,24.987z"/>
		<path fill="#FFFFFF" d="M19.959,28.5h3.952c0.276,0,0.5-0.223,0.5-0.5c0-0.275-0.224-0.5-0.5-0.5h-3.952
			c-0.276,0-0.5,0.225-0.5,0.5C19.459,28.277,19.684,28.5,19.959,28.5z"/>
		<path fill="#FFFFFF" d="M29.934,27.5h-3.952c-0.276,0-0.5,0.225-0.5,0.5c0,0.277,0.224,0.5,0.5,0.5h3.952
			c0.276,0,0.5-0.223,0.5-0.5C30.434,27.725,30.21,27.5,29.934,27.5z"/>
		<path fill="#FFFFFF" d="M33.948,27.5h-2c-0.276,0-0.5,0.225-0.5,0.5c0,0.277,0.224,0.5,0.5,0.5h2c0.276,0,0.5-0.223,0.5-0.5
			C34.448,27.725,34.225,27.5,33.948,27.5z"/>
		<path fill="#FFFFFF" d="M27.912,32.001h-7.963c-0.276,0-0.5,0.224-0.5,0.5s0.224,0.5,0.5,0.5h7.963c0.276,0,0.5-0.224,0.5-0.5
			S28.188,32.001,27.912,32.001z"/>
		<path fill="#FFFFFF" d="M32.926,32.001h-2.94c-0.276,0-0.5,0.224-0.5,0.5s0.224,0.5,0.5,0.5h1.939
			C32.226,32.637,32.561,32.301,32.926,32.001z"/>
		<path fill="#FFFFFF" d="M19.948,34.488c-0.276,0-0.5,0.223-0.5,0.5c0,0.275,0.224,0.5,0.5,0.5h10.638
			c0.107-0.347,0.245-0.678,0.399-1H19.948z"/>
		<path fill="#FFFFFF" d="M19.959,38.001h3.952c0.276,0,0.5-0.224,0.5-0.5s-0.224-0.5-0.5-0.5h-3.952c-0.276,0-0.5,0.224-0.5,0.5
			S19.684,38.001,19.959,38.001z"/>
		<path fill="#FFFFFF" d="M30.29,37.15c-0.091-0.092-0.216-0.149-0.356-0.149h-3.952c-0.276,0-0.5,0.224-0.5,0.5s0.224,0.5,0.5,0.5
			h3.952c0.134,0,0.254-0.054,0.344-0.14c-0.003-0.078-0.012-0.154-0.012-0.232C30.266,37.467,30.279,37.31,30.29,37.15z"/>
	</g>
	<g>
		<path fill="#F96311" d="M37.5,45c-0.989,0-1.955-0.191-2.87-0.57s-1.733-0.927-2.433-1.627c-0.7-0.699-1.247-1.518-1.627-2.433
			C30.192,39.455,30,38.49,30,37.5s0.192-1.955,0.57-2.87c0.38-0.915,0.927-1.733,1.627-2.433c0.699-0.7,1.518-1.248,2.433-1.627
			c1.829-0.758,3.911-0.758,5.74,0c0.915,0.379,1.733,0.927,2.433,1.627c0.7,0.699,1.247,1.518,1.626,2.433S45,36.51,45,37.5
			s-0.192,1.955-0.571,2.87s-0.926,1.733-1.626,2.433c-0.699,0.7-1.518,1.248-2.433,1.627S38.489,45,37.5,45z M37.5,31
			c-0.857,0-1.694,0.166-2.487,0.494c-0.793,0.329-1.503,0.803-2.108,1.41c-0.607,0.605-1.081,1.315-1.41,2.108
			C31.166,35.805,31,36.643,31,37.5s0.166,1.695,0.494,2.487c0.329,0.794,0.804,1.503,1.41,2.108
			c0.605,0.607,1.315,1.081,2.108,1.41c1.585,0.656,3.389,0.656,4.975,0c0.793-0.329,1.503-0.803,2.108-1.41
			c0.606-0.605,1.081-1.314,1.409-2.108C43.834,39.195,44,38.357,44,37.5s-0.166-1.695-0.495-2.487
			c-0.328-0.793-0.802-1.503-1.409-2.108c-0.605-0.607-1.315-1.081-2.108-1.41C39.194,31.166,38.357,31,37.5,31z"/>
	</g>
</g>
</svg>
