<?xml version="1.0" encoding="utf-8"?>
<!-- Generator: Adobe Illustrator 16.0.0, SVG Export Plug-In . SVG Version: 6.00 Build 0)  -->
<!DOCTYPE svg PUBLIC "-//W3C//DTD SVG 1.1//EN" "http://www.w3.org/Graphics/SVG/1.1/DTD/svg11.dtd">
<svg version="1.1" id="Layer_1" xmlns="http://www.w3.org/2000/svg" xmlns:xlink="http://www.w3.org/1999/xlink" x="0px" y="0px"
	 width="38px" height="38px" viewBox="9.546 11.47 38 38" enable-background="new 9.546 11.47 38 38" xml:space="preserve">
<g>
	<g>
		<g>
			<path fill="#FFFFFF" d="M32.413,44.47H20.392c-0.181-2.438-2.26-4.389-4.845-4.532v-18.63c2.691-0.149,4.835-2.259,4.857-4.838
				H32.4c0.021,2.511,2.054,4.577,4.645,4.822v16.337c0.359,0,0.696,0.089,1,0.234V20.271c-0.161,0.018-0.317,0.045-0.482,0.045
				c-2.299,0-4.163-1.74-4.163-3.886c0-0.333,0.06-0.651,0.144-0.96H19.27l-0.002,0.02c0.081,0.304,0.137,0.616,0.137,0.941
				c0,2.146-1.865,3.886-4.163,3.886c-0.238,0-0.467-0.03-0.695-0.065v20.703c0.081,0.002,0.148,0.014,0.226,0.019
				c0.155-0.017,0.307-0.044,0.469-0.044c2.298,0,4.163,1.74,4.163,3.886c0,0.226-0.031,0.441-0.071,0.655h14.137
				c-0.04-0.214-0.071-0.43-0.071-0.655c0-1.385,0.778-2.597,1.946-3.285c-0.227-0.245-0.396-0.538-0.502-0.864
				C33.476,41.472,32.531,42.865,32.413,44.47z"/>
		</g>
	</g>
	<g>
		<path fill="#F96311" d="M27.89,31.3h-3.343c-0.827,0-1.5-0.672-1.5-1.5v-2.001c0-0.827,0.673-1.5,1.5-1.5h3.343
			c0.827,0,1.5,0.673,1.5,1.5v2.001C29.39,30.628,28.717,31.3,27.89,31.3z M24.547,27.299c-0.276,0-0.5,0.224-0.5,0.5v2.001
			c0,0.276,0.224,0.5,0.5,0.5h3.343c0.275,0,0.5-0.224,0.5-0.5v-2.001c0-0.276-0.225-0.5-0.5-0.5H24.547z"/>
	</g>
	<g>
		<path fill="#F96311" d="M24.852,27.078c-0.276,0-0.5-0.224-0.5-0.5V24.37c0-1.024,1.033-1.586,2.005-1.595
			c1.117-0.032,1.915,0.642,1.932,1.586v0.726c0,0.276-0.224,0.5-0.5,0.5c-0.276,0-0.5-0.224-0.5-0.5V24.37
			c-0.011-0.573-0.771-0.615-0.923-0.595c-0.488,0.004-1.014,0.233-1.014,0.595v2.208C25.352,26.854,25.128,27.078,24.852,27.078z"
			/>
	</g>
	<g>
		<path fill="#F96311" d="M37.217,41.804c-1.073,0.113-2.035-0.666-2.147-1.739c-0.113-1.073,0.665-2.035,1.739-2.147
			c1.073-0.113,2.035,0.665,2.148,1.738C39.069,40.73,38.29,41.691,37.217,41.804z M42.422,41.021
			c0.119-0.557,0.155-1.142,0.093-1.738c-0.003-0.027-0.007-0.053-0.011-0.078l-1.328-0.365c-0.073-0.299-0.176-0.584-0.307-0.854
			l0.789-1.129c-0.334-0.515-0.749-0.968-1.227-1.344l-1.197,0.682c-0.258-0.156-0.532-0.286-0.819-0.386l-0.241-1.357
			c-0.558-0.119-1.142-0.155-1.739-0.093c-0.026,0.003-0.053,0.008-0.078,0.01l-0.365,1.329c-0.299,0.073-0.584,0.176-0.853,0.306
			l-1.13-0.787c-0.514,0.333-0.968,0.748-1.343,1.226l0.681,1.197c-0.156,0.258-0.286,0.532-0.386,0.819l-1.356,0.241
			c-0.12,0.558-0.156,1.142-0.093,1.739c0.002,0.026,0.007,0.053,0.01,0.078l1.328,0.365c0.073,0.299,0.176,0.584,0.307,0.853
			l-0.789,1.13c0.334,0.514,0.749,0.967,1.227,1.343l1.197-0.681c0.258,0.156,0.532,0.285,0.82,0.385l0.241,1.357
			c0.557,0.119,1.142,0.156,1.738,0.094c0.026-0.004,0.052-0.008,0.078-0.011l0.365-1.329c0.299-0.072,0.584-0.176,0.854-0.306
			l1.129,0.788c0.515-0.334,0.968-0.749,1.344-1.227l-0.682-1.197c0.156-0.257,0.286-0.531,0.386-0.818L42.422,41.021z"/>
	</g>
	<g>
		<path fill="#FFFFFF" d="M30.111,35.642h-7.314c-0.276,0-0.5-0.225-0.5-0.5c0-0.277,0.224-0.5,0.5-0.5h7.314
			c0.276,0,0.5,0.223,0.5,0.5C30.611,35.417,30.388,35.642,30.111,35.642z"/>
	</g>
	<g>
		<path fill="#FFFFFF" d="M28.152,38.454h-3.355c-0.276,0-0.5-0.224-0.5-0.5s0.224-0.5,0.5-0.5h3.355c0.276,0,0.5,0.224,0.5,0.5
			S28.429,38.454,28.152,38.454z"/>
	</g>
</g>
</svg>
