<?xml version="1.0" encoding="utf-8"?>
<!-- Generator: Adobe Illustrator 16.0.0, SVG Export Plug-In . SVG Version: 6.00 Build 0)  -->
<!DOCTYPE svg PUBLIC "-//W3C//DTD SVG 1.1//EN" "http://www.w3.org/Graphics/SVG/1.1/DTD/svg11.dtd">
<svg version="1.1" id="Layer_1" xmlns="http://www.w3.org/2000/svg" xmlns:xlink="http://www.w3.org/1999/xlink" x="0px" y="0px"
	 width="38px" height="38px" viewBox="11 11 38 38" enable-background="new 11 11 38 38" xml:space="preserve">
<g>
	<g>
		<path fill="#FFFFFF" d="M36.185,44H17.5c-0.418,0-0.765-0.144-1.061-0.439C16.144,43.265,16,42.918,16,42.5v-25
			c0-0.418,0.144-0.765,0.439-1.061C16.735,16.144,17.082,16,17.5,16h20c0.418,0,0.766,0.144,1.061,0.439
			C38.856,16.735,39,17.082,39,17.5v13h1v-13c0-0.688-0.246-1.282-0.732-1.768C38.782,15.247,38.188,15,37.5,15h-20
			c-0.687,0-1.282,0.247-1.768,0.732C15.246,16.218,15,16.813,15,17.5v25c0,0.688,0.246,1.281,0.732,1.768
			C16.218,44.754,16.813,45,17.5,45h20c0.629,0,1.176-0.217,1.637-0.623H36.25C36.24,44.248,36.215,44.123,36.185,44z"/>
		<path fill="#FFFFFF" d="M20.908,22.5h7.963c0.276,0,0.5-0.224,0.5-0.5s-0.224-0.5-0.5-0.5h-7.963c-0.276,0-0.5,0.224-0.5,0.5
			S20.632,22.5,20.908,22.5z"/>
		<path fill="#FFFFFF" d="M34.908,21.5h-3.963c-0.276,0-0.5,0.224-0.5,0.5s0.224,0.5,0.5,0.5h3.963c0.276,0,0.5-0.224,0.5-0.5
			S35.185,21.5,34.908,21.5z"/>
		<path fill="#FFFFFF" d="M34.908,23.987h-14c-0.276,0-0.5,0.224-0.5,0.5s0.224,0.5,0.5,0.5h14c0.276,0,0.5-0.224,0.5-0.5
			S35.185,23.987,34.908,23.987z"/>
		<path fill="#FFFFFF" d="M20.919,27.5h3.952c0.276,0,0.5-0.224,0.5-0.5s-0.224-0.5-0.5-0.5h-3.952c-0.276,0-0.5,0.224-0.5,0.5
			S20.643,27.5,20.919,27.5z"/>
		<path fill="#FFFFFF" d="M30.894,26.5h-3.952c-0.276,0-0.5,0.224-0.5,0.5s0.224,0.5,0.5,0.5h3.952c0.276,0,0.5-0.224,0.5-0.5
			S31.17,26.5,30.894,26.5z"/>
		<path fill="#FFFFFF" d="M34.908,26.5h-2c-0.276,0-0.5,0.224-0.5,0.5s0.224,0.5,0.5,0.5h2c0.276,0,0.5-0.224,0.5-0.5
			S35.185,26.5,34.908,26.5z"/>
		<path fill="#FFFFFF" d="M26.908,37.453c-0.276,0-0.5,0.225-0.5,0.5c0,0.277,0.224,0.5,0.5,0.5h6.939v-1H26.908z"/>
		<path fill="#FFFFFF" d="M20.871,38.453h3.963c0.276,0,0.5-0.223,0.5-0.5c0-0.275-0.224-0.5-0.5-0.5h-3.963
			c-0.276,0-0.5,0.225-0.5,0.5C20.371,38.23,20.595,38.453,20.871,38.453z"/>
		<path fill="#FFFFFF" d="M20.871,34.967c-0.276,0-0.5,0.224-0.5,0.5s0.224,0.5,0.5,0.5h12.977v-1H20.871z"/>
		<path fill="#FFFFFF" d="M35.077,32.508c-0.066-0.032-0.138-0.055-0.217-0.055h-3.952c-0.276,0-0.5,0.225-0.5,0.5
			c0,0.277,0.224,0.5,0.5,0.5h2.939v-0.555C34.301,32.873,34.717,32.729,35.077,32.508z"/>
		<path fill="#FFFFFF" d="M28.838,32.453h-3.952c-0.276,0-0.5,0.225-0.5,0.5c0,0.277,0.224,0.5,0.5,0.5h3.952
			c0.276,0,0.5-0.223,0.5-0.5C29.338,32.678,29.114,32.453,28.838,32.453z"/>
		<path fill="#FFFFFF" d="M22.871,32.453h-2c-0.276,0-0.5,0.225-0.5,0.5c0,0.277,0.224,0.5,0.5,0.5h2c0.276,0,0.5-0.223,0.5-0.5
			C23.371,32.678,23.147,32.453,22.871,32.453z"/>
	</g>
	<g>
		<path fill="#F96311" d="M35.689,30h7.078c-0.041,0.153-0.07,0.311-0.07,0.477c0,1.063,0.924,1.926,2.063,1.926
			c0.082,0,0.159-0.014,0.239-0.021v10.256l-0.037,0.007c-0.068-0.007-0.133-0.019-0.202-0.019c-1.14,0-2.063,0.862-2.063,1.926
			c0,0.112,0.015,0.219,0.034,0.326h-7.01c0.02-0.107,0.035-0.214,0.035-0.326c0-1.063-0.925-1.926-2.064-1.926
			c-0.08,0-0.155,0.013-0.232,0.021c-0.039-0.002-0.072-0.008-0.112-0.01V32.371c0.113,0.018,0.227,0.031,0.345,0.031
			c1.14,0,2.064-0.862,2.064-1.926c0-0.162-0.028-0.316-0.068-0.467L35.689,30z M36.707,31c-0.221,1.16-1.159,2.085-2.359,2.336
			v8.355c1.147,0.24,2.057,1.096,2.326,2.186h5.105c0.262-1.057,1.123-1.893,2.221-2.161v-8.404
			c-1.149-0.282-2.04-1.186-2.254-2.312H36.707"/>
	</g>
	<g>
		<path fill="#F96311" d="M41.209,39.426h-3.993c-0.276,0-0.5-0.224-0.5-0.5s0.224-0.5,0.5-0.5h3.993c0.276,0,0.5,0.224,0.5,0.5
			S41.485,39.426,41.209,39.426z"/>
	</g>
	<g>
		<path fill="#F96311" d="M41.209,37.046h-3.993c-0.276,0-0.5-0.224-0.5-0.5s0.224-0.5,0.5-0.5h3.993c0.276,0,0.5,0.224,0.5,0.5
			S41.485,37.046,41.209,37.046z"/>
	</g>
</g>
</svg>
