<?xml version="1.0" encoding="utf-8"?>
<!-- Generator: Adobe Illustrator 16.0.0, SVG Export Plug-In . SVG Version: 6.00 Build 0)  -->
<!DOCTYPE svg PUBLIC "-//W3C//DTD SVG 1.1//EN" "http://www.w3.org/Graphics/SVG/1.1/DTD/svg11.dtd">
<svg version="1.1" id="Layer_1" xmlns="http://www.w3.org/2000/svg" xmlns:xlink="http://www.w3.org/1999/xlink" x="0px" y="0px"
	 width="38px" height="38px" viewBox="0 0 38 38" enable-background="new 0 0 38 38" xml:space="preserve">
<g>
	<g>
		<g>
			<path fill="#FFFFFF" d="M18.999,25.73l3.491,3.491l-3.491,3.491l-3.491-3.491L18.999,25.73 M18.999,24.443l-4.778,4.778
				L18.999,34l4.779-4.778L18.999,24.443L18.999,24.443z"/>
		</g>
	</g>
	<g>
		<path fill="#FFFFFF" d="M22.185,4.911v6.371h-6.371V4.911H22.185 M23.096,4h-8.192v8.191h8.192V4L23.096,4z"/>
	</g>
	<g>
		<path fill="#FFFFFF" d="M7.299,16.611c0.851,0,1.651,0.331,2.253,0.933s0.933,1.402,0.933,2.253c0,0.852-0.331,1.65-0.933,2.253
			C8.95,22.65,8.15,22.981,7.299,22.981c-0.851,0-1.65-0.331-2.252-0.932c-0.602-0.603-0.933-1.401-0.933-2.253
			c0-0.851,0.331-1.651,0.933-2.253C5.649,16.942,6.449,16.611,7.299,16.611 M7.299,15.701c-1.048,0-2.096,0.399-2.896,1.199
			c-1.599,1.6-1.599,4.192,0,5.792c0.8,0.801,1.848,1.2,2.896,1.2c1.048,0,2.097-0.399,2.896-1.2c1.6-1.6,1.6-4.192,0-5.792
			C9.396,16.101,8.348,15.701,7.299,15.701L7.299,15.701z"/>
	</g>
	<g>
		<path fill="#FFFFFF" d="M30.7,16.611c0.851,0,1.65,0.332,2.252,0.933c1.242,1.242,1.242,3.264,0,4.506
			c-0.601,0.601-1.401,0.932-2.252,0.932s-1.651-0.331-2.253-0.932c-0.602-0.603-0.933-1.401-0.933-2.253s0.331-1.651,0.934-2.253
			C29.049,16.942,29.85,16.611,30.7,16.611 M30.7,15.701c-1.048,0-2.097,0.4-2.896,1.199c-1.6,1.6-1.6,4.193,0,5.792
			c0.8,0.801,1.849,1.2,2.896,1.2s2.096-0.399,2.896-1.2c1.599-1.6,1.599-4.193-0.001-5.792
			C32.796,16.101,31.748,15.701,30.7,15.701L30.7,15.701z"/>
	</g>
	<g>
		<path fill="#F96311" d="M22.834,26.862c-0.178,0-0.34-0.103-0.413-0.265c-0.08-0.174-0.043-0.377,0.091-0.512l3.187-3.186
			c0.178-0.179,0.465-0.179,0.644,0c0.177,0.177,0.177,0.466,0,0.643l-2.322,2.322l1.444-0.105c0.247-0.013,0.469,0.171,0.486,0.422
			c0.019,0.25-0.17,0.468-0.421,0.487l-2.662,0.193C22.855,26.862,22.845,26.862,22.834,26.862z"/>
	</g>
	<g>
		<path fill="#F96311" d="M15.085,26.862c-0.116,0-0.233-0.044-0.322-0.133l-2.321-2.322l0.105,1.443
			c0.018,0.252-0.171,0.47-0.421,0.487c-0.248,0.018-0.469-0.171-0.487-0.421l-0.193-2.663c-0.014-0.188,0.092-0.366,0.265-0.446
			c0.174-0.079,0.377-0.042,0.511,0.093l3.186,3.186c0.177,0.178,0.177,0.467,0,0.644C15.318,26.818,15.201,26.862,15.085,26.862z"
			/>
	</g>
	<g>
		<path fill="#F96311" d="M11.038,16.763c-0.116,0-0.233-0.045-0.322-0.134c-0.178-0.178-0.178-0.465,0-0.644l2.322-2.321
			l-1.444,0.104c-0.246,0.016-0.468-0.17-0.487-0.421c-0.018-0.251,0.17-0.469,0.421-0.487l2.662-0.193
			c0.188-0.012,0.367,0.092,0.447,0.265c0.079,0.172,0.042,0.376-0.093,0.511l-3.185,3.186
			C11.271,16.718,11.155,16.763,11.038,16.763z"/>
	</g>
	<g>
		<path fill="#F96311" d="M27.096,16.763c-0.119,0-0.235-0.046-0.322-0.134l-3.186-3.186c-0.178-0.178-0.178-0.466,0-0.644
			s0.466-0.178,0.643,0l2.322,2.321l-0.104-1.443c-0.018-0.25,0.171-0.468,0.421-0.487c0.248-0.015,0.469,0.17,0.487,0.421
			l0.193,2.663c0.013,0.19-0.093,0.368-0.265,0.447C27.224,16.749,27.159,16.763,27.096,16.763z"/>
	</g>
</g>
</svg>
