<?xml version="1.0" encoding="utf-8"?>
<!-- Generator: Adobe Illustrator 16.0.0, SVG Export Plug-In . SVG Version: 6.00 Build 0)  -->
<!DOCTYPE svg PUBLIC "-//W3C//DTD SVG 1.1//EN" "http://www.w3.org/Graphics/SVG/1.1/DTD/svg11.dtd">
<svg version="1.1" id="flag-icon-css-ag" xmlns="http://www.w3.org/2000/svg" xmlns:xlink="http://www.w3.org/1999/xlink" x="0px"
	 y="0px" width="512px" height="512px" viewBox="0 0 512 512" enable-background="new 0 0 512 512" xml:space="preserve">
<rect x="100" fill="#F15C24" width="412" height="512"/>
<g>
	<g>
		<g>
			<path fill="#FFFFFF" d="M409.12,127.046c-24.246-10.865-53.804-5.101-74.027,14.702c-15.313,14.997-30.381,30.247-45.539,45.386
				c-0.681,0.681-1.211,1.479-2.089,2.586c14.812-2.828,27.887-0.301,40.661,6.961l0,0c5.462,19.904,23.92,34.245,45.564,34.245
				c1.572,0,3.125-0.068,4.648-0.216c-10.336,10.369-20.704,20.717-31.062,31.06c-5.574,5.552-12.381,8.956-20.237,9.82
				c-9.294,1.03-17.404-1.467-24.412-7.974c-7.138-6.69-17.941-6.189-24.27,0.634c-6.558,7.045-6.304,17.333,0.989,24.156
				c3.741,3.499,7.899,6.813,12.337,9.356c25.133,14.468,57.379,9.605,79.405-12.03c18.03-17.668,35.957-35.457,53.734-53.403
				c3.9-3.92,7.423-8.389,10.369-13.102C456.189,185.466,444.02,142.693,409.12,127.046z"/>
			<g>
				<path fill="none" d="M224.469,300.252c-0.892,0.898-1.778,1.774-2.649,2.672c-8.733,8.738-13.439,19.039-10.885,31.458
					c3.43,16.636,20.621,26.175,37.005,20.223c2.123-0.771,4.189-1.848,6.211-2.985"/>
				<path fill="#FFFFFF" d="M332.786,324.264c0.667-0.655,1.224-1.435,1.857-2.175c-14.75,3.114-28.322,0.898-41.396-6.521
					c-0.846,0.811-1.854,1.709-2.815,2.648c-2.036,2.038-4.058,4.096-6.094,6.153l17.673,30.585
					C312.274,344.748,322.538,334.5,332.786,324.264z"/>
				<path fill="#FFFFFF" d="M243.766,280.895l-17.713-30.619c-3.181,3.162-6.339,6.365-9.51,9.546l17.693,30.626
					C237.415,287.252,240.59,284.059,243.766,280.895z"/>
				<path fill="#FFFFFF" d="M264.922,343.493l17.581,30.436c1.63-1.32,3.214-2.734,4.744-4.254c1.666-1.636,3.317-3.301,4.976-4.981
					l-17.632-30.487C271.416,337.371,268.203,340.494,264.922,343.493z"/>
			</g>
			<g>
				<path fill="#FFFFFF" d="M342.854,224.141c-4.761-4.385-10.088-8.475-15.813-11.43c-25.02-12.849-55.825-7.039-77.464,14.285
					c-4.576,4.51-9.123,9.038-13.685,13.556l17.643,30.511c6.279-6.317,12.557-12.597,18.848-18.892
					c14.902-14.924,31.112-15.852,47.616-2.872c7.293,5.715,17.594,4.86,23.662-1.936
					C349.709,240.525,349.709,230.451,342.854,224.141z"/>
				<path fill="#FFFFFF" d="M254.15,351.619c-2.021,1.138-4.088,2.215-6.211,2.985c-16.384,5.952-33.575-3.587-37.005-20.223
					c-2.555-12.419,2.151-22.72,10.885-31.458c0.871-0.897,1.758-1.773,2.649-2.672l-17.687-30.589
					c-3.115,3.156-6.254,6.275-9.358,9.431c-4.802,4.925-9.154,10.574-12.538,16.579c-3.798,6.733-6.283,13.752-7.607,20.844
					c-0.017-0.032,0.152-0.623,0.132-0.675c0,0.138-0.176,0.834-0.176,0.948c-3.027,16.707,0.64,33.583,9.848,46.997l-0.519,1.393
					l-28.388,23.492l51.771-4.972c0.99,0.528,2.003,1.014,3.038,1.447c18.703,8.189,40.242,6.573,58.472-3.6L254.15,351.619z"/>
			</g>
		</g>
		<path fill="#FFFFFF" d="M145.49,130.424c0,0,104.587,2.111,112.106,100.877C257.597,231.301,161.981,243.845,145.49,130.424z"/>
		<path fill="#FFFFFF" d="M354.42,287.584c0,0,104.565,2.094,112.09,100.846C466.51,388.43,370.889,400.988,354.42,287.584z"/>
	</g>
</g>
</svg>
